<svg width="667" height="248" viewBox="0 0 667 248" fill="none" xmlns="http://www.w3.org/2000/svg">
<path d="M301.915 3.01208C301.886 3.00408 301.856 3.00104 301.827 2.99304C301.827 3.00904 301.839 3.01603 301.84 3.03503L301.915 3.01208Z" fill="#F45353"/>
<path d="M384.015 170.704C384.089 168.038 383.822 165.373 383.221 162.774C383.059 165.443 383.327 168.12 384.015 170.704Z" fill="#F45353"/>
<path d="M301.538 2.92909C301.638 2.95409 301.732 2.96704 301.827 2.99304C301.795 2.83104 301.672 2.83309 301.538 2.92909Z" fill="#F45353"/>
<path d="M303.338 9.28202L303.268 9.40702C302.251 7.63049 301.547 5.69273 301.185 3.67801C301.176 3.53352 301.203 3.38911 301.265 3.25815C301.327 3.12719 301.421 3.01401 301.538 2.92909C299.557 2.43739 297.492 2.38491 295.488 2.77549C293.484 3.16606 291.59 3.99018 289.938 5.19004C288.931 5.86993 288.122 6.80511 287.595 7.9C286.902 9.531 287.216 11.387 287.249 13.159C287.506 26.722 271.313 36.041 270.749 49.594C270.645 50.3447 270.705 51.1091 270.925 51.8343C271.146 52.5594 271.521 53.2281 272.025 53.794C274.066 55.626 277.942 55.572 280.479 55.894L290.512 57.166C291.163 57.1983 291.798 57.3829 292.365 57.7051C292.643 57.8742 292.855 58.1334 292.965 58.4396C293.075 58.7458 293.077 59.0805 292.971 59.388C294.083 59.328 297.571 58.7401 298.215 59.5931C298.902 60.5061 298.448 64.048 298.472 65.214C298.55 68.976 298.44 72.735 298.142 76.491C297.837 80.3317 297.336 84.1543 296.642 87.944C296.303 89.7953 295.918 91.6364 295.487 93.467C295.15 94.898 294.977 97.467 294.13 98.667C297.685 93.637 301.371 88.247 301.71 82.097C302.01 76.591 299.67 71.3811 299.51 65.9161C299.471 64.5901 299.272 60.05 301.41 60.471C303.849 60.953 303.163 64.5881 303.148 66.2231C303.166 67.4335 303.272 68.6409 303.465 69.836L303.981 73.6011C304.015 73.8511 304.091 74.151 304.333 74.219C304.889 71.7427 305.244 69.2256 305.395 66.6921C305.543 64.1476 305.073 61.605 304.024 59.282C303.872 58.8974 303.613 58.5643 303.278 58.3221C303.107 58.2076 302.9 58.1594 302.696 58.1865C302.492 58.2136 302.305 58.314 302.17 58.469C300.98 60.207 302.47 61.342 303.925 61.531C305.548 61.742 307.192 61.736 308.825 61.808C311.825 61.941 315.125 62.229 317.275 64.597C318.845 66.328 319.363 68.747 319.708 71.057C321.528 83.3494 320.171 95.9032 315.764 107.522C315.434 108.69 314.764 109.734 313.841 110.522C312.89 111.19 311.624 111.307 310.709 112.022C308.531 113.727 309.729 117.144 309.532 119.902C309.249 123.877 305.809 126.758 302.875 129.454C299.941 132.15 297.053 135.971 298.275 139.766L301.238 141.456C300.698 141.775 300.238 142.214 299.895 142.738C299.552 143.263 299.333 143.86 299.258 144.483C299.182 145.105 299.25 145.737 299.457 146.329C299.665 146.921 300.005 147.457 300.453 147.896C300.901 148.335 301.443 148.666 302.039 148.862C302.635 149.058 303.268 149.114 303.889 149.026C304.51 148.938 305.102 148.709 305.621 148.355C306.139 148.002 306.569 147.534 306.877 146.988C306.57 149.337 306.262 151.686 305.955 154.036C309.053 151.196 312.899 149.303 317.039 148.58C317.825 148.39 318.648 148.406 319.426 148.627C320.675 149.079 321.377 150.373 321.963 151.565C327.302 162.444 332.208 173.522 336.682 184.799C337.716 183.032 338.752 181.265 339.791 179.499C346.027 168.944 352.518 158.544 359.263 148.299C359.074 148.948 359.142 149.646 359.455 150.245C359.768 150.845 360.301 151.3 360.942 151.516C362.795 148.284 368.942 150.102 368.735 153.816C370.761 151.818 373.329 150.458 376.121 149.905C374.209 152.743 378.353 155.567 380.702 158.055C381.918 159.393 382.782 161.012 383.217 162.766C383.378 159.824 384.058 156.933 385.226 154.227L391.618 153.141L393.607 150.932C395.577 152.261 398.352 151.565 400.207 150.086C400.781 149.687 401.218 149.12 401.459 148.464C401.789 147.325 401.106 146.164 400.489 145.153C397.104 139.596 394.879 133.38 391.315 127.936C387.751 122.492 382.335 117.67 375.846 117.197C373.494 117.025 370.756 117.297 369.172 115.547C368.03 114.287 367.951 112.412 368.022 110.712C368.369 102.639 370.655 94.7686 374.689 87.767C378.931 89.9862 382.291 93.5836 384.216 97.967C385.601 101.148 386.237 104.751 388.466 107.409C390.695 110.067 395.479 111.043 397.395 108.15C400.169 113.296 404.303 117.582 409.346 120.539C406.071 122.849 407.846 127.988 410.075 131.317C415.053 138.739 420.894 145.545 427.475 151.591C428.637 152.746 429.955 153.732 431.39 154.522C433.556 155.449 435.881 155.948 438.236 155.991C449.045 156.814 459.904 156.722 470.698 155.716C456.655 138.618 439.516 124.32 420.178 113.568C419.255 112.971 418.216 112.578 417.129 112.415C415.841 112.471 414.564 112.686 413.329 113.056C410.429 113.549 406.26 107.148 403.829 105.495C394.569 99.195 393.178 92.224 390.757 81.29C390.314 79.29 389.826 77.302 389.257 75.334C387.374 68.775 384.603 61.956 379.394 57.318C378.208 56.1803 376.823 55.2708 375.308 54.635C373.708 54.035 372.382 53.1011 370.845 52.3561C367.297 50.6361 363.392 49.856 359.699 48.525C359.511 48.4724 359.338 48.3793 359.19 48.252C359.02 48.0509 358.919 47.8007 358.901 47.538C358.778 46.6771 358.846 45.7998 359.098 44.9678C359.351 44.1358 359.783 43.3692 360.364 42.722C362.225 40.678 365.476 39.975 366.664 37.478C366.97 36.6465 367.231 35.7989 367.445 34.939C367.556 34.5088 367.766 34.1106 368.058 33.7765C368.351 33.4423 368.718 33.1815 369.13 33.015C369.486 32.9151 369.871 32.915 370.219 32.789C370.558 32.6125 370.853 32.3617 371.082 32.0555C371.311 31.7492 371.468 31.3953 371.541 31.0201C371.897 29.6682 372.092 28.2787 372.12 26.881C372.251 25.9995 372.133 25.099 371.779 24.281C371.683 24.0839 371.549 23.9077 371.384 23.7626C371.22 23.6175 371.028 23.5065 370.821 23.4358C370.613 23.3652 370.394 23.3363 370.175 23.3509C369.956 23.3655 369.742 23.4234 369.546 23.521C369.428 20.8117 369.186 18.1117 368.821 15.4211C368.521 13.2211 368.086 10.909 366.634 9.22702C365.778 8.33186 364.792 7.57006 363.71 6.96701C359.457 4.31201 355.283 2.55706 350.205 3.59806C345.817 4.49806 342.962 6.93404 340.052 10.13C337.068 13.407 337.059 17.7141 337.22 21.9681C336.19 21.975 335.738 23.268 335.681 24.3C335.607 25.6459 335.711 26.9958 335.993 28.314C336.032 28.7809 336.187 29.2307 336.443 29.6225C336.7 30.0142 337.051 30.3355 337.464 30.557C337.829 30.684 338.233 30.668 338.596 30.801C339.552 31.151 339.856 32.322 340.082 33.314C340.368 34.7963 340.92 36.2144 341.713 37.4991C342.813 39.1561 344.162 41.799 343.04 43.846C342.37 45.072 338.415 44.314 337.249 43.982C335.444 43.3812 333.8 42.3775 332.441 41.047C329.599 38.488 327.478 35.167 324.476 32.785C323.518 32.025 322.502 31.336 321.598 30.514C320.638 29.641 319.816 28.628 318.927 27.683C314.62 23.107 308.827 20.213 304.137 16.037C303.682 15.706 303.347 15.235 303.185 14.696C303.285 15.237 306.821 11.996 307.048 11.659C307.839 10.484 309.386 8.54903 308.299 7.13303C307.915 6.73861 307.402 6.49429 306.854 6.44406C306.305 6.39384 305.757 6.54101 305.307 6.85904C304.459 7.39404 303.958 9.19305 303.243 9.51505C301.976 10.084 302.697 7.41504 302.866 6.80204C303.071 6.15853 303.132 5.47761 303.043 4.80802C302.996 4.47451 302.872 4.15653 302.681 3.87894C302.49 3.60135 302.237 3.37173 301.943 3.20804C301.642 3.05662 301.298 3.01452 300.97 3.08896C300.641 3.1634 300.349 3.3497 300.143 3.616L303.338 9.28202ZM317.818 43.54C315.992 43.907 314.138 44.1211 312.276 44.18C310.973 44.0579 309.659 44.0914 308.364 44.28C307.24 44.544 306.239 45.18 305.145 45.542C304.614 45.7711 304.032 45.8577 303.458 45.7934C302.883 45.729 302.335 45.5159 301.868 45.175C301.654 44.975 301.483 44.739 301.276 44.535C300.164 43.435 298.37 43.577 296.822 43.793C295.742 43.944 294.522 44.185 293.958 45.121C292.517 44.921 288.224 45.532 287.532 43.956C287.396 43.5073 287.414 43.0258 287.585 42.589C288.785 38.1577 289.981 33.7263 291.174 29.295C291.553 27.1301 292.66 25.1595 294.311 23.709C296.249 21.717 297.704 18.696 300.438 20.148C303.123 21.7519 305.671 23.5737 308.058 25.595C312.858 29.295 317.124 33.441 321.531 37.571C322.331 38.394 326.374 42.146 325.788 43.456C325.473 44.156 323.431 43.2821 322.688 43.2181C321.524 43.1353 320.354 43.1768 319.199 43.342C318.738 43.403 318.282 43.472 317.823 43.545L317.818 43.54Z" fill="#F45353"/>
<path d="M385.671 198.12C386.012 205.082 386.706 212.288 383.846 218.813C379.575 228.557 368.313 234.695 357.125 238.779C326.024 249.865 292.192 250.708 260.577 241.185C257.317 240.185 253.93 238.96 251.877 236.574C247.933 232 250.529 225.574 253.331 220.421C266.336 196.544 281.078 173.656 297.438 151.94C302.186 145.629 307.338 139.183 314.913 135.399C321.128 132.299 328.447 131.261 335.619 130.755C351.58 129.63 382.283 127.198 388.88 142.955C394.903 157.341 384.91 182.59 385.671 198.12Z" fill="#F45353"/>
<path d="M289.251 72.367C288.597 73.4314 288.007 74.5333 287.483 75.667C287.224 76.2369 287.086 76.8542 287.078 77.4801C287.07 78.1059 287.192 78.7267 287.436 79.303C287.967 76.8912 288.803 74.5568 289.924 72.3561C290.534 71.1561 291.224 70.001 291.756 68.764C292.388 67.148 292.875 65.4791 293.212 63.777C293.403 62.94 295.155 57.747 294.618 57.239C293.549 56.227 292.645 60.45 292.518 60.939C291.575 64.781 291.138 68.83 289.251 72.367Z" fill="#F45353"/>
<path d="M344.892 6.01801C348.153 4.00201 351.892 1.89502 355.699 2.68702C357.198 3.07677 358.627 3.69683 359.936 4.52503C362.43 5.81854 364.769 7.39235 366.907 9.21601C369.016 11.0058 370.442 13.4684 370.946 16.1881L374.597 15.7451C375.198 15.6178 375.822 15.6522 376.406 15.845C376.961 16.09 377.344 16.775 377.019 17.265C376.86 17.4663 376.654 17.6251 376.419 17.7271C372.567 19.6006 368.261 20.3367 364.006 19.8491C359.776 19.3604 355.638 18.2679 351.718 16.605C350.532 16.134 349.357 15.6371 348.184 15.1411" fill="#F45353"/>
<path d="M351.109 4.27108C351.109 4.27108 350.626 0.0930839 353.072 0.500084C355.518 0.907084 356.562 4.27108 356.562 4.27108H351.109Z" fill="#F45353"/>
<path d="M392.336 89.9461L397.983 92.6551L399.383 95.7051L400.312 98.0359V101.22L397.982 103.55L393.965 102.15L390.744 95.7081L389.55 92.658L392.336 89.9461Z" fill="#F45353"/>
<path d="M319.551 117.808C320.78 120.437 317.751 123.253 314.866 123.608C311.981 123.963 309.028 123.013 306.184 123.589C303.093 124.215 300.654 126.523 297.837 127.941C294.323 129.711 290.289 130.064 286.365 130.361C279.637 130.87 272.904 131.303 266.165 131.661C264.747 131.869 263.3 131.666 261.994 131.077C260.76 130.365 260.037 128.584 260.923 127.468C274.791 130.247 289.195 128.072 301.623 121.32C297.723 118.232 291.73 122.645 287.108 120.804C284.74 119.861 283.317 117.504 281.679 115.551C280.041 113.598 277.507 111.828 275.106 112.683C276.406 113.695 275.706 115.956 274.282 116.783C272.858 117.61 271.109 117.491 269.465 117.539C267.134 117.608 264.83 118.058 262.644 118.872C261.252 119.391 259.795 120.072 258.344 119.752C256.893 119.432 255.775 117.493 256.816 116.432C257.706 115.525 259.203 116.02 260.439 116.317C261.797 116.631 263.21 116.626 264.566 116.302C265.922 115.978 267.184 115.345 268.254 114.451C268.656 114.163 268.949 113.747 269.082 113.27C269.355 111.794 267.2 111.259 265.706 111.413C259.427 112.06 253.205 113.182 247.095 114.767C247.298 115.563 247.327 116.393 247.181 117.201C247.035 118.009 246.716 118.776 246.247 119.45C245.748 120.101 245.019 120.535 244.21 120.664C243.4 120.793 242.572 120.606 241.896 120.142C240.571 119.014 240.811 116.773 241.931 115.442C243.171 114.21 244.711 113.32 246.398 112.861C253.574 110.238 261.363 107.585 268.693 109.742C270.06 110.266 271.484 110.626 272.935 110.815C274.069 110.87 275.194 110.609 276.328 110.574C282.406 110.387 286.938 116.434 292.892 117.674C296.564 118.232 300.318 117.794 303.763 116.406C306.663 115.25 308.812 112.637 311.899 111.879C315.845 110.911 317.858 114.87 319.791 117.449C320.056 117.854 320.228 118.314 320.292 118.794C320.357 119.274 320.314 119.762 320.166 120.223C320.017 120.684 319.768 121.106 319.435 121.458C319.103 121.81 318.696 122.084 318.244 122.258" fill="white"/>
<path d="M455.513 160.812C455.494 160.831 455.476 160.85 455.46 160.868C452.826 163.868 459.106 171.406 462.375 170.668L448.327 173.845C447.195 174.825 448.273 176.797 449.684 177.298C451.095 177.799 452.684 177.54 454.1 178.039C455.516 178.538 456.595 180.504 455.468 181.489C454.341 182.474 452.51 181.269 451.068 181.721C449.341 182.262 449.562 184.407 450.142 185.721C451.102 187.901 454.003 188.191 456.078 188.928C456.743 189.103 457.351 189.447 457.843 189.928C458.08 190.175 458.216 190.502 458.223 190.844C458.231 191.187 458.11 191.519 457.885 191.777C457.538 192.018 457.127 192.15 456.705 192.154C454.185 192.452 451.74 193.206 449.489 194.377C448.007 194.996 446.817 196.158 446.164 197.625C445.53 199.525 446.582 201.643 448.124 202.917C449.76 204.074 451.568 204.967 453.481 205.563C455.402 206.164 457.111 207.301 458.407 208.84C458.679 209.179 458.854 209.585 458.914 210.015C458.94 210.23 458.904 210.449 458.809 210.644C458.714 210.839 458.565 211.003 458.379 211.115C457.904 211.357 457.34 211.122 456.81 211.06C452.942 210.606 453.978 216.494 455.71 218.096C457.87 220.096 461.05 221.028 462.561 223.554C462.766 223.845 462.906 224.177 462.972 224.527C463.037 224.878 463.025 225.238 462.938 225.583C462.623 226.229 462.081 226.737 461.415 227.009C456.956 229.386 451.807 230.031 446.79 230.637C420.959 233.754 394.577 236.852 369.108 231.537L388.289 223.125C389.865 222.434 391.582 221.606 392.247 220.018C393.868 216.155 387.959 212.147 389.466 208.238L402.466 205.187C405.016 204.587 408.25 202.953 407.599 200.416C406.826 197.4 400.959 196.459 402.213 193.609C402.439 193.22 402.745 192.884 403.111 192.623C403.476 192.361 403.894 192.181 404.335 192.094C408.916 190.731 414.435 192.28 418.394 189.011C418.945 188.612 419.356 188.05 419.569 187.405C419.665 187.081 419.646 186.733 419.516 186.422C419.385 186.11 419.151 185.852 418.853 185.693C418.53 185.594 418.191 185.555 417.853 185.578C416.957 185.553 416.078 185.327 415.282 184.915C414.486 184.504 413.792 183.919 413.253 183.203C413.055 182.97 412.926 182.686 412.88 182.383C412.818 181.633 413.654 181.083 414.406 181.068C415.155 181.143 415.897 181.277 416.625 181.468C417.229 181.536 417.84 181.499 418.432 181.358C419.505 181.186 420.471 180.61 421.132 179.748C421.444 179.309 421.587 178.772 421.535 178.236C421.482 177.7 421.238 177.201 420.847 176.831C420.071 176.404 419.184 176.218 418.302 176.299C417.557 176.254 416.822 176.108 416.117 175.866C415.565 175.677 414.947 175.3 414.957 174.717C414.968 174.08 415.706 173.739 416.33 173.609C419.647 172.909 426.342 175.726 427.752 171.094C427.832 170.884 427.846 170.654 427.792 170.436C427.708 170.233 427.563 170.06 427.377 169.943C426.482 169.469 425.531 169.111 424.546 168.876C423.601 168.51 422.665 167.654 422.837 166.655C424.211 166.863 425.551 167.252 426.822 167.814C427.055 167.966 427.319 168.064 427.595 168.099C427.872 168.135 428.152 168.107 428.416 168.019C428.54 167.924 428.644 167.804 428.722 167.668C428.8 167.532 428.85 167.382 428.869 167.227C428.889 167.071 428.877 166.913 428.835 166.762C428.793 166.611 428.722 166.47 428.625 166.347C428.209 165.865 427.668 165.507 427.061 165.314L425.09 164.486C424.339 164.17 423.441 163.6 423.603 162.8C423.68 162.554 423.83 162.337 424.033 162.179C424.237 162.02 424.484 161.927 424.741 161.913C425.256 161.894 425.771 161.953 426.268 162.087C427.723 162.298 429.198 162.322 430.659 162.157C431.341 162.17 432.013 161.989 432.595 161.634C432.734 161.54 432.853 161.419 432.944 161.279C433.035 161.138 433.097 160.98 433.125 160.815C433.154 160.65 433.149 160.481 433.111 160.317C433.073 160.154 433.002 160 432.903 159.865C432.579 159.538 432.026 159.478 431.777 159.091C431.462 158.602 431.877 157.924 432.412 157.701C432.972 157.544 433.553 157.473 434.134 157.489C434.425 157.493 434.712 157.416 434.962 157.267C435.212 157.117 435.416 156.901 435.55 156.643C435.281 156.364 435.003 156.09 434.759 155.793C440.151 156.24 445.803 156.061 451.239 156.074C456.818 156.088 462.397 156.008 467.976 155.835C468.889 155.805 469.802 155.772 470.715 155.735C468.16 156.926 465.128 157.378 462.43 158.151C460.47 158.712 454.255 159.644 455.362 162.799C455.616 163.422 455.998 163.984 456.484 164.45C457.246 165.253 458.092 165.971 459.009 166.591C460.443 167.561 462.082 168.324 463.135 169.698C463.282 169.858 463.369 170.063 463.38 170.28C463.353 170.796 462.663 170.933 462.147 170.935C457.882 171.124 453.656 171.827 449.56 173.029C449.086 173.093 448.648 173.318 448.32 173.666C448.038 174.048 448.172 174.739 448.642 174.803" fill="white"/>
<path d="M462.638 130.532C464.999 130.024 467.397 129.154 469.765 129.632C470.745 129.892 471.711 130.202 472.66 130.56C474.094 130.965 475.571 131.195 477.06 131.246C480.486 131.447 483.923 131.286 487.315 130.766C490.87 130.221 494.903 129.392 497.75 131.59L492.713 132.549C492.102 132.665 491.303 133.135 491.599 133.682C496.019 135.652 501.293 130.813 505.752 132.693C506.951 133.36 508.095 134.121 509.173 134.97C511.273 136.287 513.832 136.613 516.296 136.908L525.276 137.984C525.876 138.056 526.718 137.932 526.731 137.328C526.738 136.974 526.415 136.711 526.117 136.519C524.007 135.162 521.572 134.392 519.065 134.29C517.763 134.326 516.461 134.281 515.165 134.155C514.516 134.087 513.891 133.871 513.338 133.524C512.786 133.176 512.32 132.706 511.978 132.15C511.825 131.867 511.732 131.555 511.704 131.235C511.676 130.914 511.715 130.591 511.817 130.286C511.919 129.981 512.083 129.7 512.298 129.461C512.513 129.221 512.775 129.029 513.068 128.895C513.529 128.782 514.007 128.759 514.477 128.828L520.544 129.328C520.953 129.039 520.809 128.343 520.401 128.052C519.96 127.807 519.454 127.708 518.953 127.768L509.808 127.924C508.979 127.07 507.896 126.506 506.72 126.318C505.544 126.13 504.34 126.326 503.285 126.879C502.821 127.136 502.396 127.461 501.92 127.694C501.227 127.995 500.496 128.197 499.747 128.294C491.525 129.743 482.871 131.161 474.991 128.404C473.892 127.956 472.76 127.597 471.604 127.33C469.863 127.111 468.096 127.237 466.404 127.702C463.089 128.44 459.704 129.502 456.363 128.891C453.246 128.318 450.535 126.332 447.427 125.707C443.641 124.945 439.66 125.969 435.821 125.657C438.977 126.303 442.221 126.628 445.247 127.824C451.081 130.124 456.256 131.905 462.638 130.532Z" fill="white"/>
<path d="M543.838 137.005C546.317 137.395 548.844 137.361 551.311 136.905C552.628 136.736 554.128 136.452 554.799 135.305C555.47 134.158 554.113 132.273 553.046 133.064C554.058 131.291 556.676 131.822 558.678 132.227C564.111 133.327 569.678 131.616 574.955 129.927C576.135 129.549 577.585 128.742 577.327 127.527C577.189 127.128 576.913 126.792 576.549 126.577C576.186 126.363 575.758 126.285 575.342 126.357C574.513 126.527 573.729 126.87 573.042 127.364C570.595 128.876 567.836 129.809 564.974 130.094C559.293 130.553 553.548 127.839 547.996 129.127C547.616 129.164 547.251 129.297 546.936 129.513C546.621 129.73 546.367 130.022 546.196 130.364C545.755 131.764 547.875 132.815 547.855 134.284C546.092 135.214 543.896 134.795 542.112 133.906C539.212 132.462 535.24 128.246 531.801 130.044C532.95 133.434 540.605 136.306 543.838 137.005Z" fill="white"/>
<path d="M396.376 128.056C394.98 128.086 393.61 127.681 392.456 126.895C390.269 125.626 388.299 124.015 386.621 122.123C388.709 121.298 390.855 122.943 392.869 123.936C394.864 124.916 397.102 125.289 399.306 125.009C399.678 123.442 397.876 122.209 396.282 121.98C394.688 121.751 392.925 121.974 391.599 121.061C390.804 120.334 390.083 119.53 389.446 118.661C387.741 116.9 385.053 116.567 382.603 116.627C380.153 116.687 377.623 117.021 375.303 116.219C374.953 115.747 374.799 115.157 374.872 114.574C377.172 113.789 379.672 114.074 382.084 114.367L390.276 115.367C391.72 115.435 393.13 115.827 394.401 116.516C396.366 117.785 397.459 120.495 399.773 120.841C400.463 120.941 401.173 120.806 401.863 120.878C403.24 121.019 405.611 124.822 404.863 126.017C404.483 126.638 397.203 127.972 396.376 128.056Z" fill="white"/>
<path d="M590.872 144.438C584.841 144.538 578.718 145.975 572.642 146.379C565.85 146.832 558.916 145.987 552.297 147.579C551.862 147.632 551.441 147.773 551.061 147.992C550.682 148.212 550.35 148.506 550.087 148.857C548.744 151.246 554.087 150.609 555.093 150.677C557.87 150.864 560.656 150.897 563.437 150.777C564.494 150.732 573.001 149.992 577.137 149.177C577.583 148.42 578.213 147.788 578.97 147.341C579.726 146.893 580.584 146.646 581.462 146.62C582.07 146.618 582.674 146.727 583.244 146.94C583.425 146.906 583.607 146.872 583.793 146.853C586.419 146.583 589.022 146.147 591.631 145.793C591.312 145.382 591.056 144.925 590.872 144.438Z" fill="white"/>
<path d="M655.744 142.956C654.058 145.085 650.938 145.191 648.432 146.032C647.749 146.219 647.039 146.292 646.332 146.247L636.326 146.162C635.663 146.898 634.757 147.37 633.774 147.492C629.355 148.169 624.912 148.678 620.493 149.356C619.551 149.508 618.588 149.456 617.668 149.203C617.39 149.236 617.112 149.273 616.834 149.303C616.504 149.337 616.171 149.326 615.844 149.27C615.631 149.298 615.417 149.309 615.202 149.303C614.521 149.309 613.847 149.173 613.222 148.903C612.787 148.787 612.369 148.614 611.98 148.388C611.642 148.127 611.306 147.866 610.968 147.606C610.427 147.062 610.02 146.4 609.778 145.672C608.959 146.25 608.033 146.658 607.054 146.872C604.17 147.478 601.198 146.672 598.361 145.877C598.415 146.43 598.602 146.961 598.906 147.426C599.21 147.89 599.623 148.274 600.108 148.544C600.593 148.814 601.136 148.963 601.691 148.977C602.247 148.991 602.797 148.87 603.295 148.625C599.668 153.586 592.831 154.693 586.71 155.247C569.153 156.833 551.505 157.172 533.9 156.259L541.8 149.542C532.083 144.015 518.683 152.504 509.016 146.89C506.13 145.214 503.665 142.316 500.329 142.217C497.153 142.123 494.593 144.617 491.851 146.217C486.066 149.611 480.13 146.195 475.281 148.07C478.338 151.657 483.974 152.979 488.599 152.201C493.132 151.438 497.342 148.773 501.934 148.97C503.034 153.864 509.41 155.196 514.4 154.691C519.39 154.186 525.069 153.053 528.914 156.275C526.729 155.687 525.348 159.146 526.714 160.95C528.08 162.754 530.607 163.102 532.863 163.278C557.247 165.178 574.404 164.178 598.363 159.262C587.072 163.795 589.463 162.849 566.738 168.636C608.185 172.928 607.982 158.78 626.546 161.207C627.879 161.381 628.937 160.264 630.094 160.95C631.479 161.771 635.171 162.158 636.328 163.278C640.128 166.961 641.387 167.51 646.334 165.618C651.281 163.726 653.403 161.557 653.777 156.275C653.864 155.056 657.652 154.04 658.241 152.975C659.419 150.837 662.452 150.666 664.313 149.087C670.438 143.893 660.188 137.348 655.744 142.956Z" fill="white"/>
<path d="M495.852 182.829C498.647 182.013 501.481 180.215 504.246 181.129C505.593 181.736 506.824 182.571 507.886 183.598C513.339 187.892 520.786 188.339 527.722 188.606C536.479 188.943 545.289 189.277 553.973 188.106C555.373 186.793 553.888 184.242 552.001 183.898C550.114 183.554 548.273 184.515 546.48 185.198C541.504 187.098 535.98 186.93 530.712 186.124C524.745 185.209 518.924 183.511 513.401 181.073C509.901 179.528 506.45 177.665 502.654 177.219C496.738 176.519 491.383 179.464 485.597 179.84C480.329 180.183 475.958 178.409 471.026 176.885C477.327 180.921 488.448 184.992 495.852 182.829Z" fill="white"/>
<path d="M265.197 139.489C262.929 139.843 260.68 140.244 258.33 140.445C255.895 140.654 253.403 140.645 250.93 140.63L213.193 140.443C210.016 140.427 205.927 140.736 205.267 142.21C210.376 144.38 218.267 142.956 225.083 142.61C236.765 142.018 248.439 145.032 260.005 144.053C267.305 143.435 273.67 141.284 280.892 140.481C285.566 139.961 291.523 140.039 294.455 138.114C286.711 136.246 272.856 138.295 265.197 139.489Z" fill="white"/>
<path d="M507.738 165.986C509.738 166.219 510.548 167.426 508.483 167.586C510.466 167.745 512.507 167.796 514.537 167.846L560.645 168.995C545.316 170.183 529.934 170.564 514.565 170.137C510.527 170.025 506.209 169.813 503.229 168.867C502.387 168.548 501.526 168.284 500.65 168.077C497.008 167.371 491.274 168.605 488.717 167.466C488.303 167.236 487.902 166.983 487.517 166.707C483.6 164.507 472.795 166.94 469.151 164.742C473.475 164.405 486.538 162.823 490.861 163.25C494.297 163.589 493.722 164.673 496.228 165.286C500.444 166.315 503.372 165.478 507.738 165.986Z" fill="white"/>
<path d="M494.638 208.625C498.627 209.476 502.686 212.665 506.32 210.814C507.587 210.169 508.428 208.164 507.202 207.443C506.888 207.287 506.545 207.198 506.195 207.182C494.069 205.777 478.795 206.46 467.725 201.047C466.938 211.601 489.504 207.529 494.638 208.625Z" fill="white"/>
<path d="M4.18498 170.214C2.09898 179.308 11.698 156.066 56.352 154.803C101.006 153.54 121.975 166.678 144.206 166.741C166.437 166.804 185.071 155.434 200.67 154.804C216.269 154.174 242.733 166.742 242.733 166.742C242.733 166.742 261.746 168.955 246.902 162.642C232.058 156.329 221.829 148.723 200.67 150.742C179.511 152.761 165.175 163.648 144.206 162.642C123.237 161.636 73.662 143.442 53.386 147.356C33.11 151.27 6.26998 161.121 4.18498 170.214Z" fill="white"/>
<path d="M0.64092 192.103C0.54692 188.171 9.59594 179.361 44.9319 172.966C80.2679 166.571 89.2189 167.423 105.088 177.702C120.957 187.981 118.494 196.651 135.926 201.624C153.358 206.597 179.364 195.134 179.364 195.134C179.364 195.134 188.696 200.394 177.137 201.624C165.578 202.854 146.299 213.276 133.321 208.019C120.343 202.762 111.53 187.365 100.921 180.734C90.312 174.103 81.2159 169.367 44.9329 177.703C8.64991 186.039 0.641897 195.135 0.641897 195.135C0.641897 195.135 0.73492 196.035 0.64092 192.103Z" fill="white"/>
<path d="M319.551 117.808C320.78 120.437 317.751 123.253 314.866 123.608C311.981 123.963 309.028 123.013 306.184 123.589C303.093 124.215 300.654 126.523 297.837 127.941C294.323 129.711 290.289 130.064 286.365 130.361C279.637 130.87 272.904 131.303 266.165 131.661C264.747 131.869 263.3 131.666 261.994 131.077C260.76 130.365 260.037 128.584 260.923 127.468C274.791 130.247 289.195 128.072 301.623 121.32C297.723 118.232 291.73 122.645 287.108 120.804C284.74 119.861 283.317 117.504 281.679 115.551C280.041 113.598 277.507 111.828 275.106 112.683C276.406 113.695 275.706 115.956 274.282 116.783C272.858 117.61 271.109 117.491 269.465 117.539C267.134 117.608 264.83 118.058 262.644 118.872C261.252 119.391 259.795 120.072 258.344 119.752C256.893 119.432 255.775 117.493 256.816 116.432C257.706 115.525 259.203 116.02 260.439 116.317C261.797 116.631 263.21 116.626 264.566 116.302C265.922 115.978 267.184 115.345 268.254 114.451C268.656 114.163 268.949 113.747 269.082 113.27C269.355 111.794 267.2 111.259 265.706 111.413C259.427 112.06 253.205 113.182 247.095 114.767C247.298 115.563 247.327 116.393 247.181 117.201C247.035 118.009 246.716 118.776 246.247 119.45C245.748 120.101 245.019 120.535 244.21 120.664C243.4 120.793 242.572 120.606 241.896 120.142C240.571 119.014 240.811 116.773 241.931 115.442C243.171 114.21 244.711 113.32 246.398 112.861C253.574 110.238 261.363 107.585 268.693 109.742C270.06 110.266 271.484 110.626 272.935 110.815C274.069 110.87 275.194 110.609 276.328 110.574C282.406 110.387 286.938 116.434 292.892 117.674C296.564 118.232 300.318 117.794 303.763 116.406C306.663 115.25 308.812 112.637 311.899 111.879C315.845 110.911 317.858 114.87 319.791 117.449C320.056 117.854 320.228 118.314 320.292 118.794C320.357 119.274 320.314 119.762 320.166 120.223C320.017 120.684 319.768 121.106 319.435 121.458C319.103 121.81 318.696 122.084 318.244 122.258M455.513 160.812C455.494 160.831 455.476 160.85 455.46 160.868C452.826 163.868 459.106 171.406 462.375 170.668L448.327 173.845C447.195 174.825 448.273 176.797 449.684 177.298C451.095 177.799 452.684 177.54 454.1 178.039C455.516 178.538 456.595 180.504 455.468 181.489C454.341 182.474 452.51 181.269 451.068 181.721C449.341 182.262 449.562 184.407 450.142 185.721C451.102 187.901 454.003 188.191 456.078 188.928C456.743 189.103 457.351 189.447 457.843 189.928C458.08 190.175 458.216 190.502 458.223 190.844C458.231 191.187 458.11 191.519 457.885 191.777C457.538 192.018 457.127 192.15 456.705 192.154C454.185 192.452 451.74 193.206 449.489 194.377C448.007 194.996 446.817 196.158 446.164 197.625C445.53 199.525 446.582 201.643 448.124 202.917C449.76 204.074 451.568 204.967 453.481 205.563C455.402 206.164 457.111 207.301 458.407 208.84C458.679 209.179 458.854 209.585 458.914 210.015C458.94 210.23 458.904 210.449 458.809 210.644C458.714 210.839 458.565 211.003 458.379 211.115C457.904 211.357 457.34 211.122 456.81 211.06C452.942 210.606 453.978 216.494 455.71 218.096C457.87 220.096 461.05 221.028 462.561 223.554C462.766 223.845 462.906 224.177 462.972 224.527C463.037 224.878 463.025 225.238 462.938 225.583C462.623 226.229 462.081 226.737 461.415 227.009C456.956 229.386 451.807 230.031 446.79 230.637C420.959 233.754 394.577 236.852 369.108 231.537L388.289 223.125C389.865 222.434 391.582 221.606 392.247 220.018C393.868 216.155 387.959 212.147 389.466 208.238L402.466 205.187C405.016 204.587 408.25 202.953 407.599 200.416C406.826 197.4 400.959 196.459 402.213 193.609C402.439 193.22 402.745 192.884 403.111 192.623C403.476 192.361 403.894 192.181 404.335 192.094C408.916 190.731 414.435 192.28 418.394 189.011C418.945 188.612 419.356 188.05 419.569 187.405C419.665 187.081 419.646 186.733 419.516 186.422C419.385 186.11 419.151 185.852 418.853 185.693C418.53 185.594 418.191 185.555 417.853 185.578C416.957 185.553 416.078 185.327 415.282 184.915C414.486 184.504 413.792 183.919 413.253 183.203C413.055 182.97 412.926 182.686 412.88 182.383C412.818 181.633 413.654 181.083 414.406 181.068C415.155 181.143 415.897 181.277 416.625 181.468C417.229 181.536 417.84 181.499 418.432 181.358C419.505 181.186 420.471 180.61 421.132 179.748C421.444 179.309 421.587 178.772 421.535 178.236C421.482 177.7 421.238 177.201 420.847 176.831C420.071 176.404 419.184 176.218 418.302 176.299C417.557 176.254 416.822 176.108 416.117 175.866C415.565 175.677 414.947 175.3 414.957 174.717C414.968 174.08 415.706 173.739 416.33 173.609C419.647 172.909 426.342 175.726 427.752 171.094C427.832 170.884 427.846 170.654 427.792 170.436C427.708 170.233 427.563 170.06 427.377 169.943C426.482 169.469 425.531 169.111 424.546 168.876C423.601 168.51 422.665 167.654 422.837 166.655C424.211 166.863 425.551 167.252 426.822 167.814C427.055 167.966 427.319 168.064 427.595 168.099C427.872 168.135 428.152 168.107 428.416 168.019C428.54 167.924 428.644 167.804 428.722 167.668C428.8 167.532 428.85 167.382 428.869 167.227C428.889 167.071 428.877 166.913 428.835 166.762C428.793 166.611 428.722 166.47 428.625 166.347C428.209 165.865 427.668 165.507 427.061 165.314L425.09 164.486C424.339 164.17 423.441 163.6 423.603 162.8C423.68 162.554 423.83 162.337 424.033 162.179C424.237 162.02 424.484 161.927 424.741 161.913C425.256 161.894 425.771 161.953 426.268 162.087C427.723 162.298 429.198 162.322 430.659 162.157C431.341 162.17 432.013 161.989 432.595 161.634C432.734 161.54 432.853 161.419 432.944 161.279C433.035 161.138 433.097 160.98 433.125 160.815C433.154 160.65 433.149 160.481 433.111 160.317C433.073 160.154 433.002 160 432.903 159.865C432.579 159.538 432.026 159.478 431.777 159.091C431.462 158.602 431.877 157.924 432.412 157.701C432.972 157.544 433.553 157.473 434.134 157.489C434.425 157.493 434.712 157.416 434.962 157.267C435.212 157.117 435.416 156.901 435.55 156.643C435.281 156.364 435.003 156.09 434.759 155.793C440.151 156.24 445.803 156.061 451.239 156.074C456.818 156.088 462.397 156.008 467.976 155.835C468.889 155.805 469.802 155.772 470.715 155.735C468.16 156.926 465.128 157.378 462.43 158.151C460.47 158.712 454.255 159.644 455.362 162.799C455.616 163.422 455.998 163.984 456.484 164.45C457.246 165.253 458.092 165.971 459.009 166.591C460.443 167.561 462.082 168.324 463.135 169.698C463.282 169.858 463.369 170.063 463.38 170.28C463.353 170.796 462.663 170.933 462.147 170.935C457.882 171.124 453.656 171.827 449.56 173.029C449.086 173.093 448.648 173.318 448.32 173.666C448.038 174.048 448.172 174.739 448.642 174.803M462.638 130.532C464.999 130.024 467.397 129.154 469.765 129.632C470.745 129.892 471.711 130.202 472.66 130.56C474.094 130.965 475.571 131.195 477.06 131.246C480.486 131.447 483.923 131.286 487.315 130.766C490.87 130.221 494.903 129.392 497.75 131.59L492.713 132.549C492.102 132.665 491.303 133.135 491.599 133.682C496.019 135.652 501.293 130.813 505.752 132.693C506.951 133.36 508.095 134.121 509.173 134.97C511.273 136.287 513.832 136.613 516.296 136.908L525.276 137.984C525.876 138.056 526.718 137.932 526.731 137.328C526.738 136.974 526.415 136.711 526.117 136.519C524.007 135.162 521.572 134.392 519.065 134.29C517.763 134.326 516.461 134.281 515.165 134.155C514.516 134.087 513.891 133.871 513.338 133.524C512.786 133.176 512.32 132.706 511.978 132.15C511.825 131.867 511.732 131.555 511.704 131.235C511.676 130.914 511.715 130.591 511.817 130.286C511.919 129.981 512.083 129.7 512.298 129.461C512.513 129.221 512.775 129.029 513.068 128.895C513.529 128.782 514.007 128.759 514.477 128.828L520.544 129.328C520.953 129.039 520.809 128.343 520.401 128.052C519.96 127.807 519.454 127.708 518.953 127.768L509.808 127.924C508.979 127.07 507.896 126.506 506.72 126.318C505.544 126.13 504.34 126.326 503.285 126.879C502.821 127.136 502.396 127.461 501.92 127.694C501.227 127.995 500.496 128.197 499.747 128.294C491.525 129.743 482.871 131.161 474.991 128.404C473.892 127.956 472.76 127.597 471.604 127.33C469.863 127.111 468.096 127.237 466.404 127.702C463.089 128.44 459.704 129.502 456.363 128.891C453.246 128.318 450.535 126.332 447.427 125.707C443.641 124.945 439.66 125.969 435.821 125.657C438.977 126.303 442.221 126.628 445.247 127.824C451.081 130.124 456.256 131.905 462.638 130.532ZM543.838 137.005C546.317 137.395 548.844 137.361 551.311 136.905C552.628 136.736 554.128 136.452 554.799 135.305C555.47 134.158 554.113 132.273 553.046 133.064C554.058 131.291 556.676 131.822 558.678 132.227C564.111 133.327 569.678 131.616 574.955 129.927C576.135 129.549 577.585 128.742 577.327 127.527C577.189 127.128 576.913 126.792 576.549 126.577C576.186 126.363 575.758 126.285 575.342 126.357C574.513 126.527 573.729 126.87 573.042 127.364C570.595 128.876 567.836 129.809 564.974 130.094C559.293 130.553 553.548 127.839 547.996 129.127C547.616 129.164 547.251 129.297 546.936 129.513C546.621 129.73 546.367 130.022 546.196 130.364C545.755 131.764 547.875 132.815 547.855 134.284C546.092 135.214 543.896 134.795 542.112 133.906C539.212 132.462 535.24 128.246 531.801 130.044C532.95 133.434 540.605 136.306 543.838 137.005ZM396.376 128.056C394.98 128.086 393.61 127.681 392.456 126.895C390.269 125.626 388.299 124.015 386.621 122.123C388.709 121.298 390.855 122.943 392.869 123.936C394.864 124.916 397.102 125.289 399.306 125.009C399.678 123.442 397.876 122.209 396.282 121.98C394.688 121.751 392.925 121.974 391.599 121.061C390.804 120.334 390.083 119.53 389.446 118.661C387.741 116.9 385.053 116.567 382.603 116.627C380.153 116.687 377.623 117.021 375.303 116.219C374.953 115.747 374.799 115.157 374.872 114.574C377.172 113.789 379.672 114.074 382.084 114.367L390.276 115.367C391.72 115.435 393.13 115.827 394.401 116.516C396.366 117.785 397.459 120.495 399.773 120.841C400.463 120.941 401.173 120.806 401.863 120.878C403.24 121.019 405.611 124.822 404.863 126.017C404.483 126.638 397.203 127.972 396.376 128.056ZM590.872 144.438C584.841 144.538 578.718 145.975 572.642 146.379C565.85 146.832 558.916 145.987 552.297 147.579C551.861 147.632 551.441 147.773 551.061 147.992C550.682 148.212 550.35 148.506 550.087 148.857C548.744 151.246 554.087 150.609 555.093 150.677C557.87 150.864 560.656 150.897 563.437 150.777C564.494 150.732 573.001 149.992 577.137 149.177C577.583 148.42 578.213 147.788 578.97 147.341C579.726 146.893 580.584 146.646 581.462 146.62C582.07 146.618 582.674 146.727 583.244 146.94C583.425 146.906 583.607 146.872 583.793 146.853C586.419 146.583 589.022 146.147 591.631 145.793C591.312 145.382 591.056 144.925 590.872 144.438ZM655.744 142.956C654.058 145.085 650.938 145.191 648.432 146.032C647.749 146.219 647.039 146.292 646.332 146.247L636.326 146.162C635.663 146.898 634.757 147.37 633.774 147.492C629.355 148.169 624.912 148.678 620.493 149.356C619.551 149.508 618.588 149.456 617.668 149.203C617.39 149.236 617.112 149.273 616.834 149.303C616.504 149.337 616.171 149.326 615.844 149.27C615.631 149.298 615.417 149.309 615.202 149.303C614.521 149.309 613.847 149.173 613.222 148.903C612.787 148.787 612.369 148.614 611.98 148.388C611.642 148.127 611.306 147.866 610.968 147.606C610.427 147.062 610.02 146.4 609.778 145.672C608.959 146.25 608.033 146.658 607.054 146.872C604.17 147.478 601.198 146.672 598.361 145.877C598.415 146.43 598.602 146.961 598.906 147.426C599.21 147.89 599.623 148.274 600.108 148.544C600.593 148.814 601.136 148.963 601.691 148.977C602.247 148.991 602.797 148.87 603.295 148.625C599.668 153.586 592.831 154.693 586.71 155.247C569.153 156.833 551.505 157.172 533.9 156.259L541.8 149.542C532.083 144.015 518.683 152.504 509.016 146.89C506.13 145.214 503.665 142.316 500.329 142.217C497.153 142.123 494.593 144.617 491.851 146.217C486.066 149.611 480.13 146.195 475.281 148.07C478.338 151.657 483.974 152.979 488.599 152.201C493.132 151.438 497.342 148.773 501.934 148.97C503.034 153.864 509.41 155.196 514.4 154.691C519.39 154.186 525.069 153.053 528.914 156.275C526.729 155.687 525.348 159.146 526.714 160.95C528.08 162.754 530.607 163.102 532.863 163.278C557.247 165.178 574.404 164.178 598.363 159.262C587.072 163.795 589.463 162.849 566.738 168.636C608.185 172.928 607.982 158.78 626.546 161.207C627.879 161.381 628.937 160.264 630.094 160.95C631.479 161.771 635.171 162.158 636.328 163.278C640.128 166.961 641.387 167.51 646.334 165.618C651.281 163.726 653.403 161.557 653.777 156.275C653.864 155.056 657.652 154.04 658.241 152.975C659.419 150.837 662.452 150.666 664.313 149.087C670.438 143.893 660.188 137.348 655.744 142.956ZM495.852 182.829C498.647 182.013 501.481 180.215 504.246 181.129C505.593 181.736 506.824 182.571 507.886 183.598C513.339 187.892 520.786 188.339 527.722 188.606C536.479 188.943 545.289 189.277 553.973 188.106C555.373 186.793 553.888 184.242 552.001 183.898C550.114 183.554 548.273 184.515 546.48 185.198C541.504 187.098 535.98 186.93 530.712 186.124C524.745 185.209 518.924 183.511 513.401 181.073C509.901 179.528 506.45 177.665 502.654 177.219C496.738 176.519 491.383 179.464 485.597 179.84C480.329 180.183 475.958 178.409 471.026 176.885C477.327 180.921 488.448 184.992 495.852 182.829ZM265.197 139.489C262.929 139.843 260.68 140.244 258.33 140.445C255.895 140.654 253.403 140.645 250.93 140.63L213.193 140.443C210.016 140.427 205.927 140.736 205.267 142.21C210.376 144.38 218.267 142.956 225.083 142.61C236.765 142.018 248.439 145.032 260.005 144.053C267.305 143.435 273.67 141.284 280.892 140.481C285.566 139.961 291.523 140.039 294.455 138.114C286.711 136.246 272.856 138.295 265.197 139.489ZM507.738 165.986C509.738 166.219 510.548 167.426 508.483 167.586C510.466 167.745 512.507 167.796 514.537 167.846L560.645 168.995C545.316 170.183 529.934 170.564 514.565 170.137C510.527 170.025 506.209 169.813 503.229 168.867C502.387 168.548 501.526 168.284 500.65 168.077C497.008 167.371 491.274 168.605 488.717 167.466C488.303 167.236 487.902 166.983 487.517 166.707C483.6 164.507 472.795 166.94 469.151 164.742C473.475 164.405 486.538 162.823 490.861 163.25C494.297 163.589 493.722 164.673 496.228 165.286C500.444 166.315 503.372 165.478 507.738 165.986ZM494.638 208.625C498.627 209.476 502.686 212.665 506.32 210.814C507.587 210.169 508.428 208.164 507.202 207.443C506.888 207.287 506.545 207.198 506.195 207.182C494.069 205.777 478.795 206.46 467.725 201.047C466.938 211.601 489.504 207.529 494.638 208.625ZM4.18498 170.214C2.09898 179.308 11.698 156.066 56.352 154.803C101.006 153.54 121.975 166.678 144.206 166.741C166.437 166.804 185.071 155.434 200.67 154.804C216.269 154.174 242.733 166.742 242.733 166.742C242.733 166.742 261.746 168.955 246.902 162.642C232.058 156.329 221.829 148.723 200.67 150.742C179.511 152.761 165.175 163.648 144.206 162.642C123.237 161.636 73.662 143.442 53.386 147.356C33.11 151.27 6.26998 161.121 4.18498 170.214ZM0.64092 192.103C0.54692 188.171 9.59594 179.361 44.9319 172.966C80.2679 166.571 89.2189 167.423 105.088 177.702C120.957 187.981 118.494 196.651 135.926 201.624C153.358 206.597 179.364 195.134 179.364 195.134C179.364 195.134 188.696 200.394 177.137 201.624C165.578 202.854 146.299 213.276 133.321 208.019C120.343 202.762 111.53 187.365 100.921 180.734C90.312 174.103 81.2159 169.367 44.9329 177.703C8.64991 186.039 0.641897 195.135 0.641897 195.135C0.641897 195.135 0.73492 196.035 0.64092 192.103Z" stroke="white"/>
</svg>
