<svg width="998" height="436" viewBox="0 0 998 436" fill="none" xmlns="http://www.w3.org/2000/svg">
<g clip-path="url(#clip0_27_2)">
<path d="M978.098 137.453C981.476 147.295 987.361 165.225 988.267 173.169C988.33 173.708 988.256 174.254 988.053 174.757C987.85 175.26 987.524 175.705 987.105 176.049L975.486 190.049C975.025 190.428 974.678 190.926 974.483 191.49C974.287 192.053 974.252 192.66 974.38 193.243C974.508 193.825 974.794 194.361 975.208 194.791C975.622 195.221 976.146 195.528 976.723 195.678L990.03 190.489C990.821 190.695 991.504 191.193 991.943 191.883C992.382 192.572 992.543 193.402 992.394 194.206L988.931 212.971C988.841 213.466 988.635 213.933 988.331 214.334L973.885 223.272C973.509 223.77 973.284 224.366 973.239 224.989C973.194 225.611 973.33 226.234 973.63 226.781C973.931 227.328 974.384 227.776 974.934 228.072C975.483 228.367 976.107 228.497 976.729 228.446V228.446C978.571 228.295 991.948 224.302 992.009 226.146L992.463 240.069C992.484 240.69 992.325 241.304 992.006 241.837C991.687 242.371 991.221 242.8 990.663 243.075L970.995 260.312C970.461 260.575 970.01 260.981 969.691 261.484C969.373 261.988 969.2 262.569 969.191 263.165C969.182 263.76 969.338 264.347 969.641 264.859C969.944 265.372 970.383 265.791 970.909 266.07L995.933 259.693C996.403 259.943 996.804 260.304 997.1 260.746C997.397 261.187 997.58 261.695 997.633 262.224C998.533 271.042 1000.79 311.411 970.498 336.636C969.929 337.121 969.209 337.393 968.461 337.406C967.714 337.42 966.985 337.174 966.398 336.71C958.216 330.158 928.607 303.769 934.93 269.367C935.041 268.8 935.302 268.273 935.687 267.842C936.072 267.411 936.566 267.092 937.117 266.919L962.666 283.645C963.206 283.471 963.69 283.159 964.071 282.739C964.451 282.319 964.715 281.807 964.835 281.253C964.955 280.699 964.928 280.123 964.756 279.583C964.584 279.043 964.273 278.558 963.854 278.176L935.792 247C935.446 246.687 935.173 246.302 934.991 245.872C934.809 245.442 934.723 244.978 934.738 244.511C934.874 240.501 935.623 229.393 939.738 223.056C940.07 222.564 940.533 222.176 941.076 221.934C941.618 221.693 942.216 221.609 942.804 221.691L960.27 234.158C960.916 234.239 961.571 234.124 962.15 233.827C962.729 233.531 963.205 233.066 963.516 232.495C963.827 231.923 963.958 231.271 963.893 230.624C963.828 229.977 963.569 229.364 963.15 228.866L944.86 208.359C944.564 208.007 944.347 207.595 944.222 207.151C944.098 206.708 944.07 206.243 944.139 205.788L946.13 192.776C946.205 192.287 946.39 191.822 946.673 191.416C946.956 191.01 947.328 190.674 947.76 190.435C948.193 190.195 948.675 190.058 949.169 190.034C949.663 190.009 950.156 190.099 950.61 190.295L960.997 202.482C961.578 202.733 962.22 202.808 962.843 202.698C963.466 202.587 964.043 202.297 964.502 201.862C964.962 201.428 965.284 200.868 965.429 200.252C965.573 199.636 965.534 198.991 965.316 198.397L955.577 178.257C955.37 177.692 955.324 177.08 955.444 176.49L956.364 172.014C956.452 171.585 956.627 171.178 956.877 170.818C957.128 170.458 957.448 170.153 957.82 169.921C958.192 169.689 958.607 169.535 959.04 169.468C959.473 169.401 959.916 169.423 960.34 169.532L966.862 178.249C967.417 178.392 967.999 178.386 968.55 178.23C969.101 178.074 969.601 177.775 969.998 177.362C970.396 176.95 970.677 176.44 970.812 175.884C970.948 175.327 970.933 174.745 970.77 174.196L962.07 157.03C961.947 156.616 961.909 156.181 961.957 155.752C962.005 155.322 962.139 154.907 962.35 154.53L972.218 136.919C972.523 136.374 972.98 135.93 973.532 135.638C974.085 135.347 974.709 135.223 975.331 135.279C975.953 135.336 976.545 135.571 977.036 135.957C977.527 136.342 977.896 136.862 978.098 137.453V137.453Z" fill="#4E5B73"/>
<path d="M788.52 174.006C785.976 176.465 784.595 179.859 782.608 182.744C782.154 183.402 781.674 184.047 781.169 184.677C781.105 184.757 781.071 184.857 781.074 184.959C781.077 185.062 781.116 185.159 781.185 185.235C781.253 185.311 781.347 185.36 781.449 185.373C781.55 185.386 781.653 185.363 781.739 185.307C783.44 184.165 784.89 182.689 786 180.968C787.62 178.505 788.882 175.829 790.489 173.368C790.544 173.282 790.567 173.179 790.554 173.078C790.54 172.976 790.491 172.883 790.415 172.815C790.338 172.747 790.241 172.708 790.138 172.705C790.036 172.703 789.937 172.737 789.857 172.801C789.404 173.179 788.962 173.583 788.52 174.006Z" fill="#37AEB6"/>
<path d="M770.587 188.962C772.169 189.436 774.637 187.947 775.622 186.945C777.064 185.478 777.845 183.15 778.962 181.427C779.062 181.268 779.162 181.108 779.262 180.948C779.289 180.906 779.299 180.856 779.292 180.807C779.286 180.758 779.261 180.713 779.224 180.68C779.187 180.648 779.139 180.629 779.09 180.628C779.04 180.627 778.992 180.644 778.954 180.676C778.2 181.303 777.448 181.933 776.699 182.565C776.686 182.576 776.675 182.588 776.665 182.602C774.858 185.301 772.29 187.402 769.287 188.64C769.269 188.647 769.252 188.656 769.237 188.668H769.23C769.193 188.696 769.166 188.736 769.155 188.781C769.143 188.826 769.147 188.874 769.166 188.917C769.185 188.959 769.218 188.994 769.259 189.016C769.301 189.038 769.348 189.045 769.394 189.036C769.784 188.937 770.188 188.912 770.587 188.962V188.962Z" fill="#37AEB6"/>
<path d="M491.252 125.054L490.595 132.922C490.595 132.922 492.813 133.071 493.115 128.749C493.417 124.427 493.705 120.407 493.705 120.407C493.705 120.407 491.777 118.768 491.252 125.054Z" fill="#EDB763"/>
<path d="M417.445 185.363L425.077 187.383C425.077 187.383 425.611 185.225 421.406 184.175C417.201 183.124 413.297 182.135 413.297 182.135C413.297 182.135 411.347 183.749 417.445 185.363Z" fill="#EDB763"/>
<path d="M459.135 120.263L461.418 127.821C461.418 127.821 463.536 127.145 462.226 123.012C460.917 118.88 459.711 115.037 459.711 115.037C459.711 115.037 457.312 114.224 459.135 120.263Z" fill="#EDB763"/>
<path d="M424.254 215.124L431.011 211.04C431.011 211.04 429.83 209.157 426.152 211.45C422.474 213.742 419.05 215.865 419.05 215.865C419.05 215.865 418.856 218.387 424.254 215.124Z" fill="#EDB763"/>
<path d="M493.812 209.026C493.812 209.026 495.991 153.707 483.29 144.369C470.588 135.031 463.014 153.817 464.931 164.706C466.849 175.594 468.125 192.648 462.555 195.356C456.986 198.064 442.605 203.702 444.919 211.936C447.233 220.171 469.153 213.196 473.893 214.608C478.633 216.019 489.315 218.801 493.812 209.026Z" fill="#4E5B73"/>
<path d="M496.008 204.408C496.008 204.408 518.548 171.935 512.403 160.579C508.58 153.518 505.763 158.035 504.179 162.463C503.359 164.731 502.009 166.77 500.243 168.411C499.101 169.483 498.189 170.777 497.563 172.213C496.937 173.649 496.61 175.197 496.602 176.764L496.496 190.651L496.008 204.408Z" fill="#4E5B73"/>
<path d="M488.944 198.051C490.16 187.3 485.388 162.659 485.388 162.659C484.853 157.088 484.316 154.422 480.651 153.124C479.13 152.545 477.465 152.459 475.892 152.877C474.32 153.295 472.918 154.196 471.884 155.453C470.851 156.711 470.238 158.26 470.133 159.884C470.027 161.508 470.434 163.124 471.296 164.505L471.714 165.502C473.793 170.582 473.933 176.249 472.107 181.425C471.538 182.972 471.321 184.627 471.47 186.268C471.62 187.909 472.134 189.497 472.973 190.915C477.693 199.068 477.472 200.592 472.962 204.407C468.452 208.222 459.545 200.811 453.138 203.667C446.731 206.522 448.813 210.529 450.424 212.783C453.227 216.702 458.733 212.874 462.883 210.934C467.033 208.994 483.58 210.744 483.58 210.744C483.58 210.744 487.727 208.803 488.944 198.051Z" fill="#EDB763"/>
<path d="M455.492 212.222C457.743 212.222 459.567 210.397 459.567 208.147C459.567 205.896 457.743 204.071 455.492 204.071C453.241 204.071 451.417 205.896 451.417 208.147C451.417 210.397 453.241 212.222 455.492 212.222Z" fill="#DD5A59"/>
<path d="M483.028 175.251C484.571 170.472 484.564 165.327 483.008 160.552C482.918 160.167 482.785 159.792 482.61 159.437L482.575 159.351L482.567 159.359C482.198 158.617 481.656 157.974 480.987 157.486C480.318 156.998 479.541 156.678 478.722 156.554C477.727 156.404 476.711 156.545 475.795 156.961C474.879 157.376 474.104 158.049 473.563 158.896C473.022 159.744 472.739 160.731 472.747 161.736C472.756 162.742 473.056 163.723 473.611 164.562C475.289 166.936 476.389 169.67 476.823 172.545L477.902 181.497C477.952 181.919 478.153 182.309 478.466 182.595C478.779 182.882 479.185 183.047 479.61 183.059C480.035 183.072 480.45 182.932 480.78 182.665C481.11 182.397 481.333 182.02 481.409 181.602C481.799 179.45 482.34 177.328 483.028 175.251V175.251Z" fill="#DD5A59"/>
<path d="M848.438 174.136C848.349 174.131 848.262 174.157 848.19 174.21C848.118 174.262 848.066 174.337 848.043 174.423C848.02 174.509 848.028 174.6 848.064 174.681C848.1 174.762 848.164 174.828 848.243 174.868C850.743 176.115 855.732 178.168 859.082 176.654C860.482 175.989 862.023 175.676 863.572 175.741C863.669 175.745 863.765 175.713 863.839 175.65C863.914 175.587 863.962 175.498 863.974 175.402C863.986 175.305 863.96 175.207 863.903 175.128C863.846 175.049 863.762 174.994 863.666 174.975C863.054 174.865 862.434 174.804 861.813 174.794C858.706 174.722 851.705 174.324 848.438 174.136Z" fill="#37AEB6"/>
<path d="M59.52 386.617L70.812 341.979C70.812 341.979 65.725 297.687 67.128 288.444C68.7418 282.198 69.5884 275.778 69.649 269.327C69.649 253.786 68.243 259.386 74.609 231.127C80.975 202.868 87.249 131.555 83.802 139.594C80.266 147.844 60.79 186.077 60.79 212.98C60.8986 230.517 61.9702 248.035 64 265.454C64 265.454 21.154 192.966 0 188.723C0 188.723 11.962 212.556 20.508 232.033C29.054 251.51 59.408 276.768 59.408 276.768C59.408 276.768 58.32 288.057 60.936 294.468C62 301.496 63.709 311.739 66.315 324.756C70.198 344.156 60.346 376.696 54.944 392.347C56.9294 374.589 57.9799 356.74 58.091 338.872C58.091 310.332 37.429 269.772 33.678 261.018C30.022 252.488 36.678 328.144 43.431 358.125C50.184 388.106 48.693 382.164 48.693 398.651C48.8547 409.17 50.8838 419.577 54.686 429.386C61.438 425.964 59.562 406.548 59.562 406.548C59.562 406.548 91.762 379.748 100.828 359.086C109.894 338.424 122.585 313.138 122.585 313.138C104.591 316.741 71.82 366.861 59.52 386.617Z" fill="#4E5B73"/>
<path d="M744.529 314.187C762.003 316.461 779.702 313.223 779.702 313.223C791.36 311.012 805.668 309.945 827.928 288.05C828.328 287.526 828.579 287.21 828.579 287.21C838.06 289.579 844.136 285.059 850.105 277.158C856.074 269.257 848.331 257.978 848.331 257.978C848.331 257.978 865.714 243.756 852.282 209.778C838.85 175.8 800.136 186.078 800.136 186.078C776.436 186.869 754.312 221.632 754.312 230.322C754.359 232.783 753.808 235.219 752.707 237.421C751.606 239.623 749.988 241.525 747.991 242.965L736.93 244.546C725.869 246.126 741.67 258.766 741.67 258.766L739.77 269.995C730.292 272.264 734.612 281.68 734.612 281.68C726.768 288.791 736.925 292.741 736.134 295.111C735.343 297.481 727.345 311.955 744.529 314.187Z" fill="#EDB763"/>
<path d="M783.371 377.363C738.922 378.163 712.316 393.756 712.316 427.82L890.461 424.29C864.872 328.39 843.307 358.69 820.194 299.022C807.048 307.971 800.166 312.442 786.706 311.934C831.316 364.536 799.12 377.076 783.371 377.363Z" fill="#EDB763"/>
<path d="M776.927 167.681C773.921 170.581 772.291 174.595 769.944 178.003C769.411 178.781 768.844 179.542 768.244 180.286C768.168 180.38 768.129 180.498 768.132 180.619C768.136 180.74 768.182 180.855 768.263 180.945C768.344 181.034 768.455 181.092 768.574 181.108C768.694 181.124 768.816 181.096 768.917 181.03C770.926 179.682 772.639 177.937 773.95 175.904C775.864 172.995 777.35 169.834 779.25 166.926C779.316 166.824 779.343 166.703 779.327 166.583C779.311 166.463 779.253 166.353 779.163 166.272C779.073 166.191 778.957 166.145 778.836 166.142C778.715 166.139 778.597 166.18 778.503 166.256C777.965 166.703 777.444 167.18 776.927 167.681Z" fill="#37AEB6"/>
<path d="M758.268 183.835C760.137 184.395 763.052 182.635 764.216 181.452C765.916 179.719 766.842 176.969 768.162 174.934C768.284 174.746 768.404 174.557 768.522 174.369C768.553 174.32 768.565 174.261 768.557 174.203C768.549 174.146 768.52 174.093 768.477 174.055C768.433 174.016 768.377 173.994 768.319 173.992C768.261 173.991 768.204 174.01 768.159 174.047C767.268 174.788 766.38 175.532 765.495 176.279C765.48 176.292 765.467 176.307 765.455 176.323C763.32 179.511 760.287 181.993 756.74 183.455C756.719 183.463 756.699 183.474 756.681 183.488L756.673 183.494C756.63 183.527 756.599 183.575 756.585 183.628C756.572 183.681 756.577 183.737 756.599 183.787C756.621 183.837 756.66 183.879 756.708 183.904C756.756 183.93 756.812 183.939 756.866 183.929C757.324 183.811 757.799 183.779 758.268 183.835V183.835Z" fill="#37AEB6"/>
<path d="M677.265 274.075C677.283 274.194 677.342 274.302 677.433 274.381C677.523 274.46 677.639 274.504 677.759 274.506C677.879 274.508 677.995 274.467 678.088 274.391C678.181 274.315 678.243 274.208 678.265 274.09C678.708 271.248 679.311 268.433 680.072 265.659C681.748 260.292 685.728 256.638 690.561 253.823C692.066 252.945 694.342 251.553 696.105 250.468C696.208 250.404 696.284 250.306 696.32 250.19C696.357 250.075 696.351 249.951 696.304 249.839C696.256 249.728 696.171 249.637 696.062 249.583C695.954 249.53 695.83 249.516 695.713 249.546C690.519 250.9 680.145 254.379 677.742 261.011C676.344 264.87 676.788 270.585 677.265 274.075Z" fill="#37AEB6"/>
<path d="M959.57 338.053C954.762 329.712 950.908 320.628 950.104 310.94C949.218 300.264 951.488 289.684 951.841 279.04C952.194 268.415 951.681 257.34 948.897 247.04C947.504 241.775 945.355 236.739 942.517 232.091C940.892 229.53 939.025 227.131 936.942 224.926C930.542 217.983 906.419 206.467 904.89 206.214C873.147 200.973 886.39 178.632 864.072 172.214C850.948 168.434 857.372 176.154 833.433 172.214C829.216 171.514 817.758 163.229 817.176 162.73C813.005 158.996 807.706 156.763 802.121 156.384C796.865 156.256 791.724 157.935 787.557 161.14C780.357 166.432 778.808 175.975 772.042 181.567C764.075 188.154 753.772 185.811 744.342 185.834C735.26 185.858 727.922 190.917 723.623 198.784C721.651 202.474 720.2 206.419 719.31 210.507C719.48 216.456 721.327 222.382 720.996 228.322C720.734 233.022 718.396 236.822 715.142 240.094C711.899 243.391 708.278 246.296 704.355 248.746C700.608 251.039 696.391 252.375 692.655 254.697C689.752 256.498 687.251 258.877 685.309 261.688C683.367 264.498 682.025 267.679 681.367 271.031C680.167 276.906 679.5 282.915 677.567 288.62C676.575 291.555 667.08 310.207 661.853 314.946C648.653 326.915 628.175 323.853 622.325 343.768C621.414 346.868 620.659 349.981 619.812 353.042C620.135 355.985 620.093 358.956 619.686 361.888C619.351 364.734 618.355 367.462 616.778 369.854C615.201 372.246 613.086 374.236 610.603 375.666C608.065 377.066 596.336 380.607 584.115 384.094C557.349 391.733 559.253 430.982 586.783 435.088C586.997 435.121 587.211 435.152 587.426 435.18C588.335 435.302 589.248 435.441 590.153 435.591C623.466 441.13 641.236 395.667 663.448 418.928C685.66 442.189 697.448 436.699 712.32 427.813C721.12 422.551 715.484 415.262 719.858 406.161C722.302 400.218 732.184 386.051 756.578 385.153C780.25 384.283 795.548 381.565 801.393 373.48C806.536 366.363 816.683 353.097 804.875 335.84C793.067 318.583 786.71 311.927 786.71 311.927C786.71 311.927 751.566 317.85 737.44 310.927C730.778 307.663 735.01 302.006 735.857 297.013C736.704 292.02 736.529 295.107 733.23 290.32C729.931 285.533 735.007 281.675 735.007 281.675C735.007 281.675 734.622 278.416 734.622 276.687C734.617 276.136 734.763 275.595 735.046 275.122C735.328 274.648 735.735 274.262 736.222 274.005C737.236 273.433 738.111 272.644 738.785 271.694C739.459 270.745 739.916 269.658 740.122 268.512L741.672 258.762C741.672 258.762 740.198 257.162 735.367 252.012C730.536 246.862 736.167 244.778 736.167 244.778L748.38 242.961C748.38 242.961 756.058 238.656 755.832 234.342C755.606 230.028 756.967 218.448 771.952 201.687C786.937 184.926 790.572 191.887 790.572 191.887C790.572 191.887 799.654 201.423 791.025 217.317C782.747 232.566 797.525 243.655 811.534 243.655C825.543 243.655 810.244 260.003 811.534 267.27C812.824 274.537 819.18 275.444 827.354 267.27C830.097 264.621 833.322 262.522 836.854 261.086C838.351 260.437 839.987 260.175 841.612 260.325C843.237 260.475 844.797 261.032 846.15 261.944C847.503 262.856 848.605 264.094 849.353 265.544C850.101 266.994 850.472 268.609 850.432 270.24C850.341 272.817 849.32 275.274 847.559 277.157C829.53 297.014 828.714 277.599 817.746 297.437C815.275 301.905 830.076 344.468 849.146 358.999C856.554 364.644 855.485 370.185 851.989 376.121C848.153 382.485 846.972 390.101 848.699 397.327C850.426 404.554 854.924 410.812 861.223 414.753L861.523 414.94C888.476 431.588 923.779 425.98 943.775 401.409C945.201 399.657 946.029 398.417 946.014 397.909C945.752 388.763 957.819 374.362 955.051 365.625C952.178 356.536 964.286 346.237 959.57 338.053Z" fill="#37AEB6"/>
<path d="M665.87 406.052C667.714 403.839 670.095 402.136 672.785 401.105C675.475 400.074 678.384 399.75 681.235 400.163L691.271 394.407C691.271 394.407 693.371 391.651 696.084 394.389C696.084 394.389 681.053 418.673 669.471 424.77C657.889 430.867 647.166 427.67 642.349 421.432C637.532 415.194 644.859 395.245 644.859 395.245L644.959 385.212L639.659 373.658C639.659 373.658 637.525 369.331 640.842 369.33C644.159 369.329 649.979 387.03 652.712 385.486C655.445 383.942 649.058 366.686 649.058 366.686C649.058 366.686 647.663 362.925 650.38 362.537C653.097 362.149 660.241 385.079 662.201 385.271C664.161 385.463 664.62 376.292 664.62 376.292C664.62 376.292 664.113 359.615 669.252 359.631L671.358 375.642L670.609 388.742C670.609 388.742 671.745 390.992 673.084 388.822C674.423 386.652 680.191 372.24 680.191 372.24C680.191 372.24 682.232 363.55 684.656 363.956C687.08 364.362 683.356 379.467 683.356 379.467L678.038 398.367C678.038 398.367 667.844 398.838 665.87 406.052Z" fill="#EDB763"/>
<path d="M832.097 168.012C831.992 168.006 831.888 168.037 831.803 168.098C831.718 168.16 831.657 168.249 831.63 168.351C831.603 168.452 831.612 168.56 831.655 168.656C831.698 168.752 831.773 168.83 831.867 168.877C834.82 170.35 840.713 172.77 844.667 170.986C846.32 170.202 848.139 169.831 849.967 169.908C850.078 169.908 850.186 169.867 850.269 169.793C850.353 169.72 850.407 169.618 850.42 169.508C850.434 169.397 850.407 169.285 850.344 169.193C850.281 169.101 850.187 169.035 850.079 169.008C849.357 168.878 848.625 168.807 847.891 168.795C844.226 168.706 835.957 168.235 832.097 168.012Z" fill="#37AEB6"/>
<path d="M603.009 373.894C603.009 373.894 615.068 373.922 614.831 360.05C614.594 346.178 613 353.717 614.593 346.177C616.503 337.126 610.593 344.558 610.183 352.831C609.773 361.104 603.009 373.894 603.009 373.894Z" fill="#37AEB6"/>
</g>
<defs>
<clipPath id="clip0_27_2">
<rect width="998" height="436" fill="white"/>
</clipPath>
</defs>
</svg>
