 <svg width="545" height="182" viewBox="0 0 545 182" fill="none" xmlns="http://www.w3.org/2000/svg">
<path d="M40.701 0.00100708H59.849V52.441H45.32V19.441L35.313 45.32H24.536L14.529 19.436V52.436H0V0.00100708H19.148L29.925 28.101L40.701 0.00100708Z" fill="white"/>
<path d="M116.135 31.656C116.135 44.356 107.281 53.402 94.1969 53.402C79.2819 53.402 71.873 44.55 71.873 31.656V0.00100708H86.018V31.657C86.018 36.18 88.711 40.413 94.1 40.413C99.489 40.413 101.991 36.18 101.991 31.561V0.00100708H116.135V31.656Z" fill="white"/>
<path d="M68.507 79.539C68.507 79.539 60.329 75.882 53.207 75.882C49.648 75.882 47.722 77.134 47.722 78.865C47.722 85.985 71.008 84.831 71.008 99.745C71.008 110.714 62.252 117.545 50.321 117.545C43.8624 117.508 37.5021 115.959 31.75 113.022L33.289 99.84C33.289 99.84 42.815 104.554 49.551 104.554C53.206 104.554 55.612 103.304 55.612 101.187C55.612 95.029 32.519 93.778 32.519 79.441C32.519 68.857 41.467 63.18 51.282 63.18C63.116 63.18 69.66 66.835 69.852 66.932L68.507 79.539Z" fill="white"/>
<path d="M113.727 96.186H95.253V104.652H118.253V116.584H80.727V64.144H117.388V76.074H95.257V84.158H113.731L113.727 96.186Z" fill="white"/>
<path d="M92.078 127.325C109.978 127.325 119.116 139.449 119.116 154.459C119.116 169.566 109.783 181.689 92.078 181.689C73.604 181.689 65.041 169.566 65.041 154.459C65.041 139.449 74.662 127.325 92.078 127.325ZM92.078 168.025C99.294 168.025 103.625 162.156 103.625 154.458C103.625 146.858 99.006 140.986 92.078 140.986C85.15 140.986 80.532 146.856 80.532 154.458C80.528 162.157 84.957 168.025 92.078 168.025Z" fill="white"/>
<path d="M225.334 122.288H225.299C224.972 122.299 224.659 122.427 224.418 122.648C224.177 122.87 224.024 123.171 223.986 123.496L219.476 162.023C219.432 162.395 219.47 162.772 219.587 163.128C219.703 163.485 219.895 163.811 220.15 164.086C220.405 164.36 220.717 164.576 221.064 164.718C221.41 164.86 221.784 164.925 222.158 164.909H222.212C222.852 164.881 223.459 164.616 223.914 164.165C224.37 163.714 224.641 163.11 224.675 162.47L226.745 123.729C226.755 123.54 226.726 123.35 226.659 123.173C226.592 122.995 226.489 122.834 226.356 122.698C226.224 122.563 226.064 122.456 225.888 122.386C225.712 122.315 225.523 122.282 225.334 122.288Z" fill="white"/>
<path d="M226.269 103.987L224.712 117.287C224.692 117.458 224.71 117.632 224.765 117.795C224.819 117.959 224.909 118.109 225.028 118.234C225.147 118.359 225.292 118.456 225.452 118.519C225.613 118.582 225.785 118.609 225.957 118.598H225.982C226.27 118.58 226.541 118.457 226.744 118.252C226.947 118.047 227.068 117.774 227.082 117.486L227.797 104.118C227.802 104.012 227.785 103.905 227.747 103.806C227.708 103.706 227.649 103.616 227.574 103.541C227.499 103.466 227.408 103.407 227.309 103.368C227.21 103.33 227.103 103.313 226.997 103.318C226.816 103.325 226.643 103.396 226.51 103.519C226.377 103.641 226.291 103.807 226.269 103.987Z" fill="white"/>
<path d="M227.203 96.007L226.86 98.941C226.85 99.0308 226.86 99.1217 226.89 99.207C226.919 99.2923 226.968 99.3697 227.032 99.4335C227.096 99.4974 227.174 99.5459 227.259 99.5756C227.344 99.6053 227.435 99.6154 227.525 99.605H227.538C227.678 99.5878 227.807 99.522 227.903 99.4191C227.999 99.3161 228.056 99.1827 228.064 99.042L228.222 96.085C228.226 96.0141 228.215 95.9431 228.19 95.8767C228.164 95.8104 228.125 95.7502 228.074 95.7003C228.024 95.6503 227.963 95.6117 227.897 95.587C227.83 95.5623 227.759 95.5521 227.688 95.557H227.678C227.559 95.5646 227.446 95.6138 227.359 95.696C227.272 95.7782 227.217 95.8883 227.203 96.007Z" fill="white"/>
<path d="M225.768 95.848L224.693 98.8C224.661 98.8889 224.649 98.9842 224.659 99.0783C224.67 99.1724 224.701 99.2629 224.752 99.3427C224.803 99.4226 224.872 99.4897 224.953 99.5388C225.034 99.5879 225.125 99.6178 225.219 99.626H225.233C225.375 99.6379 225.516 99.6005 225.633 99.5202C225.75 99.4398 225.836 99.3214 225.876 99.185L226.764 96.167C226.786 96.0963 226.791 96.0218 226.781 95.9486C226.77 95.8755 226.744 95.8056 226.703 95.744C226.662 95.6825 226.608 95.6307 226.545 95.5925C226.481 95.5543 226.41 95.5305 226.337 95.523H226.3C226.188 95.5089 226.074 95.5334 225.977 95.5924C225.88 95.6515 225.807 95.7416 225.768 95.848Z" fill="white"/>
<path d="M222.925 103.654L218.189 116.662C218.128 116.831 218.105 117.012 218.122 117.191C218.139 117.37 218.195 117.543 218.288 117.698C218.38 117.852 218.506 117.984 218.655 118.084C218.805 118.184 218.975 118.25 219.153 118.276H219.178C219.467 118.318 219.76 118.254 220.006 118.096C220.251 117.939 220.431 117.698 220.513 117.418L224.421 104.133C224.452 104.027 224.46 103.916 224.445 103.806C224.429 103.697 224.391 103.592 224.332 103.499C224.272 103.406 224.194 103.326 224.102 103.266C224.009 103.205 223.905 103.165 223.796 103.148H223.781C223.602 103.12 223.419 103.156 223.262 103.248C223.106 103.34 222.987 103.484 222.925 103.654Z" fill="white"/>
<path d="M219.545 102.582L211.612 114.639C211.508 114.797 211.441 114.977 211.416 115.164C211.391 115.352 211.409 115.542 211.468 115.722C211.528 115.902 211.627 116.065 211.758 116.201C211.89 116.337 212.05 116.442 212.228 116.507L212.253 116.516C212.531 116.618 212.837 116.617 213.115 116.515C213.394 116.414 213.627 116.216 213.774 115.959L220.934 103.419C220.99 103.321 221.024 103.213 221.034 103.101C221.044 102.989 221.029 102.876 220.991 102.77C220.953 102.664 220.893 102.568 220.814 102.488C220.735 102.408 220.639 102.346 220.534 102.306L220.472 102.282C220.306 102.219 220.124 102.214 219.956 102.269C219.787 102.323 219.642 102.434 219.545 102.582Z" fill="white"/>
<path d="M224.261 95.4131L222.42 98.2131C222.365 98.297 222.33 98.3929 222.318 98.4928C222.307 98.5928 222.319 98.694 222.354 98.7883C222.389 98.8826 222.446 98.9673 222.52 99.0356C222.594 99.1038 222.683 99.1536 222.78 99.181H222.794C222.931 99.2195 223.078 99.211 223.21 99.1566C223.342 99.1022 223.452 99.0052 223.523 98.881L225.191 95.9601C225.229 95.8945 225.252 95.821 225.258 95.7452C225.264 95.6693 225.252 95.5932 225.224 95.5225C225.196 95.4518 225.153 95.3885 225.096 95.3373C225.04 95.2861 224.973 95.2484 224.9 95.227L224.832 95.207C224.727 95.174 224.615 95.1763 224.512 95.2135C224.408 95.2507 224.32 95.3208 224.261 95.4131Z" fill="white"/>
<path d="M222.737 94.628L220.118 97.099C220.041 97.1718 219.982 97.262 219.946 97.3621C219.911 97.4622 219.9 97.5693 219.914 97.6746C219.928 97.7798 219.967 97.8801 220.028 97.9672C220.089 98.0542 220.17 98.1255 220.264 98.175L220.277 98.181C220.407 98.2492 220.555 98.273 220.7 98.2486C220.844 98.2242 220.977 98.153 221.077 98.046L223.553 95.396C223.606 95.3403 223.646 95.273 223.669 95.1993C223.692 95.1256 223.698 95.0477 223.686 94.9715C223.674 94.8952 223.644 94.8229 223.6 94.76C223.555 94.6971 223.496 94.6454 223.428 94.609L223.328 94.555C223.235 94.5022 223.127 94.4808 223.02 94.4939C222.914 94.5071 222.815 94.5541 222.737 94.628Z" fill="white"/>
<path d="M216.265 100.729L205.285 111.084C205.141 111.22 205.03 111.387 204.96 111.573C204.891 111.758 204.864 111.957 204.882 112.155C204.901 112.352 204.964 112.542 205.067 112.712C205.169 112.881 205.309 113.025 205.476 113.132L205.5 113.147C205.757 113.312 206.064 113.382 206.367 113.343C206.67 113.305 206.949 113.161 207.157 112.937L217.475 101.894C217.553 101.811 217.612 101.712 217.647 101.604C217.682 101.495 217.693 101.381 217.68 101.268C217.666 101.155 217.627 101.046 217.566 100.95C217.506 100.853 217.425 100.772 217.329 100.71L217.223 100.642C217.077 100.547 216.903 100.503 216.729 100.519C216.555 100.535 216.392 100.609 216.265 100.729Z" fill="white"/>
<path d="M213.229 98.082L199.61 105.942C199.43 106.045 199.276 106.188 199.159 106.36C199.043 106.531 198.967 106.727 198.937 106.933C198.908 107.138 198.925 107.347 198.989 107.545C199.052 107.743 199.159 107.923 199.303 108.073L199.323 108.094C199.546 108.321 199.841 108.464 200.157 108.496C200.474 108.529 200.792 108.45 201.056 108.273L214.156 99.566C214.262 99.4957 214.351 99.403 214.417 99.2944C214.483 99.1859 214.524 99.0641 214.537 98.9378C214.551 98.8115 214.536 98.6838 214.495 98.5637C214.454 98.4436 214.386 98.3341 214.298 98.243L214.286 98.23C214.151 98.0913 213.974 98.0014 213.783 97.9746C213.591 97.9478 213.396 97.9856 213.229 98.082Z" fill="white"/>
<path d="M221.228 93.464L217.914 95.376C217.818 95.4326 217.738 95.5112 217.678 95.6053C217.619 95.6993 217.583 95.8061 217.573 95.9168C217.563 96.0276 217.58 96.1391 217.622 96.242C217.664 96.345 217.73 96.4365 217.814 96.509L217.826 96.519C217.942 96.6173 218.086 96.6753 218.238 96.6843C218.389 96.6933 218.539 96.6529 218.666 96.569L221.85 94.452C221.923 94.4032 221.985 94.3381 222.029 94.2618C222.073 94.1855 222.1 94.1001 222.106 94.0121C222.112 93.924 222.098 93.8357 222.064 93.7541C222.031 93.6724 221.979 93.5995 221.913 93.5411L221.904 93.532C221.813 93.4502 221.699 93.3995 221.577 93.3872C221.456 93.375 221.333 93.4019 221.228 93.464Z" fill="white"/>
<path d="M219.951 91.829L216.018 93.005C215.907 93.0384 215.805 93.0978 215.722 93.1783C215.638 93.2588 215.575 93.3581 215.537 93.4679C215.5 93.5778 215.489 93.695 215.506 93.8098C215.523 93.9246 215.567 94.0337 215.635 94.128L215.644 94.141C215.737 94.2716 215.871 94.368 216.024 94.4151C216.177 94.4623 216.342 94.4577 216.492 94.402L220.341 92.98C220.426 92.9483 220.503 92.8976 220.566 92.8318C220.629 92.7659 220.676 92.6866 220.704 92.5999C220.731 92.5132 220.739 92.4213 220.726 92.3313C220.713 92.2412 220.679 92.1552 220.628 92.08L220.621 92.07C220.55 91.9636 220.446 91.8828 220.326 91.8394C220.205 91.796 220.074 91.7924 219.951 91.829Z" fill="white"/>
<path d="M210.809 94.563L195.033 99.283C194.827 99.344 194.637 99.4511 194.478 99.596C194.319 99.741 194.195 99.9201 194.115 100.12C194.035 100.32 194.002 100.535 194.017 100.75C194.033 100.964 194.096 101.173 194.204 101.359L194.219 101.385C194.389 101.672 194.654 101.89 194.969 102.001C195.283 102.112 195.627 102.109 195.939 101.992L211.4 96.279C211.519 96.2354 211.626 96.1664 211.715 96.0768C211.804 95.9871 211.872 95.879 211.915 95.7601C211.958 95.6413 211.974 95.5144 211.962 95.3886C211.951 95.2628 211.912 95.1411 211.848 95.032L211.805 94.958C211.708 94.7898 211.556 94.6594 211.375 94.5877C211.195 94.5161 210.995 94.5074 210.809 94.563Z" fill="white"/>
<path d="M209.247 90.336L192.084 91.336C191.866 91.3481 191.653 91.4089 191.461 91.5139C191.269 91.619 191.103 91.7656 190.975 91.943C190.847 92.1205 190.761 92.3243 190.722 92.5395C190.683 92.7548 190.692 92.976 190.75 93.187L190.759 93.217C190.852 93.5586 191.065 93.8554 191.359 94.0529C191.652 94.2505 192.008 94.3357 192.359 94.293L209.446 92.212C209.57 92.1974 209.689 92.1562 209.795 92.0912C209.902 92.0261 209.993 91.9388 210.062 91.8352C210.131 91.7316 210.178 91.6142 210.197 91.4911C210.217 91.3679 210.21 91.2421 210.176 91.122L210.135 90.976C210.083 90.7834 209.967 90.6146 209.805 90.498C209.643 90.3814 209.446 90.3241 209.247 90.336Z" fill="white"/>
<path d="M219.052 89.766L214.678 90.021C214.559 90.0279 214.444 90.0624 214.341 90.1218C214.238 90.1812 214.15 90.2639 214.085 90.3631C214.02 90.4624 213.978 90.5755 213.964 90.6936C213.95 90.8116 213.964 90.9313 214.005 91.043L214.01 91.058C214.069 91.2197 214.182 91.3565 214.329 91.4464C214.476 91.5362 214.649 91.5738 214.82 91.553L219.169 91.023C219.261 91.0117 219.35 90.9799 219.429 90.9298C219.507 90.8798 219.574 90.8129 219.623 90.7339C219.672 90.6549 219.703 90.5659 219.714 90.4734C219.725 90.3808 219.714 90.2871 219.684 90.199V90.187C219.639 90.0574 219.553 89.946 219.439 89.87C219.325 89.7939 219.189 89.7574 219.052 89.766Z" fill="white"/>
<path d="M209.533 86.519V86.501C209.533 86.2945 209.461 86.0944 209.328 85.9362C209.196 85.7779 209.011 85.6716 208.808 85.636L191.108 82.513C190.909 82.4774 190.706 82.4856 190.511 82.5372C190.316 82.5887 190.134 82.6822 189.979 82.8112C189.824 82.9402 189.699 83.1016 189.613 83.2839C189.527 83.4663 189.482 83.6653 189.481 83.867V83.881C189.481 83.987 189.481 84.091 189.481 84.197C189.484 84.5356 189.612 84.8613 189.839 85.1127C190.065 85.3641 190.376 85.524 190.713 85.562L208.565 87.562C208.687 87.5758 208.811 87.5634 208.927 87.5258C209.044 87.4881 209.152 87.4261 209.243 87.3437C209.334 87.2613 209.407 87.1605 209.456 87.048C209.505 86.9354 209.529 86.8138 209.528 86.691C209.533 86.635 209.533 86.581 209.533 86.519Z" fill="white"/>
<path d="M218.739 87.389L214.197 86.589C214.078 86.5684 213.957 86.5748 213.841 86.6078C213.725 86.6408 213.618 86.6994 213.528 86.7795C213.438 86.8596 213.367 86.959 213.321 87.0702C213.275 87.1815 213.254 87.3018 213.261 87.422C213.272 87.6103 213.349 87.7885 213.479 87.9254C213.609 88.0622 213.783 88.1489 213.97 88.17L218.557 88.684C218.65 88.6946 218.744 88.6848 218.833 88.6554C218.921 88.6259 219.003 88.5775 219.071 88.5134C219.139 88.4493 219.192 88.3712 219.227 88.2844C219.262 88.1976 219.277 88.1044 219.272 88.011V87.992C219.265 87.8459 219.208 87.7066 219.111 87.597C219.014 87.4874 218.883 87.4141 218.739 87.389Z" fill="white"/>
<path d="M209.588 80.777L192.626 73.457C192.414 73.3651 192.184 73.3213 191.954 73.3287C191.723 73.336 191.496 73.3943 191.291 73.4995C191.085 73.6046 190.905 73.754 190.764 73.9368C190.623 74.1196 190.524 74.3314 190.474 74.557L190.467 74.589C190.386 74.9611 190.442 75.35 190.626 75.6835C190.81 76.0171 191.109 76.2724 191.467 76.402L208.897 82.651C209.012 82.6918 209.135 82.7076 209.257 82.6972C209.38 82.6869 209.498 82.6506 209.605 82.591C209.712 82.5313 209.805 82.4495 209.878 82.351C209.951 82.2526 210.002 82.1398 210.028 82.02C210.046 81.937 210.065 81.854 210.085 81.77C210.132 81.5725 210.108 81.3648 210.017 81.1832C209.926 81.0017 209.774 80.8579 209.588 80.777Z" fill="white"/>
<path d="M219.102 84.883L214.602 82.939C214.488 82.8901 214.365 82.8675 214.241 82.8729C214.117 82.8784 213.997 82.9118 213.888 82.9705C213.779 83.0293 213.684 83.1119 213.612 83.2123C213.539 83.3126 213.491 83.4281 213.469 83.55V83.567C213.436 83.7574 213.471 83.9532 213.569 84.12C213.666 84.2868 213.819 84.414 214.001 84.479L218.629 86.139C218.713 86.1692 218.802 86.1811 218.891 86.174C218.98 86.1668 219.066 86.1407 219.144 86.0974C219.222 86.0541 219.289 85.9946 219.342 85.923C219.395 85.8513 219.432 85.7692 219.451 85.682C219.457 85.651 219.464 85.62 219.471 85.588C219.501 85.4459 219.481 85.2978 219.413 85.1691C219.346 85.0404 219.236 84.9392 219.102 84.883Z" fill="white"/>
<path d="M225.043 87.945C225.076 87.8036 225.053 87.6548 224.978 87.5301C224.903 87.4055 224.783 87.3147 224.643 87.277L223.643 86.847C223.568 86.8146 223.486 86.8007 223.405 86.8066C223.323 86.8124 223.244 86.8377 223.175 86.8805C223.105 86.9232 223.047 86.9822 223.005 87.0522C222.963 87.1223 222.938 87.2014 222.933 87.283V87.297C222.926 87.4071 222.955 87.5164 223.016 87.6085C223.076 87.7006 223.165 87.7706 223.269 87.808L224.305 88.179C224.434 88.243 224.584 88.2545 224.721 88.2109C224.859 88.1672 224.974 88.0719 225.043 87.945Z" fill="white"/>
<path d="M220.091 82.397L215.946 79.309C215.844 79.2331 215.726 79.1811 215.601 79.1569C215.476 79.1327 215.347 79.1369 215.224 79.1692C215.101 79.2014 214.987 79.2609 214.89 79.3433C214.793 79.4257 214.716 79.5288 214.664 79.645L214.657 79.661C214.575 79.8452 214.562 80.0525 214.619 80.2457C214.677 80.4389 214.801 80.6053 214.97 80.715L219.31 83.54C219.39 83.5919 219.48 83.6265 219.574 83.6415C219.668 83.6565 219.764 83.6516 219.856 83.627C219.948 83.6025 220.034 83.559 220.108 83.4992C220.182 83.4395 220.242 83.3647 220.286 83.28L220.292 83.268C220.367 83.1225 220.388 82.9551 220.351 82.7957C220.314 82.6362 220.222 82.495 220.091 82.397Z" fill="white"/>
<path d="M225.667 87.118C225.731 86.9884 225.743 86.839 225.7 86.7009C225.657 86.5628 225.562 86.4468 225.435 86.3771L224.082 85.369C224.015 85.3196 223.937 85.2865 223.855 85.2726C223.773 85.2586 223.689 85.2641 223.609 85.2886C223.53 85.3131 223.457 85.356 223.397 85.4137C223.337 85.4715 223.291 85.5425 223.264 85.621V85.631C223.225 85.7428 223.225 85.8643 223.263 85.9762C223.302 86.0881 223.377 86.1838 223.476 86.248L224.904 87.1771C225.015 87.2661 225.155 87.3095 225.297 87.2986C225.439 87.2876 225.571 87.2231 225.667 87.118Z" fill="white"/>
<path d="M211.553 76.038L196.098 64.529C195.906 64.3858 195.685 64.2868 195.45 64.2393C195.216 64.1919 194.974 64.197 194.741 64.2544C194.509 64.3117 194.292 64.4199 194.106 64.5712C193.921 64.7224 193.771 64.913 193.668 65.1291L193.654 65.16C193.485 65.515 193.45 65.9191 193.556 66.2977C193.663 66.6762 193.902 67.0036 194.231 67.219L210.415 77.751C210.518 77.8177 210.634 77.8619 210.756 77.8804C210.878 77.8989 211.002 77.8914 211.12 77.8584C211.238 77.8254 211.349 77.7677 211.443 77.689C211.537 77.6104 211.614 77.5125 211.668 77.402C211.713 77.311 211.758 77.221 211.805 77.13C211.9 76.9478 211.926 76.7377 211.88 76.5376C211.834 76.3375 211.718 76.1604 211.553 76.038Z" fill="white"/>
<path d="M214.727 71.755L201.778 56.318C201.62 56.1288 201.422 55.9769 201.198 55.8731C200.974 55.7694 200.731 55.7163 200.484 55.7178C200.237 55.7192 199.994 55.7751 199.772 55.8814C199.549 55.9878 199.353 56.142 199.197 56.333L199.175 56.361C198.917 56.6774 198.784 57.0769 198.799 57.4847C198.814 57.8924 198.977 58.2807 199.258 58.577L213.185 73.196C213.269 73.2838 213.371 73.3529 213.484 73.3988C213.597 73.4447 213.718 73.4663 213.839 73.4624C213.961 73.4584 214.08 73.429 214.19 73.3758C214.299 73.3227 214.397 73.2471 214.475 73.154C214.552 73.064 214.631 72.974 214.71 72.884C214.847 72.7291 214.925 72.5299 214.928 72.3227C214.931 72.1155 214.86 71.9141 214.727 71.755Z" fill="white"/>
<path d="M226.464 86.458C226.556 86.3467 226.603 86.2041 226.593 86.0597C226.582 85.9153 226.517 85.7804 226.41 85.6831L225 84.003C224.948 83.9406 224.883 83.8905 224.81 83.8563C224.736 83.8222 224.656 83.8049 224.575 83.8057C224.494 83.8064 224.414 83.8253 224.341 83.8608C224.269 83.8963 224.205 83.9476 224.154 84.011L224.136 84.035C224.059 84.1378 224.021 84.2647 224.029 84.393C224.037 84.5212 224.09 84.6424 224.179 84.735L225.704 86.335C225.791 86.4492 225.918 86.5257 226.059 86.5486C226.201 86.5715 226.346 86.5391 226.464 86.458Z" fill="white"/>
<path d="M221.816 80.207L218.276 75.9871C218.192 75.8876 218.088 75.8077 217.97 75.7533C217.852 75.6989 217.724 75.6712 217.594 75.6722C217.464 75.6733 217.336 75.7031 217.219 75.7594C217.102 75.8157 216.999 75.8972 216.917 75.9981C216.782 76.1646 216.712 76.3745 216.721 76.5887C216.729 76.8029 216.815 77.0067 216.963 77.1621L220.763 81.151C220.829 81.2201 220.908 81.275 220.996 81.3123C221.084 81.3495 221.179 81.3683 221.275 81.3676C221.37 81.3668 221.465 81.3465 221.552 81.3079C221.639 81.2693 221.718 81.2132 221.783 81.143L221.794 81.132C221.909 81.0069 221.976 80.844 221.98 80.6737C221.984 80.5034 221.925 80.3375 221.816 80.207Z" fill="white"/>
<path d="M227.392 85.998C227.508 85.9114 227.586 85.7832 227.609 85.6404C227.633 85.4976 227.6 85.3513 227.518 85.2321L226.364 82.932C226.329 82.8621 226.279 82.8004 226.219 82.7509C226.158 82.7013 226.088 82.6651 226.013 82.6445C225.937 82.624 225.858 82.6195 225.781 82.6315C225.704 82.6435 225.63 82.6716 225.564 82.7141L225.555 82.72C225.435 82.7985 225.35 82.92 225.316 83.0595C225.283 83.1991 225.305 83.346 225.377 83.47L226.683 85.707C226.742 85.8369 226.848 85.9394 226.98 85.9935C227.111 86.0476 227.259 86.0492 227.392 85.998Z" fill="white"/>
<path d="M224.139 78.503L221.475 73.196C221.416 73.0787 221.332 72.9758 221.229 72.8943C221.126 72.8129 221.007 72.7549 220.879 72.7245C220.752 72.6942 220.619 72.6921 220.49 72.7184C220.362 72.7447 220.24 72.7989 220.135 72.877L220.12 72.888C219.943 73.0202 219.821 73.2129 219.777 73.4294C219.733 73.6459 219.77 73.8711 219.881 74.062L222.881 79.208C222.928 79.2883 222.99 79.3585 223.064 79.4145C223.139 79.4705 223.223 79.5111 223.313 79.534C223.404 79.5569 223.497 79.5617 223.589 79.5479C223.681 79.5342 223.77 79.5022 223.849 79.454L223.861 79.447C224.018 79.3535 224.133 79.2044 224.185 79.0294C224.236 78.8545 224.22 78.6665 224.139 78.503Z" fill="white"/>
<path d="M218.923 68.112L209.55 49.44C209.435 49.2109 209.271 49.01 209.07 48.8513C208.868 48.6927 208.634 48.5804 208.385 48.5222C208.135 48.4641 207.876 48.4616 207.625 48.515C207.374 48.5684 207.138 48.6763 206.934 48.831C206.593 49.0886 206.359 49.4623 206.275 49.8813C206.191 50.3002 206.264 50.7353 206.48 51.104L217.022 69.164C217.096 69.2906 217.195 69.4005 217.313 69.4871C217.431 69.5737 217.566 69.6351 217.709 69.6674C217.852 69.6996 218 69.7021 218.144 69.6747C218.288 69.6473 218.425 69.5906 218.546 69.508L218.564 69.496C218.781 69.3479 218.937 69.1259 219.003 68.8714C219.069 68.6169 219.041 68.3471 218.923 68.112Z" fill="white"/>
<path d="M228.401 85.767C228.534 85.7091 228.639 85.6023 228.695 85.4687C228.751 85.3351 228.753 85.1852 228.701 85.05L228.06 82.344C228.043 82.2715 228.011 82.2031 227.967 82.1428C227.923 82.0825 227.868 82.0315 227.804 81.9926C227.741 81.9538 227.67 81.9279 227.596 81.9165C227.523 81.905 227.447 81.9083 227.375 81.926H227.364C227.29 81.9448 227.22 81.9785 227.16 82.025C227.099 82.0716 227.048 82.13 227.011 82.1967C226.974 82.2634 226.95 82.3369 226.942 82.413C226.934 82.489 226.941 82.5659 226.964 82.639L227.78 85.318C227.807 85.4579 227.886 85.5822 228.001 85.6657C228.117 85.7491 228.26 85.7853 228.401 85.767Z" fill="white"/>
<path d="M224.133 65.771L219.079 44.43C219.022 44.187 218.912 43.9592 218.759 43.7624C218.605 43.5656 218.411 43.4044 218.189 43.2899C217.967 43.1754 217.723 43.1103 217.474 43.0991C217.224 43.0879 216.975 43.1308 216.744 43.225L216.613 43.28C216.214 43.444 215.891 43.7505 215.706 44.1399C215.521 44.5292 215.488 44.9735 215.613 45.386L221.999 66.351C222.042 66.4921 222.114 66.6228 222.209 66.7357C222.304 66.8485 222.421 66.9411 222.553 67.0078C222.684 67.0745 222.828 67.114 222.976 67.124C223.123 67.134 223.271 67.1143 223.41 67.066L223.43 67.059C223.685 66.9684 223.898 66.787 224.028 66.5493C224.157 66.3117 224.195 66.0346 224.133 65.771Z" fill="white"/>
<path d="M226.918 77.526L225.448 71.319C225.418 71.1919 225.36 71.0727 225.28 70.9694C225.2 70.8661 225.099 70.7811 224.983 70.72C224.867 70.6589 224.74 70.6231 224.61 70.615C224.479 70.6069 224.348 70.6267 224.226 70.673L224.208 70.68C223.99 70.7627 223.813 70.9251 223.711 71.1343C223.609 71.3435 223.59 71.5837 223.659 71.806L225.518 77.906C225.572 78.083 225.692 78.2325 225.853 78.3232C226.015 78.4139 226.205 78.4389 226.384 78.393H226.398C226.581 78.3446 226.737 78.227 226.834 78.0651C226.931 77.9032 226.961 77.7098 226.918 77.526Z" fill="white"/>
<path d="M229.435 85.773C229.577 85.7475 229.704 85.6679 229.789 85.5508C229.874 85.4337 229.911 85.2883 229.891 85.145V82.354C229.891 82.2112 229.836 82.0738 229.739 81.9697C229.641 81.8655 229.507 81.8024 229.365 81.793H229.349C229.269 81.7873 229.188 81.799 229.113 81.8272C229.038 81.8553 228.969 81.8993 228.912 81.9562C228.855 82.0131 228.811 82.0815 228.783 82.1569C228.755 82.2322 228.743 82.3127 228.749 82.393L228.926 85.2C228.921 85.3425 228.972 85.4814 229.066 85.588C229.161 85.6946 229.293 85.7608 229.435 85.773Z" fill="white"/>
<path d="M229.893 77.388V70.625C229.893 70.4959 229.867 70.3682 229.815 70.2499C229.764 70.1315 229.688 70.0249 229.594 69.9369C229.5 69.8488 229.388 69.781 229.267 69.7379C229.145 69.6947 229.016 69.6771 228.887 69.686C228.639 69.7032 228.407 69.818 228.243 70.0055C228.08 70.1929 227.997 70.4376 228.013 70.686L228.439 77.433C228.45 77.611 228.527 77.7784 228.655 77.9028C228.782 78.0272 228.952 78.0996 229.13 78.106H229.149C229.246 78.1098 229.342 78.094 229.432 78.0595C229.522 78.0251 229.605 77.9728 229.674 77.9057C229.744 77.8387 229.799 77.7582 229.837 77.6692C229.874 77.5802 229.893 77.4846 229.893 77.388Z" fill="white"/>
<path d="M229.896 64.889V42.019C229.896 41.7741 229.844 41.5319 229.744 41.3086C229.643 41.0852 229.497 40.8857 229.313 40.7232C229.13 40.5607 228.914 40.439 228.681 40.366C228.447 40.2931 228.2 40.2706 227.957 40.3L227.73 40.329C227.292 40.3836 226.892 40.6028 226.611 40.942C226.329 41.2812 226.187 41.7149 226.214 42.155L227.653 64.961C227.672 65.2508 227.805 65.5212 228.023 65.7132C228.241 65.9052 228.526 66.0033 228.816 65.986H228.865C229.144 65.9685 229.406 65.8453 229.598 65.6415C229.789 65.4377 229.896 65.1686 229.896 64.889Z" fill="white"/>
<path d="M232.808 78.016L234.458 71.061C234.487 70.9349 234.491 70.804 234.467 70.6766C234.444 70.5492 234.395 70.4279 234.323 70.3203C234.251 70.2127 234.157 70.1211 234.048 70.0512C233.939 69.9813 233.817 69.9346 233.689 69.914H233.669C233.424 69.8747 233.174 69.9337 232.973 70.0781C232.772 70.2225 232.636 70.4408 232.595 70.685L231.39 77.714C231.36 77.8909 231.396 78.0727 231.492 78.2245C231.587 78.3764 231.735 78.4876 231.908 78.537H231.922C232.014 78.5632 232.111 78.5704 232.206 78.5582C232.302 78.546 232.393 78.5145 232.476 78.4659C232.559 78.4172 232.631 78.3522 232.688 78.2749C232.745 78.1976 232.786 78.1095 232.808 78.016Z" fill="white"/>
<path d="M230.442 86.017C230.587 86.0252 230.729 85.977 230.839 85.8827C230.948 85.7884 231.017 85.6551 231.031 85.511L231.663 82.848C231.695 82.7131 231.677 82.5709 231.611 82.4489C231.545 82.3268 231.436 82.2335 231.305 82.187H231.294C231.217 82.1596 231.134 82.1494 231.053 82.1571C230.971 82.1648 230.892 82.1903 230.821 82.2318C230.75 82.2732 230.689 82.3296 230.642 82.397C230.596 82.4644 230.564 82.5412 230.55 82.622L230.084 85.341C230.046 85.4781 230.062 85.6244 230.129 85.75C230.195 85.8756 230.307 85.9712 230.442 86.017Z" fill="white"/>
<path d="M235.776 65.504L241.245 42.446C241.302 42.2079 241.307 41.9605 241.261 41.7202C241.215 41.4799 241.118 41.252 240.978 41.0517C240.837 40.8515 240.655 40.6833 240.445 40.5584C240.235 40.4335 240 40.3546 239.757 40.327L239.457 40.294C239.018 40.2455 238.577 40.3661 238.224 40.6312C237.871 40.8963 237.633 41.286 237.557 41.721L233.557 65.057C233.51 65.3437 233.578 65.6374 233.747 65.8741C233.915 66.1107 234.171 66.271 234.457 66.32L234.506 66.328C234.783 66.3793 235.069 66.3225 235.305 66.1692C235.542 66.0159 235.71 65.7778 235.776 65.504Z" fill="white"/>
<path d="M235.464 79.333L238.864 72.569C238.923 72.4515 238.956 72.3233 238.963 72.1922C238.97 72.0611 238.95 71.9301 238.903 71.8072C238.857 71.6843 238.786 71.5723 238.695 71.4782C238.603 71.384 238.493 71.3097 238.372 71.26L238.354 71.252C238.123 71.1575 237.864 71.158 237.633 71.2533C237.402 71.3486 237.218 71.531 237.121 71.761L234.163 78.71C234.093 78.8723 234.085 79.0545 234.14 79.2223C234.196 79.3901 234.31 79.5319 234.463 79.621L234.475 79.628C234.559 79.6765 234.651 79.7073 234.747 79.7186C234.843 79.73 234.941 79.7216 235.033 79.694C235.126 79.6663 235.212 79.6201 235.286 79.558C235.36 79.4959 235.421 79.4193 235.464 79.333Z" fill="white"/>
<path d="M231.363 86.487C231.502 86.5281 231.651 86.514 231.779 86.4476C231.908 86.3813 232.006 86.2678 232.053 86.131L233.238 83.773C233.299 83.6517 233.314 83.5122 233.28 83.3806C233.246 83.249 233.165 83.1343 233.053 83.058L233.043 83.051C232.974 83.0049 232.897 82.9745 232.815 82.962C232.733 82.9494 232.65 82.9551 232.571 82.9785C232.492 83.0019 232.419 83.0425 232.357 83.0974C232.295 83.1522 232.246 83.22 232.214 83.296L231.172 85.743C231.102 85.8679 231.084 86.0146 231.119 86.1531C231.155 86.2915 231.242 86.411 231.363 86.487Z" fill="white"/>
<path d="M241.436 67.458L252.516 45.404C252.627 45.1837 252.689 44.9422 252.699 44.6958C252.709 44.4494 252.666 44.2038 252.573 43.9753C252.48 43.7468 252.34 43.5408 252.161 43.371C251.982 43.2013 251.769 43.0717 251.536 42.991L251.171 42.867C250.757 42.7255 250.305 42.7455 249.905 42.9231C249.505 43.1008 249.187 43.4229 249.015 43.825L239.365 66.496C239.309 66.6296 239.279 66.7729 239.278 66.9179C239.277 67.0629 239.305 67.2067 239.36 67.3409C239.415 67.4751 239.496 67.5971 239.598 67.6999C239.701 67.8027 239.822 67.8843 239.956 67.94L240.017 67.966C240.274 68.0779 240.563 68.0876 240.827 67.9932C241.091 67.8988 241.309 67.7074 241.436 67.458Z" fill="white"/>
<path d="M232.152 87.158C232.277 87.2301 232.426 87.2509 232.566 87.216C232.706 87.1812 232.828 87.0934 232.905 86.971L234.521 85.046C234.607 84.9437 234.653 84.8138 234.652 84.6801C234.65 84.5464 234.6 84.4179 234.511 84.318L234.502 84.309C234.447 84.2476 234.378 84.1993 234.302 84.1675C234.226 84.1358 234.143 84.1214 234.061 84.1254C233.978 84.1295 233.898 84.1518 233.825 84.1908C233.752 84.2298 233.689 84.2846 233.64 84.351L232.14 86.39C232.043 86.4952 231.991 86.6335 231.993 86.7764C231.995 86.9193 232.052 87.0558 232.152 87.158Z" fill="white"/>
<path d="M246.596 70.66L263.148 50.941C263.307 50.7515 263.424 50.53 263.49 50.2917C263.556 50.0533 263.57 49.8035 263.532 49.5591C263.493 49.3147 263.403 49.0814 263.267 48.8749C263.131 48.6684 262.952 48.4935 262.742 48.362C262.6 48.2727 262.457 48.184 262.314 48.096C261.945 47.8714 261.505 47.7932 261.081 47.8771C260.658 47.961 260.281 48.2007 260.025 48.549L244.781 69.233C244.601 69.4753 244.524 69.7792 244.568 70.0779C244.612 70.3766 244.773 70.6457 245.015 70.826L245.034 70.84C245.268 71.0146 245.56 71.0932 245.851 71.0597C246.141 71.0263 246.408 70.8833 246.596 70.66Z" fill="white"/>
<path d="M237.716 81.241L242.883 75.085C242.968 74.9828 243.031 74.8642 243.069 74.7365C243.106 74.6087 243.116 74.4747 243.099 74.3427C243.082 74.2108 243.038 74.0838 242.969 73.9697C242.901 73.8557 242.809 73.7571 242.701 73.68L242.685 73.669C242.479 73.5232 242.225 73.4641 241.976 73.5045C241.728 73.5449 241.505 73.6816 241.356 73.885L236.597 80.342C236.493 80.4827 236.445 80.6563 236.46 80.8305C236.475 81.0046 236.553 81.1672 236.679 81.288L236.688 81.297C236.758 81.3637 236.84 81.4153 236.931 81.4487C237.021 81.4822 237.118 81.4967 237.214 81.4915C237.31 81.4862 237.405 81.4613 237.491 81.4182C237.577 81.3751 237.654 81.3148 237.716 81.241Z" fill="white"/>
<path d="M250.918 75.052L272.279 59.152C272.507 58.9823 272.696 58.7654 272.833 58.5162C272.969 58.267 273.051 57.9913 273.072 57.7078C273.093 57.4242 273.052 57.1396 272.954 56.873C272.855 56.6065 272.7 56.3644 272.499 56.163L272.462 56.126C272.111 55.7737 271.64 55.5665 271.143 55.5458C270.646 55.525 270.159 55.6922 269.78 56.014L249.467 73.226C249.237 73.4204 249.094 73.6978 249.068 73.9976C249.042 74.2973 249.136 74.5952 249.329 74.826L249.358 74.861C249.545 75.0853 249.81 75.2298 250.1 75.2653C250.39 75.3008 250.682 75.2245 250.918 75.052Z" fill="white"/>
<path d="M239.428 83.603L246.276 78.503C246.384 78.4222 246.473 78.3201 246.54 78.2029C246.606 78.0858 246.648 77.9562 246.661 77.8223C246.675 77.6884 246.661 77.5531 246.621 77.4249C246.58 77.2966 246.513 77.1781 246.424 77.077L246.41 77.062C246.242 76.87 246.005 76.7519 245.751 76.7332C245.497 76.7144 245.245 76.7966 245.051 76.962L238.551 82.47C238.419 82.5817 238.332 82.7376 238.306 82.9087C238.281 83.0797 238.318 83.2544 238.411 83.4L238.418 83.412C238.469 83.4938 238.537 83.5642 238.617 83.6186C238.696 83.673 238.786 83.7104 238.881 83.7283C238.976 83.7463 239.074 83.7444 239.168 83.7228C239.262 83.7013 239.35 83.6604 239.428 83.603Z" fill="white"/>
<path d="M232.765 87.992C232.871 88.0909 233.011 88.1451 233.155 88.1434C233.3 88.1418 233.439 88.0843 233.542 87.983L235.442 86.568C235.548 86.4894 235.622 86.3757 235.651 86.2474C235.68 86.119 235.662 85.9845 235.601 85.868L235.595 85.858C235.556 85.7854 235.502 85.7224 235.435 85.6735C235.369 85.6247 235.293 85.5913 235.212 85.5758C235.131 85.5602 235.047 85.563 234.968 85.5838C234.888 85.6046 234.814 85.6429 234.751 85.696L232.926 87.242C232.809 87.3231 232.727 87.4458 232.697 87.5852C232.667 87.7245 232.691 87.87 232.765 87.992Z" fill="white"/>
<path d="M240.518 86.273L248.818 82.693C248.942 82.6388 249.054 82.5594 249.147 82.46C249.239 82.3605 249.31 82.2431 249.355 82.1151C249.4 81.987 249.418 81.8509 249.409 81.7155C249.399 81.5801 249.361 81.4482 249.298 81.328L249.289 81.31C249.169 81.0811 248.963 80.9089 248.717 80.8308C248.47 80.7527 248.203 80.7751 247.973 80.893L239.925 84.983C239.773 85.0606 239.654 85.1903 239.59 85.3484C239.526 85.5065 239.52 85.6824 239.575 85.844L239.58 85.858C239.611 85.949 239.661 86.0325 239.726 86.1034C239.791 86.1743 239.87 86.231 239.958 86.27C240.047 86.3089 240.142 86.3293 240.238 86.3298C240.334 86.3303 240.429 86.3109 240.518 86.273Z" fill="white"/>
<path d="M254.168 80.389L280.629 68.98C280.781 68.9145 280.917 68.8175 281.029 68.6954C281.141 68.5733 281.225 68.4288 281.277 68.2715C281.328 68.1143 281.346 67.9479 281.328 67.7833C281.311 67.6187 281.259 67.4598 281.175 67.317C280.856 66.7763 280.529 66.2407 280.192 65.71C280.036 65.4644 279.795 65.2856 279.514 65.2085C279.234 65.1314 278.934 65.1615 278.675 65.293L253.167 78.257C252.892 78.3955 252.684 78.6372 252.587 78.9292C252.49 79.2212 252.512 79.5397 252.65 79.815L252.661 79.836C252.794 80.1029 253.025 80.3089 253.305 80.4117C253.585 80.5145 253.894 80.5064 254.168 80.389Z" fill="white"/>
<path d="M240.947 89.09L250.325 87.439C250.458 87.4165 250.584 87.3672 250.697 87.294C250.81 87.2209 250.907 87.1255 250.982 87.0136C251.057 86.9018 251.108 86.7759 251.133 86.6435C251.157 86.5112 251.155 86.3753 251.125 86.244L251.115 86.2C251.084 86.0734 251.028 85.9541 250.951 85.8491C250.874 85.744 250.777 85.6552 250.666 85.5878C250.554 85.5204 250.43 85.4756 250.302 85.4561C250.173 85.4365 250.041 85.4426 249.915 85.474L240.675 87.711C240.511 87.75 240.366 87.8471 240.268 87.9844C240.169 88.1217 240.124 88.2899 240.14 88.458V88.472C240.149 88.5671 240.177 88.6594 240.223 88.743C240.269 88.8266 240.332 88.8998 240.408 88.9579C240.484 89.0159 240.571 89.0577 240.664 89.0804C240.756 89.1031 240.853 89.1064 240.947 89.09Z" fill="white"/>
<path d="M256.043 86.43L284.618 81.396C284.909 81.3448 285.185 81.2322 285.428 81.0658C285.672 80.8994 285.877 80.683 286.031 80.431C286.184 80.179 286.282 79.8973 286.318 79.6045C286.354 79.3117 286.327 79.0146 286.239 78.733L286.224 78.6851C286.065 78.1808 285.721 77.7557 285.261 77.4957C284.801 77.2358 284.259 77.1605 283.745 77.285L255.557 84.11C255.262 84.1823 255.009 84.3683 254.851 84.6273C254.693 84.8862 254.644 85.1971 254.715 85.492L254.729 85.5521C254.794 85.839 254.966 86.09 255.211 86.2534C255.455 86.4168 255.753 86.4801 256.043 86.43Z" fill="white"/>
<path d="M256.466 92.811L286.413 94.5601C286.713 94.5777 287.014 94.5316 287.296 94.425C287.577 94.3183 287.833 94.1534 288.046 93.9412C288.259 93.7289 288.426 93.474 288.534 93.193C288.642 92.9121 288.689 92.6116 288.673 92.311C288.644 91.7596 288.403 91.2406 288.002 90.8615C287.6 90.4825 287.068 90.2724 286.516 90.275L256.53 90.42C256.22 90.4216 255.922 90.5452 255.702 90.7641C255.482 90.983 255.357 91.2797 255.354 91.59V91.62C255.351 91.9233 255.465 92.2159 255.672 92.4375C255.879 92.6591 256.163 92.7928 256.466 92.811Z" fill="white"/>
<path d="M240.734 91.896L250.634 92.474C250.769 92.4816 250.903 92.4618 251.03 92.416C251.157 92.3701 251.273 92.2991 251.372 92.2072C251.47 92.1153 251.549 92.0043 251.604 91.8811C251.659 91.7578 251.688 91.6248 251.69 91.49V91.462C251.691 91.3299 251.666 91.1988 251.617 91.0763C251.567 90.9538 251.494 90.8424 251.401 90.7485C251.308 90.6545 251.197 90.58 251.075 90.5291C250.953 90.4782 250.822 90.452 250.69 90.452L240.79 90.5C240.619 90.5011 240.455 90.5644 240.328 90.6782C240.2 90.792 240.119 90.9485 240.099 91.118V91.132C240.089 91.2242 240.097 91.3176 240.123 91.4065C240.15 91.4955 240.194 91.5781 240.253 91.6495C240.313 91.7209 240.386 91.7795 240.469 91.8219C240.551 91.8642 240.641 91.8895 240.734 91.896Z" fill="white"/>
<path d="M255.491 99.21L285.143 108.093C285.438 108.181 285.748 108.205 286.053 108.164C286.357 108.122 286.65 108.016 286.91 107.852C287.171 107.689 287.393 107.471 287.563 107.215C287.732 106.958 287.845 106.668 287.893 106.364L287.901 106.319C287.987 105.776 287.864 105.221 287.557 104.766C287.25 104.31 286.782 103.988 286.247 103.864L256.11 96.874C255.956 96.838 255.797 96.8326 255.642 96.8584C255.486 96.8842 255.337 96.9406 255.203 97.0242C255.07 97.1079 254.954 97.2173 254.863 97.346C254.771 97.4747 254.707 97.6201 254.672 97.774L254.667 97.796C254.6 98.0923 254.648 98.4029 254.8 98.6653C254.953 98.9277 255.2 99.1224 255.491 99.21Z" fill="white"/>
<path d="M239.989 94.566L249.85 97.521C249.985 97.5612 250.127 97.5727 250.267 97.5549C250.407 97.5371 250.542 97.4903 250.662 97.4176C250.783 97.3449 250.887 97.2478 250.969 97.1325C251.05 97.0172 251.106 96.8863 251.134 96.748V96.727C251.186 96.469 251.135 96.2011 250.992 95.9801C250.849 95.7592 250.625 95.6027 250.369 95.544L240.358 93.222C240.188 93.1826 240.01 93.2086 239.858 93.2947C239.707 93.3809 239.593 93.521 239.54 93.687L239.532 93.711C239.505 93.7972 239.495 93.8878 239.504 93.9777C239.512 94.0676 239.538 94.1549 239.581 94.2345C239.624 94.3141 239.682 94.3844 239.752 94.4413C239.822 94.4983 239.902 94.5406 239.989 94.566Z" fill="white"/>
<path d="M233.244 91.87C233.221 91.917 233.197 91.962 233.172 92.008C233.143 92.0615 233.127 92.1205 233.124 92.181C233.12 92.2415 233.131 92.302 233.153 92.3581C233.176 92.4143 233.211 92.4648 233.255 92.5061C233.299 92.5474 233.352 92.5784 233.41 92.597L233.444 92.607L235.3 93.162C235.433 93.2021 235.577 93.189 235.701 93.1254C235.825 93.0618 235.919 92.9527 235.964 92.821V92.81C235.989 92.7387 235.998 92.6629 235.991 92.5877C235.985 92.5125 235.963 92.4395 235.926 92.3735C235.889 92.3075 235.839 92.2499 235.779 92.2045C235.719 92.1591 235.65 92.1269 235.576 92.11L233.669 91.668C233.586 91.6498 233.499 91.6597 233.422 91.6963C233.345 91.7328 233.282 91.794 233.244 91.87Z" fill="white"/>
<path d="M238.768 97.057L248.051 102.419C248.178 102.492 248.318 102.537 248.464 102.551C248.609 102.565 248.756 102.549 248.895 102.502C249.033 102.455 249.16 102.38 249.267 102.28C249.375 102.181 249.459 102.06 249.516 101.925L249.525 101.905C249.626 101.664 249.631 101.393 249.54 101.148C249.448 100.903 249.266 100.703 249.032 100.587L239.432 95.822C239.271 95.7422 239.086 95.7277 238.915 95.7816C238.744 95.8355 238.601 95.9536 238.515 96.111L238.508 96.123C238.421 96.2818 238.399 96.4684 238.448 96.643C238.496 96.8175 238.611 96.9661 238.768 97.057Z" fill="white"/>
<path d="M232.61 92.885V92.89C232.57 92.9421 232.542 93.0019 232.527 93.0656C232.512 93.1292 232.51 93.1953 232.522 93.2597C232.534 93.324 232.559 93.3851 232.596 93.4391C232.633 93.493 232.681 93.5387 232.737 93.573L232.769 93.591L234.519 94.602C234.581 94.6385 234.65 94.6623 234.722 94.672C234.793 94.6817 234.866 94.6771 234.936 94.6585C235.005 94.6399 235.071 94.6077 235.128 94.5636C235.185 94.5196 235.233 94.4647 235.269 94.402L235.274 94.393C235.309 94.3285 235.33 94.2575 235.337 94.1844C235.344 94.1113 235.336 94.0377 235.314 93.9677C235.291 93.8978 235.255 93.8331 235.207 93.7775C235.159 93.7219 235.101 93.6765 235.035 93.644L233.207 92.738L233.193 92.731C233.093 92.686 232.98 92.6768 232.874 92.7048C232.768 92.7328 232.675 92.7965 232.61 92.885Z" fill="white"/>
<path d="M253.187 105.385L280.91 121.397C281.189 121.558 281.5 121.657 281.822 121.687C282.143 121.717 282.467 121.678 282.771 121.571C283.076 121.464 283.353 121.292 283.585 121.068C283.817 120.844 283.998 120.572 284.115 120.271C284.318 119.75 284.318 119.172 284.117 118.65C283.915 118.129 283.525 117.702 283.024 117.453L254.348 103.224C254.202 103.151 254.043 103.109 253.88 103.099C253.717 103.089 253.554 103.112 253.4 103.167C253.247 103.221 253.105 103.307 252.985 103.417C252.866 103.528 252.769 103.661 252.702 103.81L252.693 103.831C252.568 104.105 252.55 104.416 252.641 104.703C252.732 104.99 252.927 105.233 253.187 105.385Z" fill="white"/>
<path d="M237.056 99.279L245.224 106.988C245.334 107.092 245.466 107.171 245.61 107.219C245.753 107.268 245.906 107.284 246.057 107.268C246.207 107.253 246.353 107.204 246.483 107.127C246.614 107.049 246.726 106.945 246.812 106.82L246.825 106.802C246.972 106.586 247.033 106.322 246.996 106.063C246.959 105.804 246.827 105.569 246.625 105.402L237.993 98.23C237.853 98.1135 237.672 98.0571 237.49 98.073C237.308 98.0889 237.14 98.1759 237.022 98.315L236.999 98.342C236.888 98.4764 236.832 98.6478 236.843 98.8218C236.853 98.9957 236.93 99.1591 237.056 99.279Z" fill="white"/>
<path d="M249.579 111.099L273.851 134.006C274.092 134.234 274.38 134.406 274.695 134.511C275.01 134.615 275.343 134.65 275.673 134.612C276.002 134.574 276.319 134.464 276.602 134.29C276.884 134.116 277.125 133.883 277.308 133.606L277.34 133.557C277.648 133.088 277.773 132.522 277.69 131.967C277.607 131.412 277.323 130.907 276.891 130.548L251.238 109.226C251.108 109.118 250.958 109.037 250.796 108.989C250.634 108.941 250.464 108.927 250.296 108.948C250.128 108.968 249.967 109.023 249.821 109.109C249.675 109.194 249.549 109.309 249.449 109.445L249.435 109.465C249.256 109.708 249.172 110.008 249.199 110.309C249.225 110.61 249.36 110.891 249.579 111.099Z" fill="white"/>
<path d="M231.905 93.679L231.87 93.712C231.824 93.7561 231.787 93.8091 231.763 93.8679C231.738 93.9267 231.725 93.99 231.726 94.0538C231.727 94.1176 231.741 94.1805 231.767 94.2386C231.793 94.2968 231.831 94.3491 231.878 94.392L233.488 95.911C233.543 95.9632 233.609 96.0033 233.681 96.0287C233.753 96.0541 233.829 96.0642 233.905 96.0585C233.981 96.0527 234.055 96.0313 234.122 95.9954C234.189 95.9595 234.248 95.91 234.295 95.85L234.302 95.841C234.389 95.7292 234.43 95.5877 234.414 95.4467C234.399 95.3056 234.329 95.1762 234.219 95.086L232.503 93.659C232.418 93.588 232.311 93.5509 232.2 93.5546C232.09 93.5583 231.985 93.6026 231.905 93.679Z" fill="white"/>
<path d="M234.91 101.174L241.381 111.017C241.468 111.148 241.582 111.259 241.716 111.342C241.85 111.425 242.001 111.477 242.157 111.495C242.314 111.514 242.472 111.497 242.622 111.448C242.771 111.399 242.908 111.317 243.023 111.209L243.04 111.193C243.232 111.011 243.351 110.765 243.373 110.501C243.395 110.237 243.319 109.974 243.159 109.763L236.079 100.347C236.024 100.274 235.955 100.212 235.876 100.166C235.797 100.12 235.709 100.09 235.618 100.078C235.527 100.067 235.435 100.074 235.347 100.099C235.259 100.123 235.176 100.166 235.105 100.223L235.056 100.262C234.923 100.369 234.834 100.521 234.807 100.69C234.78 100.858 234.817 101.031 234.91 101.174Z" fill="white"/>
<path d="M244.711 116.079L263.758 145.05C263.949 145.341 264.202 145.586 264.498 145.768C264.795 145.951 265.127 146.066 265.473 146.105C265.819 146.145 266.169 146.108 266.499 145.997C266.829 145.886 267.13 145.704 267.382 145.464C267.803 145.062 268.062 144.52 268.11 143.94C268.157 143.36 267.991 142.783 267.641 142.318L246.802 114.604C246.697 114.464 246.564 114.347 246.412 114.261C246.26 114.175 246.091 114.122 245.917 114.104C245.743 114.087 245.567 114.105 245.401 114.159C245.234 114.213 245.081 114.301 244.95 114.417L244.931 114.434C244.703 114.636 244.555 114.914 244.515 115.216C244.474 115.518 244.544 115.824 244.711 116.079Z" fill="white"/>
<path d="M231.024 94.391L231.015 94.398C230.91 94.4691 230.838 94.5785 230.813 94.7026C230.789 94.8267 230.814 94.9555 230.884 95.061L232.184 97.023C232.228 97.0892 232.285 97.1454 232.352 97.1878C232.42 97.2302 232.495 97.2578 232.574 97.2688C232.652 97.2798 232.733 97.2739 232.809 97.2515C232.885 97.2291 232.956 97.1908 233.016 97.139C233.124 97.0464 233.192 96.9162 233.208 96.7749C233.223 96.6335 233.184 96.4917 233.099 96.378L231.686 94.502C231.612 94.401 231.501 94.3331 231.377 94.3123C231.254 94.2916 231.127 94.3198 231.024 94.391Z" fill="white"/>
<path d="M232.357 102.652L236.582 114.266C236.638 114.419 236.727 114.559 236.843 114.674C236.959 114.789 237.098 114.877 237.252 114.931C237.406 114.986 237.57 115.006 237.732 114.991C237.895 114.975 238.052 114.923 238.192 114.84L238.213 114.828C238.446 114.69 238.62 114.471 238.702 114.213C238.784 113.955 238.769 113.675 238.659 113.428L233.708 102.1C233.671 102.014 233.617 101.937 233.548 101.873C233.48 101.809 233.4 101.759 233.311 101.728C233.223 101.696 233.13 101.683 233.036 101.69C232.943 101.696 232.852 101.721 232.769 101.764L232.691 101.805C232.541 101.881 232.424 102.009 232.363 102.165C232.301 102.321 232.299 102.494 232.357 102.652Z" fill="white"/>
<path d="M238.682 120.032L251.049 154.026C251.171 154.362 251.366 154.667 251.619 154.919C251.873 155.171 252.179 155.364 252.515 155.485C252.852 155.605 253.211 155.65 253.566 155.616C253.922 155.582 254.266 155.47 254.574 155.288L254.617 155.262C255.127 154.96 255.509 154.482 255.691 153.918C255.873 153.353 255.843 152.742 255.605 152.199L241.115 119.053C241.042 118.888 240.936 118.739 240.804 118.617C240.671 118.495 240.514 118.402 240.343 118.344C240.172 118.286 239.991 118.264 239.811 118.28C239.632 118.295 239.457 118.348 239.299 118.435L239.276 118.447C239.004 118.597 238.795 118.839 238.686 119.13C238.577 119.42 238.575 119.74 238.682 120.032Z" fill="white"/>
<path d="M230.024 94.965C229.918 95.0133 229.833 95.0987 229.786 95.2052C229.738 95.3116 229.731 95.4318 229.766 95.543C229.966 96.162 230.329 97.343 230.56 98.077C230.586 98.158 230.628 98.2325 230.686 98.2953C230.743 98.3582 230.813 98.4079 230.891 98.4411C230.969 98.4743 231.054 98.4901 231.139 98.4875C231.224 98.4849 231.307 98.4639 231.383 98.426C231.515 98.3601 231.617 98.2469 231.669 98.1091C231.722 97.9712 231.72 97.8188 231.665 97.682C231.398 97.019 230.933 95.863 230.665 95.217C230.64 95.1576 230.604 95.1037 230.558 95.0586C230.512 95.0136 230.458 94.9782 230.398 94.9546C230.338 94.9311 230.274 94.9199 230.21 94.9217C230.146 94.9235 230.082 94.9382 230.024 94.965Z" fill="white"/>
<path d="M228.548 95.894L228.868 98.64C228.878 98.7276 228.908 98.8118 228.955 98.8865C229.002 98.9611 229.065 99.0242 229.14 99.0712C229.214 99.1181 229.299 99.1477 229.386 99.1577C229.474 99.1677 229.563 99.1579 229.646 99.129C229.778 99.0835 229.889 98.9924 229.959 98.8721C230.03 98.7517 230.055 98.6102 230.03 98.473L229.535 95.746C229.523 95.6794 229.498 95.6159 229.46 95.5595C229.423 95.5031 229.374 95.455 229.317 95.4183C229.26 95.3816 229.197 95.3571 229.13 95.3462C229.063 95.3353 228.994 95.3383 228.929 95.355H228.92C228.804 95.3851 228.702 95.4561 228.633 95.5551C228.565 95.6541 228.535 95.7745 228.548 95.894Z" fill="white"/>
<path d="M231.666 122.614L236.019 159.914C236.062 160.279 236.184 160.63 236.377 160.943C236.57 161.255 236.829 161.521 237.136 161.723C237.444 161.924 237.791 162.056 238.155 162.108C238.519 162.161 238.889 162.133 239.241 162.026L239.291 162.011C239.88 161.833 240.383 161.445 240.704 160.92C241.025 160.395 241.142 159.77 241.032 159.165L234.332 122.216C234.299 122.033 234.229 121.86 234.125 121.706C234.021 121.552 233.886 121.422 233.729 121.323C233.572 121.224 233.396 121.159 233.213 121.132C233.029 121.106 232.842 121.117 232.663 121.167L232.637 121.175C232.33 121.26 232.064 121.452 231.886 121.716C231.708 121.979 231.63 122.298 231.666 122.614Z" fill="white"/>
<path d="M230.068 102.838L229.952 102.87C229.794 102.913 229.656 103.012 229.565 103.147C229.473 103.283 229.433 103.447 229.452 103.61L230.952 116.451C230.972 116.618 231.028 116.779 231.117 116.922C231.207 117.065 231.326 117.187 231.468 117.278C231.609 117.369 231.769 117.428 231.936 117.45C232.103 117.473 232.273 117.458 232.434 117.407L232.457 117.4C232.721 117.316 232.946 117.138 233.088 116.9C233.231 116.662 233.282 116.38 233.232 116.107L230.925 103.378C230.908 103.284 230.873 103.194 230.819 103.115C230.766 103.036 230.697 102.969 230.616 102.918C230.535 102.867 230.445 102.834 230.351 102.82C230.256 102.806 230.16 102.812 230.068 102.838Z" fill="white"/>
<path d="M236.274 87.592C236.254 87.5125 236.216 87.4385 236.163 87.3756C236.111 87.3127 236.045 87.2624 235.97 87.2284C235.895 87.1944 235.814 87.1777 235.732 87.1793C235.65 87.181 235.569 87.201 235.496 87.238L233.501 88.252C233.389 88.2997 233.294 88.3802 233.229 88.4829C233.164 88.5856 233.132 88.7056 233.137 88.827C233.141 88.8678 233.152 88.9076 233.169 88.945C233.249 89.0659 233.372 89.1511 233.514 89.1828C233.655 89.2145 233.803 89.1902 233.927 89.115L233.964 89.1L235.964 88.238C236.083 88.1869 236.181 88.095 236.239 87.9786C236.296 87.8622 236.311 87.729 236.279 87.603L236.274 87.592Z" fill="white"/>
<path d="M236.508 89.392C236.506 89.3113 236.486 89.2321 236.449 89.1602C236.412 89.0883 236.36 89.0255 236.296 88.9765C236.232 88.9274 236.157 88.8932 236.078 88.8766C235.999 88.8599 235.917 88.861 235.839 88.88L233.949 89.337L233.825 89.368C233.683 89.3868 233.553 89.4596 233.463 89.5713C233.373 89.683 233.33 89.8251 233.342 89.968C233.373 90.0673 233.434 90.1546 233.516 90.2177C233.599 90.2808 233.699 90.3165 233.803 90.32C233.882 90.3286 233.963 90.3246 234.041 90.308L236.065 89.952C236.192 89.9297 236.306 89.8627 236.388 89.763C236.469 89.6634 236.512 89.5377 236.509 89.409L236.508 89.392Z" fill="white"/>
<path d="M233.883 90.528C233.838 90.5283 233.793 90.533 233.749 90.542C233.629 90.5521 233.517 90.6031 233.431 90.6863C233.345 90.7696 233.289 90.88 233.275 90.999C233.277 91.0706 233.296 91.1407 233.331 91.2032C233.365 91.2658 233.415 91.3189 233.475 91.358C233.592 91.4413 233.731 91.4873 233.875 91.49L235.821 91.604C235.953 91.612 236.084 91.571 236.187 91.4886C236.291 91.4063 236.361 91.2886 236.383 91.158V91.146C236.396 91.0686 236.392 90.9894 236.371 90.9138C236.35 90.8382 236.313 90.768 236.262 90.7083C236.212 90.6485 236.148 90.6004 236.077 90.5676C236.006 90.5347 235.928 90.5178 235.85 90.518L233.883 90.528Z" fill="white"/>
<path d="M232.973 91.989C232.948 92.0907 232.963 92.1981 233.015 92.289C233.135 92.09 233.243 91.8847 233.341 91.674C233.257 91.6877 233.178 91.7244 233.113 91.7799C233.048 91.8355 233 91.9078 232.973 91.989Z" fill="white"/>
<path d="M224.198 171.335C224.218 170.975 224.162 170.615 224.035 170.278C223.908 169.941 223.712 169.634 223.46 169.377C223.208 169.12 222.904 168.918 222.57 168.785C222.235 168.651 221.876 168.589 221.516 168.602C221.316 168.61 221.116 168.616 220.916 168.622C220.297 168.641 219.706 168.882 219.25 169.3C218.794 169.719 218.503 170.288 218.432 170.903L217.848 175.894C217.798 176.322 217.839 176.755 217.968 177.166C218.097 177.577 218.312 177.956 218.599 178.278C218.885 178.6 219.236 178.857 219.629 179.034C220.022 179.21 220.448 179.301 220.879 179.301C221.66 179.301 222.412 179.001 222.978 178.464C223.545 177.927 223.884 177.192 223.926 176.412L224.198 171.335Z" fill="white"/>
<path d="M217.611 121.746L217.584 121.741C217.258 121.682 216.921 121.74 216.633 121.905C216.346 122.069 216.125 122.33 216.01 122.641L196.87 175.2C196.701 175.661 196.647 176.156 196.71 176.643C196.774 177.13 196.954 177.595 197.236 177.997C197.517 178.4 197.892 178.728 198.327 178.955C198.763 179.182 199.247 179.3 199.738 179.3H200.029C200.688 179.3 201.33 179.087 201.857 178.692C202.385 178.297 202.771 177.741 202.957 177.109L218.717 123.53C218.773 123.34 218.788 123.14 218.762 122.944C218.735 122.748 218.667 122.559 218.563 122.391C218.459 122.222 218.32 122.078 218.156 121.967C217.992 121.856 217.806 121.78 217.611 121.746Z" fill="white"/>
<path d="M209.846 119.518L209.819 119.507C209.505 119.38 209.157 119.365 208.834 119.466C208.51 119.566 208.232 119.776 208.046 120.059L172.646 173.866C172.298 174.395 172.1 175.008 172.072 175.64C172.044 176.273 172.188 176.901 172.488 177.458C172.789 178.015 173.234 178.481 173.778 178.805C174.322 179.13 174.943 179.301 175.576 179.301C176.194 179.301 176.802 179.137 177.337 178.827C177.872 178.516 178.315 178.07 178.622 177.533L210.565 121.586C210.668 121.406 210.73 121.206 210.749 120.999C210.768 120.793 210.743 120.585 210.675 120.389C210.607 120.193 210.498 120.014 210.355 119.864C210.212 119.714 210.038 119.596 209.846 119.518Z" fill="white"/>
<path d="M272.915 149.327C272.694 149.033 272.412 148.788 272.09 148.61C271.768 148.432 271.412 148.324 271.045 148.292C270.678 148.261 270.308 148.307 269.96 148.428C269.613 148.549 269.294 148.743 269.026 148.995L268.977 149.042C268.528 149.464 268.243 150.031 268.171 150.643C268.099 151.255 268.245 151.873 268.584 152.388L285.207 177.671C285.535 178.171 285.983 178.581 286.509 178.865C287.035 179.149 287.624 179.298 288.222 179.298C288.893 179.298 289.55 179.111 290.12 178.758C290.69 178.405 291.151 177.901 291.451 177.301C291.75 176.701 291.876 176.029 291.816 175.361C291.755 174.694 291.509 174.056 291.106 173.52L272.915 149.327Z" fill="white"/>
<path d="M259.041 160.065C258.904 159.751 258.703 159.469 258.45 159.239C258.197 159.008 257.897 158.834 257.572 158.727C257.247 158.621 256.902 158.584 256.562 158.62C256.221 158.655 255.892 158.763 255.596 158.935C255.43 159.035 255.261 159.127 255.096 159.221C254.596 159.504 254.212 159.955 254.013 160.494C253.814 161.033 253.812 161.626 254.009 162.166L259.509 177.293C259.723 177.882 260.113 178.39 260.626 178.749C261.14 179.108 261.751 179.301 262.377 179.301H262.784C263.291 179.302 263.791 179.176 264.237 178.935C264.684 178.695 265.063 178.346 265.341 177.922C265.619 177.498 265.787 177.011 265.829 176.505C265.872 176 265.787 175.492 265.584 175.027L259.041 160.065Z" fill="white"/>
<path d="M242.587 167.734C242.376 167.089 241.942 166.541 241.363 166.188C240.783 165.836 240.097 165.702 239.427 165.81C238.758 165.919 238.149 166.263 237.711 166.781C237.273 167.298 237.034 167.956 237.038 168.634L237.967 176.6C238.053 177.343 238.41 178.029 238.969 178.527C239.527 179.025 240.25 179.3 240.998 179.3H241.029C241.476 179.3 241.917 179.201 242.322 179.011C242.727 178.822 243.085 178.545 243.371 178.202C243.657 177.858 243.865 177.456 243.978 177.024C244.092 176.592 244.109 176.14 244.029 175.7L242.587 167.734Z" fill="white"/>
<path d="M275.619 51.063C275.414 51.2367 275.247 51.4503 275.127 51.6908C275.007 51.9313 274.937 52.1936 274.922 52.4618C274.906 52.7301 274.946 52.9986 275.037 53.2512C275.129 53.5037 275.271 53.735 275.455 53.931L275.836 54.319C276.169 54.6727 276.621 54.8916 277.104 54.9342C277.588 54.9768 278.071 54.8401 278.461 54.55L308.661 32.081C309.091 31.7608 309.441 31.3445 309.682 30.8653C309.922 30.3861 310.048 29.8573 310.048 29.321C310.048 28.665 309.86 28.0227 309.507 27.4699C309.153 26.9171 308.649 26.4768 308.054 26.201C307.459 25.9252 306.797 25.8254 306.147 25.9132C305.497 26.0011 304.886 26.2731 304.385 26.697L275.619 51.063Z" fill="white"/>
<path d="M285.128 62.013C284.848 62.1555 284.601 62.354 284.402 62.596C284.202 62.8381 284.054 63.1186 283.967 63.4202C283.881 63.7218 283.857 64.0379 283.897 64.3491C283.938 64.6603 284.042 64.9597 284.203 65.229L284.226 65.267C284.51 65.743 284.958 66.0994 285.486 66.2696C286.013 66.4398 286.585 66.4122 287.094 66.192L308.212 57.092C308.757 56.8572 309.221 56.4679 309.547 55.9723C309.873 55.4766 310.047 54.8963 310.047 54.303C310.047 53.7836 309.914 53.2728 309.66 52.8196C309.406 52.3663 309.04 51.9857 308.598 51.714C308.155 51.4424 307.65 51.2888 307.131 51.268C306.612 51.2471 306.096 51.3597 305.633 51.595L285.128 62.013Z" fill="white"/>
<path d="M291.637 75.372C291.328 75.4472 291.038 75.5845 290.784 75.7757C290.53 75.9668 290.317 76.2078 290.16 76.4838C290.002 76.7598 289.902 77.065 289.866 77.3809C289.83 77.6968 289.859 78.0167 289.951 78.321L289.96 78.35C290.123 78.9006 290.482 79.372 290.97 79.6744C291.458 79.9769 292.041 80.0892 292.606 79.99L307.733 77.325C308.381 77.2106 308.968 76.8716 309.391 76.3677C309.814 75.8637 310.046 75.2269 310.046 74.569V74.469C310.046 74.0456 309.949 73.6277 309.764 73.2469C309.579 72.866 309.31 72.5321 308.977 72.2703C308.645 72.0085 308.257 71.8255 307.843 71.7352C307.429 71.6449 307.001 71.6497 306.589 71.749L291.637 75.372Z" fill="white"/>
<path d="M294.735 90.236C294.415 90.2371 294.099 90.3026 293.806 90.4286C293.512 90.5546 293.247 90.7386 293.026 90.9695C292.805 91.2004 292.633 91.4734 292.52 91.7723C292.407 92.0712 292.356 92.3898 292.369 92.709V92.756C292.393 93.3465 292.635 93.9072 293.048 94.3291C293.462 94.751 294.018 95.004 294.608 95.039L307.084 95.768C307.464 95.7899 307.845 95.734 308.204 95.6035C308.562 95.473 308.889 95.2708 309.167 95.0092C309.444 94.7476 309.665 94.4322 309.816 94.0822C309.967 93.7323 310.045 93.3552 310.045 92.974C310.045 92.6053 309.972 92.2402 309.831 91.8997C309.689 91.5592 309.482 91.2501 309.221 90.9899C308.959 90.7297 308.649 90.5237 308.308 90.3837C307.967 90.2437 307.602 90.1725 307.233 90.174L294.735 90.236Z" fill="white"/>
<path d="M294.329 105.739C294.006 105.665 293.672 105.657 293.346 105.717C293.021 105.776 292.711 105.902 292.436 106.086C292.16 106.27 291.926 106.508 291.746 106.786C291.566 107.065 291.446 107.376 291.391 107.703L291.383 107.75C291.285 108.332 291.403 108.93 291.716 109.431C292.028 109.932 292.512 110.302 293.078 110.471L306.445 114.471C306.863 114.596 307.304 114.621 307.733 114.545C308.162 114.469 308.568 114.294 308.917 114.033C309.267 113.773 309.551 113.435 309.747 113.045C309.943 112.656 310.045 112.226 310.045 111.79V111.604C310.045 110.972 309.83 110.358 309.437 109.863C309.044 109.368 308.495 109.021 307.879 108.878L294.329 105.739Z" fill="white"/>
<path d="M290.597 121.212C290.291 121.06 289.956 120.973 289.615 120.956C289.273 120.94 288.932 120.995 288.612 121.117C288.293 121.239 288.002 121.426 287.758 121.666C287.515 121.906 287.324 122.194 287.197 122.512L287.174 122.57C286.952 123.123 286.937 123.737 287.131 124.3C287.326 124.863 287.717 125.336 288.233 125.634L305.858 135.814C306.282 136.059 306.763 136.188 307.253 136.188C307.743 136.188 308.224 136.059 308.648 135.814C309.072 135.569 309.425 135.217 309.67 134.793C309.915 134.369 310.044 133.888 310.044 133.398V132.598C310.044 132.078 309.899 131.569 309.625 131.127C309.351 130.685 308.96 130.329 308.494 130.098L290.597 121.212Z" fill="white"/>
<path d="M283.487 136.025C283.213 135.798 282.894 135.631 282.551 135.534C282.209 135.437 281.849 135.413 281.497 135.464C281.144 135.514 280.806 135.638 280.505 135.826C280.203 136.015 279.944 136.265 279.744 136.56L279.724 136.591C279.381 137.092 279.229 137.699 279.294 138.303C279.359 138.907 279.637 139.467 280.079 139.884L303.955 162.417C304.468 162.901 305.112 163.224 305.807 163.347C306.502 163.469 307.217 163.386 307.865 163.106C308.513 162.827 309.065 162.364 309.453 161.774C309.84 161.185 310.047 160.495 310.047 159.789C310.048 159.259 309.931 158.735 309.707 158.255C309.482 157.775 309.154 157.35 308.747 157.011L283.487 136.025Z" fill="white"/>
<path d="M205.57 45.272L205.603 45.248C205.98 44.9745 206.247 44.576 206.357 44.1237C206.467 43.6715 206.412 43.1948 206.203 42.779L185.676 1.89001C185.391 1.32192 184.953 0.84431 184.412 0.510559C183.871 0.176808 183.248 4.30805e-05 182.612 0C182.009 0.000106963 181.417 0.159301 180.895 0.461517C180.373 0.763733 179.94 1.19828 179.64 1.72128C179.339 2.24429 179.182 2.83725 179.185 3.44031C179.187 4.04336 179.348 4.63517 179.652 5.15601L202.726 44.672C202.864 44.9084 203.05 45.1132 203.272 45.2734C203.494 45.4336 203.747 45.5455 204.015 45.6021C204.283 45.6586 204.56 45.6584 204.827 45.6015C205.095 45.5447 205.348 45.4325 205.57 45.272Z" fill="white"/>
<path d="M216.104 39.528L216.141 39.514C216.593 39.3371 216.966 39.0028 217.191 38.5726C217.416 38.1424 217.478 37.6453 217.366 37.173L209.122 2.366C208.963 1.69249 208.581 1.0925 208.038 0.663116C207.495 0.23373 206.823 8.02027e-05 206.131 0H205.939C205.459 8.83846e-05 204.985 0.112736 204.556 0.328918C204.127 0.545101 203.754 0.858809 203.468 1.24487C203.182 1.63094 202.991 2.07862 202.909 2.55203C202.828 3.02545 202.858 3.51144 202.998 3.97101L213.433 38.242C213.515 38.5082 213.65 38.7546 213.832 38.9657C214.013 39.1768 214.236 39.3482 214.487 39.469C214.738 39.5897 215.011 39.6573 215.289 39.6675C215.568 39.6776 215.845 39.6302 216.104 39.528Z" fill="white"/>
<path d="M228.037 36.595L228.077 36.59C228.579 36.5332 229.043 36.2932 229.38 35.9159C229.716 35.5386 229.902 35.0506 229.901 34.545L229.906 3.07501C229.906 2.67111 229.827 2.27114 229.672 1.89795C229.518 1.52476 229.291 1.18564 229.006 0.899994C228.72 0.614348 228.381 0.387781 228.008 0.233185C227.635 0.0785891 227.235 -0.0010071 226.831 -0.00100708C226.411 -0.00102454 225.995 0.0850573 225.61 0.251892C225.224 0.418727 224.877 0.662792 224.59 0.969025C224.302 1.27526 224.081 1.63714 223.938 2.03238C223.796 2.42761 223.737 2.8478 223.763 3.267L225.744 34.679C225.762 34.958 225.836 35.2304 225.963 35.4796C226.089 35.7289 226.265 35.9499 226.479 36.1291C226.694 36.3083 226.943 36.4421 227.21 36.5222C227.478 36.6022 227.759 36.627 228.037 36.595Z" fill="white"/>
<path d="M240.648 36.742L240.689 36.747C241.199 36.8088 241.714 36.6806 242.136 36.3867C242.558 36.0929 242.856 35.654 242.975 35.154L250.397 3.86099C250.506 3.40081 250.51 2.92186 250.408 2.46005C250.306 1.99824 250.1 1.56558 249.807 1.19449C249.514 0.823394 249.14 0.523498 248.714 0.317322C248.289 0.111146 247.822 0.00402774 247.349 0.0039978C246.61 0.0040381 245.896 0.26491 245.331 0.740601C244.766 1.21629 244.387 1.87624 244.261 2.604L238.83 34.296C238.781 34.5769 238.79 34.8649 238.856 35.1423C238.921 35.4197 239.043 35.6809 239.213 35.9097C239.383 36.1386 239.598 36.3304 239.845 36.4735C240.092 36.6166 240.365 36.708 240.648 36.742Z" fill="white"/>
<path d="M253.243 39.702L253.283 39.716C253.773 39.8901 254.309 39.8794 254.791 39.6858C255.274 39.4923 255.669 39.1293 255.902 38.665L272.885 4.86499C273.142 4.3533 273.264 3.78428 273.239 3.2121C273.215 2.63992 273.043 2.08366 272.743 1.59625C272.442 1.10885 272.021 0.706533 271.521 0.427644C271.021 0.148755 270.458 0.00256395 269.885 0.00299166C269.227 0.00307067 268.583 0.196732 268.034 0.559815C267.486 0.922899 267.056 1.43939 266.798 2.04501L251.986 36.845C251.872 37.1142 251.815 37.4038 251.817 37.696C251.819 37.9883 251.881 38.277 251.999 38.5445C252.116 38.812 252.287 39.0527 252.501 39.2517C252.715 39.4508 252.968 39.604 253.243 39.702Z" fill="white"/>
<path d="M265.147 45.542L265.178 45.562C265.625 45.8486 266.161 45.9625 266.686 45.8824C267.211 45.8024 267.689 45.5338 268.03 45.127L300.652 6.26401C301.118 5.70832 301.417 5.03105 301.511 4.3118C301.606 3.59254 301.494 2.86117 301.187 2.20364C300.88 1.54612 300.393 0.989771 299.781 0.599945C299.169 0.210119 298.458 0.00301224 297.733 0.00299072C297.136 0.00312122 296.548 0.143463 296.015 0.412689C295.482 0.681916 295.02 1.07252 294.666 1.55301L264.566 42.394C264.388 42.6355 264.261 42.911 264.194 43.2034C264.127 43.4957 264.12 43.7988 264.175 44.0938C264.229 44.3889 264.343 44.6696 264.511 44.9187C264.678 45.1678 264.895 45.3799 265.147 45.542Z" fill="white"/>
<path d="M224.628 88.893C224.627 88.7483 224.571 88.6094 224.47 88.5053C224.369 88.4013 224.233 88.3399 224.088 88.334L223.671 88.261C223.588 88.2466 223.503 88.2537 223.423 88.2818C223.344 88.3098 223.273 88.3578 223.217 88.4211C223.161 88.4845 223.123 88.561 223.105 88.6435C223.088 88.7259 223.092 88.8115 223.117 88.892V88.902C223.146 88.9925 223.2 89.0727 223.274 89.1329C223.347 89.193 223.437 89.2306 223.531 89.241L223.967 89.29C224.107 89.3216 224.254 89.298 224.377 89.224C224.5 89.1501 224.59 89.0315 224.628 88.893Z" fill="white"/>
<path d="M224.005 89.369C223.94 89.363 223.873 89.372 223.812 89.3956C223.751 89.4192 223.696 89.4567 223.651 89.5051C223.606 89.5534 223.574 89.6114 223.555 89.6746C223.536 89.7377 223.533 89.8042 223.544 89.869V89.878C223.558 89.9492 223.592 90.0154 223.64 90.0696C223.688 90.1239 223.75 90.1644 223.819 90.187C223.927 90.222 224.039 90.2438 224.152 90.252C224.271 90.2681 224.391 90.2371 224.487 90.1657C224.582 90.0943 224.646 89.9881 224.665 89.87C224.666 89.766 224.63 89.6651 224.564 89.5849C224.497 89.5047 224.405 89.4502 224.303 89.431C224.205 89.4032 224.106 89.3825 224.005 89.369Z" fill="white"/>
<path d="M224.342 91.211C224.545 91.211 224.709 91.0467 224.709 90.844C224.709 90.6413 224.545 90.477 224.342 90.477C224.139 90.477 223.975 90.6413 223.975 90.844C223.975 91.0467 224.139 91.211 224.342 91.211Z" fill="white"/>
<path d="M202.394 115.487L202.369 115.47C202.085 115.275 201.742 115.183 201.398 115.21C201.054 115.237 200.73 115.382 200.48 115.619L156.417 157.176C156.076 157.497 155.805 157.885 155.62 158.315C155.434 158.745 155.338 159.208 155.338 159.676C155.338 160.366 155.546 161.04 155.934 161.611C156.323 162.181 156.874 162.622 157.516 162.875C158.158 163.128 158.861 163.182 159.534 163.031C160.208 162.879 160.82 162.528 161.291 162.024L202.647 117.764C202.795 117.605 202.906 117.415 202.974 117.209C203.042 117.002 203.065 116.784 203.041 116.568C203.017 116.352 202.947 116.143 202.835 115.957C202.723 115.771 202.573 115.61 202.394 115.487Z" fill="white"/>
<path d="M195.449 111.998C195.637 111.872 195.796 111.707 195.915 111.514C196.033 111.322 196.109 111.106 196.136 110.881C196.164 110.656 196.142 110.428 196.074 110.212C196.005 109.997 195.89 109.798 195.738 109.631L195.717 109.608C195.476 109.343 195.152 109.169 194.799 109.115C194.446 109.06 194.084 109.128 193.775 109.308L156.805 130.645C156.359 130.902 155.988 131.273 155.731 131.719C155.473 132.165 155.338 132.671 155.338 133.186C155.338 133.717 155.482 134.237 155.754 134.693C156.027 135.148 156.418 135.521 156.885 135.772C157.353 136.022 157.88 136.141 158.41 136.116C158.94 136.091 159.453 135.923 159.895 135.629L195.449 111.998Z" fill="white"/>
<path d="M189.511 104.367C189.731 104.286 189.931 104.158 190.097 103.993C190.264 103.827 190.393 103.628 190.476 103.409C190.559 103.19 190.594 102.955 190.579 102.721C190.563 102.487 190.498 102.259 190.387 102.052L190.372 102.024C190.196 101.696 189.913 101.439 189.57 101.297C189.226 101.154 188.844 101.134 188.488 101.241L157.172 110.611C156.642 110.769 156.177 111.095 155.847 111.538C155.516 111.982 155.338 112.521 155.338 113.074V113.301C155.338 113.715 155.438 114.124 155.63 114.491C155.822 114.858 156.099 115.174 156.439 115.411C156.779 115.648 157.172 115.799 157.583 115.852C157.994 115.904 158.411 115.857 158.8 115.713L189.511 104.367Z" fill="white"/>
<path d="M185.485 95.125C185.723 95.0955 185.951 95.0159 186.156 94.8914C186.36 94.7669 186.536 94.6005 186.671 94.403C186.806 94.2055 186.898 93.9815 186.94 93.7458C186.983 93.5101 186.974 93.2682 186.916 93.036L186.908 93.004C186.813 92.6235 186.587 92.2882 186.271 92.0563C185.954 91.8244 185.567 91.7103 185.175 91.734L157.76 93.327C157.105 93.3648 156.489 93.6516 156.039 94.1287C155.589 94.6057 155.338 95.237 155.338 95.893C155.338 96.257 155.415 96.6168 155.564 96.9487C155.714 97.2807 155.932 97.577 156.204 97.8184C156.477 98.0597 156.797 98.2404 157.145 98.3486C157.492 98.4568 157.859 98.49 158.22 98.446L185.485 95.125Z" fill="white"/>
<path d="M183.91 84.802C184.15 84.829 184.394 84.8053 184.625 84.7324C184.855 84.6596 185.069 84.5392 185.25 84.3791C185.431 84.2189 185.577 84.0226 185.678 83.8026C185.779 83.5827 185.833 83.344 185.836 83.102V83.059C185.84 82.6483 185.699 82.2494 185.437 81.9333C185.174 81.6173 184.808 81.4045 184.404 81.333L158.355 76.733C157.985 76.6677 157.606 76.6842 157.243 76.7813C156.88 76.8784 156.543 77.0539 156.256 77.2952C155.968 77.5366 155.737 77.838 155.578 78.1783C155.419 78.5186 155.337 78.8895 155.337 79.265V79.303C155.337 79.9354 155.57 80.5457 155.992 81.0172C156.413 81.4887 156.994 81.7884 157.622 81.859L183.91 84.802Z" fill="white"/>
<path d="M184.777 74.004C185.015 74.0886 185.267 74.1222 185.519 74.1025C185.77 74.0828 186.015 74.0103 186.236 73.8897C186.458 73.7691 186.651 73.6031 186.804 73.4026C186.957 73.202 187.066 72.9715 187.124 72.726L187.132 72.692C187.229 72.2831 187.178 71.8531 186.989 71.4777C186.8 71.1023 186.485 70.8057 186.099 70.64L158.929 58.915C158.538 58.7461 158.111 58.6771 157.686 58.7141C157.262 58.7512 156.853 58.8932 156.497 59.1273C156.141 59.3615 155.849 59.6804 155.647 60.0555C155.445 60.4305 155.339 60.8499 155.339 61.276V61.641C155.339 62.1704 155.502 62.687 155.806 63.1203C156.11 63.5536 156.541 63.8825 157.039 64.062L184.777 74.004Z" fill="white"/>
<path d="M188.177 63.278C188.396 63.4197 188.642 63.5136 188.899 63.5536C189.156 63.5937 189.419 63.5789 189.671 63.5103C189.922 63.4417 190.156 63.3207 190.357 63.1554C190.559 62.9901 190.723 62.7841 190.839 62.551L190.856 62.518C191.049 62.131 191.099 61.6884 190.999 61.2678C190.898 60.8473 190.652 60.4756 190.305 60.218L160.21 37.806C159.756 37.4678 159.218 37.2625 158.654 37.2129C158.09 37.1634 157.524 37.2717 157.018 37.5256C156.513 37.7795 156.088 38.1691 155.791 38.6507C155.494 39.1324 155.337 39.6871 155.337 40.253C155.337 40.761 155.464 41.2609 155.706 41.7074C155.948 42.154 156.298 42.5329 156.724 42.81L188.177 63.278Z" fill="white"/>
<path d="M194.202 53.264C194.387 53.4577 194.611 53.6102 194.86 53.7115C195.108 53.8129 195.375 53.8608 195.643 53.8521C195.91 53.8434 196.174 53.7784 196.415 53.6612C196.656 53.544 196.87 53.3773 197.042 53.172L197.067 53.143C197.355 52.8005 197.513 52.3672 197.513 51.9195C197.513 51.4718 197.355 51.0385 197.067 50.696L161.799 8.651C161.316 8.07603 160.669 7.66341 159.944 7.46915C159.219 7.27489 158.451 7.30839 157.746 7.56509C157.041 7.8218 156.431 8.28928 156.001 8.90411C155.57 9.51895 155.339 10.2514 155.339 11.002C155.339 11.9414 155.7 12.8449 156.348 13.525L194.202 53.264Z" fill="white"/>
<path d="M359.162 31.94V56.455H368.891V63.374H351.049V31.94H359.162Z" fill="white"/>
<path d="M390.833 38.86H381.187V44.113H390.296V51.035H381.187V56.455H390.833V63.374H373.073V31.94H390.831L390.833 38.86Z" fill="white"/>
<path d="M411.863 45.781H427.968C427.975 47.2985 427.905 48.8155 427.76 50.326C427.637 51.6193 427.36 52.8931 426.933 54.12C426.39 55.6918 425.593 57.1638 424.573 58.477C423.596 59.7256 422.412 60.7972 421.073 61.645C419.707 62.5055 418.221 63.159 416.664 63.584C415.019 64.0346 413.32 64.259 411.614 64.251C409.341 64.2799 407.085 63.8694 404.968 63.042C403.032 62.2798 401.277 61.1217 399.814 59.642C398.35 58.1383 397.208 56.3511 396.46 54.3901C394.868 50.0293 394.861 45.2475 396.44 40.882C397.175 38.92 398.318 37.1363 399.794 35.649C401.289 34.1756 403.071 33.0263 405.03 32.273C407.21 31.4418 409.528 31.0316 411.861 31.064C414.856 30.9977 417.814 31.7312 420.431 33.189C423.004 34.7369 425.041 37.0356 426.269 39.776L418.569 42.986C418.031 41.4972 417.057 40.2048 415.775 39.277C414.611 38.5206 413.249 38.1285 411.861 38.151C410.72 38.135 409.589 38.3695 408.549 38.838C407.563 39.2908 406.693 39.9605 406.002 40.797C405.265 41.7073 404.704 42.7467 404.347 43.862C403.932 45.1541 403.729 46.505 403.747 47.862C403.736 49.1182 403.91 50.369 404.265 51.574C404.579 52.6545 405.107 53.661 405.817 54.534C406.511 55.3704 407.39 56.0341 408.385 56.473C409.509 56.9518 410.722 57.186 411.944 57.16C412.725 57.1627 413.504 57.0717 414.263 56.889C414.98 56.7213 415.66 56.4245 416.271 56.013C416.869 55.6053 417.37 55.0718 417.74 54.4501C418.153 53.731 418.421 52.9376 418.528 52.115H411.861L411.863 45.781Z" fill="white"/>
<path d="M451.07 57.914H439.477L437.615 63.374H428.961L440.843 31.939H449.701L461.583 63.374H452.931L451.07 57.914ZM448.917 51.702L445.274 41.237L441.63 51.702H448.917Z" fill="white"/>
<path d="M465.144 31.94H477.15C479.215 31.9269 481.257 32.368 483.132 33.232C484.958 34.0682 486.615 35.2344 488.018 36.672C489.419 38.117 490.535 39.8133 491.307 41.672C492.096 43.56 492.505 45.5854 492.509 47.6318C492.512 49.6782 492.112 51.7052 491.329 53.596C490.566 55.4621 489.456 57.1665 488.058 58.619C486.66 60.0678 485.002 61.2417 483.172 62.08C481.284 62.9472 479.228 63.3883 477.15 63.372H465.144V31.94ZM473.258 56.455H475.122C476.409 56.4768 477.688 56.2503 478.889 55.788C479.94 55.3787 480.894 54.7536 481.689 53.953C482.456 53.1607 483.048 52.2164 483.427 51.181C483.837 50.0518 484.04 48.8582 484.027 47.657C484.037 46.4622 483.826 45.2758 483.407 44.157C483.023 43.1048 482.418 42.1472 481.632 41.3487C480.846 40.5502 479.899 39.9293 478.853 39.528C477.665 39.0692 476.4 38.8427 475.127 38.861H473.263L473.258 56.455Z" fill="white"/>
<path d="M496.278 47.658C496.259 45.4186 496.696 43.1987 497.561 41.133C498.391 39.1358 499.616 37.3269 501.163 35.8147C502.71 34.3026 504.546 33.1183 506.561 32.333C511.05 30.6374 516.003 30.6374 520.492 32.333C522.538 33.1281 524.404 34.3254 525.979 35.854C527.511 37.357 528.728 39.1503 529.559 41.129C531.272 45.3105 531.272 49.9976 529.559 54.179C528.728 56.1576 527.511 57.9507 525.979 59.453C524.404 60.982 522.538 62.1795 520.492 62.975C516.003 64.6705 511.05 64.6705 506.561 62.975C504.546 62.1893 502.71 61.005 501.164 59.4929C499.617 57.9808 498.392 56.172 497.561 54.175C496.697 52.1118 496.26 49.8948 496.278 47.658ZM504.765 47.658C504.751 48.8482 504.99 50.0277 505.465 51.119C505.914 52.1505 506.559 53.0849 507.365 53.87C508.169 54.651 509.118 55.2669 510.159 55.683C511.759 56.331 513.512 56.5046 515.208 56.1831C516.904 55.8616 518.472 55.0586 519.724 53.87C520.539 53.0877 521.192 52.153 521.647 51.119C522.112 50.0245 522.351 48.8476 522.351 47.6585C522.351 46.4694 522.112 45.2925 521.647 44.198C521.192 43.164 520.538 42.229 519.724 41.446C518.468 40.2644 516.9 39.4661 515.206 39.1449C513.511 38.8237 511.76 38.9931 510.159 39.633C509.118 40.0497 508.169 40.6656 507.365 41.446C506.56 42.2318 505.914 43.1665 505.465 44.198C504.99 45.289 504.751 46.4682 504.765 47.658Z" fill="white"/>
<path d="M363.348 94.086V96.892C362.194 95.8283 360.695 95.2177 359.127 95.173C358.367 95.1591 357.613 95.307 356.915 95.6069C356.217 95.9067 355.59 96.3515 355.077 96.912C354.534 97.4722 354.109 98.1346 353.824 98.8608C353.54 99.5869 353.403 100.362 353.421 101.142C353.403 101.913 353.541 102.679 353.825 103.395C354.11 104.112 354.535 104.764 355.077 105.312C355.598 105.862 356.228 106.297 356.927 106.59C357.626 106.882 358.378 107.026 359.136 107.012C359.861 107.033 360.582 106.894 361.248 106.605C361.598 106.455 361.933 106.271 362.248 106.057C362.631 105.801 362.998 105.522 363.348 105.223V108.081C362.06 108.831 360.596 109.228 359.106 109.23C358.046 109.234 356.996 109.028 356.016 108.625C355.036 108.221 354.146 107.627 353.397 106.877C352.648 106.127 352.055 105.237 351.652 104.256C351.249 103.276 351.044 102.226 351.049 101.166C351.035 99.2034 351.734 97.3024 353.017 95.817C353.772 94.8893 354.731 94.1473 355.818 93.6482C356.906 93.1491 358.093 92.9061 359.289 92.938C360.721 92.9462 362.124 93.343 363.348 94.086Z" fill="white"/>
<path d="M365.439 101.021C365.426 99.9566 365.634 98.901 366.05 97.9209C366.465 96.9408 367.079 96.0573 367.853 95.3261C368.604 94.5581 369.503 93.9511 370.496 93.5419C371.489 93.1328 372.555 92.93 373.629 92.9461C374.695 92.9322 375.753 93.1381 376.736 93.551C377.72 93.9639 378.607 94.575 379.344 95.346C380.115 96.0931 380.725 96.9901 381.137 97.9816C381.549 98.9732 381.753 100.039 381.738 101.112C381.757 102.184 381.554 103.248 381.14 104.237C380.727 105.226 380.114 106.119 379.338 106.859C377.85 108.33 375.857 109.176 373.765 109.225C371.674 109.274 369.643 108.522 368.088 107.123C367.221 106.367 366.533 105.427 366.075 104.371C365.616 103.315 365.399 102.171 365.439 101.021ZM367.812 101.051C367.787 101.846 367.928 102.638 368.227 103.376C368.526 104.113 368.976 104.78 369.549 105.333C370.083 105.868 370.718 106.291 371.417 106.579C372.116 106.867 372.865 107.014 373.62 107.011C374.376 107.008 375.124 106.855 375.821 106.562C376.517 106.269 377.149 105.841 377.679 105.302C378.758 104.167 379.361 102.662 379.365 101.096C379.368 99.5298 378.772 98.0219 377.698 96.882C377.172 96.3266 376.535 95.8876 375.829 95.5933C375.123 95.2989 374.363 95.1558 373.598 95.173C372.832 95.1577 372.071 95.3016 371.363 95.5958C370.655 95.89 370.016 96.328 369.487 96.882C368.939 97.4267 368.508 98.0774 368.22 98.7941C367.932 99.5109 367.793 100.279 367.812 101.051Z" fill="white"/>
<path d="M384.151 108.944L387.433 92.062L392.785 104.262L398.329 92.062L401.278 108.944H398.864L397.364 99.465L392.749 109.665L388.265 99.454L386.589 108.942L384.151 108.944Z" fill="white"/>
<path d="M406.935 93.241V108.941H404.582V93.241H406.935Z" fill="white"/>
<path d="M419.496 95.58L417.588 96.72C417.352 96.2361 417.002 95.8173 416.567 95.5C416.174 95.2686 415.723 95.1557 415.267 95.175C414.674 95.1544 414.095 95.3539 413.641 95.735C413.435 95.901 413.269 96.1119 413.157 96.3516C413.045 96.5912 412.989 96.8534 412.994 97.118C412.994 97.884 413.561 98.501 414.694 98.969L416.249 99.61C417.321 99.9904 418.278 100.64 419.027 101.497C419.626 102.278 419.937 103.243 419.906 104.227C419.927 104.89 419.81 105.551 419.563 106.167C419.316 106.783 418.945 107.341 418.472 107.807C418.002 108.275 417.442 108.642 416.826 108.887C416.209 109.131 415.55 109.249 414.887 109.231C413.655 109.275 412.455 108.842 411.535 108.022C410.614 107.109 410.039 105.904 409.909 104.614L412.292 104.085C412.32 104.759 412.514 105.416 412.857 105.997C413.088 106.289 413.378 106.53 413.707 106.704C414.037 106.878 414.399 106.982 414.771 107.007C415.142 107.033 415.515 106.981 415.866 106.855C416.216 106.728 416.537 106.53 416.806 106.272C417.047 106.023 417.236 105.728 417.361 105.405C417.486 105.082 417.544 104.736 417.533 104.39C417.536 104.106 417.494 103.823 417.408 103.552C417.322 103.296 417.188 103.059 417.014 102.852C416.813 102.62 416.58 102.418 416.322 102.252C416.002 102.045 415.664 101.867 415.312 101.719L413.812 101.089C411.679 100.179 410.612 98.85 410.612 97.102C410.602 96.5399 410.718 95.9827 410.95 95.4708C411.182 94.9588 411.526 94.505 411.955 94.142C412.876 93.3327 414.071 92.9038 415.297 92.942C416.174 92.9423 417.033 93.1899 417.776 93.6566C418.519 94.1232 419.115 94.7899 419.496 95.58Z" fill="white"/>
<path d="M425.091 93.241V108.941H422.739V93.241H425.091Z" fill="white"/>
<path d="M428.061 101.022C428.048 99.9576 428.256 98.9022 428.672 97.9221C429.087 96.942 429.701 96.0584 430.474 95.327C431.225 94.5591 432.124 93.9521 433.117 93.543C434.11 93.1338 435.176 92.931 436.25 92.947C437.316 92.9331 438.374 93.1391 439.358 93.552C440.341 93.9649 441.229 94.576 441.966 95.347C442.737 96.0941 443.347 96.991 443.759 97.9826C444.17 98.9742 444.375 100.039 444.36 101.113C444.379 102.185 444.175 103.249 443.762 104.238C443.349 105.227 442.735 106.12 441.96 106.86C440.472 108.331 438.479 109.177 436.387 109.226C434.296 109.275 432.265 108.523 430.71 107.124C429.843 106.368 429.155 105.428 428.697 104.372C428.238 103.317 428.021 102.172 428.061 101.022ZM430.434 101.052C430.409 101.847 430.55 102.639 430.849 103.377C431.148 104.114 431.598 104.781 432.171 105.334C432.705 105.869 433.34 106.292 434.039 106.58C434.738 106.868 435.487 107.015 436.242 107.012C436.998 107.009 437.746 106.856 438.443 106.563C439.139 106.27 439.771 105.842 440.301 105.303C441.38 104.168 441.984 102.663 441.988 101.097C441.991 99.5309 441.395 98.0229 440.321 96.883C439.795 96.3277 439.158 95.8886 438.452 95.5943C437.746 95.2999 436.986 95.1568 436.221 95.174C435.455 95.1586 434.694 95.3026 433.986 95.5968C433.278 95.891 432.639 96.329 432.11 96.883C431.562 97.4277 431.131 98.0782 430.843 98.795C430.555 99.5117 430.416 100.28 430.434 101.052ZM439.796 89.022L435.675 91.828L434.554 90.882L437.795 87.607L439.796 89.022Z" fill="white"/>
<path d="M447.318 108.944V92.174L458.689 104.154V93.241H461.041V109.896L449.67 97.947V108.94L447.318 108.944Z" fill="white"/>
<path d="M471.161 108.943V93.243H474.432C475.688 93.201 476.942 93.359 478.148 93.711C479.138 94.0251 480.046 94.5572 480.804 95.268C481.577 96.0347 482.189 96.9485 482.604 97.9555C483.018 98.9624 483.227 100.042 483.218 101.131C483.209 102.22 482.981 103.296 482.55 104.296C482.118 105.296 481.49 106.199 480.704 106.952C479.941 107.652 479.039 108.183 478.057 108.509C476.865 108.843 475.628 108.99 474.391 108.946L471.161 108.943ZM473.513 106.716H474.573C475.463 106.738 476.352 106.625 477.208 106.38C477.913 106.141 478.56 105.756 479.108 105.251C479.681 104.724 480.132 104.079 480.432 103.361C480.732 102.643 480.873 101.869 480.845 101.091C480.874 100.311 480.737 99.533 480.441 98.8103C480.145 98.0876 479.697 97.4366 479.129 96.901C477.849 95.8599 476.22 95.3469 474.574 95.467H473.514L473.513 106.716Z" fill="white"/>
<path d="M494.783 95.469H488.532V99.241H494.601V101.468H488.532V106.715H494.783V108.942H486.183V93.242H494.783V95.469Z" fill="white"/>
<path d="M506.605 93.241V106.716H511.19V108.943H504.253V93.243L506.605 93.241Z" fill="white"/>
<path d="M523.449 105.131H516.773L515.036 108.944H512.501L520.216 92.256L527.66 108.944H525.083L523.449 105.131ZM522.49 102.903L520.176 97.564L517.754 102.903H522.49Z" fill="white"/>
<path d="M357.868 116.828L365.396 135.948L372.965 116.828H381.776L368.622 148.236H362.169L349.053 116.828H357.868Z" fill="white"/>
<path d="M402.789 123.743H393.151V128.991H402.251V135.904H393.151V141.319H402.789V148.234H385.043V116.828H402.789V123.743Z" fill="white"/>
<path d="M434.555 148.236H424.463L416.727 136.156V148.236H408.62V116.828H421.236C422.788 116.796 424.332 117.058 425.787 117.6C426.995 118.057 428.087 118.774 428.987 119.7C429.825 120.586 430.471 121.635 430.887 122.782C431.32 123.984 431.537 125.253 431.527 126.531C431.623 128.605 431.019 130.652 429.812 132.341C428.53 133.911 426.736 134.981 424.745 135.362L434.555 148.236ZM416.727 130.865H418.258C419.562 130.95 420.857 130.598 421.939 129.865C422.342 129.503 422.665 129.06 422.886 128.564C423.107 128.069 423.221 127.533 423.221 126.991C423.221 126.449 423.107 125.913 422.886 125.418C422.665 124.922 422.342 124.479 421.939 124.117C420.857 123.384 419.562 123.032 418.258 123.117H416.727V130.865Z" fill="white"/>
<path d="M437.947 116.828H449.947C452.01 116.816 454.05 117.257 455.924 118.12C457.749 118.955 459.403 120.12 460.805 121.556C462.206 123.001 463.321 124.697 464.093 126.556C464.882 128.442 465.29 130.466 465.293 132.51C465.297 134.555 464.896 136.58 464.114 138.469C463.353 140.334 462.244 142.038 460.847 143.489C459.45 144.935 457.795 146.108 455.967 146.945C454.08 147.812 452.025 148.253 449.948 148.237H437.948L437.947 116.828ZM446.054 141.321H447.916C449.202 141.343 450.48 141.117 451.68 140.655C452.729 140.246 453.68 139.622 454.473 138.822C455.24 138.031 455.833 137.087 456.211 136.052C456.621 134.924 456.824 133.732 456.811 132.532C456.821 131.337 456.611 130.151 456.192 129.032C455.809 127.98 455.204 127.023 454.419 126.226C453.634 125.428 452.687 124.808 451.642 124.407C450.455 123.948 449.19 123.722 447.918 123.741H446.056L446.054 141.321Z" fill="white"/>
<path d="M488.247 142.779H476.668L474.807 148.236H466.162L478.032 116.828H486.885L498.755 148.236H490.111L488.247 142.779ZM486.096 136.573L482.456 126.117L478.815 136.573H486.096Z" fill="white"/>
<path d="M502.309 116.828H514.309C516.372 116.816 518.413 117.257 520.287 118.12C522.112 118.955 523.766 120.12 525.168 121.556C526.568 123.002 527.683 124.698 528.456 126.556C529.244 128.442 529.652 130.466 529.655 132.511C529.659 134.555 529.258 136.58 528.476 138.469C527.715 140.334 526.607 142.038 525.21 143.489C523.813 144.936 522.158 146.108 520.329 146.945C518.442 147.812 516.387 148.253 514.311 148.237H502.311L502.309 116.828ZM510.417 141.321H512.278C513.564 141.343 514.842 141.117 516.043 140.655C517.092 140.246 518.043 139.622 518.835 138.822C519.603 138.031 520.195 137.087 520.573 136.052C520.983 134.924 521.186 133.732 521.173 132.532C521.184 131.337 520.974 130.151 520.554 129.032C520.171 127.981 519.566 127.024 518.781 126.226C517.997 125.428 517.05 124.808 516.005 124.407C514.818 123.948 513.554 123.722 512.281 123.741H510.42L510.417 141.321Z" fill="white"/>
<path d="M544.563 76.116H334.145V78.746H544.563V76.116Z" fill="white"/>
</svg>
