<svg xmlns="http://www.w3.org/2000/svg" width="542.115" height="485.26" viewBox="0 0 542.115 485.26">
  <g id="Group_1661" data-name="Group 1661" transform="translate(-3852.885 7309.558)">
    <path id="Path_4574" data-name="Path 4574" d="M852.043,881.45c-1.656-1.936-3.279-3.9-4.838-5.9-1.567-2.03-3.094-4.118-4.5-6.277-.656-1.032-1.343-2.062-1.967-3.126-.719-1.246-1.44-2.494-2.119-3.774-1-1.846-1.88-3.75-2.751-5.653-.848-1.815-1.688-3.623-2.5-5.469-1.656-3.806-3.342-7.589-4.622-11.555-.624-1.935-1.248-3.909-1.807-5.908-.287-1.025-.536-2.12-.784-3.182a26.753,26.753,0,0,1-.527-2.815c-.312-2.118-.568-4.245-.688-6.365-.128-1.967-.128-3.878-.063-5.813.063-1.063.216-2.127.344-3.159.12-1.056.248-2.151.408-3.213.247-2,.464-4,.743-5.965.313-2.247.656-4.469,1.032-6.684.344-1.9.751-3.782,1.064-5.653.655-3.806,1.158-7.621,1.687-11.459.311-2.222.624-4.469.84-6.716.191-1.848.223-3.687.287-5.534-.032-1.623-.032-3.247-.16-4.87-.151-1.59-.248-3.214-.5-4.781-.255-1.528-.5-3.031-.847-4.526-.311-1.343-.624-2.655-.967-3.966v-.092a64.76,64.76,0,0,0-2.183-6.217c-.36-.807-.744-1.615-1.144-2.423-1.095-.887-2.215-1.79-3.325-2.671-1.44-1.127-2.9-2.247-4.279-3.47-2.9-2.591-5.78-5.278-8.779-7.74-1.464-1.224-3-2.407-4.493-3.6-1.312-1.087-2.623-2.183-3.942-3.246-1.5-1.248-3-2.463-4.493-3.687-1.312-1.063-2.72-2.03-4.095-3l.1.1c-.184-.128-.376-.248-.592-.376a56.706,56.706,0,0,1,.408,7.524c-.032,1.032-.064,2.062-.16,3.094a25.474,25.474,0,0,1-.344,2.56c-.377,1.687-.872,3.317-1.407,4.973a106.866,106.866,0,0,1-3.934,10.147c-1.44,3.19-3,6.34-4.687,9.4v.032a.031.031,0,0,0-.031.032c-.84,1.528-1.72,3.055-2.5,4.59-.815,1.623-1.566,3.247-2.311,4.9-1.44,3.094-2.783,6.244-4.094,9.371-1.407,3.375-2.815,6.749-3.934,10.243s-2.239,7.016-3.248,10.535a42.111,42.111,0,0,0-.973,4.833c-.185,1.559-.28,3.126-.369,4.685-.192,2.9-.287,5.814-.287,8.716A130.071,130.071,0,0,0,765,824.3a121.079,121.079,0,0,0,3.278,14.432c0-.063-.031-.128-.031-.191q1.594,5.529,3.341,11.057c.5,1.591,1.032,3.182,1.592,4.782a43.624,43.624,0,0,0,2.622,6.4v-.025c.192.248.344.528.536.808a.1.1,0,0,1-.16.129,14.777,14.777,0,0,1-1.591-2.591c-.248-.5-.5-1.032-.719-1.535-.472-1.064-.967-2.151-1.375-3.247-.816-2.03-1.591-4.029-2.343-6.093-1.471-4.029-2.934-8.06-4.182-12.177a107.828,107.828,0,0,1-2.815-10.906,102.962,102.962,0,0,1-1.559-12.05c-.128-2.159-.279-4.311-.311-6.5-.064-1.751,0-3.495.056-5.246.063-2.246.128-4.5.376-6.748a43.485,43.485,0,0,1,1.063-5.494c1.1-3.965,2.344-7.907,3.719-11.777,1.311-3.815,2.965-7.468,4.621-11.155.751-1.687,1.5-3.4,2.311-5.085.848-1.751,1.656-3.5,2.567-5.221,1.744-3.279,3.679-6.4,5.493-9.651a1.536,1.536,0,0,1-.1.223c1.846-3.405,3.621-6.843,5.221-10.37.719-1.623,1.4-3.31,2.031-4.966.687-1.782,1.343-3.565,1.839-5.372v-.032c.031,0,.031,0,.031-.032v.032a48.359,48.359,0,0,0,.871-9.927c-.031-1.118-.056-2.237-.15-3.315-2.687-1.719-5.438-3.374-8.029-5.221-1.655-1.152-3.278-2.343-4.845-3.526-1.4-1.095-2.774-2.159-4.214-3.215-3.03-2.254-6.18-4.406-9.243-6.628a.192.192,0,0,0-.128.032h.032a.116.116,0,0,1-.1.032c-.12.031-.216-.153-.088-.185.032-.032.032-.032.056-.032-.12-.1-.28-.184-.4-.279l-.567-.376c.032.064.032.151.063.216a24.391,24.391,0,0,1,.5,4.254,21.251,21.251,0,0,1-.279,4.838,30.026,30.026,0,0,1-1.095,4.277,53.189,53.189,0,0,1-4.19,9.211c-1.711,2.975-3.59,5.814-5.43,8.651-.911,1.44-1.719,2.911-2.6,4.342-.808,1.407-1.712,2.751-2.623,4.063-2.03,2.909-4.277,5.653-6.4,8.467-2.254,2.966-4.254,6.061-6.34,9.115-1,1.408-1.943,2.878-2.815,4.342s-1.656,2.975-2.494,4.469c.056-.1.119-.216.184-.311-1.591,3-3.094,6.061-4.622,9.123-1.559,3.119-3.125,6.277-4.533,9.491-1.343,3.159-2.5,6.405-3.655,9.651a80.975,80.975,0,0,0-2.654,9.307c-.032.032-.032.064-.032.128-.024,0-.024.032-.024.064-.16.807-.344,1.623-.536,2.375-.153.743-.248,1.462-.376,2.214a32.424,32.424,0,0,0-.419,5.871,48.211,48.211,0,0,0,1.762,8.746c.5,1.839,1,3.686,1.566,5.557q1.261,4.221,2.711,8.4c.911,2.559,1.967,5.062,3,7.556.536,1.311,1.095,2.63,1.654,3.942.537,1.151,1.064,2.31,1.6,3.494.313.688.592,1.375.872,2.064a20.937,20.937,0,0,0,2.75.839,59.61,59.61,0,0,0,7.4,1.567,70.839,70.839,0,0,0,7.676.5l2.662-.032.84-.032c.84-.031,1.688-.056,2.472-.151L749.159,848l-1.279-1.279c-1.471-1.535-2.87-3.126-4.189-4.75a61.822,61.822,0,0,1-6.869-12.305,81.991,81.991,0,0,1-2.718-8.748,71.149,71.149,0,0,1-1.463-8.492,103.807,103.807,0,0,1,.376-20.741c.247-1.688.495-3.407.775-5.19.376-2.215.719-3.711,1.095-5.182l.527-2.246c.376-1.72.88-3.375,1.375-5.03l.656-2.191c.592-2.03,1.375-4,2.159-5.964l.5-1.215a78.606,78.606,0,0,1,5.061-10.338c2-3.344,4.245-6.781,6.9-10.4l.879-1.095.872-1.088a34.156,34.156,0,0,1,3.03-2.278c1.032-.752,2.064-1.5,3.182-2.191a10.56,10.56,0,0,1,1.912-.808,8.156,8.156,0,0,1,1.966-.288l.809.224a10.661,10.661,0,0,1,1.687,1.214,8.627,8.627,0,0,1,.967,2.127,28.772,28.772,0,0,1,.6,6.246,44.928,44.928,0,0,1-1.815,9.275c-.592,1.935-1.248,3.781-1.9,5.588l-.408,1.192-1.032,3.118-1.032,3.1-.376,1.063c-.655,1.9-1.311,3.75-1.87,5.622-.624,2.127-1.248,4.245-1.9,6.372l-.376,1.28c-1.279,4.214-2.278,8.028-3.19,11.842a103.853,103.853,0,0,0-1.935,10.994c-.345,2.526-.561,5.053-.784,7.555l-.4,4.342c-.376,3.655-.623,7.308-.655,10.994a59.406,59.406,0,0,0,.84,10.746c.376,2.031.879,4.031,1.406,6.03a38.371,38.371,0,0,0,2.312,5.773,38.821,38.821,0,0,0,5.869,9.371c.624.687,1.311,1.343,1.967,1.967a15.5,15.5,0,0,0,3.91,2.718,36.7,36.7,0,0,0,4.933,2.215,47.054,47.054,0,0,0,6.028,2.159,38.825,38.825,0,0,0,4.838,1.063,30.677,30.677,0,0,0,4.405.5l2,.032c1.343,0,2.719-.064,4.031-.128a6.246,6.246,0,0,0-.9-2.431l-1.656-3.191q-1.546-2.951-3.19-5.9a98.26,98.26,0,0,1-6.933-15.992c-.624-1.807-1.183-3.654-1.719-5.493l-.656-2.287c-.872-2.967-1.687-5.933-2.494-8.931a102.234,102.234,0,0,1-2-11.555,83.239,83.239,0,0,1-.471-12.618l.063-1.248c.032-1.063.064-2.095.128-3.157.153-1.936.313-3.838.5-5.782a57.4,57.4,0,0,1,2.375-10.491l.279-.935c.472-1.5,1-3.031,1.56-4.534l.911-2.431.376-.975a9.768,9.768,0,0,1,1.311-1.336,14.289,14.289,0,0,1,1.775-1.192h.032a11.631,11.631,0,0,1,2.623-.751,13.756,13.756,0,0,1,1.911-.119c.559,0,1.119.032,1.712.088a16.405,16.405,0,0,1,2.686.751,23.57,23.57,0,0,1,3.126,1.375c.784.407,1.527.847,2.278,1.311a25.008,25.008,0,0,1,2.159,1.967c.688.9,1.28,1.814,1.871,2.718.344.624.655,1.279.967,1.935a48.761,48.761,0,0,1,2.407,7.716,74.247,74.247,0,0,1,.495,9.211,80.248,80.248,0,0,1-.432,9.092c-.192.967-.471,2.591-.751,4.245-.376,2.288-.5,3.942-.656,5.6l-.16,1.654-.247,2.591-.217,2.623a59.716,59.716,0,0,0-.128,6.309,75.788,75.788,0,0,0,1.28,12.465,103.365,103.365,0,0,0,2.911,12.114,46.528,46.528,0,0,0,4.741,10.5l.816,1.375c.687,1.152,1.374,2.344,2.095,3.463a48.257,48.257,0,0,0,4.246,6.093c.623.687,1.311,1.343,1.966,1.967a21.685,21.685,0,0,0,5.5,3.815,58.836,58.836,0,0,0,5.9,2.559,38.527,38.527,0,0,0,4.966,1.559,52.482,52.482,0,0,0,5.9.9l1.535.192c1.559.184,3.087.408,4.654.5,1.743.1,3.526.128,5.277.128h1.935c.464-.017.928-.032,1.391-.056-.743-.672-1.471-1.336-2.175-2.039C853.794,883.264,852.89,882.392,852.043,881.45Zm-84.2-158.975-.064-.063-.408-.28a9.413,9.413,0,0,1-1.687-2.031,3.561,3.561,0,0,1,.128-1.223,19.678,19.678,0,0,1,.784-1.9,17.487,17.487,0,0,1,1.495-1.935,26.921,26.921,0,0,1,3.623-2.846.153.153,0,0,0,.1-.056l-.064-.064.255-.1c-.032.031-.191.1-.16.128a14.571,14.571,0,0,1,1.839-.816,3.9,3.9,0,0,1,1.064-.119,6.234,6.234,0,0,1,1.6.248,10.1,10.1,0,0,1,1.9.808l.495.815a9.481,9.481,0,0,1,.344,2.279,1.563,1.563,0,0,0-.031.527c.031.032,0,.408.031.408a12.053,12.053,0,0,0-.775,1.567,14.051,14.051,0,0,1-1.783,2.246l-.782.408v-.063A6.415,6.415,0,0,0,773.8,721a21.074,21.074,0,0,1-3.246,1.246c-.312.032-.879.129-1.5.192a1.4,1.4,0,0,0-.432-.031c-.129,0-.224,0-.256.031A2.9,2.9,0,0,1,767.839,722.475Zm42.761,28.01c-.311,1.719-.719,3.407-1.127,5.126l-.376,1.535a41.512,41.512,0,0,0-.967,10.459,4.392,4.392,0,0,1-.719.624,5.676,5.676,0,0,1-.936.376,8.331,8.331,0,0,1-1.279.16l-1.032-.255.064-.056a7.677,7.677,0,0,1-1.472-1.88,31.49,31.49,0,0,1-1.807-4.214v.032a14.555,14.555,0,0,1-.5-2.91c-.1-1-.152-2-.152-3a32.092,32.092,0,0,1,1.559-9.275,69.257,69.257,0,0,1,3.182-8.867c.192-.248.407-.528.655-.816l.912-.432v.088a6.73,6.73,0,0,1,2.183.751,5.8,5.8,0,0,1,.751.592c.031.032.279.311.344.311.032,0,.248.224.28.224.184.687.311,1,.407,1.311a23.129,23.129,0,0,1,.464,4.374A35.5,35.5,0,0,1,810.6,750.485Z" transform="translate(3055.289 -7123.853) rotate(-39)" fill="#113758"/>
    <path id="Path_4578" data-name="Path 4578" d="M943.046,882.643c-.816-1.407-1.632-2.815-2.536-4.19-.559-.84-1.151-1.687-1.719-2.559-.592-.967-1.215-1.9-1.87-2.846-.592-.9-1.159-1.839-1.783-2.71-1-1.407-2.031-2.783-3-4.19-1.031-1.44-2.03-2.839-2.967-4.31-.807-1.215-1.495-2.5-2.246-3.75-.751-1.215-1.472-2.431-2.247-3.623-.816-1.311-1.567-2.622-2.279-3.966h.025c-.12-.216-.217-.407-.345-.624-.527-.655-1.056-1.342-1.559-2.03-1.095-1.472-2.062-3-3.023-4.558-2.375-3.878-4.91-7.684-7.276-11.586-1.255-2-2.375-4.126-3.63-6.157a45.193,45.193,0,0,0-3.838-5.372c-.063-.1-.128-.153-.184-.248.656,1.311,1.279,2.623,1.9,3.934,1.312,2.751,2.591,5.469,3.655,8.308.935,2.59,1.591,5.277,2.278,7.932.816,3.125,1.688,6.188,2.751,9.218.5,1.431,1.064,2.807,1.559,4.246.44,1.216.872,2.438,1.312,3.621,1.032,2.72,2.095,5.374,3.182,8.06,1.062,2.683,2.188,5.334,3.305,7.985a44.1,44.1,0,0,0,2.2,4.322,29.651,29.651,0,0,0,2.559,3.686l-.064-.064c1.5,1.783,3.094,3.5,4.622,5.214.1.1-.032.256-.12.16-2.03-2-4.029-3.934-5.909-6.061a28.81,28.81,0,0,1-1.807-2.5,27.376,27.376,0,0,1-1.622-2.751c-2.031-3.934-3.815-7.9-5.526-11.929v0h.032c-.687-1.6-1.375-3.159-2.03-4.75-.6-1.5-1.159-3.03-1.719-4.558-.624-1.631-1.248-3.254-1.848-4.878-.527-1.559-1.032-3.182-1.464-4.772-.847-3.191-1.5-6.438-2.375-9.627a85.629,85.629,0,0,0-3.781-10.115c0,.064.032.1.032.12-.185-.464-.408-.936-.593-1.4,0,.032.032.056.032.088-.9-2.118-1.847-4.245-2.814-6.309-1.72-2.215-3.4-4.461-5.214-6.588a.031.031,0,0,1-.032-.032.032.032,0,0,0-.032-.032c-1.031-1.088-2.095-2.12-3.15-3.118-1.159-1.1-2.31-2.223-3.5-3.311-1.183-1.063-2.374-2.158-3.621-3.126-1.127-.871-2.312-1.687-3.5-2.5a.031.031,0,0,0,.031.032.031.031,0,0,1-.031-.032c-1.088-.711-2.183-1.4-3.247-2.183-1.215-.872-2.407-1.782-3.59-2.686-1.183-.872-2.343-1.751-3.558-2.591-1.255-.847-2.535-1.656-3.686-2.591a74.3,74.3,0,0,1-6.933-6.436c-2.222-2.31-4.286-4.718-6.341-7.125a.031.031,0,0,1-.032-.031.031.031,0,0,0,.032.031l.032.032c-1.974-2.246-3.973-4.493-6.029-6.717-1.911-2.055-4.03-3.934-6.093-5.8-1.471-1.375-2.934-2.751-4.406-4.158-1.215-1.151-2.526-2.247-3.781-3.374-1.367-1.151-2.711-2.343-4.087-3.494-1.439-1.192-2.91-2.375-4.245-3.655-1.408-1.311-2.783-2.654-4.19-3.934-1.439-1.279-2.838-2.535-4.342-3.718-1.439-1.127-2.838-2.246-4.31-3.342-1.375-1.031-2.751-2.062-4.126-3.126-.039-.039-.1-.072-.143-.112.432.792.831,1.608,1.175,2.423a60.038,60.038,0,0,1,3.31,9.532c.472,1.935.913,3.837,1.224,5.805.279,1.782.464,3.6.624,5.4.151,1.783.184,3.558.216,5.341,0,1.687-.064,3.375-.216,5.029-.345,3.59-.72,7.213-1.159,10.81-.184,1.807-.432,3.59-.688,5.4-.247,1.688-.592,3.374-.84,5.061-.592,3.686-1.063,7.373-1.5,11.091-.216,1.9-.432,3.805-.655,5.748-.12.936-.28,1.9-.313,2.871l-.088,2.343c0,1.5.025,3.03.153,4.493.16,1.632.279,3.286.536,4.91.311,1.719.559,3.463,1.023,5.149.376,1.5.784,3,1.223,4.5h-.031c.784,2.623,1.622,5.277,2.654,7.836,1.1,2.751,2.183,5.534,3.342,8.277.559,1.374,1.151,2.782,1.751,4.157.527,1.311,1.056,2.623,1.688,3.87.743,1.44,1.462,2.912,2.214,4.343.561,1.063,1.152,2.03,1.752,3.094v-.032a.1.1,0,0,0,.024.064c0,.007.007.016.016.031s.024.032.048.064a.008.008,0,0,1-.008-.008c1.928,3.119,3.983,6.2,6.2,9.124,1.119,1.471,2.183,3.03,3.438,4.405,1.2,1.3,2.423,2.591,3.646,3.871.272-.008.543-.025.815-.032,1-.056,2.031-.088,3.063-.088,2.494,0,4.558.12,6.589.313,1.5.119,2.782.248,4.157.279l.808.248a31.335,31.335,0,0,0-2.559-3.558l-1.471-1.783-.592-.775a22.114,22.114,0,0,0-1.375-1.751l-1.12-1.192-1.159-1.215c-.967-1.1-1.87-2.183-2.783-3.342-1.935-2.438-3.837-5-5.556-7.652-1.44-2.278-2.623-4.653-3.839-7.06l-.472-.872a74.21,74.21,0,0,1-3.9-9.243,61.686,61.686,0,0,1-3-13.808h.032v-.032h-.032v-.153c-.032-1.287-.032-2.749-.032-4.189a27.35,27.35,0,0,1,.344-4.31c.248-.808.527-1.623.807-2.407.6-1.464,1.287-2.9,1.943-4.342.687-1.216,1.023-1.807,1.4-2.375l1.567-1.967a20.787,20.787,0,0,1,3.03-3,15.043,15.043,0,0,1,2.368-1.031l2.375-.559a1.157,1.157,0,0,1,.311-.032,3.833,3.833,0,0,1,.656.063,25.823,25.823,0,0,1,3.966,1.559,8.784,8.784,0,0,1,1.223.816,14.791,14.791,0,0,1,1.839,2.183l.687.879.064-.031a77.375,77.375,0,0,1,3.9,8.492,31.15,31.15,0,0,1,.879,4.685c.153,1.311.248,2.6.313,3.878l.12,4.622c0,1.462-.032,2.965-.056,4.429v1.472a116.88,116.88,0,0,0,.216,12.185c.311,3.59.687,7.181,1.343,10.739a107.112,107.112,0,0,0,2.686,11.4c.5,1.719,1.064,3.439,1.623,5.126a29.58,29.58,0,0,0,2.815,6.4,25.224,25.224,0,0,0,4.557,5.156c.784.656,1.528,1.312,2.344,1.871,1,.752,2.062,1.44,3.118,2.127a29.677,29.677,0,0,0,5.309,2.783c1.1.376,1.943.687,2.846.9,1.064.28,2.128.5,3.182.688a27.986,27.986,0,0,0,4.255.439c.344.088.711.185,1.054.248a68.58,68.58,0,0,0,13.777,1.215,109.256,109.256,0,0,0,10.994-.775l2.312-.224c2.59-.248,5.148-.44,7.74-.624,2.03-.128,4.062-.279,6.124-.439l1.192-.185v.1a2.688,2.688,0,0,1,.5-.032c1.654-.064,3.278-.064,4.933-.064l4.341.032a69.976,69.976,0,0,1,8.277.5c-.841-1.687-1.656-3.4-2.592-5.061C945.821,887.545,944.445,885.106,943.046,882.643ZM838.627,792.465A9.942,9.942,0,0,1,836.693,794c-.279.063-.808.247-1.343.432a3.877,3.877,0,0,1-.872.191,9.974,9.974,0,0,1-1.967-.311,5.937,5.937,0,0,1-1.471-.592l-.807-.751.063-.032c-.631-1.28-1.159-2.591-1.687-3.9a40.16,40.16,0,0,1-1.5-4.158,18.929,18.929,0,0,1-.472-3.247V780.16c.064-1.311.256-3.03.5-4.806a38.759,38.759,0,0,1,.872-4.157l.256-1.032a23.257,23.257,0,0,1,.871-2.312,6.862,6.862,0,0,1,.964-1.322,3.7,3.7,0,0,0-.308.291l.376-.376c-.026.03-.043.055-.068.085a2.747,2.747,0,0,1,.284-.268,10.891,10.891,0,0,1,2.375,1.814,23.405,23.405,0,0,1,2,2.679,21.093,21.093,0,0,1,1.032,2.47,4.124,4.124,0,0,0,.279.656c.064,0,.248.527.248.527l.1.944.247.872c.536,2.127,1,4,1.375,5.933a47.782,47.782,0,0,1,1.224,8.028,2.029,2.029,0,0,0-.032.44,1.545,1.545,0,0,0,.064.407C839.068,791.435,838.884,791.97,838.627,792.465Zm64.535,71.34a5.726,5.726,0,0,1-1.719,1.439,5,5,0,0,1-1.472.464,13.905,13.905,0,0,1-2.775-.527,23.436,23.436,0,0,1-3.47-1.56c-.967-.5-1.872-1.095-2.807-1.654a25.59,25.59,0,0,1-4.254-3.407,23.8,23.8,0,0,1-3-4.405,77.418,77.418,0,0,1-3.278-7.244,32.13,32.13,0,0,1-1.127-3.687c-.464-1.783-.776-3.157-1.088-4.621l-.032.031c-.5-2.341-.935-4.716-1.375-7.091-.247-1.311-.471-2.623-.655-3.934a32.5,32.5,0,0,1-.312-5.5,36.75,36.75,0,0,1,1.183-5.717,8.071,8.071,0,0,1,.376-1.023,29.752,29.752,0,0,1,1.472-3.254,15.013,15.013,0,0,1,1.343-1.559h.064a4.642,4.642,0,0,1,2.367.655,11.316,11.316,0,0,1,1.127,1,33.612,33.612,0,0,1,2.783,4.374c1.807,3.558,3.31,7.212,4.837,10.93l1.567,3.686a76.9,76.9,0,0,0,3.31,7.06c.656,1.217,1.343,2.407,2.031,3.59l1.872,3.247a58.774,58.774,0,0,1,3.965,9.995c.184.848.28,1.256.345,1.656a23.749,23.749,0,0,1,.184,3.621A19.882,19.882,0,0,1,903.162,863.805Z" transform="translate(3074.394 -7129.316) rotate(-39)" fill="#113758"/>
    <path id="Path_4564" data-name="Path 4564" d="M987.986,801.106a13.941,13.941,0,0,0-2.72-3.215l-.743-.624h.088c.128-1.223.248-2.47.344-3.718a22.711,22.711,0,0,0-1.095-7.436c-1.088-3.718-3.558-6.652-6.054-9.275a34.118,34.118,0,0,0-8.155-5.78l-1.44-.807a81.825,81.825,0,0,0-7.8-4.031,36.219,36.219,0,0,0-5.093-1.9,43.718,43.718,0,0,0-5.717-1.127,65.239,65.239,0,0,0-10.394-.816,72.31,72.31,0,0,0-12.906,1.159c-2.654.471-5.277,1.127-7.9,1.783-2.846.719-5.716,1.311-8.6,1.838-1.031.192-2.086.376-3.118.537h-2.622a36.141,36.141,0,0,1-4.942-.257,17.634,17.634,0,0,1-2.12-.624,8.379,8.379,0,0,1-1.438-.9,19.552,19.552,0,0,1-1.967-2.031,11.2,11.2,0,0,1-.751-1.28,22.3,22.3,0,0,1-.752-3.533,10.016,10.016,0,0,1,.031-1.559,15.549,15.549,0,0,1,.688-2.1,16.826,16.826,0,0,1,1.814-3.15,21.665,21.665,0,0,1,2.343-2.246,55.577,55.577,0,0,1,8.62-4.406c2.127-.816,4.245-1.471,6.437-2.191a59.483,59.483,0,0,1,7.4-1.807,39.8,39.8,0,0,1,4.374-.223c1.656,0,3.31.1,4.933.255l3.534.344c2.375.216,4.75.464,7.125.777a123.429,123.429,0,0,1,12.4,2.965l2.43.688a73.435,73.435,0,0,1,9.436,3.159l1.031.471a17.3,17.3,0,0,0,3.031,1.216c-.032-.216-.1-.408-.129-.592a1.419,1.419,0,0,0-.216-.1,4.712,4.712,0,0,0-.471-1.032l.656,1a12.431,12.431,0,0,0-1.775-3.686c-.569-.9-1.159-1.808-1.688-2.751-.5-.9-.967-1.807-1.471-2.718l-.967-1.839c-.528-1-1.032-2.031-1.528-3.094L959.5,735.2c-.719-1.472-1.438-2.934-2.254-4.406a42.485,42.485,0,0,0-3-4.589c-1.087-1.5-2.214-3.031-3.4-4.495a43.61,43.61,0,0,0-7.781-7.372,28.434,28.434,0,0,1-.192-4.718,39.6,39.6,0,0,0-3.462-16.463c-.848-1.807-1.688-3.655-2.623-5.406-.943-1.68-1.975-3.31-3.007-4.9-.967-1.464-1.966-2.9-3.086-4.277-1.287-1.5-2.6-2.966-3.91-4.406a45.5,45.5,0,0,0-4.246-4.182,52.8,52.8,0,0,0-8.835-6.061,46.119,46.119,0,0,0-4.973-2.343,25.909,25.909,0,0,0-5.677-1.751,27.671,27.671,0,0,0-4.5-.432,9.051,9.051,0,0,0-.935.032c-.967.024-1.9.056-2.878.151a2.4,2.4,0,0,0,.816-1.471c.184-2.9-2.031-5.493-3.966-7.461a36.191,36.191,0,0,0-6-4.5,43.16,43.16,0,0,1-4.405-3.087,33.67,33.67,0,0,1-4-4.286l-.872-1.431-.879-1.44a23.913,23.913,0,0,0-1.527-2.127c-.5-.59-1.032-1.151-1.559-1.678a21.931,21.931,0,0,0-8.276-4.877,38.461,38.461,0,0,0-5.6-1.343,18.077,18.077,0,0,0-2.807-.248,20.114,20.114,0,0,0-5.565.816,38.5,38.5,0,0,0-9.739,4.181,50.507,50.507,0,0,0-4.6,3.15,37.248,37.248,0,0,0-3.679,3.343l-2.254,2.318c-1.719,1.775-3.431,3.527-5.214,5.214-1.032,1.032-2.095,2-3.159,2.934l-.775.688-1.471,1.279c-.719.656-1.464,1.28-2.183,1.936l-.88.879-1.807,1.719c-1.438,1.056-2.91,2.118-4.405,3.118l-1,.688-1.343.592-1.1.44a24.873,24.873,0,0,1-3.742,1.031c-.751.1-1.567.216-2.375.28a26.014,26.014,0,0,1-2.718.128H796.3c-1.183,0-2.375-.032-3.558-.1-.879-.1-1.687-.185-2.567-.312-.5-.1-.967-.248-1.462-.376a41.321,41.321,0,0,1-5.909-2.814,12.583,12.583,0,0,1-1.872-1.623,22.442,22.442,0,0,1-1.559-2.183c-.376-.688-.719-1.343-1.032-2a6.2,6.2,0,0,1-.5-1.623,8.93,8.93,0,0,1-.056-1.223,19.461,19.461,0,0,1,.712-3.215c.471-1.343.976-2.655,1.567-3.966a44.7,44.7,0,0,1,2.215-4.342l1.031-1.5c.248-.287.784-.975,1.343-1.654a20.169,20.169,0,0,1,1.528-1.751,47.547,47.547,0,0,1,4.749-4.534c1.656-1.343,3.375-2.559,5.126-3.774a40.826,40.826,0,0,1,5.309-3,64.719,64.719,0,0,1,7.213-2.751c2.967-.871,5.9-1.527,8.932-2.127,3.565-.592,7.156-1.119,10.746-1.495,1.406-.128,2.846-.16,4.245-.192h.848l1.751-.032c1.311,0,2.623.032,3.9.16a25.627,25.627,0,0,1,4.9.967l.872.408a13.216,13.216,0,0,0-4.15-4.094,39.648,39.648,0,0,0-7.157-3.966c-1.559-.656-3.15-1.215-4.773-1.783a53.382,53.382,0,0,1-6.5-2.526,31.283,31.283,0,0,1-4.495-2.966l-1.879-1.471-1.87-1.5c-1.312-1.032-2-1.591-2.751-2.095-1.431-.872-2.9-1.656-4.342-2.375a24.142,24.142,0,0,0-4.462-1.871,30.4,30.4,0,0,0-8.276-1.311c-.687,0-1.375.032-2.03.1a35.115,35.115,0,0,0-6.909,1.5A14.952,14.952,0,0,0,782.212,589a48.85,48.85,0,0,0-5.341-2.439,31.194,31.194,0,0,0-5.029-1.431,39.606,39.606,0,0,0-5.709-.847c-1.656-.128-3.344-.248-5-.248a9.149,9.149,0,0,0-.944.032c-2.087.088-4.15.248-6.213.464-.5.064-1.032.128-1.527.192-1.095.687-2.159,1.343-3.254,2.03-1.712,1.088-3.431,2.12-5.086,3.279-.751.495-1.535,1-2.254,1.527-.592.472-1.151.911-1.743,1.375a41,41,0,0,0-3.286,2.967c-.936.935-1.839,1.879-2.711,2.846-1.719,1.935-3.31,3.966-4.91,6l-.055.056c-1.032,1.391-2.031,2.734-2.975,4.221-.807,1.28-1.623,2.591-2.4,3.9-.816,1.344-1.567,2.72-2.279,4.095-.751,1.406-1.375,2.775-2,4.213-.344.935-.687,1.9-.975,2.847-.312,1-.561,2-.777,3-.471,2.087-.815,4.15-1.127,6.277.032-.1.032-.191.064-.311-.345,2.934-.5,5.869-.624,8.8-.064,1.44-.032,2.91,0,4.374,0,1.375.184,2.751.313,4.158v.032c.376,2.622.808,5.213,1.311,7.8a58.524,58.524,0,0,0,1.814,6.965c.712,2.222,1.464,4.405,2.184,6.62.784,2.312,1.527,4.6,2.406,6.877-.032-.032-.032-.063-.064-.1a53.961,53.961,0,0,0,2.528,5.213c.471.848.944,1.688,1.406,2.5.064.063.161.1.217.152,1.134.728,2.222,1.471,3.317,2.231a1.475,1.475,0,0,1,.185-.041c.128-.031.151.153.031.185.289.2.584.4.872.6l-.088-.1c2.655,1.775,5.278,3.654,7.837,5.525,0-.592.032-1.151.063-1.751a30.2,30.2,0,0,1,1.528-6.837,95.086,95.086,0,0,1,6-13.68,114.229,114.229,0,0,1,8.684-13.809c2.967-4.118,6.309-7.963,9.371-11.994l-.032.032a.642.642,0,0,0,.1-.151h.032v-.032a80.553,80.553,0,0,0,5.029-7.844,86.562,86.562,0,0,0,3.806-7.868c-.032,0-.032.032-.063.032,1.406-3.527,2.814-7.092,4.341-10.587a31.082,31.082,0,0,1,3.063-5.157c1.063-1.559,2.222-3.031,3.406-4.493.624-.72,1.248-1.472,1.872-2.191s1.255-1.464,1.943-2.118a35.424,35.424,0,0,1,4.589-3.782c.9-.592,1.807-1.183,2.743-1.719.751-.408,1.471-.807,2.222-1.215,1.775-.936,3.526-1.88,5.246-2.879h.063c.1,0,.153.129.064.161-1.783,1.183-3.567,2.278-5.374,3.373-.719.44-1.471.84-2.159,1.343-.807.528-1.59,1.1-2.375,1.688.032-.032.064-.064.064-.1-.808.687-1.687,1.343-2.43,2.062a33.875,33.875,0,0,0-2.568,2.686c-1.183,1.408-2.278,2.807-3.373,4.246h.032v0c-1.12,1.527-2.215,3.03-3.182,4.653-.5.848-1.064,1.687-1.5,2.591-.4.911-.808,1.815-1.183,2.718.032-.032.032-.064.064-.12,0-.031.032-.063.032-.1,0,.032-.032.064-.032.1-.688,1.776-1.343,3.558-2.031,5.341-.655,1.68-1.246,3.4-1.935,5.118a62.826,62.826,0,0,1-4.966,10.058,88.624,88.624,0,0,1-6.909,9.491c-2.749,3.255-5.4,6.533-7.963,9.908.064-.064.1-.129.16-.192A124.485,124.485,0,0,0,749.2,673.3a126.443,126.443,0,0,0-5.838,11.521c0-.032.032-.088.032-.12-.568,1.464-1.159,2.934-1.654,4.43a28.5,28.5,0,0,0-.936,4.342v-.056c-.063.559-.1,1.12-.128,1.656a2.3,2.3,0,0,0,.279.216l8.34,6.181c1.407,1.063,2.871,2.062,4.277,3.126,1.408,1.031,2.847,2.03,4.246,3.062,2.47,1.743,4.973,3.431,7.468,5.117-.1-.056-.152-.12-.248-.184.656.44,1.311.872,1.935,1.279.161-.031.313-.063.44-.1a12.446,12.446,0,0,0,2.967-1.343A31.71,31.71,0,0,0,774.152,710a50.181,50.181,0,0,0,4.342-3.567l-.088.1c.248-.217.5-.464.744-.688l-.088.1c1.279-1.246,2.526-2.559,3.742-3.9,1.224-1.287,2.438-2.6,3.565-4,2.279-2.815,4.43-5.782,6.805-8.532,1.224-1.406,2.5-2.718,3.718-4.085,1.192-1.319,2.375-2.662,3.59-3.942,1.472-1.559,2.967-3,4.5-4.43.687-.623,1.375-1.223,2.031-1.846.687-.624,1.375-1.248,2.095-1.807,1.623-1.287,3.278-2.567,5-3.718,1.654-1.1,3.334-2.159,5.053-3.126,3.567-1.967,7.157-3.839,10.874-5.493a114.361,114.361,0,0,1,12.306-4.814,120.222,120.222,0,0,1,11.8-3.03,90.418,90.418,0,0,1,11.594-1.5q3.083-.24,6.181-.28c.872-.032,1.719-.032,2.591-.063.847-.032,1.687-.128,2.5-.192h.032c.087,0,.119.192,0,.192-.816.12-1.656.279-2.5.344s-1.72.12-2.559.184c-1.848.128-3.655.313-5.47.536-2,.248-4,.5-5.964.84-1.688.28-3.342.624-5,.967.064,0,.128-.032.192-.032a127.126,127.126,0,0,0-16.184,5,161.4,161.4,0,0,0-15.272,7.188,2.883,2.883,0,0,0,.248-.16,103.973,103.973,0,0,0-10.275,6.277c-1.032.753-2.031,1.472-3,2.247-.839.664-1.656,1.344-2.47,2.031-1.367,1.159-2.711,2.375-4.022,3.566l.184-.192c-2.183,2.127-4.277,4.373-6.436,6.588-1.9,2-3.9,3.942-5.685,6.061-.9,1.064-1.775,2.159-2.686,3.223-.84,1-1.656,2.03-2.559,3-1.72,1.9-3.527,3.71-5.374,5.493A51.7,51.7,0,0,1,777,709a45.082,45.082,0,0,1-4.781,3.118,26.959,26.959,0,0,1-3.063,1.5,15.693,15.693,0,0,1-1.743.561c2.31,1.535,4.653,3.062,6.964,4.653,2.968,2.064,5.838,4.19,8.8,6.246,2.223,1.534,4.534,2.909,6.844,4.31,1.343.815,2.686,1.631,4,2.5.119-.064.248-.16.344-.216.624-.408,1.248-.848,1.87-1.224,1.44-.9,2.936-1.719,4.438-2.494a65.21,65.21,0,0,1,9.243-3.655c2.591-.847,5.245-1.591,7.868-2.278,3.223-.816,6.373-1.879,9.5-2.967,2.966-1.064,5.78-2.375,8.651-3.631,3.159-1.311,6.277-2.622,9.371-4.085,2.591-1.255,5.214-2.47,7.749-3.878,3.03-1.743,6-3.623,8.963-5.462,1.431-.91,2.839-1.846,4.214-2.846,1.311-1.032,2.591-2.087,3.9-3.087a33.373,33.373,0,0,1,4.342-3c.784-.44,1.567-.88,2.375-1.287.935-.432,1.9-.872,2.846-1.28a53.293,53.293,0,0,1,5.182-1.872c1.847-.592,3.718-1.158,5.59-1.622a38.863,38.863,0,0,1,5.372-1c2.127-.224,4.223-.408,6.373-.472.472-.032.935-.032,1.406-.032a28.873,28.873,0,0,1,4,.248c1.752.256,3.495.472,5.246.848a41.514,41.514,0,0,1,10.338,3.405,42.434,42.434,0,0,1,4.5,2.528c1.623,1.095,3.247,2.215,4.806,3.438a.1.1,0,0,1-.128.151c-1.12-.775-2.28-1.527-3.431-2.246l.032.032a45.092,45.092,0,0,0-4.782-2.623c-1.1-.472-2.151-.935-3.278-1.375-.816-.311-1.656-.528-2.5-.816.064,0,.1.032.161.032a63.341,63.341,0,0,0-6.717-1.375c-2.094-.279-4.246-.5-6.373-.592a53.984,53.984,0,0,0-7.091.44c-1.368.216-2.743.407-4.119.687-1.032.185-2.062.44-3.094.688l.28-.1q-3.695,1.081-7.308,2.439c-1.183.432-2.407.871-3.558,1.408s-2.312,1.087-3.439,1.654c-.743.432-1.495.872-2.246,1.367-.656.408-1.28.88-1.936,1.344-1.159.879-2.278,1.846-3.405,2.782-1.248,1-2.494,1.936-3.815,2.847-1.279.9-2.623,1.68-3.934,2.526-2.623,1.591-5.213,3.247-7.932,4.685-2.406,1.28-4.9,2.439-7.4,3.558-2.654,1.192-5.372,2.31-8.116,3.374l-3.565,1.408c-1.4.559-2.776,1.183-4.214,1.687-2.655.936-5.309,1.775-8.028,2.5-2.839.784-5.749,1.375-8.588,2.03h.1a.1.1,0,0,1,.087-.031.1.1,0,0,0-.087.031,79.186,79.186,0,0,0-11.4,3.439,52.859,52.859,0,0,0-6.533,3.126c-.592.336-1.215.68-1.807,1.023.872.568,1.719,1.159,2.559,1.783,1.159.815,2.247,1.719,3.374,2.591,1.1.847,2.183,1.719,3.278,2.566,1.968,1.591,3.934,3.119,5.933,4.654,1.688,1.279,3.31,2.654,4.942,4.029.313.056.656.12.967.184,1.215.248,2.431.528,3.654.753,1.217.247,2.431.495,3.655.655,1.342.216,2.684.344,4.027.432,2.8.091,5.6.062,8.431-.024,1.407-.064,2.814-.128,4.221-.32,1.527-.216,3.031-.464,4.526-.743-.063.031-.128.031-.216.063a76.86,76.86,0,0,0,11.458-3.407c3.159-1.223,6.188-2.686,9.251-4.126,0-.031,0-.031.032-.031a.081.081,0,0,1,.056-.032c.063,0,.1-.032.16-.056-.032.024-.064.024-.1.056,1.88-.967,3.75-1.935,5.654-2.742a30.22,30.22,0,0,1,6.436-1.88c2.215-.432,4.461-.719,6.717-1.063,2.183-.28,4.373-.712,6.556-1.12h-.032a.121.121,0,0,0,.1-.031c.064,0,.151-.032.216-.032h-.032c4.406-.872,8.876-1.312,13.337-1.871,2.191-.255,4.342-.6,6.5-1,2.152-.376,4.31-.687,6.462-1,2.438-.376,4.91-.655,7.339-.879,2.311-.216,4.622-.5,6.909-.808a50.6,50.6,0,0,1,6.212-.5c.408,0,.816.032,1.224.032a20.588,20.588,0,0,1,4.806.655c.128.032.063.216-.064.192a14.188,14.188,0,0,0-2.055-.287h.056a20.465,20.465,0,0,0-3.366-.056,33.855,33.855,0,0,0-4.038.367c-2.407.408-4.75.879-7.149,1.256-2.566.376-5.189.719-7.747,1.151-2.375.408-4.718.879-7.093,1.343a2,2,0,0,0,.223-.064c-1.655.377-3.341.753-5,1.032-1.6.311-3.191.536-4.813.784-3.279.5-6.589.967-9.868,1.559-2.654.592-5.284,1.192-7.939,1.591-2.679.44-5.341.816-7.964,1.343a34.507,34.507,0,0,0-5.18,1.567c-1.44.624-2.847,1.28-4.279,1.967.088-.032.185-.1.28-.128-2.127,1.032-4.277,2.031-6.436,2.967-2.343,1-4.685,1.879-7.092,2.654a63.107,63.107,0,0,1-7.62,1.968,52.611,52.611,0,0,1-7.4.975c-2.287.12-4.566.024-6.844-.032a45.9,45.9,0,0,1-6.868-.5,70.573,70.573,0,0,1-7.188-1.591c-.808-.216-1.623-.44-2.463-.656,1.088.936,2.183,1.9,3.246,2.839,2.934,2.567,6.03,4.942,9.124,7.308,1.464,1.192,2.966,2.31,4.493,3.438,1.343.969,2.623,2,3.966,3,1.535,1.192,3.031,2.439,4.534,3.718,1.431,1.215,2.774,2.528,4.15,3.839,2.623,2.5,5.437,4.718,8.124,7.092.408.376.808.719,1.246,1.095,1.064.344,2.127.624,3.182.872,1.1.248,2.191.536,3.287.687,1.246.192,2.494.313,3.741.44h-.151c1.343.063,2.654.184,3.966.184,1.375.032,2.783.032,4.15.032a72.406,72.406,0,0,0,8.188-.592c5.214-.592,10.435-1.471,15.584-2.439-.1.032-.184.032-.279.064,1.279-.248,2.59-.527,3.87-.808a51.659,51.659,0,0,1,10.906-1.719c.935-.032,1.872-.032,2.807-.032,3.247,0,6.469.1,9.651.344a104.567,104.567,0,0,1,11.682,1.591,101.814,101.814,0,0,1,10.626,2.815,50.925,50.925,0,0,1,5.309,2,58.688,58.688,0,0,1,5.278,2.623,19.252,19.252,0,0,1,1.687,1l1.688,1.12c.687.471,1.375.967,2.062,1.471,1.375,1,2.71,2,4.029,3.031,3.151,2.462,6.246,5.061,9.148,7.836,1.44,1.407,2.9,2.815,4.374,4.158.751.687,1.495,1.311,2.246,1.935.1.1-.031.248-.119.151-1.063-.807-2.127-1.622-3.159-2.463-1.687-1.406-3.31-2.846-4.964-4.245-3.279-2.815-6.813-5.341-10.339-7.844v.032c0-.032-.032-.032-.064-.064h0c-1.183-.775-2.343-1.559-3.526-2.343a43.88,43.88,0,0,0-3.878-2.246,60.074,60.074,0,0,0-7.276-3.182c-.967-.345-1.9-.656-2.9-.913-1.1-.344-2.183-.623-3.279-.9-1.751-.471-3.534-.872-5.277-1.248a100.264,100.264,0,0,0-11.81-1.751h-.1c-.751-.063-1.5-.1-2.247-.128h.345c-3.376-.151-6.749-.344-10.123-.311-1.624,0-3.247.031-4.869.192-1.5.151-3,.407-4.5.687a.032.032,0,0,0,.032-.032c-2,.408-3.966.808-5.933,1.183-2.311.408-4.621.751-6.931,1.064a141.7,141.7,0,0,1-15.057,1.343c-2.31.064-4.621-.1-6.933-.216-1.031-.064-2.095-.192-3.126-.312-1.063-.1-2.127-.223-3.182-.407a47.194,47.194,0,0,1-6.469-1.72,1.954,1.954,0,0,0-.5-.151c.752.656,1.5,1.311,2.223,1.967,1.279,1.151,2.494,2.367,3.75,3.558,1.527,1.471,3.118,2.9,4.653,4.374,1.247,1.216,2.463,2.494,3.654,3.806,2.463,2.749,4.838,5.62,7.213,8.468a.454.454,0,0,0,.1.128.415.415,0,0,1,.121.151l-.032-.032c1.408,1.591,2.814,3.191,4.254,4.782,1.343,1.464,2.807,2.9,4.31,4.245a42.794,42.794,0,0,0,4.462,3.655c1.535,1.095,3.062,2.215,4.565,3.405,1.344,1.064,2.688,2.152,4.054,3.151,1.223.911,2.47,1.751,3.654,2.63a38.9,38.9,0,0,1,4.374,3.494c1.407,1.312,2.783,2.687,4.158,4.063,1.462,1.439,2.9,2.87,4.245,4.405a41.505,41.505,0,0,1,3.094,4c1.12,1.559,2.247,3.15,3.439,4.709.967,1.319,2,2.6,2.934,3.974a54.687,54.687,0,0,1,3.342,5.709c.84,1.6,1.688,3.191,2.591,4.75,2.031,3.5,4.094,6.933,6.093,10.435.848,1.527,1.719,3.062,2.686,4.493.784,1.192,1.623,2.343,2.5,3.47,1.088,1.472,2.279,2.871,3.279,4.437.311.528.655,1.032.967,1.56.592.84,1.183,1.687,1.839,2.494l-.088-.088a48.54,48.54,0,0,0,3.59,4.031,26.7,26.7,0,0,0,2.559,2.343,23.511,23.511,0,0,0,3.75,1.967c1.654.719,3.375,1.343,5.029,2.087a22.262,22.262,0,0,1,5.277,2.941,20.318,20.318,0,0,1,4.718,5.149.116.116,0,0,1-.192.128c-.215-.311-.4-.59-.623-.879v.032a18.249,18.249,0,0,0-1.688-1.839,22.554,22.554,0,0,0-1.87-1.591c.032,0,.032.032.063.032a17.933,17.933,0,0,0-3-1.879c-.967-.464-1.966-.9-3-1.312h-.032c-.032-.031-.032-.031-.064-.031h.032c-.687-.248-1.343-.464-2-.751.064,0,.1.031.12.031-.967-.344-1.935-.655-2.9-1.056-.935-.407-1.9-.751-2.805-1.223a13.471,13.471,0,0,1-2.567-1.775,37.678,37.678,0,0,1-3.59-3.718c-.151-.192-.344-.408-.5-.6.088.128.185.287.28.408,1.183,1.687,2.431,3.342,3.686,5.029l1.871,2.535c.688.936,1.311,1.9,1.935,2.871.784,1.151,1.535,2.343,2.256,3.526.679,1.095,1.4,2.159,2.054,3.254.911,1.559,1.751,3.15,2.567,4.741.807,1.535,1.623,3.062,2.375,4.622.624,1.255,1.216,2.47,1.775,3.75.536,1.159,1,2.343,1.535,3.534.432.056.9.119,1.343.215a58.09,58.09,0,0,1,8.588,2.72c.184-1.407-.536-2.934-1.248-4.406-.32-.719-.663-1.44-.944-2.151a47.3,47.3,0,0,1-2.312-11.594,69.269,69.269,0,0,1,.032-8.339,65.447,65.447,0,0,1,1.161-8.029c.247-1.087.343-1.654.431-2.246.945-4.59,2.191-9.683,3.942-15.776l.712-2.431c.536-1.751,1.063-3.534,1.5-5.309.624-2.535,1.063-5.061,1.439-7.684.656-4.59,1.184-10.618-.719-16.271a10.216,10.216,0,0,0-1.719-3.063,51.262,51.262,0,0,1,1.719-5.78c.432-1.12,1.12-2.463,1.807-3.806l.848-1.751c.839-1.719,1.623-3.47,2.311-5.245a47.507,47.507,0,0,0,3.031-12.306,22.917,22.917,0,0,0-.28-5.5A11.047,11.047,0,0,0,987.986,801.106ZM768.347,601.833l-1.591,1.535a82.435,82.435,0,0,0-6.94,8.587c-1.215,1.656-2.12,3.094-3,4.5a51.77,51.77,0,0,0-2.966,5.4c-1.656,3.534-3,7.276-4,10.122a84.218,84.218,0,0,0-2.9,10.147c-.688,3.159-1.127,6.373-1.591,9.563l-.128,1.064-.28,1.687c-.44,2.9-.872,5.805-1.216,8.74l-.063,1.1-.784-.592.063-.063a25.092,25.092,0,0,1-2.406-2.623l-.872-1.032c-.751-1-1.28-1.751-1.815-2.5-.84-1.279-1.622-2.559-2.4-3.87a54.074,54.074,0,0,1-3.471-7.028,34.828,34.828,0,0,1-2-7.093,26.536,26.536,0,0,1,.128-6.086c.248-1.687.528-3.373.936-5.061a40.27,40.27,0,0,1,1.719-5.061l.527-1.183.528-1.224a9.689,9.689,0,0,1,.751-1.464l.472-.879a43.288,43.288,0,0,1,2.838-4.493c.624-.848,1.224-1.591,1.848-2.31l.687-.753.656-.752a30.893,30.893,0,0,1,3.837-3.494h.032v.032c.032,0,.1-.064.128-.1,1.5-1.032,3-2,4.558-2.967a35.127,35.127,0,0,1,4.814-2.406l1.215-.5a40.754,40.754,0,0,1,4.31-1.631,63.974,63.974,0,0,1,6.212-1.623,55.784,55.784,0,0,1,7.341-.656A47.2,47.2,0,0,0,768.347,601.833Zm10.21,70.747a8.1,8.1,0,0,1-.343.848,14.466,14.466,0,0,1-1.343,1.935,50.493,50.493,0,0,1-8.932,6.773,63.13,63.13,0,0,1-11.681,5.5,15.274,15.274,0,0,1-2.463.465l-.944-.089c-.464-.847-.432-1.127-.367-1.439a22.883,22.883,0,0,1,1.151-2.934,41.386,41.386,0,0,1,4.374-6.157,48.341,48.341,0,0,1,7.8-6.308,40.578,40.578,0,0,1,6.717-3.087h0c1.407-.408,2.655-.656,3.942-.911.024,0,.12-.032.12-.064s.031-.024.031-.024a9.114,9.114,0,0,0,1.128.5l.775.688a3.666,3.666,0,0,1,.376,1.439A14.636,14.636,0,0,1,778.557,672.58Zm90.394-4.405c-.751.624-1.5,1.19-2.215,1.751l-1.408,1.063a31.291,31.291,0,0,0-6.372,6.836l-2.966,4.158-3,4.182c-.848,1.095-1.719,2.191-2.591,3.222-1.064,1.4-2.191,2.687-3.31,3.967l-.1.087.063.064-.063-.032A43.7,43.7,0,0,1,843.8,696.7,23.07,23.07,0,0,1,842,698.288a18.847,18.847,0,0,1-2.1,1.559c-1.342.782-2.717,1.534-4.093,2.19a33.379,33.379,0,0,1-3.934,1.656,44.975,44.975,0,0,1-10.059,2.151,21.4,21.4,0,0,1-2.375-.119c-.5-.161-1-.32-1.528-.5l-.806-.471.055-.056-.624-.848a7.034,7.034,0,0,1-.463-2.559c.119-1.535.344-3.558.655-5.557a10.545,10.545,0,0,1,.624-2.343,19.845,19.845,0,0,1,.9-2.287,29.479,29.479,0,0,1,3-4.342l2.472-2.591c1-.967,2-1.9,3.03-2.839,1.056-.966,2.215-1.879,3.367-2.749.975-.72,1.942-1.407,2.974-2.127l.248-.185a.068.068,0,0,0,.064-.063l.655-.464.032.056c.559-.367,1.151-.712,1.743-1.056,1.192-.631,2.375-1.255,3.59-1.814,1.064-.5,2.159-.9,3.254-1.344,1.064-.44,2.151-.816,3.279-1.183a82.481,82.481,0,0,1,8.371-2.159l4.558-.808a29.634,29.634,0,0,1,3.846-.376l.464-.128v.1l1.687-.031c1.623,0,3.215.063,4.846.184Zm-31.423,61.5a6.191,6.191,0,0,1-.656,1.375,9.112,9.112,0,0,1-1.495,1.183,28.855,28.855,0,0,1-6.909,2.375c-1.56.311-3.055.527-4.622.687-.808.064-1.654.088-2.462.088l-1.72-.024a26.694,26.694,0,0,1-4.373-.911,14.537,14.537,0,0,1-2.528-1.152l-.719-.439v-.185a7.165,7.165,0,0,1,.216-1.687l-.1-.032.279-.536a5.965,5.965,0,0,0-.184.568,18.337,18.337,0,0,1,.751-1.815,5.747,5.747,0,0,1,.464-.59.5.5,0,0,1,.16-.217,16.879,16.879,0,0,1,2.472-1.814,19.129,19.129,0,0,1,3.278-1.44,40.6,40.6,0,0,1,4.15-1.248h0a.032.032,0,0,1,.032.032h.031c.032,0,.1-.032.129-.032.808-.128,1.687-.247,2.526-.311.344-.032.688-.064,1.032-.064l1.031.032,1.032.032c.28,0,.776.064,1.28.128l.872.12a23.593,23.593,0,0,1,4.373,2.19,6.457,6.457,0,0,1,1.343,1.152s.536.847.536.879A10.594,10.594,0,0,1,837.528,729.679Zm100.611-17.991c-.879-.376-1.751-.751-2.63-1.095a24.681,24.681,0,0,0-3.9-1.192,8.974,8.974,0,0,0-2.127-.184,25.451,25.451,0,0,0-5.773.816c-1.439.279-2.814.655-4.189,1.031l-1.151.312a59.2,59.2,0,0,0-6.189,1.687,44.646,44.646,0,0,0-4.9,2.055l-1.687.879c-1.28.656-2.558,1.312-3.871,1.935-.911.44-1.814.809-2.751,1.184l-.815.28-.969.344c-1.782.536-3.558.974-5.373,1.406a56.261,56.261,0,0,1-6.4,1.192c-.663.056-1.535.088-2.375.088-.568,0-1.159,0-1.719-.032a5.251,5.251,0,0,0-1.967-.432l-2.127-.224a6.226,6.226,0,0,1-1.064-.119,44.814,44.814,0,0,1-5.717-1.535,3,3,0,0,1,1.944-1.656l1.495-.655a19.947,19.947,0,0,0,3.438-2.12l.624-.471h.032c1.311-.872,2.623-1.688,3.966-2.528l2.494-1.566a48.771,48.771,0,0,0,4.158-3.119c.872-.687,1.719-1.375,2.623-2.031a30.562,30.562,0,0,1,3.03-1.782c1.28-.656,2.591-1.248,3.9-1.839l2.062-.967,2.064-.967a37.166,37.166,0,0,1,4.213-1.911,23.234,23.234,0,0,1,5.03-1.152h.247a27.789,27.789,0,0,1,4.782.345,46.4,46.4,0,0,1,8.932,2.87c1.031.561,2.03,1.127,3,1.751.784.527,1.535,1.127,2.312,1.751,2.311,2.031,4.029,3.59,5.661,5.309L937.947,711l.911,1.063A1.813,1.813,0,0,0,938.139,711.688Zm-60.129,50.6a1.422,1.422,0,0,0-.192.464c.032.032-.088.343-.064.343a22.185,22.185,0,0,1-3.31,1.5,55.642,55.642,0,0,1-9.116,2.655c-.719.032-1.439.064-2.159.064a21.2,21.2,0,0,1-2.43-.129c-1.912-.184-3.719-.471-5.6-.784a47.8,47.8,0,0,1-9.555-2.9,5.264,5.264,0,0,1-.936-.624,3.146,3.146,0,0,1,.28-1.527,20.323,20.323,0,0,1,1.5-2.47l.6-.656a10.439,10.439,0,0,1,1.935-1.623,16.14,16.14,0,0,1,2.128-.935,49.721,49.721,0,0,1,7.931-1.375c1-.064,1.967-.1,2.966-.1s2,.032,2.967.1l.84-.032-.032.1a43.7,43.7,0,0,1,9.843,2.776l.784.407c0,.064.119.528.184.528.032,0,.16.344.184.344.472.032.751.5.912,1.032v.031h.032a1.111,1.111,0,0,0,.055.224,11.44,11.44,0,0,1,.321,1.368A11.645,11.645,0,0,1,878.01,762.286Zm77.743,96.854a11.077,11.077,0,0,1-.536,1.064c-.279.247-.495.495-.806.751a23.888,23.888,0,0,1-2.247,1.151l-1.287.248.031-.056a24.776,24.776,0,0,1-4.9-2.751c-1.462-1.159-2.623-2.127-3.75-3.126-1.431-1.248-2.774-2.655-4.085-4.03-2.815-2.9-5.445-6.117-7.628-8.867.032-.032-.064-.063-.1-.1a50.485,50.485,0,0,1-4-6.933,26.753,26.753,0,0,1-1.464-4.558h-.064l-.031-.1.471.031h-.256c.472.1.753.129,1.064.185a46.765,46.765,0,0,1,8.747,2.846,74.967,74.967,0,0,1,6.813,3.407,53.794,53.794,0,0,1,5.717,3.9,64.009,64.009,0,0,1,7.212,6.78,33.609,33.609,0,0,1,1.5,5.246,12.174,12.174,0,0,1,.055,3A10.241,10.241,0,0,1,955.753,859.14Zm12.618-35.454A106.651,106.651,0,0,0,954,817.753c-3.935-1.4-7.964-2.622-11.995-3.837l-2.342-.72-2.407-.719c-1.407-.439-2.847-.84-4.214-1.311-2.407-.84-4.814-1.688-7.22-2.623l-5.717-2.438-3.463-1.464c-4.062-1.719-7.4-3.286-10.53-4.942-2.375-1.248-4.741-2.462-7.149-3.654a5.358,5.358,0,0,0,1.248.128c.28,0,.592-.032.872-.032l3.846-.184,1.935-.1c1.783-.129,3.5-.313,5.246-.472,1.687-.151,3.094-.216,4.533-.216l1.215.032c1.312,0,2.591.032,3.9.032l1.967.063c1.319,0,2.63.153,3.91.28l1.279.119c5.749.785,11.251,1.536,16.336,3.534a73.01,73.01,0,0,1,14.617,8.748,55.669,55.669,0,0,1,6.157,5.557c1.9,2.03,3.717,4.094,5.437,6.244a37.39,37.39,0,0,1,3.462,5.246c.88,1.687,1.688,3.406,2.439,5.124A40.492,40.492,0,0,0,968.371,823.686Z" transform="translate(3042.461 -7140.513) rotate(-39)" fill="#113758"/>
    <path id="Path_4570" data-name="Path 4570" d="M786.521,713.583q-3.9-2.795-7.684-5.661c-4.838-3.686-9.554-7.524-14.336-11.307a3.612,3.612,0,0,0,.064.624c0,.129-.192.161-.216.032,0-.087-.032-.184-.032-.28a3.665,3.665,0,0,1-1.127,1.569,18.011,18.011,0,0,1-3.311,1.59c-2.5.936-5.124,1.528-7.684,2.279h.032a.118.118,0,0,0,.1-.032.118.118,0,0,1-.1.032c-.687.216-1.374.44-2.03.688a14.892,14.892,0,0,0-2.526,1.279,33.191,33.191,0,0,0-5.126,3.718c-1.751,1.623-3.5,3.246-5.158,4.9-1.591,1.656-3.086,3.407-4.493,5.19-.72.935-1.5,1.87-2.184,2.87-.567.9-1.158,1.815-1.719,2.718a19.126,19.126,0,0,0-.943,1.719c-.247.5-.463,1-.711,1.5-.344.784-.719,1.559-1.032,2.343-.751,1.815-1.471,3.623-2.062,5.469-.593,1.9-1.1,3.871-1.751,5.741-.688,1.943-1.408,3.878-2.247,5.749-.816,1.751-1.687,3.47-2.655,5.158a24.631,24.631,0,0,1-4.437,6.149,20.806,20.806,0,0,1-4.526,3.19c-1,.464-2,.967-3,1.431-.9.408-1.783.816-2.686,1.255-.848.433-1.623.9-2.438,1.375a2.124,2.124,0,0,0,.311-.223,24.722,24.722,0,0,0-2.31,1.591c-.5.407-.969.815-1.464,1.255-.688.656-1.343,1.311-2,2,0-.032.024-.032.024-.064a60.093,60.093,0,0,0-4.429,5.214,34.268,34.268,0,0,0-2.247,3.094c-.656,1-1.255,2-1.848,3h.032v0c-.032,0-.032,0-.032.032v.031a.22.22,0,0,1-.063.12c0-.032.032-.056.032-.088a.15.15,0,0,0-.064.12h.024c-1.063,2.023-2.055,4.07-2.958,6.156a47,47,0,0,0-2.375,6.589,18.756,18.756,0,0,0-.559,3.75l-.1,1.775c.032.944.032,1.848.128,2.751.128,1.127.313,2.223.528,3.31.279,1.28.6,2.567.943,3.815-.032-.032-.032-.1-.064-.161.4,1.375.84,2.687,1.28,4.03.463,1.311,1,2.559,1.527,3.847a58.119,58.119,0,0,0,3.59,6.739v-.031c.631.976,1.287,1.942,1.943,2.91a33.214,33.214,0,0,1,1.71,2.934.1.1,0,0,1-.184.064c-.248-.409-.495-.817-.784-1.256l.032.032c-.935-1.368-1.967-2.711-2.967-4.054-.935-1.287-1.775-2.63-2.591-4a45.627,45.627,0,0,1-2.278-4.341c-.592-1.375-1.248-2.751-1.751-4.19-.5-1.464-1.032-2.9-1.44-4.406a35.488,35.488,0,0,1-.935-4.021,34.856,34.856,0,0,1-.376-3.566,24.316,24.316,0,0,1,.624-7.181,32,32,0,0,1,1.407-4.437c.623-1.623,1.223-3.246,1.934-4.814.753-1.622,1.536-3.246,2.376-4.8a50.357,50.357,0,0,1,5.437-7.844c.967-1.248,2.03-2.431,3.126-3.59a24.166,24.166,0,0,1,4.558-4,42.014,42.014,0,0,1,4.558-2.591c1.846-.839,3.654-1.719,5.437-2.686h.032a.1.1,0,0,1,.063-.032l.032-.031a13.471,13.471,0,0,0,2.183-1.592,11.342,11.342,0,0,0,1.248-1.151c.064-.063.1-.128.16-.192l-.064.064.064-.064a25.967,25.967,0,0,0,2.686-3.837c.559-.943,1.12-1.911,1.688-2.879-.064.1-.129.224-.192.313.719-1.375,1.408-2.742,2.031-4.182a42.212,42.212,0,0,0,1.935-4.813c.935-2.807,1.814-5.654,2.934-8.427.6-1.5,1.287-2.968,2-4.438a32.618,32.618,0,0,1,2.192-3.934,40.394,40.394,0,0,1,2.9-4.062c.815-1,1.654-2,2.535-3,.935-1.032,1.9-2.064,2.9-3.063,1.183-1.151,2.438-2.214,3.686-3.31a46.1,46.1,0,0,1,6.213-4.75c.687-.4,1.375-.806,2.062-1.151a12.378,12.378,0,0,1,1.936-.879c.847-.28,1.719-.528,2.566-.744,2.463-.6,4.966-1.063,7.364-1.783v.032a19.406,19.406,0,0,0,3.63-1.5H763a1.137,1.137,0,0,0,.369-.344,3.911,3.911,0,0,0,.6-.872,4.707,4.707,0,0,1,.279-.44c0-.087-.031-.151-.031-.215-1.184-.936-2.375-1.872-3.559-2.783-1.622-1.28-3.31-2.463-4.966-3.687-.439-.344-.91-.655-1.342-1a36.454,36.454,0,0,1-5.534,1,31.823,31.823,0,0,1-7.556-.087c-2.47-.28-4.9-.624-7.341-.912a64.062,64.062,0,0,0-7.307-.311.5.5,0,0,0,.215-.032c-2.438.1-4.869.344-7.275.632-1.184.151-2.407.311-3.59.559-1.128.28-2.191.527-3.311.807h.064c-1.975.568-3.942,1.159-5.909,1.848-1.935.687-3.9,1.343-5.9,2q-2.95.934-5.9,1.967c-1.911.687-3.782,1.5-5.621,2.341-3.782,1.688-7.373,3.719-11.155,5.438-1.751.808-3.526,1.656-5.277,2.494-.935.5-1.87.969-2.814,1.472-.9.463-1.744,1-2.591,1.495.063-.032.16-.087.216-.119-1.12.743-2.279,1.462-3.342,2.311-1,.807-2,1.623-2.966,2.5-1.9,1.751-3.774,3.565-5.59,5.437A41.642,41.642,0,0,0,653,723.2a44.915,44.915,0,0,0-3.063,4.654,47.8,47.8,0,0,0-3.246,8.995v.088c-.28,1.19-.568,2.375-.784,3.534-.153,1.087-.344,2.151-.472,3.278-.119,1.032-.248,2.095-.279,3.126-.031,1.162-.027,2.325,0,3.494.1,3.278.223,6.557,0,9.867-.12,1.656-.248,3.31-.528,4.942-.311,1.935-.655,3.806-1,5.709-.031.128-.216.128-.192,0,.289-2.31.664-4.653.816-6.964.1-1.936.128-3.839.128-5.773,0-.28,0-.624-.031-.944-.1-3.935-.688-7.9-.536-11.866a57.413,57.413,0,0,1,1.751-11.458c.247-.944.536-1.911.847-2.815a27.163,27.163,0,0,1,1.656-4.245c.623-1.192,1.311-2.343,2.054-3.5.5-.751.976-1.527,1.536-2.247a51.857,51.857,0,0,1,3.9-4.526c1.407-1.439,2.846-2.846,4.277-4.221a38.939,38.939,0,0,1,4.782-3.934c.751-.528,1.527-1.032,2.31-1.528.872-.568,1.783-1.063,2.719-1.6,3.374-1.839,6.965-3.279,10.4-5,1.775-.9,3.558-1.839,5.365-2.686,1.911-.872,3.782-1.775,5.749-2.528,3.534-1.311,7.092-2.406,10.714-3.438,3.935-1.248,7.813-2.463,11.842-3.4a36.608,36.608,0,0,1,5.838-.848c1.9-.152,3.813-.344,5.748-.344,2,0,3.966.1,5.933.28a55.414,55.414,0,0,1,5.59.816c1.783.311,3.589.687,5.372.935a28.943,28.943,0,0,0,3.343.376c.966,0,1.9,0,2.87-.032h-.088a38.53,38.53,0,0,0,5.741-.687c-.5-.376-1-.751-1.527-1.127.031.063.031.1.064.128.063.128-.1.216-.193.1l-.367-.568a7.527,7.527,0,0,1-.751-.527c-2.783-1.935-5.469-4.03-8.252-5.965v.032c-.655-.472-1.311-.9-2-1.375-.088-.064,0-.184.064-.184.032,0,.032,0,.064.024,2.127,1.319,4.189,2.686,6.244,4.094v-.032h0c1.192.816,2.407,1.6,3.63,2.407-1.1-1.719-2.159-3.438-3.094-5.214a81.985,81.985,0,0,1-3.623-8.587c-1.095-2.943-2.254-5.877-3.286-8.844a60.767,60.767,0,0,1-2.183-8.867c-.408-2.062-.784-4.126-1-6.221-.153-1.967-.217-3.9-.248-5.869a90.39,90.39,0,0,1,.751-11.275,50.018,50.018,0,0,1,1-5.309c.248-.935.5-1.88.775-2.815.248-.775.568-1.527.847-2.311a45.93,45.93,0,0,1,2.807-5.717c.848-1.527,1.783-3.031,2.718-4.493,1.128-1.719,2.215-3.439,3.471-5.062,1.119-1.439,2.278-2.838,3.461-4.213.784-.944,1.6-1.848,2.407-2.751a26.226,26.226,0,0,1,1.846-1.9c1.4-1.343,2.839-2.654,4.366-3.878a66.344,66.344,0,0,1,9.875-6.277c.751-.408,1.5-.84,2.247-1.246-.592.1-1.183.182-1.815.279-1.527.248-3.055.624-4.589,1l-1.688.44c-1.623.376-3.215.871-4.806,1.4a50.763,50.763,0,0,0-6.844,2.654,34.193,34.193,0,0,0-6.557,4c-1.687,1.287-3.341,2.662-5,4.094-1.343,1.224-2.687,2.5-3.966,3.815a56.423,56.423,0,0,0-4.469,5.372,26.587,26.587,0,0,0-2.9,4.71c-1.217,2.6-2.128,4.5-2.839,6.467-.5,1.312-1,2.655-1.375,4-.408,1.656-.784,3.279-1.127,4.933-.28,1.44-.472,2.934-.624,4.438a37.073,37.073,0,0,0-.28,4.621,81.882,81.882,0,0,0,.5,9.715c.408,3.494.935,6.964,1.654,10.4.624,3.03,1.312,6.085,2.127,9.083a26.088,26.088,0,0,0,2.064,5.534,21.6,21.6,0,0,0-3.159-1.752l-.935-.439c-3.623-1.712-7.276-3.342-10.994-4.87-4.279-1.814-8.276-3.278-12.274-4.556-3.934-1.28-7.9-2.472-11.931-3.5a206.562,206.562,0,0,0-24.146-4.341l-6.213-.872c-6.093-.879-12.154-1.751-18.239-2.375a141.02,141.02,0,0,0-16.086-.72h-1.9l-4.254.032c-4.685.032-9.4.064-14.081.28-3.342.1-6.844.224-10.338.376l-1.192-.128-1.1-.088a2.826,2.826,0,0,0-.5-.031c-.751,0-1.095.1-1.311.376a.9.9,0,0,0,.063,1.119c.344.751.624.816.9.847a10.3,10.3,0,0,0,2.183,1.56,5.231,5.231,0,0,0,2.31.687l1.408.128a59.234,59.234,0,0,0,6.156.969c1.248.087,2.463.119,3.687.119h1.343c.775-.032,1.527-.119,2.278-.216,1.559-.16,3-.216,4.438-.279H620.1l2.535.031h8.028c2.031,0,4.063,0,6.093.064,3.623.087,7.213.216,10.834.367l5.525.289c1,.031,1.967.119,2.967.215l2.319.216,1.775.224c.72.088,1.472.216,2.223.311l6.429.809,6.467.815c4.031.561,8.029,1.312,12.026,2.12,4.43,1.031,8.772,2.158,13.145,3.47,4.6,1.343,9.124,2.751,13.617,4.31l4.31,1.471c2.847,1,5.718,2,8.532,3.031l1.783.624,1.775.656c-2.407.279-4.774.808-7.148,1.311l-4.062.9c-7.932,1.591-15.649,3.191-23.148,5.19a118.186,118.186,0,0,0-11.458,3.677q-5.625,2.063-11.059,4.6A97.368,97.368,0,0,0,662.3,695.4a90.759,90.759,0,0,0-10.026,7.652,59.489,59.489,0,0,0-5.622,5.749,66.641,66.641,0,0,0-5.221,6.588,46.384,46.384,0,0,0-6.654,16.024,45.593,45.593,0,0,0-1.087,8.244c-.129,2.846-.256,5.685-.28,8.531a63.209,63.209,0,0,0,.528,8.053c.311,2.406.527,4.845.687,7.251.128,3.967-.032,8.4-.192,12.8-.087,2.127-.248,4.221-.5,6.34a16.661,16.661,0,0,0-.216,3.31l-.816.408h.16a9.085,9.085,0,0,0,4.869-1.559c.969-.568,1.935-1.1,2.9-1.6,1.255-.655,2.47-1.311,3.654-2.086a25.7,25.7,0,0,0,4.966-4.782,49.533,49.533,0,0,0,4.685-6.18,27.788,27.788,0,0,0,2.967-6.749c.655-2,1.192-4.029,1.719-6.093l.248-.84a67.983,67.983,0,0,1,2.439-7.307l.5-1.28.432-1.224c.408-1.095.784-2.183,1.287-3.246.5-1.183,1.056-2.407,1.656-3.558.087-.129.152-.256.216-.345,0,0-.032-.031,0-.031l-.1-.032.16-.16c0,.063-.1.16-.063.192a57.9,57.9,0,0,1,7-10.339,46.828,46.828,0,0,1,4.374-3.878c1.375-1.023,2.807-2,4.245-2.934a20.478,20.478,0,0,1,4.934-2.343l.816-.344.032.063c1.838-.5,3.654-1,5.525-1.343l.815-.248v.1a10.121,10.121,0,0,1,1.776.247,22.246,22.246,0,0,1,3.157,1.688,13.727,13.727,0,0,1,1.56,1.495l.376.848a10.278,10.278,0,0,1,.128,2.151,23.635,23.635,0,0,1-1.032,4.062,31.773,31.773,0,0,1-3.094,5.438,41.3,41.3,0,0,1-5.158,4.749l-.624.528c-1.151,1-2.31,1.935-3.462,2.9l-1.623,1.343-.967.721c-2.718,2.095-5.437,4.182-8,6.5-2.975,2.711-5.813,5.59-8.563,8.556a93.823,93.823,0,0,0-7.716,9.619c-1.032,1.5-2,3.031-2.9,4.622a34.592,34.592,0,0,0-2.72,6.157,27.629,27.629,0,0,0-1.183,11.049,42,42,0,0,0,2.559,11.466,33.6,33.6,0,0,0,6.093,10.931c1.28,1.471,2.591,2.878,3.934,4.277l1.9,1.967,1.879,2c1.375,1.375,2.774,2.718,4.182,4.062a47.7,47.7,0,0,0,5.4,4.158c1.248.9,2.591,1.751,3.934,2.559l1.1.687c1.9,1.215,3.749,2.471,5.621,3.75a73.934,73.934,0,0,0,10.778,6.181,61.005,61.005,0,0,0,7.46,2.934,15.133,15.133,0,0,0,4.063,1.319h.527c.16,0,.287,0,.287-.032.032,0-.255-.255-.255-.288s-.344-.28-.376-.312l-1.311-.839-.656-.688a25.833,25.833,0,0,1-3.215-5.525c-.655-1.567-1.248-3.222-1.751-4.877a28.644,28.644,0,0,1-1.032-4.493c-.279-2.127-.559-4.279-.711-6.469a36.741,36.741,0,0,1,.216-6.685c.344-2.559.624-4.87.84-7.212.191-1.5.344-2.72.536-3.879.216-1.43.527-2.838.84-4.245.5-2.5,1.1-5.03,1.687-7.524a64.953,64.953,0,0,1,2.223-7.652l.4-1.224c.719-2.086,1.439-4.15,2.254-6.18a67.215,67.215,0,0,1,3.934-7.837c1.591-2.662,3.247-5.285,5.061-7.78,1.088-1.248,1.712-1.935,2.368-2.591l1.031-.88.656-.527a34.608,34.608,0,0,1,4.653-3.19c1.311-.688,2.623-1.368,3.966-1.968a19.207,19.207,0,0,1,2-.624,11.269,11.269,0,0,1,1.783-.119,28.356,28.356,0,0,1,3.31.216,10.887,10.887,0,0,1,1.783.408,18.41,18.41,0,0,1,2.623,2.463,16.469,16.469,0,0,1,1.246,2.03,23.944,23.944,0,0,1,1.127,3.878c.153,1.248.28,2.5.313,3.806a40.611,40.611,0,0,1-.216,4.31,41.6,41.6,0,0,1-2.062,8.588l-.569,1.471c-1.151,2.623-2.838,5.838-4.557,9.059l-1.464,2.718-1.224,2.279-1.343,2.622L735.827,800l-2.526,5c-.784,1.592-1.5,3.191-2.223,4.782l-.464,1.088a86.441,86.441,0,0,0-4.029,10.627c-.592,1.935-1.128,3.837-1.591,5.8a29.335,29.335,0,0,0-.848,6,32.346,32.346,0,0,0,.28,5.189c.255,2.055.623,4.054,1.063,6.054a29.692,29.692,0,0,0,1.159,3.749,18.86,18.86,0,0,0,2.743,4.814,30.541,30.541,0,0,0,5.029,4.934c1.471,1.246,3,2.407,4.534,3.558a63.752,63.752,0,0,0,5.772,4,20.706,20.706,0,0,0,2.815,1.312l.816.257-.032.087c.231.1.488.209.728.313-.248-.5-.5-1-.76-1.5-1.19-2.247-2.311-4.534-3.406-6.844a136.951,136.951,0,0,1-5.685-13.488c-.9-2.623-1.752-5.278-2.591-7.932-.313-1.032-.656-2.064-.936-3.094a37.591,37.591,0,0,1-1.031-4.158,20.1,20.1,0,0,1-.376-3.431c0-.967.032-1.911.1-2.846.056-.624.056-1.215.151-1.807.1-.784.216-1.535.313-2.288.16-1.119.408-2.246.656-3.334.247-1.127.5-2.287.782-3.375.528-2.062,1.032-4.157,1.72-6.156.624-1.872,1.279-3.718,1.935-5.59.751-2.062,1.559-4.062,2.407-6.093.743-1.751,1.622-3.462,2.462-5.18,1.656-3.374,3.311-6.781,5.125-10.091a93.175,93.175,0,0,1,6.213-10.339c2.343-3.246,4.621-6.556,7.156-9.714,1.312-1.656,2.718-3.279,4.029-4.966,1.152-1.407,2.247-2.839,3.279-4.31,1.119-1.559,2.151-3.182,3.182-4.806.935-1.5,1.967-2.943,3-4.405,1.127-1.591,2.254-3.223,3.31-4.877,1-1.528,1.911-3.087,2.783-4.687l-.032.032c.784-1.495,1.5-3,2.127-4.526.344-.848.655-1.654.935-2.5.185-.687.376-1.4.561-2.086v-.129a31.87,31.87,0,0,0,.5-3.438c.031-.885.03-1.8,0-2.687a16.1,16.1,0,0,0-.28-2.71C786.633,713.99,786.577,713.783,786.521,713.583Zm-21.548,10.674.087,1.911a79.658,79.658,0,0,1-.056,9.556,24.885,24.885,0,0,1-.568,2.686,15.658,15.658,0,0,1-1.063,2.064,16.1,16.1,0,0,1-1.623,1.687,22.565,22.565,0,0,1-2.966,1.775c-.967.344-1.935.624-2.9.879a26.207,26.207,0,0,1-2.655.153,6.162,6.162,0,0,1-1.622-.216,11.2,11.2,0,0,1-1.751-.936,16.137,16.137,0,0,1-1.408-1.374,11.775,11.775,0,0,1-.9-1.5c-.248-.775-.5-1.495-.719-2.31a21.81,21.81,0,0,1-.032-3.247,39.372,39.372,0,0,1,1.846-7.683c.465-1.215.936-2.407,1.5-3.59a20.335,20.335,0,0,1,1.911-3.159,46.743,46.743,0,0,1,4.84-5l0,0,.032-.032a.327.327,0,0,1-.03.03,55.46,55.46,0,0,1,5.434-3.867c1.056-.656,2.183-1.28,3.31-1.872a39.137,39.137,0,0,0-.816,7.556A62.552,62.552,0,0,0,764.972,724.257Z" transform="translate(3024.102 -7125.439) rotate(-39)" fill="#113758"/>
  </g>
</svg>
