<svg xmlns="http://www.w3.org/2000/svg" width="389.225" height="179.301" viewBox="0 0 389.225 179.301">
  <g id="Group_1658" data-name="Group 1658" transform="translate(-1135.261 -454.758)">
    <g id="Group_1651" data-name="Group 1651" transform="translate(1135.261 454.758)">
      <g id="Group_1650" data-name="Group 1650">
        <g id="Group_1649" data-name="Group 1649">
          <g id="Group_1648" data-name="Group 1648">
            <g id="Group_1647" data-name="Group 1647">
              <path id="Path_4432" data-name="Path 4432" d="M1216.419,598.335l-.035,0a1.367,1.367,0,0,0-1.313,1.208l-4.51,38.527a2.587,2.587,0,0,0,2.682,2.886l.054,0a2.579,2.579,0,0,0,2.463-2.439l2.07-38.741A1.368,1.368,0,0,0,1216.419,598.335Z" transform="translate(-1146.423 -476.047)" fill="#fff"/>
              <path id="Path_4433" data-name="Path 4433" d="M1218.268,576.73l-1.557,13.3a1.178,1.178,0,0,0,1.245,1.311l.025,0a1.173,1.173,0,0,0,1.1-1.112l.715-13.368a.764.764,0,0,0-.8-.8h0A.764.764,0,0,0,1218.268,576.73Z" transform="translate(-1147.337 -472.743)" fill="#fff"/>
              <path id="Path_4434" data-name="Path 4434" d="M1219.576,567.4l-.343,2.934a.6.6,0,0,0,.665.664h.013a.6.6,0,0,0,.526-.563l.158-2.957a.5.5,0,0,0-.534-.528h-.01A.511.511,0,0,0,1219.576,567.4Z" transform="translate(-1147.711 -471.393)" fill="#fff"/>
              <path id="Path_4435" data-name="Path 4435" d="M1217.758,567.234l-1.075,2.952a.617.617,0,0,0,.526.826h.014a.616.616,0,0,0,.643-.441l.888-3.018a.5.5,0,0,0-.427-.644l-.037,0A.5.5,0,0,0,1217.758,567.234Z" transform="translate(-1147.328 -471.386)" fill="#fff"/>
              <path id="Path_4436" data-name="Path 4436" d="M1213.777,576.367l-4.736,13.008a1.213,1.213,0,0,0,.964,1.614l.025,0a1.211,1.211,0,0,0,1.335-.858l3.908-13.285a.776.776,0,0,0-.625-.985l-.015,0A.784.784,0,0,0,1213.777,576.367Z" transform="translate(-1146.19 -472.713)" fill="#fff"/>
              <path id="Path_4437" data-name="Path 4437" d="M1209.228,575.137l-7.933,12.057a1.255,1.255,0,0,0,.616,1.868l.025.009a1.256,1.256,0,0,0,1.521-.557l7.16-12.54a.776.776,0,0,0-.4-1.113l-.062-.024A.778.778,0,0,0,1209.228,575.137Z" transform="translate(-1145.021 -472.555)" fill="#fff"/>
              <path id="Path_4438" data-name="Path 4438" d="M1215.844,566.741l-1.841,2.8a.64.64,0,0,0,.36.968l.014,0a.64.64,0,0,0,.729-.3l1.668-2.921a.5.5,0,0,0-.291-.733l-.068-.02A.5.5,0,0,0,1215.844,566.741Z" transform="translate(-1146.921 -471.328)" fill="#fff"/>
              <path id="Path_4439" data-name="Path 4439" d="M1213.9,565.835l-2.619,2.471a.667.667,0,0,0,.146,1.076l.013.006a.669.669,0,0,0,.8-.135l2.476-2.65a.5.5,0,0,0-.125-.787l-.1-.054A.5.5,0,0,0,1213.9,565.835Z" transform="translate(-1146.501 -471.207)" fill="#fff"/>
              <path id="Path_4440" data-name="Path 4440" d="M1204.812,572.986l-10.98,10.355a1.307,1.307,0,0,0,.191,2.048l.024.015a1.3,1.3,0,0,0,1.657-.21l10.318-11.043a.776.776,0,0,0-.146-1.184l-.106-.068A.776.776,0,0,0,1204.812,572.986Z" transform="translate(-1143.885 -472.257)" fill="#fff"/>
              <path id="Path_4441" data-name="Path 4441" d="M1200.739,569.894l-13.619,7.86a1.367,1.367,0,0,0-.307,2.131l.02.021a1.364,1.364,0,0,0,1.733.179l13.1-8.707a.865.865,0,0,0,.142-1.323l-.012-.013A.869.869,0,0,0,1200.739,569.894Z" transform="translate(-1142.848 -471.812)" fill="#fff"/>
              <path id="Path_4442" data-name="Path 4442" d="M1211.984,564.479l-3.314,1.912a.7.7,0,0,0-.1,1.133l.012.01a.7.7,0,0,0,.84.05l3.184-2.117a.576.576,0,0,0,.063-.911l-.009-.009A.574.574,0,0,0,1211.984,564.479Z" transform="translate(-1146.094 -471.015)" fill="#fff"/>
              <path id="Path_4443" data-name="Path 4443" d="M1210.347,562.568l-3.933,1.176a.729.729,0,0,0-.383,1.123l.009.013a.73.73,0,0,0,.848.261l3.849-1.422a.6.6,0,0,0,.287-.9l-.007-.01A.6.6,0,0,0,1210.347,562.568Z" transform="translate(-1145.734 -470.739)" fill="#fff"/>
              <path id="Path_4444" data-name="Path 4444" d="M1197.465,565.777l-15.776,4.72a1.423,1.423,0,0,0-.829,2.076l.015.026a1.422,1.422,0,0,0,1.72.607l15.461-5.713a.864.864,0,0,0,.448-1.247l-.043-.074A.865.865,0,0,0,1197.465,565.777Z" transform="translate(-1141.994 -471.214)" fill="#fff"/>
              <path id="Path_4445" data-name="Path 4445" d="M1195.325,560.82l-17.163,1a1.467,1.467,0,0,0-1.334,1.851l.009.03a1.474,1.474,0,0,0,1.6,1.076l17.087-2.081a.863.863,0,0,0,.73-1.09l-.041-.146A.866.866,0,0,0,1195.325,560.82Z" transform="translate(-1141.416 -470.484)" fill="#fff"/>
              <path id="Path_4446" data-name="Path 4446" d="M1209.18,560.151l-4.374.255a.763.763,0,0,0-.673,1.022l.005.015a.765.765,0,0,0,.81.495l4.349-.53a.625.625,0,0,0,.515-.824l0-.012A.627.627,0,0,0,1209.18,560.151Z" transform="translate(-1145.466 -470.385)" fill="#fff"/>
              <path id="Path_4447" data-name="Path 4447" d="M1195.4,555.638v-.018a.876.876,0,0,0-.725-.865l-17.7-3.123a1.383,1.383,0,0,0-1.627,1.354V553c0,.106,0,.21,0,.316a1.388,1.388,0,0,0,1.232,1.365l17.852,2a.866.866,0,0,0,.963-.871C1195.4,555.754,1195.4,555.7,1195.4,555.638Z" transform="translate(-1141.205 -469.119)" fill="#fff"/>
              <path id="Path_4448" data-name="Path 4448" d="M1208.745,557.219l-4.542-.8a.8.8,0,0,0-.936.833h0a.8.8,0,0,0,.709.748l4.587.514a.643.643,0,0,0,.715-.673v-.019A.644.644,0,0,0,1208.745,557.219Z" transform="translate(-1145.344 -469.83)" fill="#fff"/>
              <path id="Path_4449" data-name="Path 4449" d="M1195.62,548.3l-16.962-7.32a1.566,1.566,0,0,0-2.152,1.1l-.007.032a1.571,1.571,0,0,0,1,1.813l17.43,6.249a.863.863,0,0,0,1.131-.631c.018-.083.037-.166.057-.25A.865.865,0,0,0,1195.62,548.3Z" transform="translate(-1141.37 -467.523)" fill="#fff"/>
              <path id="Path_4450" data-name="Path 4450" d="M1209.141,554.068l-4.5-1.944a.821.821,0,0,0-1.133.611l0,.017a.82.82,0,0,0,.532.912l4.628,1.66a.624.624,0,0,0,.822-.457c.006-.031.013-.062.02-.094A.624.624,0,0,0,1209.141,554.068Z" transform="translate(-1145.377 -469.185)" fill="#fff"/>
              <path id="Path_4451" data-name="Path 4451" d="M1216.734,557.814a.56.56,0,0,0-.4-.668l-1-.43a.509.509,0,0,0-.71.436v.014a.51.51,0,0,0,.336.511l1.036.371A.558.558,0,0,0,1216.734,557.814Z" transform="translate(-1147.029 -469.869)" fill="#fff"/>
              <path id="Path_4452" data-name="Path 4452" d="M1210.328,550.932l-4.145-3.088a.849.849,0,0,0-1.282.336l-.007.016a.847.847,0,0,0,.313,1.054l4.34,2.825a.68.68,0,0,0,.976-.26l.006-.012A.692.692,0,0,0,1210.328,550.932Z" transform="translate(-1145.575 -468.535)" fill="#fff"/>
              <path id="Path_4453" data-name="Path 4453" d="M1217.409,556.719a.561.561,0,0,0-.232-.741l-1.353-1.008a.532.532,0,0,0-.818.252l0,.01a.528.528,0,0,0,.212.617l1.428.929A.559.559,0,0,0,1217.409,556.719Z" transform="translate(-1147.08 -469.601)" fill="#fff"/>
              <path id="Path_4454" data-name="Path 4454" d="M1198.119,541.973l-15.455-11.509a1.619,1.619,0,0,0-2.43.6l-.014.031a1.626,1.626,0,0,0,.577,2.059l16.184,10.532a.869.869,0,0,0,1.253-.349c.045-.091.09-.181.137-.272A.864.864,0,0,0,1198.119,541.973Z" transform="translate(-1141.904 -465.935)" fill="#fff"/>
              <path id="Path_4455" data-name="Path 4455" d="M1202.216,536.213l-12.949-15.437a1.674,1.674,0,0,0-2.581.015l-.022.028a1.68,1.68,0,0,0,.083,2.216l13.927,14.619a.868.868,0,0,0,1.29-.042q.116-.135.235-.27A.865.865,0,0,0,1202.216,536.213Z" transform="translate(-1142.827 -464.458)" fill="#fff"/>
              <path id="Path_4456" data-name="Path 4456" d="M1218.345,555.805a.562.562,0,0,0-.054-.775l-1.41-1.68a.545.545,0,0,0-.846.008l-.018.024a.541.541,0,0,0,.043.7l1.525,1.6A.558.558,0,0,0,1218.345,555.805Z" transform="translate(-1147.219 -469.347)" fill="#fff"/>
              <path id="Path_4457" data-name="Path 4457" d="M1212.425,548.138l-3.54-4.22a.881.881,0,0,0-1.359.011h0a.883.883,0,0,0,.046,1.164l3.8,3.989a.7.7,0,0,0,1.02-.008l.011-.011A.7.7,0,0,0,1212.425,548.138Z" transform="translate(-1145.947 -467.931)" fill="#fff"/>
              <path id="Path_4458" data-name="Path 4458" d="M1219.494,555.14a.56.56,0,0,0,.126-.766l-1.154-2.3a.557.557,0,0,0-.8-.218l-.009.006a.56.56,0,0,0-.178.75l1.306,2.237A.558.558,0,0,0,1219.494,555.14Z" transform="translate(-1147.44 -469.142)" fill="#fff"/>
              <path id="Path_4459" data-name="Path 4459" d="M1215.277,545.917l-2.664-5.307a.9.9,0,0,0-1.34-.319l-.015.011a.9.9,0,0,0-.239,1.174l3,5.146a.7.7,0,0,0,.968.246l.012-.007A.725.725,0,0,0,1215.277,545.917Z" transform="translate(-1146.476 -467.414)" fill="#fff"/>
              <path id="Path_4460" data-name="Path 4460" d="M1207.707,531.309l-9.373-18.672a1.747,1.747,0,0,0-2.616-.609h0a1.745,1.745,0,0,0-.454,2.273l10.542,18.06a1.068,1.068,0,0,0,1.524.344l.018-.012A1.086,1.086,0,0,0,1207.707,531.309Z" transform="translate(-1144.122 -463.197)" fill="#fff"/>
              <path id="Path_4461" data-name="Path 4461" d="M1220.788,554.784h0a.562.562,0,0,0,.3-.717l-.641-2.706a.566.566,0,0,0-.685-.418l-.011,0a.564.564,0,0,0-.4.713l.816,2.679A.559.559,0,0,0,1220.788,554.784Z" transform="translate(-1147.725 -469.017)" fill="#fff"/>
              <path id="Path_4462" data-name="Path 4462" d="M1214.536,528.031l-5.054-21.341a1.729,1.729,0,0,0-2.335-1.205l-.131.055a1.734,1.734,0,0,0-1,2.106l6.386,20.965a1.1,1.1,0,0,0,1.411.715l.02-.007A1.1,1.1,0,0,0,1214.536,528.031Z" transform="translate(-1145.741 -462.26)" fill="#fff"/>
              <path id="Path_4463" data-name="Path 4463" d="M1218.728,544.576l-1.47-6.207a.921.921,0,0,0-1.222-.646l-.018.007a.915.915,0,0,0-.549,1.126l1.859,6.1a.719.719,0,0,0,.866.487l.014,0A.725.725,0,0,0,1218.728,544.576Z" transform="translate(-1147.148 -467.05)" fill="#fff"/>
              <path id="Path_4464" data-name="Path 4464" d="M1222.139,554.769a.56.56,0,0,0,.456-.628V551.35a.563.563,0,0,0-.526-.561h-.016a.562.562,0,0,0-.6.6l.177,2.807A.557.557,0,0,0,1222.139,554.769Z" transform="translate(-1148.042 -468.996)" fill="#fff"/>
              <path id="Path_4465" data-name="Path 4465" d="M1222.468,544.277l0-6.763a.941.941,0,0,0-1.006-.939h0a.941.941,0,0,0-.874,1l.426,6.747a.718.718,0,0,0,.691.673h.019A.716.716,0,0,0,1222.468,544.277Z" transform="translate(-1147.913 -466.889)" fill="#fff"/>
              <path id="Path_4466" data-name="Path 4466" d="M1222.157,526.66l0-22.87a1.731,1.731,0,0,0-1.939-1.719l-.227.029a1.734,1.734,0,0,0-1.516,1.826l1.439,22.806a1.1,1.1,0,0,0,1.163,1.025l.049,0A1.1,1.1,0,0,0,1222.157,526.66Z" transform="translate(-1147.599 -461.771)" fill="#fff"/>
              <path id="Path_4467" data-name="Path 4467" d="M1225.969,544.942l1.65-6.955a.944.944,0,0,0-.769-1.147l-.02,0a.938.938,0,0,0-1.074.771l-1.205,7.029a.729.729,0,0,0,.518.823l.014,0A.711.711,0,0,0,1225.969,544.942Z" transform="translate(-1148.499 -466.926)" fill="#fff"/>
              <path id="Path_4468" data-name="Path 4468" d="M1223.375,555.077a.56.56,0,0,0,.589-.506l.632-2.663a.562.562,0,0,0-.358-.661l-.011,0a.564.564,0,0,0-.744.435l-.466,2.719A.558.558,0,0,0,1223.375,555.077Z" transform="translate(-1148.271 -469.06)" fill="#fff"/>
              <path id="Path_4469" data-name="Path 4469" d="M1229.313,527.275l5.469-23.058a1.73,1.73,0,0,0-1.488-2.119l-.3-.033a1.735,1.735,0,0,0-1.9,1.427l-4,23.336a1.1,1.1,0,0,0,.9,1.263l.049.008A1.1,1.1,0,0,0,1229.313,527.275Z" transform="translate(-1148.875 -461.771)" fill="#fff"/>
              <path id="Path_4470" data-name="Path 4470" d="M1229.1,546.483l3.4-6.764a.954.954,0,0,0-.492-1.309l-.018-.008a.949.949,0,0,0-1.233.509l-2.958,6.949a.724.724,0,0,0,.3.911l.012.007A.709.709,0,0,0,1229.1,546.483Z" transform="translate(-1148.974 -467.15)" fill="#fff"/>
              <path id="Path_4471" data-name="Path 4471" d="M1224.477,555.687a.561.561,0,0,0,.69-.356l1.185-2.358a.559.559,0,0,0-.185-.715l-.01-.007a.561.561,0,0,0-.829.245l-1.042,2.447A.558.558,0,0,0,1224.477,555.687Z" transform="translate(-1148.452 -469.2)" fill="#fff"/>
              <path id="Path_4472" data-name="Path 4472" d="M1235.971,529.662l11.08-22.054a1.731,1.731,0,0,0-.98-2.413l-.365-.124a1.735,1.735,0,0,0-2.156.958L1233.9,528.7a1.1,1.1,0,0,0,.591,1.444l.061.026A1.1,1.1,0,0,0,1235.971,529.662Z" transform="translate(-1149.873 -462.204)" fill="#fff"/>
              <path id="Path_4473" data-name="Path 4473" d="M1225.42,556.561a.56.56,0,0,0,.753-.187l1.616-1.925a.556.556,0,0,0-.01-.728l-.009-.009a.557.557,0,0,0-.862.042l-1.5,2.039A.558.558,0,0,0,1225.42,556.561Z" transform="translate(-1148.606 -469.403)" fill="#fff"/>
              <path id="Path_4474" data-name="Path 4474" d="M1242.051,533.747l16.552-19.719a1.731,1.731,0,0,0-.406-2.579q-.213-.134-.428-.266a1.726,1.726,0,0,0-2.289.453l-15.244,20.684a1.139,1.139,0,0,0,.234,1.593l.019.014A1.147,1.147,0,0,0,1242.051,533.747Z" transform="translate(-1150.793 -463.087)" fill="#fff"/>
              <path id="Path_4475" data-name="Path 4475" d="M1231.761,548.792l5.167-6.156a.965.965,0,0,0-.182-1.405l-.016-.011a.959.959,0,0,0-1.329.216l-4.759,6.457a.719.719,0,0,0,.082.946l.009.009A.706.706,0,0,0,1231.761,548.792Z" transform="translate(-1149.383 -467.551)" fill="#fff"/>
              <path id="Path_4476" data-name="Path 4476" d="M1247.157,539.48l21.361-15.9a1.982,1.982,0,0,0,.22-2.989l-.037-.037a1.979,1.979,0,0,0-2.682-.112l-20.313,17.212a1.139,1.139,0,0,0-.138,1.6l.029.035A1.148,1.148,0,0,0,1247.157,539.48Z" transform="translate(-1151.577 -464.428)" fill="#fff"/>
              <path id="Path_4477" data-name="Path 4477" d="M1233.793,551.72l6.848-5.1a.977.977,0,0,0,.148-1.426l-.014-.015a.97.97,0,0,0-1.359-.1l-6.5,5.508a.714.714,0,0,0-.14.93l.007.012A.7.7,0,0,0,1233.793,551.72Z" transform="translate(-1149.703 -468.117)" fill="#fff"/>
              <path id="Path_4478" data-name="Path 4478" d="M1226.152,557.646a.562.562,0,0,0,.777-.009l1.9-1.415a.552.552,0,0,0,.159-.7l-.006-.01a.553.553,0,0,0-.844-.162l-1.825,1.546A.56.56,0,0,0,1226.152,557.646Z" transform="translate(-1148.725 -469.654)" fill="#fff"/>
              <path id="Path_4479" data-name="Path 4479" d="M1235.1,555.095l8.3-3.58a.988.988,0,0,0,.48-1.365l-.009-.018a.981.981,0,0,0-1.316-.417l-8.048,4.09a.711.711,0,0,0-.35.861l.005.014A.7.7,0,0,0,1235.1,555.095Z" transform="translate(-1149.92 -468.822)" fill="#fff"/>
              <path id="Path_4480" data-name="Path 4480" d="M1251.01,546.491l26.461-11.409a1.168,1.168,0,0,0,.546-1.663q-.478-.811-.983-1.607a1.17,1.17,0,0,0-1.517-.417l-25.508,12.964a1.163,1.163,0,0,0-.517,1.558l.011.021A1.17,1.17,0,0,0,1251.01,546.491Z" transform="translate(-1152.18 -466.102)" fill="#fff"/>
              <path id="Path_4481" data-name="Path 4481" d="M1235.632,558.723l9.378-1.651a.99.99,0,0,0,.8-1.195l-.01-.044a.99.99,0,0,0-1.2-.726l-9.24,2.237a.7.7,0,0,0-.535.747v.014A.691.691,0,0,0,1235.632,558.723Z" transform="translate(-1150.023 -469.633)" fill="#fff"/>
              <path id="Path_4482" data-name="Path 4482" d="M1253.261,554.632l28.575-5.034a2.076,2.076,0,0,0,1.621-2.663l-.015-.048a2.084,2.084,0,0,0-2.479-1.4l-28.188,6.825a1.147,1.147,0,0,0-.842,1.382l.014.06A1.147,1.147,0,0,0,1253.261,554.632Z" transform="translate(-1152.556 -468.202)" fill="#fff"/>
              <path id="Path_4483" data-name="Path 4483" d="M1253.8,563.284l29.947,1.749a2.138,2.138,0,0,0,2.26-2.249h0a2.15,2.15,0,0,0-2.157-2.036l-29.986.145a1.182,1.182,0,0,0-1.176,1.17v.03A1.183,1.183,0,0,0,1253.8,563.284Z" transform="translate(-1152.672 -470.473)" fill="#fff"/>
              <path id="Path_4484" data-name="Path 4484" d="M1235.41,562.4l9.9.578a1,1,0,0,0,1.056-.984v-.028a1,1,0,0,0-1-1.01l-9.9.048a.7.7,0,0,0-.691.618l0,.014A.688.688,0,0,0,1235.41,562.4Z" transform="translate(-1150.014 -470.504)" fill="#fff"/>
              <path id="Path_4485" data-name="Path 4485" d="M1252.7,570.827l29.652,8.883a2.158,2.158,0,0,0,2.75-1.729l.008-.045a2.171,2.171,0,0,0-1.654-2.455l-30.137-6.99a1.194,1.194,0,0,0-1.438.9l-.005.022A1.2,1.2,0,0,0,1252.7,570.827Z" transform="translate(-1152.547 -471.617)" fill="#fff"/>
              <path id="Path_4486" data-name="Path 4486" d="M1234.564,565.55l9.861,2.955a1.015,1.015,0,0,0,1.284-.773l0-.021a1.01,1.01,0,0,0-.765-1.183l-10.011-2.322a.694.694,0,0,0-.818.465l-.008.024A.679.679,0,0,0,1234.564,565.55Z" transform="translate(-1149.913 -470.984)" fill="#fff"/>
              <path id="Path_4487" data-name="Path 4487" d="M1226.708,562.585c-.023.047-.047.092-.072.138a.414.414,0,0,0,.238.589l.034.01,1.856.555a.538.538,0,0,0,.664-.341l0-.011a.538.538,0,0,0-.388-.7l-1.907-.442h0A.384.384,0,0,0,1226.708,562.585Z" transform="translate(-1148.802 -470.715)" fill="#fff"/>
              <path id="Path_4488" data-name="Path 4488" d="M1233.155,568.484l9.283,5.362a1.032,1.032,0,0,0,1.465-.494l.009-.02a1.027,1.027,0,0,0-.493-1.318l-9.6-4.765a.693.693,0,0,0-.917.289l-.007.012A.694.694,0,0,0,1233.155,568.484Z" transform="translate(-1149.725 -471.427)" fill="#fff"/>
              <path id="Path_4489" data-name="Path 4489" d="M1225.968,563.778l0,.005a.469.469,0,0,0,.127.683l.032.018,1.75,1.011a.546.546,0,0,0,.75-.2l.005-.009a.546.546,0,0,0-.239-.749l-1.828-.906-.014-.007A.479.479,0,0,0,1225.968,563.778Z" transform="translate(-1148.696 -470.893)" fill="#fff"/>
              <path id="Path_4490" data-name="Path 4490" d="M1250.039,578.091l27.723,16.012a2.238,2.238,0,0,0,3.205-1.126h0a2.239,2.239,0,0,0-1.091-2.818L1251.2,575.93a1.212,1.212,0,0,0-1.646.586l-.009.021A1.216,1.216,0,0,0,1250.039,578.091Z" transform="translate(-1152.19 -472.706)" fill="#fff"/>
              <path id="Path_4491" data-name="Path 4491" d="M1231.167,571.109l8.168,7.709a1.053,1.053,0,0,0,1.588-.168l.013-.018a1.051,1.051,0,0,0-.2-1.4l-8.632-7.172a.693.693,0,0,0-.971.085l-.023.027A.688.688,0,0,0,1231.167,571.109Z" transform="translate(-1149.449 -471.83)" fill="#fff"/>
              <path id="Path_4492" data-name="Path 4492" d="M1245.841,584.822l24.272,22.907a2.272,2.272,0,0,0,3.457-.4l.032-.049a2.282,2.282,0,0,0-.449-3.009L1247.5,582.949a1.235,1.235,0,0,0-1.789.219l-.014.02A1.242,1.242,0,0,0,1245.841,584.822Z" transform="translate(-1151.6 -473.723)" fill="#fff"/>
              <path id="Path_4493" data-name="Path 4493" d="M1225.126,564.724l-.035.033a.465.465,0,0,0,.008.68h0l1.61,1.519a.548.548,0,0,0,.807-.061l.007-.009a.544.544,0,0,0-.083-.755l-1.716-1.427,0,0A.448.448,0,0,0,1225.126,564.724Z" transform="translate(-1148.559 -471.045)" fill="#fff"/>
              <path id="Path_4494" data-name="Path 4494" d="M1228.666,573.353l6.471,9.843a1.08,1.08,0,0,0,1.642.192l.017-.016a1.076,1.076,0,0,0,.119-1.43l-7.08-9.416a.683.683,0,0,0-.974-.124l-.049.039A.687.687,0,0,0,1228.666,573.353Z" transform="translate(-1149.094 -472.179)" fill="#fff"/>
              <path id="Path_4495" data-name="Path 4495" d="M1240.156,590.7l19.047,28.971a2.375,2.375,0,0,0,3.624.414h0a2.375,2.375,0,0,0,.259-3.146l-20.839-27.714a1.265,1.265,0,0,0-1.852-.187l-.019.017A1.269,1.269,0,0,0,1240.156,590.7Z" transform="translate(-1150.783 -474.621)" fill="#fff"/>
              <path id="Path_4496" data-name="Path 4496" d="M1224.084,565.567l-.009.007a.481.481,0,0,0-.131.663l1.3,1.962a.56.56,0,0,0,.832.116h0a.56.56,0,0,0,.083-.761l-1.413-1.876A.482.482,0,0,0,1224.084,565.567Z" transform="translate(-1148.398 -471.176)" fill="#fff"/>
              <path id="Path_4497" data-name="Path 4497" d="M1225.68,575.113l4.225,11.614a1.11,1.11,0,0,0,1.61.574l.021-.012a1.107,1.107,0,0,0,.446-1.4l-4.951-11.328a.682.682,0,0,0-.939-.336l-.078.041A.685.685,0,0,0,1225.68,575.113Z" transform="translate(-1148.661 -472.461)" fill="#fff"/>
              <path id="Path_4498" data-name="Path 4498" d="M1233.1,595.379l12.367,33.994a2.433,2.433,0,0,0,3.525,1.262l.043-.026a2.428,2.428,0,0,0,.988-3.063L1235.533,594.4a1.3,1.3,0,0,0-1.816-.618l-.023.012A1.3,1.3,0,0,0,1233.1,595.379Z" transform="translate(-1149.756 -475.347)" fill="#fff"/>
              <path id="Path_4499" data-name="Path 4499" d="M1222.9,566.247h0a.478.478,0,0,0-.258.578c.2.619.563,1.8.794,2.534a.588.588,0,0,0,.823.349h0a.587.587,0,0,0,.282-.744c-.267-.663-.732-1.819-1-2.465A.478.478,0,0,0,1222.9,566.247Z" transform="translate(-1148.214 -471.282)" fill="#fff"/>
              <path id="Path_4500" data-name="Path 4500" d="M1221.215,567.249l.32,2.746a.589.589,0,0,0,.778.489h0a.584.584,0,0,0,.384-.656l-.495-2.727a.492.492,0,0,0-.606-.391l-.009,0A.5.5,0,0,0,1221.215,567.249Z" transform="translate(-1148.005 -471.355)" fill="#fff"/>
              <path id="Path_4501" data-name="Path 4501" d="M1224.875,598.456l4.353,37.3a2.511,2.511,0,0,0,3.222,2.112l.05-.015a2.506,2.506,0,0,0,1.741-2.846l-6.7-36.949a1.333,1.333,0,0,0-1.669-1.049l-.026.008A1.337,1.337,0,0,0,1224.875,598.456Z" transform="translate(-1148.547 -475.842)" fill="#fff"/>
              <path id="Path_4502" data-name="Path 4502" d="M1222.892,575.494l-.116.032a.685.685,0,0,0-.5.74l1.5,12.841a1.144,1.144,0,0,0,1.482.956l.023-.007a1.141,1.141,0,0,0,.775-1.293l-2.307-12.729A.683.683,0,0,0,1222.892,575.494Z" transform="translate(-1148.162 -472.656)" fill="#fff"/>
              <path id="Path_4503" data-name="Path 4503" d="M1229.74,557.527a.548.548,0,0,0-.778-.354l-1.995,1.014a.6.6,0,0,0-.364.575.386.386,0,0,0,.032.118.56.56,0,0,0,.758.17l.037-.015,2-.862a.546.546,0,0,0,.315-.635Z" transform="translate(-1148.804 -469.935)" fill="#fff"/>
              <path id="Path_4504" data-name="Path 4504" d="M1230.009,559.62a.542.542,0,0,0-.669-.512l-1.89.457-.124.031a.558.558,0,0,0-.483.6.5.5,0,0,0,.461.352.754.754,0,0,0,.238-.012l2.024-.356a.537.537,0,0,0,.444-.543Z" transform="translate(-1148.839 -470.228)" fill="#fff"/>
              <path id="Path_4505" data-name="Path 4505" d="M1227.374,561.044a.689.689,0,0,0-.134.014.522.522,0,0,0-.474.457h0a.441.441,0,0,0,.2.359.713.713,0,0,0,.4.132l1.946.114a.537.537,0,0,0,.562-.446l0-.012a.539.539,0,0,0-.533-.628Z" transform="translate(-1148.829 -470.516)" fill="#fff"/>
              <path id="Path_4506" data-name="Path 4506" d="M1226.409,562.705a.409.409,0,0,0,.042.3,6.5,6.5,0,0,0,.326-.615A.466.466,0,0,0,1226.409,562.705Z" transform="translate(-1148.774 -470.716)" fill="#fff"/>
              <path id="Path_4507" data-name="Path 4507" d="M1215,655.444a2.592,2.592,0,0,0-2.682-2.733c-.2.008-.4.014-.6.02a2.58,2.58,0,0,0-2.484,2.281l-.584,4.991a3.051,3.051,0,0,0,3.031,3.407h0a3.051,3.051,0,0,0,3.047-2.889Z" transform="translate(-1146.14 -484.109)" fill="#fff"/>
              <path id="Path_4508" data-name="Path 4508" d="M1204.731,597.694l-.027-.005a1.412,1.412,0,0,0-1.574.9l-19.14,52.559a3.052,3.052,0,0,0,2.868,4.1h.291a3.052,3.052,0,0,0,2.928-2.191l15.76-53.579A1.408,1.408,0,0,0,1204.731,597.694Z" transform="translate(-1142.458 -475.948)" fill="#fff"/>
              <path id="Path_4509" data-name="Path 4509" d="M1192.68,595.062l-.027-.011a1.463,1.463,0,0,0-1.773.552l-35.4,53.807a3.507,3.507,0,0,0,2.93,5.435h0a3.509,3.509,0,0,0,3.046-1.768l31.943-55.947A1.454,1.454,0,0,0,1192.68,595.062Z" transform="translate(-1138.172 -475.544)" fill="#fff"/>
              <path id="Path_4510" data-name="Path 4510" d="M1272.477,629.9a2.62,2.62,0,0,0-3.889-.332l-.049.047a2.618,2.618,0,0,0-.393,3.346l16.623,25.283a3.608,3.608,0,0,0,3.015,1.627h0a3.609,3.609,0,0,0,2.884-5.778Z" transform="translate(-1154.9 -480.573)" fill="#fff"/>
              <path id="Path_4511" data-name="Path 4511" d="M1256.115,642.434a2.427,2.427,0,0,0-3.445-1.13c-.166.1-.335.192-.5.286a2.428,2.428,0,0,0-1.087,2.945l5.5,15.127a3.052,3.052,0,0,0,2.868,2.008h.407a3.051,3.051,0,0,0,2.8-4.274Z" transform="translate(-1152.412 -482.369)" fill="#fff"/>
              <path id="Path_4512" data-name="Path 4512" d="M1236.73,651.333a2.845,2.845,0,0,0-5.549.9l.929,7.966a3.052,3.052,0,0,0,3.031,2.7h.031a3.052,3.052,0,0,0,3-3.6Z" transform="translate(-1149.481 -483.599)" fill="#fff"/>
              <path id="Path_4513" data-name="Path 4513" d="M1276.359,510.325a1.982,1.982,0,0,0-.164,2.868l.381.388a1.981,1.981,0,0,0,2.625.231l30.2-22.469a3.442,3.442,0,0,0,1.387-2.76h0a3.44,3.44,0,0,0-5.663-2.624Z" transform="translate(-1156.078 -459.262)" fill="#fff"/>
              <path id="Path_4514" data-name="Path 4514" d="M1287.428,525.694a2.29,2.29,0,0,0-.925,3.216l.023.038a2.284,2.284,0,0,0,2.868.925l21.118-9.1a3.037,3.037,0,0,0,1.835-2.789h0a3.038,3.038,0,0,0-4.414-2.708Z" transform="translate(-1157.638 -463.681)" fill="#fff"/>
              <path id="Path_4515" data-name="Path 4515" d="M1294.977,542.607a2.339,2.339,0,0,0-1.686,2.949l.009.029a2.338,2.338,0,0,0,2.646,1.64l15.127-2.665a2.8,2.8,0,0,0,2.313-2.756v-.1a2.8,2.8,0,0,0-3.457-2.72Z" transform="translate(-1158.678 -467.235)" fill="#fff"/>
              <path id="Path_4516" data-name="Path 4516" d="M1298.512,560.692a2.376,2.376,0,0,0-2.366,2.473l0,.047a2.382,2.382,0,0,0,2.239,2.283l12.476.729a2.8,2.8,0,0,0,2.961-2.794h0a2.8,2.8,0,0,0-2.812-2.8Z" transform="translate(-1159.115 -470.456)" fill="#fff"/>
              <path id="Path_4517" data-name="Path 4517" d="M1297.93,578.893a2.426,2.426,0,0,0-2.938,1.964l-.008.047a2.421,2.421,0,0,0,1.695,2.721l13.367,4a2.8,2.8,0,0,0,3.6-2.681v-.186a2.8,2.8,0,0,0-2.166-2.726Z" transform="translate(-1158.939 -473.154)" fill="#fff"/>
              <path id="Path_4518" data-name="Path 4518" d="M1293.44,597.026a2.475,2.475,0,0,0-3.4,1.3l-.023.058a2.473,2.473,0,0,0,1.059,3.064l17.625,10.18a2.791,2.791,0,0,0,4.186-2.416v-.8a2.79,2.79,0,0,0-1.55-2.5Z" transform="translate(-1158.181 -475.814)" fill="#fff"/>
              <path id="Path_4519" data-name="Path 4519" d="M1284.986,614.361a2.553,2.553,0,0,0-3.743.535l-.02.031a2.549,2.549,0,0,0,.355,3.293l23.876,22.533a3.613,3.613,0,0,0,6.092-2.628h0a3.611,3.611,0,0,0-1.3-2.778Z" transform="translate(-1156.837 -478.336)" fill="#fff"/>
              <path id="Path_4520" data-name="Path 4520" d="M1189.644,500.03l.033-.024a1.962,1.962,0,0,0,.6-2.469l-20.527-40.889a3.429,3.429,0,0,0-3.064-1.89h0a3.428,3.428,0,0,0-2.96,5.156L1186.8,499.43A1.962,1.962,0,0,0,1189.644,500.03Z" transform="translate(-1139.412 -454.758)" fill="#fff"/>
              <path id="Path_4521" data-name="Path 4521" d="M1204.3,494.286l.037-.014a2.013,2.013,0,0,0,1.225-2.341l-8.244-34.807a3.074,3.074,0,0,0-2.991-2.366h-.192a3.075,3.075,0,0,0-2.941,3.971L1201.629,493A2.019,2.019,0,0,0,1204.3,494.286Z" transform="translate(-1143.534 -454.758)" fill="#fff"/>
              <path id="Path_4522" data-name="Path 4522" d="M1219.871,491.353l.04-.005a2.055,2.055,0,0,0,1.824-2.045l.005-31.47a3.075,3.075,0,0,0-3.075-3.076h0a3.074,3.074,0,0,0-3.068,3.268l1.981,31.412A2.061,2.061,0,0,0,1219.871,491.353Z" transform="translate(-1147.172 -454.758)" fill="#fff"/>
              <path id="Path_4523" data-name="Path 4523" d="M1235.1,491.5l.041.005a2.091,2.091,0,0,0,2.286-1.593l7.422-31.293a3.133,3.133,0,0,0-3.048-3.857h0a3.134,3.134,0,0,0-3.088,2.6l-5.431,31.692A2.1,2.1,0,0,0,1235.1,491.5Z" transform="translate(-1149.79 -454.758)" fill="#fff"/>
              <path id="Path_4524" data-name="Path 4524" d="M1249.962,494.46l.04.014a2.132,2.132,0,0,0,2.619-1.051l16.983-33.8a3.355,3.355,0,0,0-3-4.862h0a3.355,3.355,0,0,0-3.087,2.042l-14.812,34.8A2.146,2.146,0,0,0,1249.962,494.46Z" transform="translate(-1152.057 -454.758)" fill="#fff"/>
              <path id="Path_4525" data-name="Path 4525" d="M1264.01,500.3l.031.02a2.184,2.184,0,0,0,2.852-.435l32.622-38.863a3.811,3.811,0,0,0-2.919-6.261h0a3.811,3.811,0,0,0-3.067,1.55l-30.1,40.841A2.194,2.194,0,0,0,1264.01,500.3Z" transform="translate(-1154.201 -454.758)" fill="#fff"/>
              <g id="Group_1645" data-name="Group 1645" transform="translate(67.756 88.253)">
                <path id="Path_4526" data-name="Path 4526" d="M1216.346,559.014a.563.563,0,0,0-.54-.559l-.417-.073a.492.492,0,0,0-.554.631l0,.01a.491.491,0,0,0,.414.339l.436.049A.558.558,0,0,0,1216.346,559.014Z" transform="translate(-1214.812 -558.374)" fill="#fff"/>
                <path id="Path_4527" data-name="Path 4527" d="M1215.8,559.684a.428.428,0,0,0-.461.5l0,.009a.411.411,0,0,0,.275.309,1.411,1.411,0,0,0,.333.065.457.457,0,0,0,.513-.382.444.444,0,0,0-.362-.439A2.124,2.124,0,0,0,1215.8,559.684Z" transform="translate(-1214.889 -558.568)" fill="#fff"/>
                <circle id="Ellipse_254" data-name="Ellipse 254" cx="0.367" cy="0.367" r="0.367" transform="translate(0.881 2.224)" fill="#fff"/>
              </g>
              <g id="Group_1646" data-name="Group 1646" transform="translate(0 7.342)">
                <path id="Path_4528" data-name="Path 4528" d="M1182.317,590.3l-.025-.017a1.506,1.506,0,0,0-1.889.149l-44.063,41.557a3.44,3.44,0,0,0-1.079,2.5h0a3.44,3.44,0,0,0,5.953,2.348l41.356-44.26A1.515,1.515,0,0,0,1182.317,590.3Z" transform="translate(-1135.261 -482.155)" fill="#fff"/>
                <path id="Path_4529" data-name="Path 4529" d="M1175.372,585.748a1.573,1.573,0,0,0,.289-2.367l-.021-.023a1.563,1.563,0,0,0-1.942-.3l-36.97,21.337a2.932,2.932,0,0,0-1.467,2.541h0a2.933,2.933,0,0,0,4.557,2.443Z" transform="translate(-1135.261 -481.092)" fill="#fff"/>
                <path id="Path_4530" data-name="Path 4530" d="M1169.434,576.738a1.641,1.641,0,0,0,.876-2.315l-.015-.028a1.613,1.613,0,0,0-1.884-.783l-31.316,9.37a2.57,2.57,0,0,0-1.834,2.463v.227a2.571,2.571,0,0,0,3.462,2.412Z" transform="translate(-1135.261 -479.713)" fill="#fff"/>
                <path id="Path_4531" data-name="Path 4531" d="M1165.408,565.852a1.69,1.69,0,0,0,1.431-2.089l-.008-.032a1.682,1.682,0,0,0-1.733-1.27l-27.415,1.593a2.57,2.57,0,0,0-2.422,2.566h0a2.571,2.571,0,0,0,2.882,2.553Z" transform="translate(-1135.261 -478.069)" fill="#fff"/>
                <path id="Path_4532" data-name="Path 4532" d="M1163.833,552.911a1.733,1.733,0,0,0,1.926-1.7v-.043a1.734,1.734,0,0,0-1.432-1.726l-26.049-4.6a2.571,2.571,0,0,0-3.018,2.532v.038a2.572,2.572,0,0,0,2.285,2.556Z" transform="translate(-1135.261 -475.451)" fill="#fff"/>
                <path id="Path_4533" data-name="Path 4533" d="M1164.7,538.981a1.793,1.793,0,0,0,2.347-1.278l.008-.034a1.785,1.785,0,0,0-1.033-2.052l-27.17-11.725a2.571,2.571,0,0,0-3.59,2.361v.365a2.572,2.572,0,0,0,1.7,2.421Z" transform="translate(-1135.261 -472.319)" fill="#fff"/>
                <path id="Path_4534" data-name="Path 4534" d="M1168.1,524.51a1.85,1.85,0,0,0,2.662-.727l.017-.033a1.841,1.841,0,0,0-.551-2.3l-30.095-22.412a3.05,3.05,0,0,0-4.873,2.447h0a3.051,3.051,0,0,0,1.387,2.557Z" transform="translate(-1135.261 -468.574)" fill="#fff"/>
                <path id="Path_4535" data-name="Path 4535" d="M1174.125,509.3a1.908,1.908,0,0,0,2.84-.092l.025-.029a1.9,1.9,0,0,0,0-2.447l-35.268-42.045a3.658,3.658,0,0,0-6.46,2.351h0a3.655,3.655,0,0,0,1.009,2.523Z" transform="translate(-1135.261 -463.378)" fill="#fff"/>
              </g>
            </g>
          </g>
        </g>
      </g>
    </g>
    <g id="Group_1657" data-name="Group 1657" transform="translate(1314.068 485.823)">
      <g id="Group_1652" data-name="Group 1652" transform="translate(16.904)">
        <path id="Path_4536" data-name="Path 4536" d="M1373.155,492.258v24.515h9.729v6.919h-17.842V492.258Z" transform="translate(-1365.042 -491.383)" fill="#fff"/>
        <path id="Path_4537" data-name="Path 4537" d="M1408.66,499.178h-9.646v5.253h9.109v6.922h-9.109v5.42h9.646v6.919H1390.9V492.258h17.758Z" transform="translate(-1368.876 -491.383)" fill="#fff"/>
        <path id="Path_4538" data-name="Path 4538" d="M1433.553,505.947h16.105a45.354,45.354,0,0,1-.208,4.545,16.206,16.206,0,0,1-.827,3.794,15.181,15.181,0,0,1-2.36,4.357,13.843,13.843,0,0,1-3.5,3.168,16.345,16.345,0,0,1-4.409,1.939,18.789,18.789,0,0,1-5.05.667,17.642,17.642,0,0,1-6.646-1.209,14.947,14.947,0,0,1-5.154-3.4,15.393,15.393,0,0,1-3.354-5.252,19.778,19.778,0,0,1-.02-13.508,14.8,14.8,0,0,1,3.354-5.233,15.26,15.26,0,0,1,5.236-3.376,18.454,18.454,0,0,1,6.831-1.209,16.843,16.843,0,0,1,8.57,2.125,14.7,14.7,0,0,1,5.838,6.587l-7.7,3.21a7.884,7.884,0,0,0-2.794-3.709,6.974,6.974,0,0,0-3.914-1.126,7.8,7.8,0,0,0-3.312.687,7.2,7.2,0,0,0-2.547,1.959,9.451,9.451,0,0,0-1.655,3.065,12.542,12.542,0,0,0-.6,4,12.735,12.735,0,0,0,.518,3.712,8.419,8.419,0,0,0,1.552,2.96,7.023,7.023,0,0,0,2.568,1.939,8.614,8.614,0,0,0,3.559.687,9.775,9.775,0,0,0,2.319-.271,6.067,6.067,0,0,0,2.008-.876,4.967,4.967,0,0,0,1.469-1.563,6.316,6.316,0,0,0,.788-2.335h-6.667Z" transform="translate(-1372.739 -491.231)" fill="#fff"/>
        <path id="Path_4539" data-name="Path 4539" d="M1478.626,518.232h-11.593l-1.862,5.46h-8.654l11.882-31.435h8.858l11.882,31.435h-8.652Zm-2.153-6.212-3.643-10.465-3.644,10.465Z" transform="translate(-1378.605 -491.383)" fill="#fff"/>
        <path id="Path_4540" data-name="Path 4540" d="M1499,492.258h12.006a14.082,14.082,0,0,1,5.982,1.292,16.32,16.32,0,0,1,4.886,3.44,16,16,0,0,1,3.289,5,15.522,15.522,0,0,1,.022,11.924,15.945,15.945,0,0,1-3.271,5.023,16.117,16.117,0,0,1-4.886,3.461,14.164,14.164,0,0,1-6.022,1.292H1499Zm8.114,24.515h1.864a10.017,10.017,0,0,0,3.767-.667,8.074,8.074,0,0,0,2.8-1.835,7.884,7.884,0,0,0,1.738-2.772,10.02,10.02,0,0,0,.6-3.524,9.745,9.745,0,0,0-.62-3.5,7.837,7.837,0,0,0-4.554-4.629,9.943,9.943,0,0,0-3.726-.667h-1.864Z" transform="translate(-1384.905 -491.383)" fill="#fff"/>
        <path id="Path_4541" data-name="Path 4541" d="M1535.553,507.824a16.533,16.533,0,0,1,1.283-6.525,16.063,16.063,0,0,1,9-8.8,19.712,19.712,0,0,1,13.931,0,16.419,16.419,0,0,1,5.487,3.521,16.149,16.149,0,0,1,3.58,5.275,17.215,17.215,0,0,1,0,13.05,16.128,16.128,0,0,1-3.58,5.274,16.422,16.422,0,0,1-5.487,3.522,19.713,19.713,0,0,1-13.931,0,16.07,16.07,0,0,1-9-8.8A16.533,16.533,0,0,1,1535.553,507.824Zm8.487,0a8.429,8.429,0,0,0,.7,3.461,8.677,8.677,0,0,0,1.9,2.751,8.582,8.582,0,0,0,2.794,1.813,8.991,8.991,0,0,0,9.565-1.813,8.632,8.632,0,0,0,1.923-2.751,8.852,8.852,0,0,0,0-6.921,8.654,8.654,0,0,0-1.923-2.752,9.056,9.056,0,0,0-9.565-1.813,8.61,8.61,0,0,0-2.794,1.813,8.7,8.7,0,0,0-1.9,2.752A8.429,8.429,0,0,0,1544.04,507.824Z" transform="translate(-1390.324 -491.231)" fill="#fff"/>
      </g>
      <g id="Group_1653" data-name="Group 1653" transform="translate(16.904 56.542)">
        <path id="Path_4542" data-name="Path 4542" d="M1377.341,565.023v2.806a6.5,6.5,0,0,0-4.221-1.719,5.359,5.359,0,0,0-4.05,1.739,5.886,5.886,0,0,0-1.656,4.23,5.747,5.747,0,0,0,1.656,4.17,5.452,5.452,0,0,0,4.059,1.7,4.946,4.946,0,0,0,2.112-.407,5.936,5.936,0,0,0,1-.548,11.763,11.763,0,0,0,1.1-.834v2.858a8.456,8.456,0,0,1-4.242,1.149,8.025,8.025,0,0,1-8.057-8.064,8.093,8.093,0,0,1,1.968-5.349,7.82,7.82,0,0,1,6.272-2.879A7.911,7.911,0,0,1,1377.341,565.023Z" transform="translate(-1365.042 -558.544)" fill="#fff"/>
        <path id="Path_4543" data-name="Path 4543" d="M1381.937,571.96a7.711,7.711,0,0,1,2.414-5.695,7.913,7.913,0,0,1,5.776-2.38,7.765,7.765,0,0,1,5.715,2.4,7.874,7.874,0,0,1,2.394,5.766,7.752,7.752,0,0,1-2.4,5.747,8.2,8.2,0,0,1-11.25.264A7.742,7.742,0,0,1,1381.937,571.96Zm2.373.03a5.7,5.7,0,0,0,1.737,4.282,5.726,5.726,0,0,0,8.13-.031,6.125,6.125,0,0,0,.019-8.42,5.477,5.477,0,0,0-4.1-1.709,5.533,5.533,0,0,0-4.111,1.709A5.687,5.687,0,0,0,1384.31,571.99Z" transform="translate(-1367.547 -558.546)" fill="#fff"/>
        <path id="Path_4544" data-name="Path 4544" d="M1403.907,579.728l3.282-16.882,5.352,12.2,5.544-12.2,2.949,16.882h-2.414l-1.5-9.479-4.615,10.2-4.484-10.211-1.676,9.488Z" transform="translate(-1370.805 -558.391)" fill="#fff"/>
        <path id="Path_4545" data-name="Path 4545" d="M1430.247,564.231v15.7h-2.353v-15.7Z" transform="translate(-1374.361 -558.597)" fill="#fff"/>
        <path id="Path_4546" data-name="Path 4546" d="M1443.735,566.517l-1.908,1.14a3.3,3.3,0,0,0-1.021-1.22,2.365,2.365,0,0,0-1.3-.325,2.4,2.4,0,0,0-1.626.56,1.737,1.737,0,0,0-.647,1.383q0,1.149,1.7,1.851l1.555.641a6.635,6.635,0,0,1,2.778,1.887,4.268,4.268,0,0,1,.879,2.73,4.814,4.814,0,0,1-1.434,3.58,4.9,4.9,0,0,1-3.585,1.424,4.777,4.777,0,0,1-3.352-1.209,5.588,5.588,0,0,1-1.626-3.408l2.383-.529a4.108,4.108,0,0,0,.565,1.912,2.676,2.676,0,0,0,3.949.275,2.58,2.58,0,0,0,.727-1.882,2.669,2.669,0,0,0-.125-.838,2.159,2.159,0,0,0-.394-.7,3.2,3.2,0,0,0-.692-.6,6.5,6.5,0,0,0-1.01-.533l-1.5-.63q-3.2-1.365-3.2-3.987a3.792,3.792,0,0,1,1.343-2.96,4.836,4.836,0,0,1,3.342-1.2A4.663,4.663,0,0,1,1443.735,566.517Z" transform="translate(-1375.288 -558.544)" fill="#fff"/>
        <path id="Path_4547" data-name="Path 4547" d="M1451.564,564.231v15.7h-2.352v-15.7Z" transform="translate(-1377.522 -558.597)" fill="#fff"/>
        <path id="Path_4548" data-name="Path 4548" d="M1455.46,571.031a7.714,7.714,0,0,1,2.413-5.695,7.914,7.914,0,0,1,5.776-2.38,7.767,7.767,0,0,1,5.716,2.4,7.874,7.874,0,0,1,2.394,5.766,7.756,7.756,0,0,1-2.4,5.747,8.2,8.2,0,0,1-11.25.264A7.74,7.74,0,0,1,1455.46,571.031Zm2.373.03a5.7,5.7,0,0,0,1.737,4.282,5.726,5.726,0,0,0,8.13-.031,6.124,6.124,0,0,0,.02-8.42,5.478,5.478,0,0,0-4.1-1.709,5.533,5.533,0,0,0-4.111,1.709A5.687,5.687,0,0,0,1457.833,571.061Zm9.362-12.03-4.121,2.806-1.121-.946,3.241-3.275Z" transform="translate(-1378.448 -557.616)" fill="#fff"/>
        <path id="Path_4549" data-name="Path 4549" d="M1478.07,579.748v-16.77l11.371,11.98V564.045h2.352V580.7l-11.371-11.949v10.993Z" transform="translate(-1381.801 -558.411)" fill="#fff"/>
        <path id="Path_4550" data-name="Path 4550" d="M1506.064,579.933v-15.7h3.271a11.85,11.85,0,0,1,3.716.468,6.956,6.956,0,0,1,2.656,1.557,8.158,8.158,0,0,1-.1,11.684,7.337,7.337,0,0,1-2.647,1.557,11.991,11.991,0,0,1-3.666.437Zm2.352-2.227h1.06a8.8,8.8,0,0,0,2.635-.336,5.327,5.327,0,0,0,1.9-1.129,5.39,5.39,0,0,0,1.737-4.16,5.473,5.473,0,0,0-1.716-4.19,6.472,6.472,0,0,0-4.555-1.434h-1.06Z" transform="translate(-1385.952 -558.597)" fill="#fff"/>
        <path id="Path_4551" data-name="Path 4551" d="M1532.3,566.459h-6.251v3.772h6.069v2.227h-6.069v5.247h6.251v2.227h-8.6v-15.7h8.6Z" transform="translate(-1388.566 -558.597)" fill="#fff"/>
        <path id="Path_4552" data-name="Path 4552" d="M1547.269,564.231v13.475h4.585v2.227h-6.937v-15.7Z" transform="translate(-1391.713 -558.597)" fill="#fff"/>
        <path id="Path_4553" data-name="Path 4553" d="M1565.548,575.949h-6.676l-1.737,3.813H1554.6l7.715-16.688,7.444,16.688h-2.577Zm-.959-2.228-2.314-5.339-2.422,5.339Z" transform="translate(-1393.148 -558.425)" fill="#fff"/>
      </g>
      <g id="Group_1654" data-name="Group 1654" transform="translate(14.913 85.763)">
        <path id="Path_4554" data-name="Path 4554" d="M1371.515,591.924l7.528,19.12,7.569-19.12h8.811l-13.154,31.408h-6.453L1362.7,591.924Z" transform="translate(-1362.705 -591.924)" fill="#fff"/>
        <path id="Path_4555" data-name="Path 4555" d="M1422.7,598.839h-9.638v5.248h9.1V611h-9.1v5.415h9.638v6.915h-17.746V591.924H1422.7Z" transform="translate(-1368.969 -591.924)" fill="#fff"/>
        <path id="Path_4556" data-name="Path 4556" d="M1458.571,623.332h-10.092l-7.736-12.08v12.08h-8.107V591.924h12.616a12.3,12.3,0,0,1,4.551.772,8.794,8.794,0,0,1,3.2,2.1,8.9,8.9,0,0,1,1.9,3.082,10.823,10.823,0,0,1,.64,3.749,9.256,9.256,0,0,1-1.715,5.81,8.638,8.638,0,0,1-5.067,3.021Zm-17.828-17.371h1.531a5.88,5.88,0,0,0,3.681-1,3.863,3.863,0,0,0,0-5.748,5.88,5.88,0,0,0-3.681-1h-1.531Z" transform="translate(-1373.074 -591.924)" fill="#fff"/>
        <path id="Path_4557" data-name="Path 4557" d="M1467.068,591.924h12a14.079,14.079,0,0,1,5.977,1.292,16.3,16.3,0,0,1,4.881,3.436,15.99,15.99,0,0,1,3.288,5,15.505,15.505,0,0,1,.021,11.913,15.889,15.889,0,0,1-3.267,5.02,16.112,16.112,0,0,1-4.88,3.456,14.152,14.152,0,0,1-6.019,1.292h-12Zm8.107,24.493h1.862a10,10,0,0,0,3.764-.666,8.044,8.044,0,0,0,2.793-1.833,7.85,7.85,0,0,0,1.738-2.77,9.984,9.984,0,0,0,.6-3.52,9.748,9.748,0,0,0-.619-3.5,7.823,7.823,0,0,0-4.55-4.625,9.91,9.91,0,0,0-3.724-.666h-1.862Z" transform="translate(-1378.179 -591.924)" fill="#fff"/>
        <path id="Path_4558" data-name="Path 4558" d="M1522.279,617.875H1510.7l-1.861,5.457h-8.645l11.87-31.408h8.853l11.87,31.408h-8.644Zm-2.151-6.206-3.64-10.456-3.641,10.456Z" transform="translate(-1383.09 -591.924)" fill="#fff"/>
        <path id="Path_4559" data-name="Path 4559" d="M1542.635,591.924h12a14.083,14.083,0,0,1,5.978,1.292,16.307,16.307,0,0,1,4.881,3.436,16.041,16.041,0,0,1,3.288,5,15.51,15.51,0,0,1,.02,11.913,15.884,15.884,0,0,1-3.266,5.02,16.1,16.1,0,0,1-4.881,3.456,14.146,14.146,0,0,1-6.018,1.292h-12Zm8.108,24.493h1.861a10,10,0,0,0,3.765-.666,8.033,8.033,0,0,0,2.792-1.833,7.836,7.836,0,0,0,1.738-2.77,9.984,9.984,0,0,0,.6-3.52,9.711,9.711,0,0,0-.619-3.5,7.824,7.824,0,0,0-4.549-4.625,9.9,9.9,0,0,0-3.724-.666h-1.861Z" transform="translate(-1389.384 -591.924)" fill="#fff"/>
      </g>
      <g id="Group_1656" data-name="Group 1656" transform="translate(0 45.051)">
        <g id="Group_1655" data-name="Group 1655">
          <rect id="Rectangle_1021" data-name="Rectangle 1021" width="210.418" height="2.63" fill="#fff"/>
        </g>
      </g>
    </g>
  </g>
</svg>
