<svg xmlns="http://www.w3.org/2000/svg" width="340.849" height="478.484" viewBox="0 0 340.849 478.484">
  <g id="Group_988" data-name="Group 988" transform="translate(-1161.116 -162.021)">
    <path id="Path_2522" data-name="Path 2522" d="M1457.881,904.2c-4.13-2.512-8.318-6.968-4.256-9.661,5.983-4.235,19.907,7.245,24.842,10.972-1-4.965-2.417-12.814-2.179-17.544.862-15.654,13.1-9.733,11.113,9.129-.652,6.183-2.938,10.765-4.463,14.3,0,0,3.484,7.842,6.493,15.182,1.79-5.527,5.65-15.638,10.667-12.686.734.431,1.328,1.441,1.226,3.311-.132,5.011-6.009,10.7-10.208,13.513,4.2,10.279,5.254,14.392,7.681,23.762,10.067-21.015,18.354-17.184,16.728-11.012-1.869,6.719-11.323,14.722-15.646,16.271,1.936,10.843,1.248,14.6,1.536,21.9,8.5-17.662,19.1-16.078,16.011-8.232-3.239,6.727-12.391,13.433-16.069,13.962-.558,5.8-.942,11.646-1.647,17.432-.209,1.713-2.079,3.087-2.351.617-.094-.855,2.056-17.327,1.466-17.548-4.625-1.739-14.078-6.58-11.562-10.856,2.234-3.66,9.612,1.819,11.928,6.018A124.394,124.394,0,0,0,1497.409,960c-9.208-5.419-18.273-15.5-14.474-18.975,3.622-2.857,9.267,4.476,12.446,10.07-2.005-7.739-4.429-15.371-6.531-19.179-7.615,1.328-31.314-.2-28.72-8.21.769-2.215,4.144-3.658,6.411-4.08,5.456-.938,15.181,4.309,20.076,6.9-3.614-8.93-5.123-12.348-6.28-14.334C1474.191,910.518,1465.178,908.8,1457.881,904.2Z" transform="translate(-150.014 -369.788)" fill="#ff552f" style="mix-blend-mode: multiply;isolation: isolate"/>
    <path id="Path_2523" data-name="Path 2523" d="M1416.034,1010.368c-5.848-1.267-8.155-.461-15.4-3.694-3.948-1.722-8.321-4.266-6.861-8.338,1.794-5.322,15.076,2.571,19.3,5.89-5.18-5.867-8.063-13.069-10.471-18.626a36.9,36.9,0,0,1-7.778-.163c-26.706-4.45-21.832-18.952-5.623-11.376,6.562,3.046,8.159,4.128,11.66,6.607-2.746-8.156-2.4-8.828-3.984-14.447-19.6-5.612-24.827-17.712-15.759-16.894,5.415.578,12.41,7.47,15.539,11.616.069-20.829,8.485-22.694,9.277-12.793.236,6.037-1.782,9.367-4.473,13.935-.989,1.669-2.393,3.606-2.355,3.554a97.874,97.874,0,0,0,3.741,14.506c1.342-4.634,4.78-16.808,9.532-15.68,2.726.673,1.7,5.8,1.256,7.283-1.705,5.771-7.718,11.908-9.1,12.637,4.5,13.092,9.11,16.228,12.005,20.519,1.013-3.076,4.65-18.684,9.676-16.748,5.058,1.961-1.52,16.313-8.115,21.39-.478.369,1.469,7.374,1.637,8.355.341,1.988,1.354,5.487.344,7.372a1.15,1.15,0,0,1-1.355.588c-.721-.274-.679-1.927-.735-2.873C1417.94,1022.167,1416.827,1010.54,1416.034,1010.368Z" transform="translate(-110.789 -402.474)" fill="#81c0af" style="mix-blend-mode: multiply;isolation: isolate"/>
    <path id="Path_2524" data-name="Path 2524" d="M1420.337,496c4.132-4.4,14.846-5.347,17.76-18.988,2.9-13.576-17.277-10.491-27.708,14.583-1.524,3.663-4.339,11.671-9.125,12.3-6.66.87-1.119-11.378,2.769-17.249,18.867-28.493-32.467-31.111-12.376,18.537,7.478,18.481-10.507,21.459-14.662,3.85-4.755-20.145,1.821-42.6,12.19-57.991,13.491-20.024-6.97-37.236-9.979-13.164-.554,4.428-.8,14.885-6.029,16.714-4.9,1.713-7.223-6.146-6.655-9.666,1.741-10.785,11.2-20.157,4.036-29.984-6.117-8.39-17.91.563-17.421,22.5.459,20.592,11.065,36.429,3.357,44.078-2.569,2.55-7.045,3.209-10.015,1-3.605-2.68-3.524-7.944-4.2-12.385-.779-5.095-5.744-11.16-11.006-6.968-4.608,3.67-7.536,20.852,15.321,33.541,2.228,1.237,4.749,2.673,5.313,5.158.748,3.3-2.777,6.33-6.158,6.326s-6.388-2.068-8.994-4.223c-28.481-23.554-15.435-45.854-12.26-59.055,4.97-20.661-1.374-50.505-14.7-51.593-8.02-.654-13.045,9.236-12.164,17.235s5.2,15.33,5.943,23.343c.315,3.412-.264,12.315-3.33,13.806-10.989,5.348-6.672-46.5-22.112-44.269-3.075.445-4.825,3.9-4.968,7.006-.286,6.229,3.618,11.744,6.63,17.2,8.161,14.791,2.2,20.177-4.564,11.9-4.47-5.467-6.33-12.51-9.334-18.769-17.57-36.61-40.976-15.579-17.7,16.382,14.094,19.355,42.531,26.45,45.831,39.907,1.5,6.115-4.631,16.715-14.24,7.081-8.794-8.818-15.356-20.426-26.5-25.987-9.031-4.507-16.525,3-5.093,16.1,25.325,29.03,43.508,17.644,59.861,32.574,3.728,3.4,4.622,7.779-.741,9.531-10.745,3.507-22.062-2.025-32.606-6.1-12.183-4.7-15.289,6.908-3.519,13.123,21.272,11.23,34.99,2.248,46.122,4.234,5.923,1.056,7.308,6.023.044,10.177-53.7,30.706-52.717-26.213-77.608-25.024-8.734.419-15.259,12.8,11.224,26.428,11.057,5.689,9.812,12.188,3.968,14.438-15.359,5.911-32.493-13.327-47.531-6.641-8.3,3.688-8.909,12.864,1.788,18.817,15.79,8.789,35.262,5.711,52.991,2.211,13.368-2.641,10.27,10,3.843,12.976-4.859,2.249-10.638,1.726-15.525,3.914-6.431,2.88-9.284,14.456,1.757,13.531,16.464-1.38,26.947-17.426,39.3-28.393,9.539-8.468,16.743-1.721,11.128,5.953-1.9,2.589-12.907,14.2-8,17.371,3.575,2.312,10.161-5.61,11.824-7.9,3.194-4.394,5.455-9.382,8.184-14.06,11.464-19.648,35.505-31.2,39.644-20.575,2.976,7.638-8.634,11.678-20.786,25.588-4.247,4.861-1.1,9.443,4.922,7.214a28.56,28.56,0,0,0,15.042-13c.916-1.687,1.837-3.634,3.647-4.27,2.723-.956,5.544,2.048,5.463,4.932s-2.063,5.343-4.13,7.356c-18.281,17.807-34.948,10.281-47.729,16.721-5.65,2.847-7.75,12.412,1.969,9.814l12.825-3.427c6.589-1.762,7.9,2.774,4.31,6.563-8.8,9.284-28.1,7.261-32.648,20.375-1.388,4-.337,7.39,4.118,8.746,16.317,4.969,30.854-12.663,37.629-19.445,2.184-2.187,6.22-8.511,9.958-6.445,4.5,2.489.014,10.741,4.709,13.822,3.533,2.318,8.318-1.552,9.014-5.72s-.981-8.329-1.434-12.53c-.4-3.694,2.3-16.654,5.889-17.131,3.074-.409,3.526,6.149,5.16,8.231,2.2,2.807,6.441,4.364,9.445,2.437,9.355-6-6.314-18.76-1.507-27.14,7.326-12.771,20.456,7,23.3,13.076,5.356,11.444,8.109,25.712,15.092,23.431,9.793-3.2,9.645-14.414,6.482-22.19-5.112-12.569-26.891-34.481-16.9-57.7,4.163-9.679,12.153-11.549,21.3-14.11,13.294-3.722,14.441-22.662,5.036-19.175-4.214,1.563-6.447,6.223-11.081,7.121C1417.867,505.068,1417.25,499.291,1420.337,496Z" transform="translate(-20.657 -119.283)" fill="#feddd0" style="mix-blend-mode: multiply;isolation: isolate"/>
    <path id="Path_2525" data-name="Path 2525" d="M1478.94,638.259c-.173,1.019-1.7,11.556-1.844,13.086-1.451,13.962,2.578,35.2,11.295,50.758,5.576,10.072,18.614,23,17.132,28.072-2.434,6.5-13.035-11.211-15.375-13.784-5.176-5.707-6.658-6.111-10.261-7.245.048.006.087.022.135.028-8.311-2.616-12.355,3.277-9.73,9.092-.069-.137-.033-.026,0,.006,11.348,22.648,35.7,22.032,38.964,30.968,3.038,8.309-3.677,16.43-5.911,23.887-5.721,19.1,20.13,22.382,19.093,5.712-.321-5.156-3.285-12.169.247-18.423,2.527-4.475,7.194-6.015,11.473-3.2,5.25,3.458,13.344,19.907,14.126,21.378,4.322,8.267,12.888,17.962,16.715,20.536,12.164,7.8,20.116-3.122,13.6-12.708-6.173-9.353-37.349-23.661-28.4-33.325,7.988-6.163,24.638,7.532,42.828,13.78,11.219,3.87,23.061,1.332,29.713-4.027,6.02-4.947,1.375-11.916-4.922-13.09-11.64-2.218-17.708-.5-19.617-.1.112-.028.216-.045.329-.072-3.045.6-9.2,1.081-12.408.215-1.9-.641-2.664-1.513-2.612-4.082,1.145-10.094,23.466-5.993,38.858-11.442,5.855-2.112,16.106-7.78,19.419-11.957,1.8-2.282,3.952-6.177,3.114-8.972-4.169-14.221-35.22,4.844-56.969,15.7.1-.055.2-.11.293-.155-3.04,1.383-12.978,6.07-17.824,4.767-4.342-1.837-5.775-7.476,3.03-14.338,6.563-5.031,9.431-5.42,12.719-7.213,31.874-17.237,28.26-32.1,11.534-27.689-29.719,7.777-34.8,34.812-44.825,44.32-7.813,6.09-13.66.448.347-22.069,12.539-19.327,26.672-27.272,45.736-40.018,7.722-5.118,19.179-16.7,17.742-23.245-.71-5.315-8.647-8.8-18.675.517-6.917,6.45-9.466,11.49-18.631,19.686-9.626,8.411-11.447,2.674-7.685-9.308,1.335-3.85,2.241-6.157,7.4-13.822,2.738-4.041,8.243-12.486,4.98-16.353-4.632-5.123-11.574,3.1-15.572,7.739-15.1,17.522-12.775,30.482-13.165,39.023l.018-.144a46.828,46.828,0,0,1-.643,5.487c-.8,3.911-3.063,11.18-6.326,13.38-4.654,1.945-7.687-16.174-7.184-23.979,0,0,.145-2.476.637-7.035.616-5.991,1.874-14.288-2.766-16.952-3.889-1.292-7.766,3.149-8.781,4.869a31.047,31.047,0,0,0-2.942,8.32c-1.609,11-.267,13.91,2.041,23.648,3.277,13.071,5.729,12.763,6.366,22.917.793,11.609-3.852,23.811-10.518,22.66-4.683-.808-7.326-4.191-7.151-10.652,1.444-17.607,4.008-15.443,5.916-26.757.507-3.225.694-7.411-1.022-10.173-5.366-8.408-13.4,4.257-16.319,13.74-1.7,5.569.49,20.655-2.42,17.672-5.672-7.378-5.6-33.918-5.137-43.515l-.014.2c.73-11.549.96-12.143.373-16.842-.6-5.122-2.979-14.328-7.128-17.621C1488.752,627.208,1480.429,629.522,1478.94,638.259Z" transform="translate(-159.055 -237.507)" fill="#fed4c3" style="mix-blend-mode: multiply;isolation: isolate"/>
    <path id="Path_2526" data-name="Path 2526" d="M1245.163,581.783c3.715-48.994-10.89-111.839-49.012-143.465-8.683-7.2-20.889-11.49-28.74-14.741,5.09,10.155,8.772,20.74,17.8,27.935,8.561,6.826,18.847,11.264,28.056,17.1,10.493,6.646,16.1,18.509,19.52,30.05-6.045-10.6-16.433-12.723-44.461-21.271-9.647-2.943-6.841,10.018,11.47,12.257,9.917,1.212,23.086-.579,32.974,12.984,2.9,3.981,5.263,15.583,6.769,22.905-6.673-11.151-19.2-18.33-32.086-20.956-14.342-2.924-29.2-1.03-43.631,1.4,14.121,3.59,19.573,9.471,28.858,12.567,13.63,4.545,30.142-.01,42.361,8.354,5.663,3.876,6.659,9.947,7.483,16.253a165.136,165.136,0,0,1,1.41,30.423c-2.353-40.844-29.09-42.638-41.314-30.635-9.488,9.317-11.277,26.1-23.817,32.018,25.305-3.968,32.568-18.611,40.926-21.544,5.445-1.91,11.771.152,15.874,4.208,10.038,9.921,7.576,30.3,4.3,43.946-3.435-23.788-39.15-20.4-59.471-12.088-5.95,2.434-13.57,5.555-19.308,8.326,4.457-1.09,8.812,1.673,13,3.547a36.071,36.071,0,0,0,29.387-.152c6.069-2.791,22.671-15.923,32.006-5.451,5.939,6.664,2.183,21.44-.28,35.295-1.231-12.007-13.269-12.784-21.85-4.7-3.227,3.038-5.913,6.614-9.14,9.652a22.4,22.4,0,0,0,18.231-6.563c1.528-1.575,2.981-3.478,5.121-3.971,13.129-3.023-1.742,49.015,4.091,70.437,2.292,8.418,6.6,5.65,5.555,1.666C1227.811,661.81,1242.176,621.271,1245.163,581.783Z" transform="translate(0 -134.903)" fill="#2a5080" opacity="0.577" style="mix-blend-mode: multiply;isolation: isolate"/>
    <path id="Path_2527" data-name="Path 2527" d="M1346.029,611.226c-9.979,6.068-20.188,10.094-30.282,22.844,6.183-14.739,10.755-25.159,20.19-37.645,10.092-13.355,16.467-25.84,17.795-40.184,1.947-21.032-1.385-31.67-1.539-48.676-5.1,15.206-14.133,26.363-21.305,48.144-7.232,21.963-2.887,42.024-14.078,69.328,1.063-8.766.256-16.955.266-23.641.015-10.178,2.125-30.547-3.04-49.257-1.195-4.328-2.138-8.748-3.576-13.044-5.516-16.475-8.525-20.309-10.921-29.3-1.53,27.364-11.473,39.874-3.647,64.786,5.635,17.936,18.349,25.788,18.551,47.9.083,9.023-2.97,16.766-5.611,25.268,1.162-14.025-9.323-24.2-19.856-33.565-19.809-17.62-22.646-21.407-26.824-19.69-2.87,1.18-4.575,5.209-.591,11.342,10.94,16.84,24.936,15,34.981,22.86,5.311,4.154,9.032,9.554,9.642,16.269,1.062,11.688-3.985,21.782-6.907,44.36-.905-22.446-4.781-45.156-20.335-60.363a35.478,35.478,0,0,0,2.643,24.067c9.776,20.642,16.438,19.269,15.853,58.687-.416,28.06,4.043,48.7,15.116,73.808.75,1.7,3.963,11.15,6.672,10.083,4.6-1.809-1.426-13.255-2.611-15.295-12.558-21.592-27.3-70.161-1.825-74.912,14.486-2.7,30.773,10.913,57.306-3.769-12.512-6.832-25.946-13.875-40.158-12.755-13.494,1.063-26.322,9.229-31.314,22.392.351-22.936,1.456-32.836,19.572-45.829,15.957-11.444,34.067-17.02,42.226-45.459-12.364,5.584-24.988,11.34-34.783,20.726-11.528,11.047-18.117,26.117-24.306,40.862,2.817-17.488,5.19-40.389,21.318-50.766,16.62-10.694,38.569-10.673,54.588-22.4,12.8-9.377,19.626-24.791,24.46-39.907C1381.486,577.137,1366.4,598.841,1346.029,611.226Z" transform="translate(-50.598 -178.222)" fill="#f9c300" style="mix-blend-mode: multiply;isolation: isolate"/>
    <path id="Path_2528" data-name="Path 2528" d="M1535.964,395.962c-10.417,10.1-25.693,27.351-39.129,44.036.184-4.041.367-11.389,11.02-29.058,3.966-6.578,8.417-11.064,13.423-16.714,4.395-4.96,15.275-17.706,14.508-24.6-.6-5.419-5.548-5.322-9.533-3.577-6.186,2.706-8.9,8.312-11.05,14.286-3.242,9.017-7.582,17.482-10.891,26.542-1.826,5-3.484,10.526-5.661,15.557a145.329,145.329,0,0,0,1.25-19.007,43.515,43.515,0,0,1,.262-5.026,39.557,39.557,0,0,1,5.005-15.486c3.493-6.036,8.38-11.1,12.295-16.839,4.6-6.744,9.781-13.367,13.89-20.563,7.02-12.3,16.614-27.356,18.364-41.505,1.275-10.308,2.307-25.923.117-35.648-5.1,3.906-8.365,13.51-11.484,19.174a138.588,138.588,0,0,0-13.852,35.292c-3.3,14-10.415,26.1-16.356,39.025-2.8,6.1-5.354,15.772-8.5,21.937-.4-9.106.87-20.043,1.412-29.76.4-7.183-.3-14.348.1-21.493.49-8.838.283-17.982,1.957-26.769,2.143-11.246,8.734-22.957,13.129-33.943,2.56-6.4,11.449-32.333,2.6-37.209-7.128-4.506-12.731,22.449-13.452,25.566-4.182,18.065-6.494,36.393-8.032,54.8-6.345-31.572-1.3-41.691,3.338-80.1,3.072-25.437,1.873-53.9-15.361-72.857-10.758,12.844-10.736,31.642-6.868,47.944s10.994,31.89,12.677,48.56c1.281,12.683-.652,25.5.178,38.218.871,13.341,4.181,23.208,5.242,38.675-4.465-5.445-8.708-12.9-11.854-18.065-10.759-17.662-12.8-23.763-16.768-43.8-8.968-45.249-16.306-52.179-20.382-59.109-3.86,14.7-5.707,26.9-2.039,44.026,6.725,31.383,26.124,48.989,38.5,67.176,3.974,5.841,8.964,11.187,11.47,17.9,2.6,6.951,1.3,14.962.947,22.242-.328,6.686-1.149,14.437-1.149,21.728-7.126-12.111-9.058-27.491-15.568-39.546-2.43-4.5-12.284-18.644-17.791-12.662-6.331,6.878,12.225,26.933,15.832,31.751a143.044,143.044,0,0,1,11.588,17.89,45.45,45.45,0,0,1,5.194,27.6,35.9,35.9,0,0,1-1.055,6.275c-1.318-3.544-9.434-19.126-16.134-28.824a175.548,175.548,0,0,0-22.451-26.159c-4.793-4.641-32.44-32.876-39.661-18.653-6.265,12.34,20.115,16.4,26.323,20.231,53.154,32.8,49.255,68.375,49.41,78.9.122,8.307.4,15.505.522,23.812-3.481-17.408-11.572-35.77-22.918-48.027-12.483-13.485-28.6-21.088-46.039-21.758,5.9,13.871,20.465,19.706,32.466,27.419,31.08,19.978,35.6,47.221,36.491,57.916,1.161,13.926.233,39.689,1.069,68.981.04,2.751,1.02,5.754,3.805,5.522,1.8-.15,2.673-2.187,2.779-3.991.935-15.97-.975-39.853-2.315-59.372-2.036-29.647,23.415-38.194,36.878-52,8.417-8.633,16.061-18.62,18.83-30.354-13.686,9.607-27.512,19.338-38.559,31.891-8.379,9.521-15.091,20.937-17.926,33.19-.132-14.216-1.332-29.32,5.563-38.832,19.839-27.371,52.67-39.6,68.373-46.432,5.507-2.394,10.491-6.407,10.188-11.268C1579.562,371.21,1564.956,367.858,1535.964,395.962Z" transform="translate(-130.573)" fill="#0e8080" opacity="0.623" style="mix-blend-mode: multiply;isolation: isolate"/>
    <path id="Path_2531" data-name="Path 2531" d="M1671.165,908.177c7.046,2.435,13,3.8,21.648,2.9,20.1-2.388,32.614-14.906,31.784-17.3-.454-1.311-2.169-1.263-3.523-1.567-19.113-4.017-35.464,1.754-50.581,13.786-3.034.766-9.964,3.293-13.724,9.6,6.483-21.48,12.38-32.906,17.472-41.237,15.757,2.343,28.673-.457,41.016-13.088,2.04-2.087,1.57-3.626.263-4.21-.834-.38-5.542-.485-6.45-.505-12.7-.163-31.446,10.978-32.392,12.743,3.86-8.378,10.973-26.748,10.985-34.966-.088-14.864-6-38.823-9.679-31.249-.91,1.873-7.824,15.195-9.427,22.042-5.659,23.232.241,37.955,3.693,48.393-7.048,11.32-16.786,34.24-21.786,58.648-4.48-19.719-13.51-24.569-12.189-55.992a78.772,78.772,0,0,0,13.947-10.745c9.474-9.411,10.041-24.653,3.3-19.241-8.019,6.16-12.963,10.555-16.427,18.552,0,0-.988-4.394-2.206-7.911-4.747-13.714-12.877-25.4-25.774-35.539-1.277-1-2.835-2.338-4.173-1.414-3.425,2.364,5.629,30.742,13.492,40.445,5.24,6.505,9.462,10.984,15.712,15.641a139.042,139.042,0,0,0,2.5,28.392c-7.859-13.052-12.986-22.073-12.986-22.073-4.475-10.4-11.99-22.7-20.127-26.785a76.673,76.673,0,0,0-10.077-4.192,1.945,1.945,0,0,0-2.612,1.413c-.19,1.623,4.944,15.26,18.48,26.506,2.464,2.037,10.031,5,13.785,6.357.338.123,10.077,16.659,10.255,16.973,5.321,9.312,11.538,21.029,13.213,31.268,1.529,9.348-.774,17.773-.415,30.981.037,1.344-.573,5.388,1.129,5.585,2.988.346-.05-4.843,1.592-24.651C1652.122,930.822,1656.35,910.3,1671.165,908.177Z" transform="translate(-222.671 -329.896)" fill="#f88f7e" style="mix-blend-mode: multiply;isolation: isolate"/>
  </g>
</svg>
