<svg xmlns="http://www.w3.org/2000/svg" width="1104.275" height="61.329" viewBox="0 0 1104.275 61.329">
  <g id="Group_1572" data-name="Group 1572" transform="translate(13908.447 7012.136)">
    <rect id="Rectangle_1055" data-name="Rectangle 1055" width="9.361" height="36.012" transform="translate(-13908.447 -7000.872)" fill="#917d26"/>
    <path id="Path_4574" data-name="Path 4574" d="M110.152,73.926V37.914h9.361L136.8,59.931V37.914h9.313V73.926H136.8l-17.29-22.019V73.926Z" transform="translate(-13998.348 -7038.786)" fill="#917d26"/>
    <path id="Path_4575" data-name="Path 4575" d="M156.131,45.842h-11.27V51.86h10.266v7.928H144.861V73.925H135.5V37.914h20.633Z" transform="translate(-13976.843 -7038.786)" fill="#917d26"/>
    <path id="Path_4576" data-name="Path 4576" d="M150.614,56.381a18.783,18.783,0,0,1,1.482-7.475,18.594,18.594,0,0,1,4.107-6.041,18.794,18.794,0,0,1,6.279-4.037,22.9,22.9,0,0,1,16.072,0,18.989,18.989,0,0,1,6.327,4.037,18.433,18.433,0,0,1,4.131,6.041,19.588,19.588,0,0,1,0,14.95,18.433,18.433,0,0,1-4.131,6.041,18.989,18.989,0,0,1-6.327,4.037,22.9,22.9,0,0,1-16.072,0A18.794,18.794,0,0,1,156.2,69.9a18.6,18.6,0,0,1-4.107-6.041,18.782,18.782,0,0,1-1.482-7.475m9.791,0a9.6,9.6,0,0,0,.812,3.965,9.922,9.922,0,0,0,5.422,5.229A10.417,10.417,0,0,0,177.672,63.5a9.854,9.854,0,0,0,2.22-3.152,10.071,10.071,0,0,0,0-7.93,9.874,9.874,0,0,0-2.22-3.152,10.51,10.51,0,0,0-11.033-2.078,9.922,9.922,0,0,0-5.422,5.229,9.6,9.6,0,0,0-.812,3.965" transform="translate(-13964.017 -7039.247)" fill="#917d26"/>
    <path id="Path_4577" data-name="Path 4577" d="M207.147,73.926H195.494l-8.932-13.852V73.926H177.2V37.914h14.566a14.33,14.33,0,0,1,5.255.882,9.89,9.89,0,0,1,5.9,5.946,12.284,12.284,0,0,1,.741,4.3,10.56,10.56,0,0,1-1.983,6.662,9.966,9.966,0,0,1-5.85,3.464ZM186.563,54.009h1.767a6.827,6.827,0,0,0,4.25-1.146,4.4,4.4,0,0,0,0-6.592,6.827,6.827,0,0,0-4.25-1.146h-1.767Z" transform="translate(-13941.459 -7038.786)" fill="#917d26"/>
    <path id="Path_4578" data-name="Path 4578" d="M196.451,73.926l6.113-36.012h9.266l7.213,19.2,7.163-19.2h9.266l6.115,36.012h-9.314L229.167,53.2l-8.5,20.729h-3.725L208.869,53.2l-3.1,20.729Z" transform="translate(-13925.128 -7038.786)" fill="#917d26"/>
    <path id="Path_4579" data-name="Path 4579" d="M246.37,45.842H235.242V51.86h10.507v7.928H235.242V66H246.37v7.928H225.882V37.914H246.37Z" transform="translate(-13900.155 -7038.786)" fill="#917d26"/>
    <path id="Path_4580" data-name="Path 4580" d="M273.643,45.842H262.372V51.86H272.64v7.928H262.372V73.925h-9.361V37.914h20.632Z" transform="translate(-13877.138 -7038.786)" fill="#917d26"/>
    <rect id="Rectangle_1056" data-name="Rectangle 1056" width="9.361" height="36.012" transform="translate(-13594.561 -7000.872)" fill="#917d26"/>
    <path id="Path_4581" data-name="Path 4581" d="M279.96,73.926V37.914h9.361l17.29,22.017V37.914h9.313V73.926h-9.313l-17.29-22.019V73.926Z" transform="translate(-13854.272 -7038.786)" fill="#917d26"/>
    <path id="Path_4582" data-name="Path 4582" d="M328.951,67.669H315.579l-2.15,6.257h-9.982l13.706-36.012h10.222l13.706,36.012H331.1Zm-2.482-7.117-4.2-11.987-4.2,11.987Z" transform="translate(-13834.345 -7038.786)" fill="#917d26"/>
    <path id="Path_4583" data-name="Path 4583" d="M337.2,37.914V66h11.224v7.928H327.839V37.914Z" transform="translate(-13813.649 -7038.786)" fill="#917d26"/>
    <path id="Path_4584" data-name="Path 4584" d="M387.227,40.288h6.586V62.641H404.27l-.288,5.309H387.227Z" transform="translate(-13763.261 -7036.771)" fill="#223a73"/>
    <path id="Path_4585" data-name="Path 4585" d="M417.019,56.506h-9.756v6.135h12.35V67.95H400.677V40.288h18.564V45.6H407.263v5.6h9.756Z" transform="translate(-13751.849 -7036.771)" fill="#223a73"/>
    <path id="Path_4586" data-name="Path 4586" d="M437.288,51.8V66.082a20.18,20.18,0,0,1-9.551,2.47c-6.381,0-13.255-3.335-13.255-14.285,0-9.715,6.793-14.2,13.215-14.2s9.508,2.388,9.508,2.388l-1.192,5.433a13.8,13.8,0,0,0-7.534-2.181c-5.392,0-7.368,4.486-7.368,8.6,0,6.958,4.61,8.6,7.244,8.6a19.632,19.632,0,0,0,2.882-.288V56.86h-5.516l.329-5.063Z" transform="translate(-13740.137 -7036.96)" fill="#223a73"/>
    <path id="Path_4587" data-name="Path 4587" d="M448.229,63.133H438.6l-1.442,4.817H430.4L440,40.288h7.163l10,27.662h-7.329Zm-5.022-16.547-3.046,11.2H446.5Z" transform="translate(-13726.626 -7036.771)" fill="#223a73"/>
    <path id="Path_4588" data-name="Path 4588" d="M457.227,67.951h-8.274V40.287h8.274c9.88,0,15.231,5.558,15.231,13.544,0,7.78-5.105,14.12-15.231,14.12m.906-5.475c3.952,0,7.656-2.965,7.656-8.686,0-3.664-1.893-8.028-7.739-8.028h-2.51V62.476Z" transform="translate(-13710.889 -7036.772)" fill="#223a73"/>
    <path id="Path_4589" data-name="Path 4589" d="M479.336,40.065c9.551,0,13.749,6.422,13.749,14.242,0,7.863-5.02,14.244-13.749,14.244-9.632,0-13.749-6.381-13.749-14.244,0-7.821,4.939-14.242,13.749-14.242M479.3,62.912c4.693,0,7.08-3.828,7.08-8.6,0-4.732-2.717-8.6-7.08-8.6-4.61,0-7.081,3.871-7.081,8.6,0,4.776,2.841,8.6,7.081,8.6" transform="translate(-13696.776 -7036.96)" fill="#223a73"/>
    <path id="Path_4590" data-name="Path 4590" d="M510.56,43.449a11.435,11.435,0,0,1,5.7,1.292L515.9,47a12.757,12.757,0,0,0-5.336-1.161c-3.945,0-7.723,2.751-7.723,8.618,0,4.806,2.784,8.751,7.756,8.751a11.829,11.829,0,0,0,5.5-1.392L516.361,64a10.033,10.033,0,0,1-5.767,1.725c-5.965,0-10.473-4.011-10.473-11.27,0-6.1,4.142-11,10.44-11" transform="translate(-13667.476 -7034.089)" fill="#223a73"/>
    <path id="Path_4591" data-name="Path 4591" d="M520.585,43.449c6.464,0,10.176,5.105,10.176,11.07,0,5.636-3.547,11.2-10.176,11.2-6.828,0-10.176-5.536-10.176-11.2,0-5.568,3.647-11.07,10.176-11.07m.067,19.788c4.409-.067,7.359-3.547,7.359-8.651,0-6.231-3.811-8.684-7.359-8.684-4.078,0-7.523,2.917-7.523,8.684,0,5.37,3.579,8.717,7.523,8.651" transform="translate(-13658.745 -7034.089)" fill="#223a73"/>
    <path id="Path_4592" data-name="Path 4592" d="M526.244,45.65V65.238h-2.353V43.628h4.076L534.6,59.273l6.331-15.645h4.211v21.61h-2.586V45.65l-6.7,16.274h-2.651Z" transform="translate(-13647.307 -7033.938)" fill="#223a73"/>
    <rect id="Rectangle_1057" data-name="Rectangle 1057" width="2.686" height="21.61" transform="translate(-13096.079 -6990.31)" fill="#223a73"/>
    <path id="Path_4593" data-name="Path 4593" d="M554.606,46.9a9.8,9.8,0,0,0-4.706-1.226c-2.42,0-4.442,1.192-4.442,3.214,0,4.011,10.109,4.806,10.109,10.871,0,3.414-3.115,5.965-7.325,5.965a11.6,11.6,0,0,1-5.834-1.525l.564-2.22a11.875,11.875,0,0,0,5.336,1.458c2.42,0,4.575-1.226,4.608-3.381.067-4.375-10.142-5.17-10.142-11,0-3.379,3.248-5.6,6.959-5.6a10.492,10.492,0,0,1,5.37,1.226Z" transform="translate(-13631.596 -7034.089)" fill="#223a73"/>
    <rect id="Rectangle_1058" data-name="Rectangle 1058" width="2.686" height="21.61" transform="translate(-13071.292 -6990.31)" fill="#223a73"/>
    <path id="Path_4594" data-name="Path 4594" d="M566.209,46.34c6.462,0,10.176,5.105,10.176,11.07,0,5.636-3.547,11.2-10.176,11.2-6.828,0-10.176-5.536-10.176-11.2,0-5.568,3.645-11.07,10.176-11.07m.066,19.788c4.409-.067,7.357-3.547,7.357-8.651,0-6.231-3.812-8.684-7.357-8.684-4.078,0-7.525,2.917-7.525,8.684,0,5.37,3.581,8.717,7.525,8.651m.3-26.085h3.017l-3.812,4.873h-2.222Z" transform="translate(-13620.036 -7036.98)" fill="#223a73"/>
    <path id="Path_4595" data-name="Path 4595" d="M569.5,43.628h4.275l10.342,19.688V43.628h2.42v21.61h-4.311L571.916,45.451V65.239H569.5Z" transform="translate(-13608.612 -7033.938)" fill="#223a73"/>
    <path id="Path_4596" data-name="Path 4596" d="M592.037,65.238h-5.6V43.628H592.2c7.789,0,10.937,5.27,10.937,10.939,0,6.229-4.078,10.671-11.1,10.671m.033-2.32c4.972,0,8.287-3.15,8.287-8.385,0-5.636-3.481-8.586-8.089-8.586H589.12V62.919Z" transform="translate(-13594.238 -7033.938)" fill="#223a73"/>
    <path id="Path_4597" data-name="Path 4597" d="M609.1,55.361h-8.418v7.556h10.54v2.32H598V43.629h12.828v2.32H600.686v7.093H609.1Z" transform="translate(-13584.429 -7033.937)" fill="#223a73"/>
    <path id="Path_4598" data-name="Path 4598" d="M611.821,43.628h2.686V62.919h9.146l-.131,2.32h-11.7Z" transform="translate(-13572.701 -7033.938)" fill="#223a73"/>
    <path id="Path_4599" data-name="Path 4599" d="M632.237,59.107h-8.784l-1.989,6.131h-2.653l7.292-21.61h3.381l7.823,21.61h-2.95Zm-4.575-13.093-3.514,10.873h7.292Z" transform="translate(-13566.77 -7033.938)" fill="#223a73"/>
    <path id="Path_4600" data-name="Path 4600" d="M649.807,43.628h2.917l-7.856,21.61h-3.447l-7.854-21.61h3.115l6.564,19.257Z" transform="translate(-13554.253 -7033.938)" fill="#223a73"/>
    <path id="Path_4601" data-name="Path 4601" d="M656.843,55.361h-8.418v7.556h10.54v2.32H645.739V43.629h12.827v2.32H648.425v7.093h8.418Z" transform="translate(-13543.924 -7033.937)" fill="#223a73"/>
    <path id="Path_4602" data-name="Path 4602" d="M655.133,65.238V43.628h6.529c5.1,0,7.259,2.588,7.259,6.2,0,4.044-3.845,5.836-3.845,5.836l5.137,9.577h-3.148l-4.575-8.882h-4.673v8.882Zm2.684-19.291v8.22h5.336a4.539,4.539,0,0,0,2.95-4.342c0-2.486-1.789-3.878-4.575-3.878Z" transform="translate(-13535.953 -7033.938)" fill="#223a73"/>
    <path id="Path_4603" data-name="Path 4603" d="M671.275,65.238h-5.6V43.628h5.767c7.789,0,10.937,5.27,10.937,10.939,0,6.229-4.078,10.671-11.1,10.671m.033-2.32c4.972,0,8.287-3.15,8.287-8.385,0-5.636-3.481-8.586-8.087-8.586h-3.15V62.919Z" transform="translate(-13527.01 -7033.938)" fill="#223a73"/>
    <path id="Path_4604" data-name="Path 4604" d="M689.173,59.107h-8.784L678.4,65.238h-2.653l7.292-21.61h3.38l7.823,21.61h-2.95ZM684.6,46.014l-3.514,10.873h7.292Z" transform="translate(-13518.463 -7033.938)" fill="#223a73"/>
    <path id="Path_4605" data-name="Path 4605" d="M693.163,65.238h-5.6V43.628h5.767c7.789,0,10.937,5.27,10.937,10.939,0,6.229-4.078,10.671-11.1,10.671m.033-2.32c4.972,0,8.287-3.15,8.287-8.385,0-5.636-3.481-8.586-8.087-8.586h-3.15V62.919Z" transform="translate(-13508.438 -7033.938)" fill="#223a73"/>
    <rect id="Rectangle_1059" data-name="Rectangle 1059" width="5.39" height="40.038" transform="translate(-13187.621 -7002.672)" fill="#223a73"/>
    <path id="Path_4606" data-name="Path 4606" d="M365.094,54.448h-.011a.469.469,0,0,0-.451.414L363.091,68.04a.886.886,0,0,0,.917.987l.018,0a.881.881,0,0,0,.843-.834l.708-13.252a.467.467,0,0,0-.482-.492" transform="translate(-13783.744 -7024.757)" fill="#85782f"/>
    <path id="Path_4607" data-name="Path 4607" d="M364.591,51.168l-.532,4.549a.4.4,0,0,0,.425.449l.009,0a.4.4,0,0,0,.375-.379l.244-4.573a.262.262,0,0,0-.521-.044" transform="translate(-13782.921 -7027.736)" fill="#85782f"/>
    <path id="Path_4608" data-name="Path 4608" d="M364.573,49.657l-.118,1a.206.206,0,0,0,.229.227h0a.207.207,0,0,0,.179-.194l.054-1.011a.171.171,0,0,0-.183-.179h0a.174.174,0,0,0-.163.153" transform="translate(-13782.583 -7028.953)" fill="#85782f"/>
    <path id="Path_4609" data-name="Path 4609" d="M364.427,49.608l-.368,1.009a.211.211,0,0,0,.181.283h0a.209.209,0,0,0,.22-.15l.3-1.033a.171.171,0,0,0-.146-.22l-.011,0a.173.173,0,0,0-.183.113" transform="translate(-13782.929 -7028.96)" fill="#85782f"/>
    <path id="Path_4610" data-name="Path 4610" d="M364.481,51.081l-1.619,4.449a.415.415,0,0,0,.329.553h.009a.416.416,0,0,0,.457-.294l1.336-4.544a.265.265,0,0,0-.214-.336l-.006,0a.27.27,0,0,0-.292.174" transform="translate(-13783.956 -7027.763)" fill="#85782f"/>
    <path id="Path_4611" data-name="Path 4611" d="M364.379,50.857l-2.714,4.124a.431.431,0,0,0,.211.64l.009,0a.427.427,0,0,0,.519-.19l2.449-4.288a.265.265,0,0,0-.137-.381l-.022-.007a.265.265,0,0,0-.316.1" transform="translate(-13785.01 -7027.905)" fill="#85782f"/>
    <path id="Path_4612" data-name="Path 4612" d="M364.28,49.511l-.63.958a.218.218,0,0,0,.124.331l0,0a.221.221,0,0,0,.25-.1l.571-1a.172.172,0,0,0-.1-.251l-.024-.007a.172.172,0,0,0-.194.07" transform="translate(-13783.297 -7029.012)" fill="#85782f"/>
    <path id="Path_4613" data-name="Path 4613" d="M364.135,49.352l-.9.845a.228.228,0,0,0,.05.368l.006,0a.225.225,0,0,0,.272-.046l.849-.906a.173.173,0,0,0-.044-.27l-.033-.018a.171.171,0,0,0-.2.026" transform="translate(-13783.674 -7029.122)" fill="#85782f"/>
    <path id="Path_4614" data-name="Path 4614" d="M364.282,50.492l-3.756,3.542a.447.447,0,0,0,.066.7l.008.006a.445.445,0,0,0,.566-.072l3.531-3.776a.266.266,0,0,0-.05-.4l-.037-.024a.265.265,0,0,0-.327.03" transform="translate(-13786.033 -7028.175)" fill="#85782f"/>
    <path id="Path_4615" data-name="Path 4615" d="M364.178,49.987l-4.658,2.688a.469.469,0,0,0-.105.73l.007.006a.468.468,0,0,0,.593.063l4.481-2.98a.294.294,0,0,0,.048-.451l0-.006a.3.3,0,0,0-.362-.05" transform="translate(-13786.969 -7028.576)" fill="#85782f"/>
    <path id="Path_4616" data-name="Path 4616" d="M363.987,49.127l-1.133.654a.239.239,0,0,0-.035.388l0,0a.236.236,0,0,0,.286.018l1.089-.725a.2.2,0,0,0,.022-.312l0,0a.2.2,0,0,0-.229-.024" transform="translate(-13784.042 -7029.294)" fill="#85782f"/>
    <path id="Path_4617" data-name="Path 4617" d="M363.875,48.816l-1.346.4a.248.248,0,0,0-.131.383l0,.006a.252.252,0,0,0,.29.089l1.316-.486a.2.2,0,0,0,.1-.309l0,0a.207.207,0,0,0-.229-.081" transform="translate(-13784.366 -7029.543)" fill="#85782f"/>
    <path id="Path_4618" data-name="Path 4618" d="M364.121,49.324l-5.4,1.614a.488.488,0,0,0-.283.712l0,.007a.488.488,0,0,0,.59.209l5.288-1.954a.3.3,0,0,0,.152-.427l-.015-.026a.3.3,0,0,0-.34-.135" transform="translate(-13787.739 -7029.116)" fill="#85782f"/>
    <path id="Path_4619" data-name="Path 4619" d="M364.108,48.536l-5.871.34a.5.5,0,0,0-.457.634l0,.009a.5.5,0,0,0,.545.368l5.845-.712a.294.294,0,0,0,.25-.372l-.013-.05a.3.3,0,0,0-.3-.218" transform="translate(-13788.261 -7029.773)" fill="#85782f"/>
    <path id="Path_4620" data-name="Path 4620" d="M363.81,48.43l-1.5.087a.261.261,0,0,0-.231.349l0,.006a.262.262,0,0,0,.277.17l1.488-.181a.214.214,0,0,0,.176-.283l0,0a.214.214,0,0,0-.214-.144" transform="translate(-13784.608 -7029.863)" fill="#85782f"/>
    <path id="Path_4621" data-name="Path 4621" d="M364.4,48.462v-.006a.3.3,0,0,0-.248-.3l-6.054-1.068a.473.473,0,0,0-.556.462v.006l0,.109a.473.473,0,0,0,.422.466l6.105.684a.3.3,0,0,0,.329-.3v-.059" transform="translate(-13788.45 -7031.004)" fill="#85782f"/>
    <path id="Path_4622" data-name="Path 4622" d="M363.813,48.119l-1.553-.274a.273.273,0,1,0-.079.54l1.569.176a.22.22,0,0,0,.244-.229v-.007a.22.22,0,0,0-.181-.205" transform="translate(-13784.718 -7030.363)" fill="#85782f"/>
    <path id="Path_4623" data-name="Path 4623" d="M364.266,47.936l-5.8-2.5a.534.534,0,0,0-.736.375l0,.011a.539.539,0,0,0,.342.621l5.961,2.137a.3.3,0,0,0,.388-.216l.019-.085a.3.3,0,0,0-.17-.34" transform="translate(-13788.302 -7032.444)" fill="#85782f"/>
    <path id="Path_4624" data-name="Path 4624" d="M363.907,47.843l-1.54-.665a.282.282,0,0,0-.388.209l0,.006a.282.282,0,0,0,.183.312l1.582.567a.212.212,0,0,0,.281-.155l.007-.031a.213.213,0,0,0-.124-.242" transform="translate(-13784.688 -7030.945)" fill="#85782f"/>
    <path id="Path_4625" data-name="Path 4625" d="M364.448,48.272a.194.194,0,0,0-.135-.229l-.342-.146a.173.173,0,0,0-.242.148v.006a.174.174,0,0,0,.115.176l.355.126a.189.189,0,0,0,.25-.079" transform="translate(-13783.199 -7030.328)" fill="#85782f"/>
    <path id="Path_4626" data-name="Path 4626" d="M364.066,47.578l-1.418-1.055a.29.29,0,0,0-.438.115l0,.006a.288.288,0,0,0,.107.36l1.484.967a.233.233,0,0,0,.333-.089l0-.006a.236.236,0,0,0-.068-.3" transform="translate(-13784.51 -7031.531)" fill="#85782f"/>
    <path id="Path_4627" data-name="Path 4627" d="M364.615,48.231a.193.193,0,0,0-.079-.253l-.462-.346a.185.185,0,0,0-.281.087v0a.179.179,0,0,0,.072.211l.488.318a.19.19,0,0,0,.262-.02" transform="translate(-13783.152 -7030.57)" fill="#85782f"/>
    <path id="Path_4628" data-name="Path 4628" d="M364.457,47.748,359.17,43.81a.553.553,0,0,0-.83.205l-.005.011a.557.557,0,0,0,.2.7l5.534,3.6a.3.3,0,0,0,.429-.12c.017-.031.031-.063.048-.092a.3.3,0,0,0-.087-.373" transform="translate(-13787.82 -7033.876)" fill="#85782f"/>
    <path id="Path_4629" data-name="Path 4629" d="M364.71,47.616l-4.429-5.279a.573.573,0,0,0-.884,0l-.007.009a.577.577,0,0,0,.03.76l4.764,5a.3.3,0,0,0,.442-.015c.026-.031.052-.061.079-.092a.3.3,0,0,0,.006-.386" transform="translate(-13786.989 -7035.208)" fill="#85782f"/>
    <path id="Path_4630" data-name="Path 4630" d="M364.764,48.234a.192.192,0,0,0-.019-.264l-.482-.575a.186.186,0,0,0-.288,0l-.007.009a.185.185,0,0,0,.015.24l.523.547a.19.19,0,0,0,.259.041" transform="translate(-13783.027 -7030.798)" fill="#85782f"/>
    <path id="Path_4631" data-name="Path 4631" d="M364.321,47.374,363.11,45.93a.3.3,0,1,0-.449.4l1.3,1.364a.24.24,0,0,0,.349,0l0,0a.239.239,0,0,0,.007-.316" transform="translate(-13784.175 -7032.075)" fill="#85782f"/>
    <path id="Path_4632" data-name="Path 4632" d="M364.882,48.263a.191.191,0,0,0,.042-.262l-.394-.786a.193.193,0,0,0-.275-.076l0,0a.19.19,0,0,0-.061.255l.445.765a.193.193,0,0,0,.244.1" transform="translate(-13782.827 -7030.984)" fill="#85782f"/>
    <path id="Path_4633" data-name="Path 4633" d="M364.639,47.257l-.911-1.815a.309.309,0,0,0-.458-.109l-.006,0a.308.308,0,0,0-.081.4L364.21,47.5a.239.239,0,0,0,.331.083l0,0a.248.248,0,0,0,.094-.323" transform="translate(-13783.696 -7032.542)" fill="#85782f"/>
    <path id="Path_4634" data-name="Path 4634" d="M364.977,47.508l-3.205-6.388a.6.6,0,1,0-1.05.569l3.6,6.178a.363.363,0,0,0,.521.116l.007,0a.371.371,0,0,0,.122-.473" transform="translate(-13785.819 -7036.346)" fill="#85782f"/>
    <path id="Path_4635" data-name="Path 4635" d="M364.969,48.3h0a.192.192,0,0,0,.1-.246l-.218-.924a.2.2,0,0,0-.235-.144l0,0a.193.193,0,0,0-.139.244l.279.915a.193.193,0,0,0,.215.153" transform="translate(-13782.57 -7031.096)" fill="#85782f"/>
    <path id="Path_4636" data-name="Path 4636" d="M365.3,47.55l-1.728-7.3a.592.592,0,0,0-.8-.412l-.046.018a.594.594,0,0,0-.342.721l2.185,7.17a.376.376,0,0,0,.483.246l.005,0a.373.373,0,0,0,.242-.44" transform="translate(-13784.359 -7037.19)" fill="#85782f"/>
    <path id="Path_4637" data-name="Path 4637" d="M364.983,47.25l-.5-2.124a.314.314,0,0,0-.418-.22l-.006,0a.312.312,0,0,0-.188.384l.636,2.087a.244.244,0,0,0,.3.166h.005a.248.248,0,0,0,.177-.3" transform="translate(-13783.091 -7032.87)" fill="#85782f"/>
    <path id="Path_4638" data-name="Path 4638" d="M365.038,48.317a.191.191,0,0,0,.155-.214l0-.956a.2.2,0,0,0-.181-.192h-.005a.193.193,0,0,0-.2.205l.061.959a.189.189,0,0,0,.172.2" transform="translate(-13782.285 -7031.115)" fill="#85782f"/>
    <path id="Path_4639" data-name="Path 4639" d="M365.312,47.349V45.037a.322.322,0,1,0-.643.018l.146,2.309a.246.246,0,0,0,.237.229l.007,0a.246.246,0,0,0,.253-.246" transform="translate(-13782.401 -7033.016)" fill="#85782f"/>
    <path id="Path_4640" data-name="Path 4640" d="M365.594,47.689l0-7.823a.592.592,0,0,0-.664-.588c-.026,0-.052.007-.078.009a.594.594,0,0,0-.519.625l.492,7.8a.376.376,0,0,0,.4.351l.017,0a.373.373,0,0,0,.351-.373" transform="translate(-13782.686 -7037.631)" fill="#85782f"/>
    <path id="Path_4641" data-name="Path 4641" d="M365.779,47.531l.564-2.379a.321.321,0,0,0-.263-.392l-.007,0a.319.319,0,0,0-.366.264l-.412,2.4a.246.246,0,0,0,.176.281l.005,0a.242.242,0,0,0,.3-.177" transform="translate(-13781.872 -7032.983)" fill="#85782f"/>
    <path id="Path_4642" data-name="Path 4642" d="M365.175,48.344a.192.192,0,0,0,.2-.174l.216-.909a.194.194,0,0,0-.122-.227h0a.193.193,0,0,0-.255.148l-.159.93a.192.192,0,0,0,.122.233" transform="translate(-13782.079 -7031.058)" fill="#85782f"/>
    <path id="Path_4643" data-name="Path 4643" d="M366.454,47.9l1.871-7.887a.593.593,0,0,0-.508-.725l-.1-.011a.592.592,0,0,0-.649.488L365.7,47.747a.375.375,0,0,0,.307.433l.017,0a.377.377,0,0,0,.434-.283" transform="translate(-13781.534 -7037.631)" fill="#85782f"/>
    <path id="Path_4644" data-name="Path 4644" d="M366.261,47.78l1.163-2.314a.327.327,0,0,0-.168-.447l-.007,0a.325.325,0,0,0-.422.174l-1.011,2.377a.244.244,0,0,0,.1.311l0,0a.244.244,0,0,0,.338-.1" transform="translate(-13781.446 -7032.78)" fill="#85782f"/>
    <path id="Path_4645" data-name="Path 4645" d="M365.327,48.378a.193.193,0,0,0,.237-.122l.4-.806a.194.194,0,0,0-.063-.246l0,0a.194.194,0,0,0-.285.085l-.355.836a.191.191,0,0,0,.065.255" transform="translate(-13781.914 -7030.932)" fill="#85782f"/>
    <path id="Path_4646" data-name="Path 4646" d="M367.49,48.178l3.789-7.544a.591.591,0,0,0-.335-.824c-.043-.015-.083-.031-.126-.043a.59.59,0,0,0-.736.327l-3.3,7.756a.375.375,0,0,0,.2.494l.02.009a.378.378,0,0,0,.486-.176" transform="translate(-13780.633 -7037.24)" fill="#85782f"/>
    <path id="Path_4647" data-name="Path 4647" d="M365.459,48.424a.191.191,0,0,0,.257-.065l.553-.658a.189.189,0,0,0,0-.25l0,0a.191.191,0,0,0-.3.013l-.514.7a.192.192,0,0,0,.005.262" transform="translate(-13781.776 -7030.749)" fill="#85782f"/>
    <path id="Path_4648" data-name="Path 4648" d="M368.426,48.477l5.662-6.745a.592.592,0,0,0-.139-.882l-.146-.091a.589.589,0,0,0-.784.155l-5.214,7.074a.39.39,0,0,0,.081.545l.005,0a.392.392,0,0,0,.534-.061" transform="translate(-13779.805 -7036.444)" fill="#85782f"/>
    <path id="Path_4649" data-name="Path 4649" d="M366.661,48.07l1.767-2.105a.331.331,0,0,0-.061-.481l-.007,0a.328.328,0,0,0-.455.074l-1.627,2.207a.248.248,0,0,0,.028.325l0,0a.241.241,0,0,0,.351-.018" transform="translate(-13781.076 -7032.418)" fill="#85782f"/>
    <path id="Path_4650" data-name="Path 4650" d="M369.2,48.77l7.307-5.438a.677.677,0,0,0,.074-1.022l-.013-.013a.676.676,0,0,0-.917-.037L368.7,48.146a.388.388,0,0,0-.048.549l.009.013a.394.394,0,0,0,.534.063" transform="translate(-13779.098 -7035.235)" fill="#85782f"/>
    <path id="Path_4651" data-name="Path 4651" d="M366.957,48.368l2.342-1.743a.334.334,0,0,0,.052-.488l-.006-.006a.332.332,0,0,0-.464-.033l-2.224,1.885a.242.242,0,0,0-.048.318l0,0a.241.241,0,0,0,.346.063" transform="translate(-13780.788 -7031.909)" fill="#85782f"/>
    <path id="Path_4652" data-name="Path 4652" d="M365.561,48.483a.192.192,0,0,0,.266,0l.651-.484a.187.187,0,0,0,.054-.238l0,0a.189.189,0,0,0-.288-.055l-.625.529a.192.192,0,0,0-.055.257" transform="translate(-13781.669 -7030.522)" fill="#85782f"/>
    <path id="Path_4653" data-name="Path 4653" d="M367.135,48.645l2.839-1.224a.338.338,0,0,0,.164-.468l0-.006a.335.335,0,0,0-.451-.142l-2.752,1.4a.242.242,0,0,0-.12.294l0,0a.238.238,0,0,0,.32.142" transform="translate(-13780.591 -7031.272)" fill="#85782f"/>
    <path id="Path_4654" data-name="Path 4654" d="M369.765,49.085l9.05-3.9a.4.4,0,0,0,.187-.569c-.109-.185-.22-.368-.336-.549a.4.4,0,0,0-.518-.142l-8.725,4.433a.4.4,0,0,0-.177.534l0,.006a.4.4,0,0,0,.516.19" transform="translate(-13778.554 -7033.725)" fill="#85782f"/>
    <path id="Path_4655" data-name="Path 4655" d="M367.189,48.877l3.207-.566a.339.339,0,0,0,.274-.409l0-.015a.34.34,0,0,0-.41-.248l-3.161.765a.241.241,0,0,0-.183.255v0a.237.237,0,0,0,.277.213" transform="translate(-13780.499 -7030.542)" fill="#85782f"/>
    <path id="Path_4656" data-name="Path 4656" d="M370.067,49.259l9.773-1.721a.711.711,0,0,0,.555-.911l0-.017a.714.714,0,0,0-.848-.481L369.9,48.464a.394.394,0,0,0-.288.473l.006.02a.39.39,0,0,0,.449.3" transform="translate(-13778.214 -7031.833)" fill="#85782f"/>
    <path id="Path_4657" data-name="Path 4657" d="M370.108,49.392l10.242.6a.734.734,0,1,0,.035-1.466l-10.255.05a.4.4,0,0,0-.4.4v.011a.405.405,0,0,0,.381.407" transform="translate(-13778.108 -7029.783)" fill="#85782f"/>
    <path id="Path_4658" data-name="Path 4658" d="M367.124,49.051l3.385.2a.341.341,0,0,0,.362-.336V48.9a.34.34,0,0,0-.344-.346l-3.386.017a.239.239,0,0,0-.237.211v.006a.235.235,0,0,0,.22.261" transform="translate(-13780.506 -7029.755)" fill="#85782f"/>
    <path id="Path_4659" data-name="Path 4659" d="M369.885,50.55l10.142,3.039a.74.74,0,0,0,.941-.592l0-.017a.743.743,0,0,0-.566-.839L370.1,49.751a.409.409,0,0,0-.494.309v.007a.41.41,0,0,0,.281.482" transform="translate(-13778.221 -7028.752)" fill="#85782f"/>
    <path id="Path_4660" data-name="Path 4660" d="M366.96,49.533l3.374,1.011a.347.347,0,0,0,.438-.264l0-.007a.346.346,0,0,0-.261-.4l-3.425-.795a.238.238,0,0,0-.279.159l0,.009a.232.232,0,0,0,.155.292" transform="translate(-13780.597 -7029.322)" fill="#85782f"/>
    <path id="Path_4661" data-name="Path 4661" d="M365.655,48.853l-.024.046a.14.14,0,0,0,.081.2l.011,0,.634.19a.183.183,0,0,0,.227-.116l0,0a.184.184,0,0,0-.133-.238l-.652-.152a.133.133,0,0,0-.146.068" transform="translate(-13781.6 -7029.565)" fill="#85782f"/>
    <path id="Path_4662" data-name="Path 4662" d="M366.712,49.985l3.176,1.834a.353.353,0,0,0,.5-.168l0-.007a.35.35,0,0,0-.168-.451l-3.285-1.628a.234.234,0,0,0-.312.1l0,0a.237.237,0,0,0,.089.32" transform="translate(-13780.767 -7028.923)" fill="#85782f"/>
    <path id="Path_4663" data-name="Path 4663" d="M365.533,49.038l0,0a.16.16,0,0,0,.044.233l.011.009.6.346a.186.186,0,0,0,.255-.072l0,0a.186.186,0,0,0-.081-.255l-.625-.311h-.006a.16.16,0,0,0-.2.052" transform="translate(-13781.695 -7029.405)" fill="#85782f"/>
    <path id="Path_4664" data-name="Path 4664" d="M369.421,51.681l9.483,5.477a.766.766,0,1,0,.723-1.349l-9.81-4.867a.412.412,0,0,0-.562.2l0,.007a.418.418,0,0,0,.17.532" transform="translate(-13778.545 -7027.77)" fill="#85782f"/>
    <path id="Path_4665" data-name="Path 4665" d="M366.375,50.382l2.795,2.636a.358.358,0,0,0,.542-.057l.006-.006a.359.359,0,0,0-.068-.481L366.7,50.021a.234.234,0,0,0-.331.03l-.009.009a.235.235,0,0,0,.018.322" transform="translate(-13781.016 -7028.56)" fill="#85782f"/>
    <path id="Path_4666" data-name="Path 4666" d="M368.719,52.717l8.3,7.836a.779.779,0,0,0,1.183-.139l.011-.017a.782.782,0,0,0-.153-1.03l-8.776-7.292a.423.423,0,0,0-.612.076l0,.007a.424.424,0,0,0,.05.558" transform="translate(-13779.077 -7026.853)" fill="#85782f"/>
    <path id="Path_4667" data-name="Path 4667" d="M365.416,49.173l-.013.011a.159.159,0,0,0,0,.233l.551.519a.185.185,0,0,0,.275-.02l0,0a.189.189,0,0,0-.028-.261l-.586-.488h0a.155.155,0,0,0-.2.007" transform="translate(-13781.818 -7029.268)" fill="#85782f"/>
    <path id="Path_4668" data-name="Path 4668" d="M365.962,50.714l2.214,3.366a.367.367,0,0,0,.56.067l.005-.006a.368.368,0,0,0,.041-.49l-2.421-3.22a.233.233,0,0,0-.333-.043l-.017.013a.235.235,0,0,0-.05.312" transform="translate(-13781.336 -7028.245)" fill="#85782f"/>
    <path id="Path_4669" data-name="Path 4669" d="M367.789,53.611l6.516,9.91a.812.812,0,1,0,1.327-.935L368.5,53.107a.434.434,0,0,0-.634-.065l-.005.007a.433.433,0,0,0-.076.562" transform="translate(-13779.813 -7026.042)" fill="#85782f"/>
    <path id="Path_4670" data-name="Path 4670" d="M365.26,49.3l0,0a.165.165,0,0,0-.044.227l.444.671a.192.192,0,1,0,.312-.222l-.483-.641a.166.166,0,0,0-.225-.037" transform="translate(-13781.963 -7029.15)" fill="#85782f"/>
    <path id="Path_4671" data-name="Path 4671" d="M365.477,50.966l1.445,3.972a.379.379,0,0,0,.551.2l.006,0a.379.379,0,0,0,.153-.477l-1.693-3.876a.235.235,0,0,0-.322-.115l-.026.015a.234.234,0,0,0-.115.288" transform="translate(-13781.727 -7027.991)" fill="#85782f"/>
    <path id="Path_4672" data-name="Path 4672" d="M366.653,54.305l4.229,11.627a.834.834,0,0,0,1.207.433l.015-.009a.832.832,0,0,0,.338-1.048l-4.956-11.337a.442.442,0,0,0-.621-.209l-.007,0a.444.444,0,0,0-.205.542" transform="translate(-13780.739 -7025.387)" fill="#85782f"/>
    <path id="Path_4673" data-name="Path 4673" d="M365.084,49.4h0a.164.164,0,0,0-.089.2l.272.867a.2.2,0,1,0,.379-.135c-.092-.227-.251-.623-.342-.843a.163.163,0,0,0-.22-.087" transform="translate(-13782.13 -7029.054)" fill="#85782f"/>
    <path id="Path_4674" data-name="Path 4674" d="M364.767,49.651l.109.939a.2.2,0,0,0,.266.168.2.2,0,0,0,.131-.226l-.168-.932a.17.17,0,0,0-.207-.135l0,0a.168.168,0,0,0-.128.183" transform="translate(-13782.317 -7028.988)" fill="#85782f"/>
    <path id="Path_4675" data-name="Path 4675" d="M365.345,54.743l1.49,12.756a.858.858,0,0,0,1.1.723l.017,0a.858.858,0,0,0,.6-.974l-2.29-12.638a.456.456,0,0,0-.571-.359l-.009,0a.46.46,0,0,0-.333.494" transform="translate(-13781.829 -7024.941)" fill="#85782f"/>
    <path id="Path_4676" data-name="Path 4676" d="M365.146,50.853l-.039.011a.234.234,0,0,0-.174.253l.514,4.392a.391.391,0,0,0,.506.327l.007,0a.388.388,0,0,0,.264-.442l-.789-4.353a.233.233,0,0,0-.29-.185" transform="translate(-13782.178 -7027.814)" fill="#85782f"/>
    <path id="Path_4677" data-name="Path 4677" d="M366.689,48.093a.186.186,0,0,0-.266-.12l-.682.346a.212.212,0,0,0-.126.2.158.158,0,0,0,.011.039.2.2,0,0,0,.261.059l.011-.006.684-.294a.189.189,0,0,0,.109-.218l0,0" transform="translate(-13781.599 -7030.27)" fill="#85782f"/>
    <path id="Path_4678" data-name="Path 4678" d="M366.738,48.444a.186.186,0,0,0-.229-.176l-.645.157-.042.011a.191.191,0,0,0-.166.2.169.169,0,0,0,.157.12.242.242,0,0,0,.081,0l.693-.122a.183.183,0,0,0,.151-.185v-.006" transform="translate(-13781.566 -7030.005)" fill="#85782f"/>
    <path id="Path_4679" data-name="Path 4679" d="M365.849,48.573l-.046,0a.179.179,0,0,0-.161.157.151.151,0,0,0,.068.124.246.246,0,0,0,.137.044l.665.039a.183.183,0,0,0,.192-.152v-.006a.185.185,0,0,0-.183-.214Z" transform="translate(-13781.575 -7029.745)" fill="#85782f"/>
    <path id="Path_4680" data-name="Path 4680" d="M365.588,48.892a.142.142,0,0,0,.015.1c.041-.068.076-.139.111-.211a.16.16,0,0,0-.126.109" transform="translate(-13781.624 -7029.563)" fill="#85782f"/>
    <path id="Path_4681" data-name="Path 4681" d="M364.962,63.954a.887.887,0,0,0-.917-.935c-.068,0-.137.006-.205.007a.884.884,0,0,0-.85.78l-.2,1.708a1.044,1.044,0,1,0,2.08.176Z" transform="translate(-13784.001 -7017.486)" fill="#85782f"/>
    <path id="Path_4682" data-name="Path 4682" d="M366.029,54.352l-.009,0a.481.481,0,0,0-.538.311l-6.547,17.976a1.045,1.045,0,0,0,.982,1.4h.1a1.042,1.042,0,0,0,1-.75l5.392-18.326a.483.483,0,0,0-.379-.61" transform="translate(-13787.319 -7024.847)" fill="#85782f"/>
    <path id="Path_4683" data-name="Path 4683" d="M367.238,53.955l-.009,0a.5.5,0,0,0-.606.189l-12.109,18.4a1.2,1.2,0,1,0,2.044,1.255l10.924-19.137a.5.5,0,0,0-.244-.706" transform="translate(-13791.187 -7025.21)" fill="#85782f"/>
    <path id="Path_4684" data-name="Path 4684" d="M373.724,59.616a.9.9,0,0,0-1.331-.113l-.017.015a.9.9,0,0,0-.133,1.144l5.684,8.647a1.234,1.234,0,1,0,2.019-1.42Z" transform="translate(-13776.101 -7020.675)" fill="#85782f"/>
    <path id="Path_4685" data-name="Path 4685" d="M371.223,61.667a.83.83,0,0,0-1.179-.386c-.055.033-.115.065-.172.1a.831.831,0,0,0-.371,1.007l1.884,5.174a1.042,1.042,0,0,0,.98.686h.141a1.042,1.042,0,0,0,.956-1.46Z" transform="translate(-13778.344 -7019.056)" fill="#85782f"/>
    <path id="Path_4686" data-name="Path 4686" d="M368.238,63.181a.973.973,0,0,0-1.9.309l.318,2.725a1.045,1.045,0,0,0,1.037.922h.011a1.043,1.043,0,0,0,1.026-1.229Z" transform="translate(-13780.988 -7017.947)" fill="#85782f"/>
    <path id="Path_4687" data-name="Path 4687" d="M373.587,45.224a.677.677,0,0,0-.055.982l.129.133a.679.679,0,0,0,.9.078l10.329-7.684a1.177,1.177,0,1,0-1.464-1.843Z" transform="translate(-13775.038 -7039.894)" fill="#85782f"/>
    <path id="Path_4688" data-name="Path 4688" d="M375.432,44.983a.782.782,0,0,0-.316,1.1l.007.013a.78.78,0,0,0,.982.316l7.222-3.113a1.039,1.039,0,1,0-.882-1.88Z" transform="translate(-13773.632 -7035.908)" fill="#85782f"/>
    <path id="Path_4689" data-name="Path 4689" d="M376.721,46.348a.8.8,0,0,0-.577,1.009l0,.009a.8.8,0,0,0,.9.56l5.174-.911a.955.955,0,0,0,.791-.943v-.033a.956.956,0,0,0-1.181-.93Z" transform="translate(-13772.692 -7032.704)" fill="#85782f"/>
    <path id="Path_4690" data-name="Path 4690" d="M377.386,48.526a.813.813,0,0,0-.81.847l0,.015a.814.814,0,0,0,.765.782l4.266.25a.957.957,0,1,0,.052-1.913Z" transform="translate(-13772.298 -7029.799)" fill="#85782f"/>
    <path id="Path_4691" data-name="Path 4691" d="M377.407,51.4a.831.831,0,0,0-1.006.671l0,.017a.829.829,0,0,0,.579.932l4.573,1.368a.956.956,0,0,0,1.231-.917V53.4a.955.955,0,0,0-.741-.932Z" transform="translate(-13772.458 -7027.365)" fill="#85782f"/>
    <path id="Path_4692" data-name="Path 4692" d="M376.813,54.29a.848.848,0,0,0-1.163.444l-.007.018a.846.846,0,0,0,.362,1.048l6.028,3.482a.955.955,0,0,0,1.433-.826v-.274a.952.952,0,0,0-.53-.854Z" transform="translate(-13773.142 -7024.967)" fill="#85782f"/>
    <path id="Path_4693" data-name="Path 4693" d="M375.593,57.082a.874.874,0,0,0-1.281.183l-.006.011a.871.871,0,0,0,.12,1.126l8.166,7.706a1.236,1.236,0,1,0,1.638-1.848Z" transform="translate(-13774.354 -7022.692)" fill="#85782f"/>
    <path id="Path_4694" data-name="Path 4694" d="M364.658,47.3l.011-.007a.674.674,0,0,0,.207-.845l-7.022-13.985a1.172,1.172,0,1,0-2.059,1.116L363.684,47.1a.673.673,0,0,0,.974.205" transform="translate(-13790.067 -7043.956)" fill="#85782f"/>
    <path id="Path_4695" data-name="Path 4695" d="M364.542,45.34l.013-.006a.686.686,0,0,0,.418-.8l-2.819-11.9a1.052,1.052,0,0,0-1.024-.81h-.065a1.052,1.052,0,0,0-1.006,1.359L363.63,44.9a.689.689,0,0,0,.911.44" transform="translate(-13786.352 -7043.956)" fill="#85782f"/>
    <path id="Path_4696" data-name="Path 4696" d="M365.344,44.337l.013,0a.7.7,0,0,0,.625-.7l0-10.764a1.052,1.052,0,1,0-2.1.065l.678,10.745a.7.7,0,0,0,.784.654" transform="translate(-13783.069 -7043.955)" fill="#85782f"/>
    <path id="Path_4697" data-name="Path 4697" d="M367.3,44.386l.015,0a.715.715,0,0,0,.782-.545l2.538-10.7a1.072,1.072,0,1,0-2.1-.429L366.675,43.55a.718.718,0,0,0,.621.836" transform="translate(-13780.707 -7043.956)" fill="#85782f"/>
    <path id="Path_4698" data-name="Path 4698" d="M369.56,45.4l.013.006a.731.731,0,0,0,.9-.36l5.81-11.562a1.148,1.148,0,1,0-2.081-.965l-5.067,11.9a.734.734,0,0,0,.429.98" transform="translate(-13778.665 -7043.956)" fill="#85782f"/>
    <path id="Path_4699" data-name="Path 4699" d="M371.7,47.4l.011.007a.749.749,0,0,0,.976-.15l11.157-13.292a1.3,1.3,0,1,0-2.048-1.612L371.5,46.319a.752.752,0,0,0,.2,1.078" transform="translate(-13776.73 -7043.956)" fill="#85782f"/>
    <path id="Path_4700" data-name="Path 4700" d="M364.281,48.37c.013-.089-.07-.174-.185-.19l-.142-.026a.168.168,0,0,0-.189.216v0a.168.168,0,0,0,.142.115l.148.017a.189.189,0,0,0,.226-.135" transform="translate(-13783.173 -7030.1)" fill="#85782f"/>
    <path id="Path_4701" data-name="Path 4701" d="M364,48.357a.145.145,0,0,0-.157.17v0a.144.144,0,0,0,.094.105.467.467,0,0,0,.115.022.155.155,0,0,0,.174-.131.152.152,0,0,0-.122-.15.639.639,0,0,0-.1-.02" transform="translate(-13783.104 -7029.925)" fill="#85782f"/>
    <path id="Path_4702" data-name="Path 4702" d="M364.171,48.688a.126.126,0,1,0-.126.126.125.125,0,0,0,.126-.126" transform="translate(-13783.035 -7029.751)" fill="#85782f"/>
    <path id="Path_4703" data-name="Path 4703" d="M367.315,53.233l-.009-.006a.514.514,0,0,0-.645.05L351.59,67.492a1.176,1.176,0,1,0,1.666,1.66L367.4,54.013a.518.518,0,0,0-.087-.78" transform="translate(-13793.812 -7025.87)" fill="#85782f"/>
    <path id="Path_4704" data-name="Path 4704" d="M364.939,53a.538.538,0,0,0,.1-.81l-.006-.007a.538.538,0,0,0-.665-.1l-12.645,7.3a1,1,0,1,0,1.057,1.706Z" transform="translate(-13793.812 -7026.828)" fill="#85782f"/>
    <path id="Path_4705" data-name="Path 4705" d="M362.908,51.633a.561.561,0,0,0,.3-.791l-.005-.011a.548.548,0,0,0-.643-.266l-10.712,3.2a.882.882,0,0,0-.627.843v.078a.878.878,0,0,0,1.183.824Z" transform="translate(-13793.812 -7028.072)" fill="#85782f"/>
    <path id="Path_4706" data-name="Path 4706" d="M361.531,49.955a.579.579,0,0,0,.49-.715l0-.011a.575.575,0,0,0-.591-.434l-9.377.545a.879.879,0,1,0,.157,1.75Z" transform="translate(-13793.812 -7029.555)" fill="#85782f"/>
    <path id="Path_4707" data-name="Path 4707" d="M360.993,48.785a.592.592,0,0,0,.658-.582v-.015a.594.594,0,0,0-.488-.592l-8.91-1.571a.878.878,0,0,0-1.033.865V46.9a.879.879,0,0,0,.782.874Z" transform="translate(-13793.812 -7031.915)" fill="#85782f"/>
    <path id="Path_4708" data-name="Path 4708" d="M361.289,47.917a.613.613,0,0,0,.8-.438l0-.011a.61.61,0,0,0-.353-.7l-9.294-4.011a.879.879,0,0,0-1.227.808v.124a.88.88,0,0,0,.582.828Z" transform="translate(-13793.812 -7034.74)" fill="#85782f"/>
    <path id="Path_4709" data-name="Path 4709" d="M362.453,47.624a.633.633,0,0,0,.911-.25l.006-.011a.632.632,0,0,0-.189-.787L352.887,38.91a1.044,1.044,0,1,0-1.192,1.712Z" transform="translate(-13793.812 -7038.117)" fill="#85782f"/>
    <path id="Path_4710" data-name="Path 4710" d="M364.512,48.887a.656.656,0,0,0,.974-.031l.006-.009a.647.647,0,0,0,0-.837L353.429,33.628a1.251,1.251,0,1,0-1.865,1.667Z" transform="translate(-13793.812 -7042.803)" fill="#85782f"/>
  </g>
</svg>
