<svg width="50" height="43" viewBox="0 0 50 43" fill="none" xmlns="http://www.w3.org/2000/svg">
<path opacity="0.538" d="M14.55 22.7713L20.1 0.421295H10.65L3.59999 21.4213C1.49999 26.9713 0.899994 29.2213 0.899994 32.0713C0.899994 37.9213 5.09999 42.2713 10.95 42.2713C16.5 42.2713 20.85 38.0713 20.85 32.0713C20.85 27.4213 18.45 24.1213 14.55 22.7713ZM42.9 22.7713L48.45 0.421295H39L31.95 21.4213C29.85 26.9713 29.25 29.2213 29.25 32.0713C29.25 37.9213 33.45 42.2713 39.3 42.2713C44.85 42.2713 49.2 38.0713 49.2 32.0713C49.2 27.4213 46.8 24.1213 42.9 22.7713Z" fill="#444E67"/>
</svg>

