<svg xmlns="http://www.w3.org/2000/svg" xmlns:xlink="http://www.w3.org/1999/xlink" width="286.996" height="286.996" viewBox="0 0 286.996 286.996">
  <defs>
    <clipPath id="clip-path">
      <rect id="Rectangle_694" data-name="Rectangle 694" width="286.996" height="286.996" transform="translate(1633.16 0)" fill="none"/>
    </clipPath>
  </defs>
  <g id="Group_950" data-name="Group 950" transform="translate(-2043.004 285)">
    <g id="Group_848" data-name="Group 848" transform="translate(409.844 -285)" clip-path="url(#clip-path)">
      <g id="Group_847" data-name="Group 847">
        <path id="Path_2170" data-name="Path 2170" d="M1741.226-1.025a12.554,12.554,0,0,1-.487-1.822,72.675,72.675,0,0,1-.905-9.544c-.143-8.158-.527-16.264-2.83-24.136-2.608-8.965-7.325-16.576-10.981-25.008a83.427,83.427,0,0,1-3.207-10.6,68.869,68.869,0,0,1-.944-7.2.266.266,0,0,0-.006-.065.166.166,0,0,0-.007-.058v.006c-.046-.208-.162-.41-.286-.41a.194.194,0,0,0-.143.1c-5.875,8.971-5.159,22.393-2.9,32.255,2.225,9.661,6.831,18.268,10.695,27.266,2.355,6.251,5.823,17.162,12.048,19.517.046.026.02-.1.02-.131a.973.973,0,0,0-.084-.188ZM1721.709-78.97l.02-.019Zm1.042,6.577a1.617,1.617,0,0,1,.045.182A1.617,1.617,0,0,0,1722.751-72.393Zm5.946,50.784c.045.111.091.227.136.345C1728.788-21.382,1728.742-21.5,1728.7-21.609Z" fill="#0e8080"/>
        <path id="Path_2171" data-name="Path 2171" d="M1762.85,18.567c4.281-10.3,7.84-20.213,5.68-31.637a34.184,34.184,0,0,0-4.983-13.168A74.331,74.331,0,0,1,1757.854-36c-.019-.019-.026-.032-.039-.032s-.039.052-.039.084c.221,5.225,1.965,10.195,3.2,15.218a30.4,30.4,0,0,1,.4,3.395,42.047,42.047,0,0,1-.351,4.7,33.506,33.506,0,0,1-1.223,4.529,29.749,29.749,0,0,1-3.708,5.425c-2.746,3.435-3.455,7.9-4.138,12.1a41.557,41.557,0,0,0,1.015,17.865c1.3,4.7,3.76,9.042,5.692,13.492,1.347,3.1,2.746,7.039,5.361,9.3.052.052.052-.052.052-.078a4.869,4.869,0,0,1-.13-.507v.078a57.573,57.573,0,0,1-.839-9.193v.547c-.117-5.9-1.269-11.665-1.633-17.546.013-.3.039-.605.065-.9A33.063,33.063,0,0,1,1762.85,18.567Z" fill="#0e8080"/>
        <path id="Path_2172" data-name="Path 2172" d="M1789.844,85.316c-.051-.263-.086-.529-.134-.793-.005-.021-.011-.043-.016-.065C1789.746,84.731,1789.8,85.037,1789.844,85.316Z" fill="#0e8080"/>
        <path id="Path_2173" data-name="Path 2173" d="M1795.491,36.934a60.38,60.38,0,0,0-5.849-26.049c-3.116-6.343-7.208-12.153-10.259-18.541-2.1-5.667-3.481-11.529-5.368-17.267-.013-.019-.026-.032-.045-.032s-.039.02-.059.058c0,.079-.026.15-.026.228v-.052a60.962,60.962,0,0,0,.208,22.516c1.672,8.068,5.049,15.614,6.994,23.59a88.689,88.689,0,0,1,.846,9c-.215,12.134-2.05,23.98-1.288,36.2.513,8.236,3.129,20.942,11.183,25.515.078.026.052-.1.052-.123-.13-.228-.228-.482-.332-.716a.07.07,0,0,1,.026.02,44.071,44.071,0,0,1-1.864-6.76c.048.264.083.53.134.793-.046-.279-.1-.585-.15-.858.005.022.011.044.016.065a64.153,64.153,0,0,1-1.011-7.547,52.718,52.718,0,0,1,.618-5.243C1791.49,60.27,1795.588,48.625,1795.491,36.934Z" fill="#0e8080"/>
        <path id="Path_2174" data-name="Path 2174" d="M1804.846,62.715l.011-.031c.067-.206.128-.413.2-.62C1804.983,62.279,1804.911,62.5,1804.846,62.715Z" fill="#0e8080"/>
        <path id="Path_2175" data-name="Path 2175" d="M1815.268,77.757c-.022.071-.045.142-.067.214,0,.011-.006.023-.01.035C1815.217,77.923,1815.242,77.84,1815.268,77.757Z" fill="#0e8080"/>
        <path id="Path_2176" data-name="Path 2176" d="M1818.755,19.849c-.02-.182-.039-.364-.059-.553-.013-.123-.032-.241-.045-.358.013.072.026.15.032.221-.032-.364-.071-.728-.11-1.086-.28-3.663-.293-7.371-.859-10.975a.069.069,0,0,0-.058-.065c-.013,0-.02.007-.02.039-.689,3.35-1.652,6.629-2.108,10.058-.624,4.534-.442,9.108-.7,13.668a66.382,66.382,0,0,1-2.2,10.572c-2.546,7.133-5.423,14.117-7.776,21.314-.186.568-.373,1.137-.545,1.71l-.071.208c.013-.039.026-.072.039-.111-3.65,11.906-5.055,24.058-2.55,36.452,1.672,8.36,4.417,18.86,11.964,23.888.052.027.052-.077.052-.1a42.406,42.406,0,0,1-1.631-4.671c.025.092.037.188.063.28-.039-.13-.072-.274-.111-.417.014.047.034.091.048.137a62.345,62.345,0,0,1-1.44-7.644,106.34,106.34,0,0,1,.28-15.972,110.122,110.122,0,0,1,4.118-18.046c.042-.131.076-.265.118-.4-.065.2-.13.406-.19.609l.007-.026c.062-.208.128-.412.193-.618a128.654,128.654,0,0,0,6.117-29.887c.755-9.9-1.347-18.977-2.6-28.651C1818.729,19.569,1818.742,19.706,1818.755,19.849Zm-7.983,78.5c.04-.455.072-.91.118-1.372l.019-.163Z" fill="#0e8080"/>
        <path id="Path_2177" data-name="Path 2177" d="M1818.716,19.433c-.013-.091-.02-.183-.033-.274a.913.913,0,0,1,.013.137Z" fill="#0e8080"/>
        <path id="Path_2178" data-name="Path 2178" d="M1815,78.615c.06-.2.125-.406.19-.609,0-.012.006-.024.01-.035-.065.206-.131.41-.193.618Z" fill="#0e8080"/>
        <path id="Path_2179" data-name="Path 2179" d="M1812.178,120.343c-.026-.092-.038-.188-.063-.28-.014-.046-.034-.09-.048-.137C1812.106,120.069,1812.139,120.213,1812.178,120.343Z" fill="#0e8080"/>
        <path id="Path_2180" data-name="Path 2180" d="M1835.855,130.536v-.007c0,.012,0,.023,0,.034Z" fill="#0e8080"/>
        <path id="Path_2181" data-name="Path 2181" d="M1848.21,30.953c.071.254.149.481.227.735-1.158-4-2.563-7.924-3.721-11.925,0,.013.006.019.006.033-.175-.664-.3-1.3-.429-1.958,0-.04-.019-.065-.039-.065s-.039.019-.039.065c-.172,5.236,1.125,10.693,1.707,15.915-.017-.17-.033-.342-.054-.516.021.174.037.346.054.516.014.124.037.251.05.375-.013-.091-.027-.183-.039-.273.3,2.979.631,5.965.95,8.939a72.55,72.55,0,0,1,.39,8.971,65.666,65.666,0,0,1-1.815,9.96c-2.778,7.124-7.618,13.226-11.125,19.972a82.692,82.692,0,0,0-8.822,31.566c-.885,13.825,1.907,31.436,11.639,42.209.026.052.052-.045.052-.072a31.055,31.055,0,0,1-.644-4.443l.019.273c-.071-.807-.162-1.613-.24-2.413.026.279.052.585.078.865-.228-2.518-.442-5.016-.69-7.514a71.126,71.126,0,0,1,.124-11.541c-.046.54-.091,1.093-.143,1.646.05-.562.095-1.123.145-1.684,0-.026,0-.053,0-.079v-.02a1.264,1.264,0,0,0,.013-.163,1.484,1.484,0,0,1-.013.183,48.528,48.528,0,0,1,1.21-6.285,115.592,115.592,0,0,1,8.373-17.058,87.924,87.924,0,0,0,9.3-22.9c2.309-9.251,1.7-18.931.708-28.313C1854.507,47.243,1850.623,39.287,1848.21,30.953Zm-12.316,99.062c0,.02-.006.033-.006.046l.019-.28C1835.9,129.859,1835.9,129.937,1835.894,130.015Zm.072-.852c.032-.351.065-.7.091-1.06C1836.031,128.46,1836,128.812,1835.966,129.163Z" fill="#0e8080"/>
        <path id="Path_2182" data-name="Path 2182" d="M1835.849,130.627c0-.021,0-.043,0-.064l0,.026C1835.85,130.6,1835.849,130.614,1835.849,130.627Z" fill="#0e8080"/>
        <path id="Path_2183" data-name="Path 2183" d="M1873.121,52.478c-1.646-3.851-3.695-7.462-4.925-11.444-.884-3.721-1.151-7.533-1.912-11.274-.02-.026-.052-.059-.072-.059s-.032.02-.032.059c.078,4.294-.378,8.464.13,12.758.754,6.349,2.908,12.413,3.792,18.742a60.07,60.07,0,0,1,.17,7.267,55.136,55.136,0,0,1-1.731,8.647c-6.336,17.884-18.495,33.484-22.236,52.305-2.258,11.333-.534,23.785,2.674,34.767a32.256,32.256,0,0,0,7.975,14.358c.052.078.052-.078.052-.1-.409-1.093-.76-2.232-1.092-3.351l.006.046a41.123,41.123,0,0,1-1.269-6.363,88.5,88.5,0,0,1-.266-12.315,98.113,98.113,0,0,1,3.461-15.087c2.628-6.928,7.377-12.731,10.6-19.367a126.727,126.727,0,0,0,9.576-26.283c2.264-9.479,1.731-19.817-.482-29.25A83.313,83.313,0,0,0,1873.121,52.478ZM1854.743,169.86c-.013-.156-.026-.325-.046-.488C1854.717,169.535,1854.73,169.7,1854.743,169.86Z" fill="#0e8080"/>
        <path id="Path_2184" data-name="Path 2184" d="M1892.56,59.277c-3.208-6.011-8.028-12.706-15.133-12.706a12.332,12.332,0,0,0-3.168.43c-9.68,2.537-14.657,16.108-15.906,24.93,0,.052.052.2.078.1a48.86,48.86,0,0,1,3.916-6.336,23.1,23.1,0,0,1,6.233-5.986,14.613,14.613,0,0,1,6.336-1.314,19.481,19.481,0,0,1,5.062,1.874,16.276,16.276,0,0,1,2.231,1.932c.26.371.507.742.742,1.126a61.119,61.119,0,0,1,2.29,5.731c.592,2.687,1.08,5.374,1.457,8.1a127.687,127.687,0,0,1-.254,16.173,85.448,85.448,0,0,1-2.465,12.113c-6.285,17.995-16.805,34.988-19.225,54.115-1.067,8.412.69,15.854,3.279,23.785a53.877,53.877,0,0,0,4.2,10.572c1.438,2.5,3.331,4.677,4.7,7.221v-.007l.006.02c.007.013.007.026.013.032.046.1.085.189.131.28s.1.052.077-.026a77.72,77.72,0,0,0-2.536-9.8,1.077,1.077,0,0,0,.045.15c-.325-1.367-.624-2.687-.833-4.06-.306-3.708-.624-7.417-1.047-11.125a48.1,48.1,0,0,1-.254-5.809,59.888,59.888,0,0,1,1.848-8.822c4.053-11.346,12.237-21.235,17.923-31.787,7.748-14.384,8.132-29.783,7.013-45.689C1898.707,75.841,1896.652,66.947,1892.56,59.277Zm-18.652,129.249q-.019-.216-.039-.429Q1873.888,188.31,1873.908,188.526Zm.67-27.233c.058-.189.111-.378.169-.573C1874.689,160.915,1874.636,161.1,1874.578,161.293Z" fill="#0e8080"/>
        <path id="Path_2185" data-name="Path 2185" d="M1876.933,201.134c0,.019,0,.045.019.045-.006-.006-.006-.019-.013-.032A.026.026,0,0,1,1876.933,201.134Z" fill="#0e8080"/>
        <path id="Path_2186" data-name="Path 2186" d="M1885.969,204.634c0-.011,0-.021,0-.033v.033Z" fill="#0e8080"/>
        <path id="Path_2187" data-name="Path 2187" d="M1911.256,82.2c.026.124.072.254.1.378-.15-.508-.306-1.041-.456-1.575.027.1.079.2.105.306-.332-1.451-.69-2.895-.892-4.372,0-.052,0-.052-.026-.052a.1.1,0,0,0-.052.078c-1.958,11.385,1.269,23.076,2.316,34.435,0,.761-.052,1.5-.1,2.264a62.1,62.1,0,0,1-1.7,6.453,56.265,56.265,0,0,1-2.719,6.33c-3.026,5.283-6.454,10.266-9.428,15.549a.647.647,0,0,1-.058.078c-.065.117-.13.221-.2.332-3.481,6.07-7.345,11.918-10.37,18.242a63.683,63.683,0,0,0-5.946,23.739c-.593,9.375-.827,18.678,3.291,27.012a15.387,15.387,0,0,1,1.438,1.7c.286.371.573.735.859,1.1a84.341,84.341,0,0,1-1.418-9.284,1.63,1.63,0,0,0-.025-.313c0,.012,0,.022,0,.033V204.6a62.685,62.685,0,0,1,.376-8.353,141.707,141.707,0,0,1,4.118-17.435,89.6,89.6,0,0,1,3.559-8.334c9.277-15.015,20.278-29,24.448-46.554,1.958-8.21,2.668-16.238-.41-24.247C1915.83,93.862,1913.182,88.091,1911.256,82.2ZM1886.45,195.514c0-.105.026-.228.026-.332C1886.476,195.286,1886.45,195.409,1886.45,195.514Zm4.294-17.637c.078-.254.156-.508.228-.736C1890.9,177.369,1890.822,177.623,1890.744,177.877Zm2.16-5.387.917-1.679h.007C1893.528,171.384,1893.2,171.937,1892.9,172.49Z" fill="#0e8080"/>
        <path id="Path_2188" data-name="Path 2188" d="M1898.319,142.094c.025-.025.025-.052.052-.077l-.04.058C1898.331,142.081,1898.325,142.094,1898.319,142.094Z" fill="#0e8080"/>
        <path id="Path_2189" data-name="Path 2189" d="M1885.993,204.915v0Z" fill="#0e8080"/>
        <path id="Path_2190" data-name="Path 2190" d="M1898.369,142.015c.091-.182.2-.371.286-.527-.084.169-.182.338-.273.5C1898.376,142,1898.376,142.009,1898.369,142.015Z" fill="#0e8080"/>
        <path id="Path_2191" data-name="Path 2191" d="M1911.63,239.73c.026.052.052.091.071.129-.008-.013-.011-.027-.019-.04C1911.663,239.789,1911.649,239.759,1911.63,239.73Z" fill="#0e8080"/>
        <path id="Path_2192" data-name="Path 2192" d="M1936.69,142.521c-.007.013-.013.02-.02.033a.3.3,0,0,1-.032.065A.68.68,0,0,1,1936.69,142.521Z" fill="#0e8080"/>
        <path id="Path_2193" data-name="Path 2193" d="M1938.973,138.188c-.006,0-.013.007-.026.013-4.853,4.678-8.945,9.863-11.079,16.343-2.986,8.984-1.281,18.665-.416,27.87q.009,2.577-.215,5.153c-.286,1.463-.618,2.9-1,4.339-.378.969-.794,1.919-1.249,2.863-2.408,3.753-5.569,6.954-7.82,10.831-2.947,5.056-5.745,10.345-7.319,16.011-1.791,6.315-1.8,12.681,1.828,18.208.016.026.029.053.046.079a.968.968,0,0,0,.058.085.968.968,0,0,1-.058-.085c.264.425.517.851.741,1.276v-.02a5.279,5.279,0,0,0,.839,1.392c.052.052.079-.071.079-.1-.027-.208-.053-.436-.079-.638v.078c0-.227-.026-.481-.026-.715v.13a6.194,6.194,0,0,0-.078-.963v.2c0-.306-.019-.612-.019-.917v.279c-.026-.819-.111-1.646-.157-2.472a43.245,43.245,0,0,1,.085-5.654c.078-.475.169-.936.286-1.405.391-1.041.859-2.056,1.347-3.044.481-.748,1.015-1.458,1.568-2.154,6.6-7.084,14.326-13.258,18.086-22.451a46.3,46.3,0,0,0,2.9-18.957c-.247-6.37-2.322-11.919-4.137-17.9a61.888,61.888,0,0,1-1.516-9.342,16.008,16.008,0,0,1,.084-1.666c.2-.984.417-1.936.675-2.9-.072.2-.169.393-.239.6.1-.28.2-.586.3-.859-.025.087-.038.174-.061.261a66,66,0,0,1,4.153-9.193.238.238,0,0,0-.026.032c.035-.053.063-.109.093-.163.014-.03.031-.054.043-.084.241-.423.469-.846.7-1.249a1.358,1.358,0,0,0-.124.2c.6-1.067,1.165-2.134,1.75-3.2C1939,138.28,1939,138.188,1938.973,138.188Zm-5.965,27.181c-.046-.175-.1-.358-.157-.533C1932.91,165.011,1932.962,165.194,1933.008,165.369Zm-1.25-10.734c.033-.254.066-.5.1-.755C1931.824,154.134,1931.791,154.381,1931.758,154.635Z" fill="#0e8080"/>
        <path id="Path_2194" data-name="Path 2194" d="M1936.56,142.769c.026-.046.052-.1.078-.15l-.011.019C1936.6,142.683,1936.583,142.733,1936.56,142.769Z" fill="#0e8080"/>
        <path id="Path_2195" data-name="Path 2195" d="M1932.168,152.56c.07-.205.167-.4.239-.6.023-.087.036-.174.061-.261C1932.37,151.974,1932.266,152.28,1932.168,152.56Z" fill="#0e8080"/>
        <path id="Path_2196" data-name="Path 2196" d="M1901.552,229.417c0-.023,0-.045,0-.068l0-.036Z" fill="#0e8080"/>
        <path id="Path_2197" data-name="Path 2197" d="M1920.633,159.279c-11.97,8.23-19.8,21.092-23.225,35.066-2.824,11.541-1.5,25.392,4.144,36.035.02.1.072-.046.072-.071l-.07-.96c0,.023,0,.045,0,.068v-.1l0,.036c-.093-2.825.376-5.569.479-8.37.163-4.755.241-9.667.781-14.41a90.025,90.025,0,0,1,2.648-11.411,116.527,116.527,0,0,1,5.888-12.771,71.766,71.766,0,0,1,7.214-10.155,90.863,90.863,0,0,1,20.489-16.627c-.024.014-.049.024-.074.038.13-.079.28-.176.41-.254-.117.069-.22.146-.336.216a64.35,64.35,0,0,1,11.415-5.2c.052,0,.078-.15.026-.15a30.612,30.612,0,0,0-3.1-.156C1938.016,150.1,1928.114,154.153,1920.633,159.279Zm-1.991,12.862c.221-.247.443-.5.67-.768C1919.085,171.64,1918.863,171.894,1918.642,172.141Z" fill="#0e8080"/>
        <path id="Path_2198" data-name="Path 2198" d="M1938.979,155.643c.025-.014.05-.024.074-.038.116-.07.219-.147.336-.216C1939.259,155.467,1939.109,155.564,1938.979,155.643Z" fill="#0e8080"/>
        <path id="Path_2199" data-name="Path 2199" d="M1930.719,248.736c-.008-.2.016-.4.009-.6-.007-.087-.028-.173-.034-.26C1930.694,248.15,1930.719,248.456,1930.719,248.736Z" fill="#0e8080"/>
        <path id="Path_2200" data-name="Path 2200" d="M1948.077,186.45c-.15.43-.28.865-.43,1.295.02-.026.02-.078.046-.124-.917,2.759-1.861,5.5-2.746,8.269l-.1.293.1-.293a51.587,51.587,0,0,1-3.051,7.345c-2.622,4.313-6.206,7.9-8.685,12.361a66.653,66.653,0,0,0-7.065,18.886c-1.119,5.283-1.477,10.949.761,15.985,1.223,2.791,3.175,4.775,5.211,6.986.026.053.078-.1.078-.129-.544-3.063-1.221-6.1-1.468-9.193.007.2-.017.4-.009.6,0-.28-.025-.586-.025-.865.006.087.027.173.034.26a33.206,33.206,0,0,1,.063-4.43,39.545,39.545,0,0,1,1.249-4.906c2.869-8.034,6.4-15.795,9.707-23.629a79.744,79.744,0,0,0,6.408-28.716c0-.045-.013-.058-.033-.058A.058.058,0,0,0,1948.077,186.45Z" fill="#0e8080"/>
        <path id="Path_2201" data-name="Path 2201" d="M1742.455,1.01c-.013-.032-.026-.065-.04-.1l.015.038A.249.249,0,0,0,1742.455,1.01Z" fill="#0e8080"/>
        <path id="Path_2202" data-name="Path 2202" d="M1745.734,13.4a.384.384,0,0,1,.017.035.164.164,0,0,1-.01-.022A.024.024,0,0,0,1745.734,13.4Z" fill="#0e8080"/>
        <path id="Path_2203" data-name="Path 2203" d="M1745.751,13.438a1,1,0,0,0,.1.219,1.123,1.123,0,0,1-.065-.143C1745.777,13.487,1745.763,13.463,1745.751,13.438Z" fill="#0e8080"/>
        <path id="Path_2204" data-name="Path 2204" d="M1789.193,88.843c-.527-.644-1.029-1.294-1.523-1.951-.514-.658-1.021-1.347-1.5-2a78.968,78.968,0,0,1-4.293-7.17c-2.72-4.774-5.517-9.53-8.211-14.332-1.5-2.667-2.947-5.334-4.293-8.079-.657-1.295-1.347-2.59-2-3.917-.69-1.347-1.4-2.642-2.062-3.988-.586-1.217-1.146-2.466-1.731-3.708-.553-1.119-1.086-2.238-1.646-3.357-.611-1.217-1.249-2.414-1.86-3.63-.684-1.3-1.3-2.6-1.952-3.917-1.093-2.264-2.264-4.5-3.435-6.707-1.139-2.134-2.16-4.32-3.279-6.454-.631-1.223-1.191-2.466-1.8-3.689-.586-1.145-1.171-2.309-1.75-3.48-.612-1.2-1.249-2.362-1.835-3.559-.527-1.08-1.054-2.16-1.561-3.266.006.013.006.026.013.039a.981.981,0,0,0-.052-.117.589.589,0,0,0-.052-.11.083.083,0,0,1,.019.026c-.65-1.516-1.275-3.032-1.951-4.522l-.015-.038c-1.274-2.9-2.522-5.837-3.642-8.81-.787-2.133-1.548-4.267-2.466-6.33v.052c-.305-.708-.585-1.4-.891-2.107a.063.063,0,0,0-.065-.059.085.085,0,0,0-.084.111c.657,2.029,1.372,4.066,1.932,6.148.683,2.517,1.47,5.009,2.309,7.475.97,2.816,1.985,5.64,3,8.437.931,2.6,2.082,5.108,3.234,7.586.013.033.032.065.046.1.025.052.052.11.078.169-.007-.013-.013-.019-.013-.026.253.579.507,1.164.761,1.743-.02-.052-.033-.091-.052-.143l1.073,2.421-.019-.059q3.395,7.778,7.2,15.347c.533,1.067.989,2.16,1.522,3.207.332.657.612,1.321.944,1.978.351.742.761,1.477,1.145,2.186.533,1.041,1.04,2.107,1.6,3.155.6,1.19,1.19,2.414,1.776,3.6,1.242,2.622,2.693,5.107,4.092,7.625,1.5,2.719,2.973,5.439,4.6,8.08,2.947,4.782,6.076,9.453,9.2,14.13,1.119,1.705,2.264,3.435,3.4,5.133a31.308,31.308,0,0,0,2.746,3.611c.741.839,1.5,1.678,2.238,2.518.689.761,1.45,1.444,2.133,2.231V90.4a4.8,4.8,0,0,1,.306.429c.052.078.176,0,.13-.1a15.293,15.293,0,0,0-1.45-1.906Z" fill="#0e8080"/>
        <path id="Path_2205" data-name="Path 2205" d="M1744.453,5.635a.888.888,0,0,0-.072-.162.488.488,0,0,0,.033.084Z" fill="#0e8080"/>
        <path id="Path_2206" data-name="Path 2206" d="M1745.741,13.416a.164.164,0,0,0,.01.022c.012.025.026.049.036.076C1745.773,13.481,1745.754,13.449,1745.741,13.416Z" fill="#0e8080"/>
        <path id="Path_2207" data-name="Path 2207" d="M1809.977,119.856c-.011-.018-.029-.03-.041-.047l.022.028Z" fill="#0e8080"/>
        <path id="Path_2208" data-name="Path 2208" d="M1854.652,174.068a.155.155,0,0,0-.032-.039l.019.026C1854.646,174.061,1854.646,174.068,1854.652,174.068Z" fill="#0e8080"/>
        <path id="Path_2209" data-name="Path 2209" d="M1853.351,172.5a1.227,1.227,0,0,0-.091-.11l.058.078C1853.331,172.481,1853.338,172.494,1853.351,172.5Z" fill="#0e8080"/>
        <path id="Path_2210" data-name="Path 2210" d="M1851.764,170.574l-.059-.071a.1.1,0,0,1,.02.026.155.155,0,0,1,.032.039Z" fill="#0e8080"/>
        <path id="Path_2211" data-name="Path 2211" d="M1809.936,119.809c-.047-.064-.1-.13-.141-.181.046.052.092.117.137.176Z" fill="#0e8080"/>
        <path id="Path_2212" data-name="Path 2212" d="M1859.427,179.657c-1.58-1.861-3.187-3.728-4.775-5.589,0,.007.007.007.007.013a.086.086,0,0,0-.02-.026l-.039-.039c.007,0,.013.007.02.013-.43-.514-.839-1.028-1.269-1.529a.02.02,0,0,0,.007.013l-.04-.045a.6.6,0,0,0-.091-.1.1.1,0,0,1,.033.026c-.488-.618-.989-1.217-1.5-1.816l-.007-.006a.155.155,0,0,0-.032-.039c-.345-.423-.69-.852-1.035-1.269l.039.039c-1.236-1.522-2.517-3-3.78-4.508-1.444-1.731-2.869-3.461-4.345-5.139-1.392-1.6-2.739-3.2-4.112-4.8-.585-.709-1.171-1.425-1.783-2.108-.533-.637-1.119-1.242-1.652-1.906l.228.306c-.788-.969-1.523-1.958-2.258-2.947-.787-1.041-1.6-2.062-2.413-3.051-.742-.943-1.451-1.906-2.212-2.843-.436-.54-.865-1.093-1.295-1.627-.351-.41-.7-.819-1.041-1.223-1.847-2.283-3.643-4.586-5.517-6.837a1.1,1.1,0,0,0,.124.169c-1.574-1.939-3.214-3.819-4.834-5.738l.007.007c-1.4-1.757-2.772-3.481-4.19-5.186l.228.306c-.638-.781-1.282-1.555-1.926-2.335a.115.115,0,0,0-.026-.033c-.059-.078-.124-.15-.182-.228a.3.3,0,0,0,.045.052c-1.034-1.3-2.062-2.589-3.1-3.864a45.983,45.983,0,0,1-2.9-4.111c-1.88-2.9-3.741-5.771-5.517-8.718-.963-1.627-1.932-3.253-2.973-4.853-1.041-1.582-2.082-3.182-3.1-4.782-1.066-1.653-2.107-3.35-3.1-5.055-.944-1.6-1.958-3.149-2.947-4.73a.069.069,0,0,0-.059-.039.081.081,0,0,0-.071.117c.533,1.067,1.093,2.108,1.652,3.175.637,1.171,1.2,2.394,1.8,3.585,1.171,2.387,2.492,4.73,3.786,7.065.612,1.041,1.224,2.108,1.809,3.175.611,1.171,1.19,2.342,1.8,3.487,1.171,2.257,2.414,4.495,3.689,6.707,1.086,1.906,2.179,3.813,3.428,5.64.683.99,1.425,1.959,2.134,2.922.735,1,1.5,2.01,2.264,2.973,1.392,1.808,2.791,3.636,4.19,5.465,1.574,2.081,3.227,4.066,4.905,6.076a1.35,1.35,0,0,1-.136-.156q2.068,2.575,4.124,5.159c.69.891,1.4,1.782,2.134,2.641.481.546.956,1.067,1.418,1.62a.3.3,0,0,0-.045-.039c.637.787,1.3,1.548,1.932,2.335-.013-.026-.032-.052-.046-.078.612.755,1.21,1.51,1.829,2.264-.079-.1-.183-.227-.254-.332.676.84,1.353,1.653,2.036,2.473,0-.007,0-.007-.006-.007,1.171,1.477,2.342,2.947,3.636,4.32,1.217,1.249,2.388,2.544,3.559,3.838,2.791,3.052,5.64,6,8.438,9.024,1.294,1.418,2.641,2.791,3.936,4.189,1.373,1.477,2.745,2.947,4.144,4.4,1.652,1.705,3.3,3.331,4.931,5.01.885.91,1.776,1.854,2.668,2.739.963.969,1.932,1.932,2.843,2.953a.083.083,0,0,0,.129-.1c-.839-1.093-1.756-2.134-2.647-3.2C1861.21,181.816,1860.319,180.749,1859.427,179.657Zm-43.861-52.937a1.081,1.081,0,0,1,.143.169A1.081,1.081,0,0,0,1815.566,126.72Zm5.12,6.082c.039.046.084.1.117.143C1820.77,132.9,1820.725,132.848,1820.686,132.8Z" fill="#0e8080"/>
        <path id="Path_2213" data-name="Path 2213" d="M1809.958,119.837l-.022-.028,0,0A.115.115,0,0,1,1809.958,119.837Z" fill="#0e8080"/>
        <path id="Path_2214" data-name="Path 2214" d="M1877.651,202.508a.919.919,0,0,1-.065-.082l-.136-.165C1877.515,202.345,1877.58,202.423,1877.651,202.508Z" fill="#0e8080"/>
        <path id="Path_2215" data-name="Path 2215" d="M1890.715,217.835l.005.007.027.032C1890.734,217.861,1890.721,217.842,1890.715,217.835Z" fill="#0e8080"/>
        <path id="Path_2216" data-name="Path 2216" d="M1992.646,298.571c-2.186-1.093-4.32-2.29-6.454-3.506-1.808-1.042-3.61-2.057-5.412-3.1-1.933-1.093-3.813-2.231-5.719-3.4-1.808-1.093-3.585-2.238-5.387-3.357s-3.558-2.271-5.295-3.448c-2.726-2.043-5.426-4.112-8.074-6.207-1.171-.917-2.335-1.828-3.48-2.771-1.295-1.093-2.648-2.134-3.969-3.2-2.2-1.8-4.372-3.637-6.6-5.387-2.316-1.828-4.678-3.558-6.968-5.386-1.041-.839-2.108-1.653-3.148-2.518-.892-.761-1.777-1.522-2.694-2.264-1.8-1.47-3.533-3.019-5.211-4.645-1.906-1.809-3.682-3.741-5.562-5.569-1.933-1.906-3.865-3.812-5.771-5.745-1.2-1.216-2.388-2.439-3.611-3.656-1.32-1.32-2.563-2.719-3.812-4.092-2.765-3.051-5.484-6.128-8.106-9.3.1.13.182.228.28.358-.586-.735-1.191-1.477-1.8-2.212a.826.826,0,0,1,.117.136c-.612-.774-1.236-1.522-1.874-2.27a.963.963,0,0,1,.085.085c-1.523-1.874-3.123-3.67-4.73-5.446s-3.155-3.558-4.808-5.263c-1.093-1.171-2.16-2.361-3.226-3.558-.931-1.009-1.887-2.011-2.765-3.065l.045.065c-.683-.839-1.4-1.652-2.134-2.439-.865-.963-1.776-1.88-2.667-2.817-1.145-1.223-2.264-2.466-3.383-3.715-1.067-1.216-2.108-2.466-3.2-3.682-1.269-1.4-2.517-2.8-3.812-4.2-1.321-1.418-2.694-2.817-4.066-4.216-2.538-2.544-5.081-5.133-7.671-7.625a.081.081,0,0,0-.058-.026.107.107,0,0,0-.072.156q2.6,2.86,5.107,5.843c1.783,2.055,3.585,4.092,5.315,6.2-.006-.006-.006-.006-.006-.013.729.879,1.457,1.783,2.192,2.681-.052-.046-.078-.1-.13-.15,1.854,2.284,3.611,4.626,5.465,6.935.911,1.171,1.854,2.29,2.817,3.409.7.84,1.464,1.653,2.16,2.492-.02-.033-.046-.065-.072-.1.475.6.989,1.216,1.5,1.828s.982,1.236,1.477,1.861v-.007a2.025,2.025,0,0,0,.136.172c.317.383.643.769.956,1.155v-.006c1.471,1.808,3,3.584,4.548,5.341,1.093,1.216,2.134,2.492,3.227,3.76s2.212,2.544,3.3,3.838c-.1-.1-.176-.2-.28-.305.466.529.913,1.078,1.378,1.633l-.005-.007c.006.007.019.026.032.039l-.027-.032c1.8,2.262,3.581,4.543,5.433,6.753,1.75,2.133,3.585,4.17,5.439,6.226,1.627,1.8,3.253,3.636,4.931,5.412,1.549,1.627,3.149,3.2,4.724,4.8,1.984,1.985,3.988,3.917,5.972,5.9,1.828,1.854,3.61,3.734,5.517,5.511,1.6,1.548,3.305,3,5.029,4.423.891.71,1.73,1.425,2.595,2.16,1.139.989,2.388,1.881,3.553,2.824,2.263,1.828,4.651,3.526,6.915,5.334,2.29,1.855,4.547,3.735,6.837,5.589,1.094.891,2.212,1.757,3.279,2.641,1.5,1.223,3.026,2.368,4.522,3.533,1.269.969,2.57,1.906,3.838,2.849s2.564,1.906,3.91,2.772c2.8,1.8,5.693,3.428,8.594,5.107s5.842,3.278,8.841,4.8c1.4.715,2.772,1.425,4.145,2.108.839.436,1.652.839,2.491,1.275.859.429,1.724.813,2.615,1.216,2.974,1.373,6.051,2.642,9.122,3.839,4.066,1.548,8.158,3,12.276,4.45.078.019.13-.13.052-.157-4.4-1.932-8.8-3.89-13.142-5.893C1996.328,300.451,1994.5,299.514,1992.646,298.571Zm-116.875-98.425c.039.052.085.111.13.163C1875.856,200.257,1875.81,200.2,1875.771,200.146Zm15.061,17.826c.052.065.1.123.162.2C1890.936,218.1,1890.884,218.037,1890.832,217.972Z" fill="#0e8080"/>
        <path id="Path_2217" data-name="Path 2217" d="M1752.377,35.73l-.028-.014-.031-.013A.219.219,0,0,1,1752.377,35.73Z" fill="#0e8080"/>
        <path id="Path_2218" data-name="Path 2218" d="M1752.4,35.736a.366.366,0,0,1-.047-.02l.028.014Z" fill="#0e8080"/>
        <path id="Path_2219" data-name="Path 2219" d="M1752.349,35.716c-.09-.047-.184-.1-.285-.136.085.039.169.084.254.123Z" fill="#0e8080"/>
        <path id="Path_2220" data-name="Path 2220" d="M1757.744,38.475a.157.157,0,0,1,.039.032c-1.822-.871-3.578-1.893-5.406-2.777a.219.219,0,0,0-.059-.027c-.085-.039-.169-.084-.254-.123l-.253-.124.253.124a52.6,52.6,0,0,1-6.629-4.047,73.718,73.718,0,0,1-6.981-6.317,70.631,70.631,0,0,1-5.783-7.553c-3.045-5.419-4.749-11.606-8.028-16.921-5.4-8.828-13.727-13.448-22.978-17.195a31.945,31.945,0,0,1-3.227-1.951,33.359,33.359,0,0,1-2.778-2.342c-.761-.853-1.47-1.738-2.153-2.661a37.579,37.579,0,0,1-2.837-5.842,24.937,24.937,0,0,1-1.047-4.762c-.02-2.785.1-5.914,1.19-8.491a7.212,7.212,0,0,1,.794-1.177c.039-.039-.026-.1-.078-.1-.013,0-.02,0-.026.006-2.616,1.347-3.6,4.47-4.5,7.111-1.268,3.689-.709,8.314.612,11.918,3.064,8.445,9.069,14.163,16.225,19.212a48.107,48.107,0,0,1,3.845,3.227l.111.13c3.324,5.64,6.1,11.58,9.96,16.9A86.242,86.242,0,0,0,1731.6,29.562,40.329,40.329,0,0,0,1749.4,38.15c2.9.637,6.174,1.249,9.147.741.078,0-.052-.1-.052-.1C1758.225,38.69,1757.985,38.573,1757.744,38.475Zm-68.121-72.5c-.007-.071-.013-.136-.026-.2C1689.61-34.161,1689.616-34.1,1689.623-34.025Zm0,.157v0ZM1697.3-19.2c.2.143.4.285.593.422C1697.7-18.919,1697.5-19.061,1697.3-19.2Z" fill="#0e8080"/>
        <path id="Path_2221" data-name="Path 2221" d="M1781.572,86.032c.331.253.637.481.943.735-2.8-2.336-5.693-4.522-8.568-6.76.481.384.969.761,1.425,1.145-5.693-4.625-11.359-8.691-18.327-11.235-8.145-3.012-16.6-3.845-25.138-4.821a100.733,100.733,0,0,1-11.124-2.713,93.432,93.432,0,0,1-8.881-3.877,103.1,103.1,0,0,1-10.116-7.072,46.049,46.049,0,0,1-4.905-4.853,50.092,50.092,0,0,1-5.517-9.323,27.3,27.3,0,0,1-1.289-10.415,8.326,8.326,0,0,1,1.36-3.233,6.1,6.1,0,0,1,2.258-1.757c.149-.046.306-.085.462-.117.384-.026.761-.026,1.138-.052.078,0,.026-.052-.026-.079a8,8,0,0,0-3.064-.637c-4.762,0-8.457,4.69-9.134,9.538-1.041,7.6,1.555,14.2,5.8,20.427,6.1,8.92,15.476,14.586,25.059,19.114,9.518,4.5,19.4,5.842,29.628,7.085a97.4,97.4,0,0,1,13.265,3,189.01,189.01,0,0,1,19.165,8.366c4.7,2.284,10.618,4.906,15.959,4.951.071,0,.026-.071,0-.1a16.428,16.428,0,0,1-1.575-.748A71.687,71.687,0,0,1,1781.572,86.032Zm-79.1-34.025c.234.195.468.383.7.579C1702.937,52.39,1702.7,52.2,1702.469,52.007Z" fill="#0e8080"/>
        <path id="Path_2222" data-name="Path 2222" d="M1812.144,125.777c.006,0,.006.007.006.013-9.908-5.744-18.7-12.855-29.958-16.055a124.749,124.749,0,0,0-19.9-3.741c-8.028-.963-16.134-.846-24.2-1.516a108.208,108.208,0,0,1-12.361-2.759c-1.873-.67-3.7-1.424-5.53-2.277a72.412,72.412,0,0,1-7.794-5.406c-.4-.325-.806-.65-1.21-.969.17.13.339.266.521.4a53.63,53.63,0,0,1-6.142-6.005,65.151,65.151,0,0,1-7.988-14.1,16.106,16.106,0,0,1-.671-5.673,10.282,10.282,0,0,1,2.154-4.7,9.382,9.382,0,0,1,2.81-1.952c-.026,0-.052.026-.078.026a11.756,11.756,0,0,0,1.321-.611c.078-.052-.072-.1-.1-.1-.481.072-.943.15-1.424.2a.086.086,0,0,1,.032-.02,11.822,11.822,0,0,0-7.377,3.422c-3.2,3.182-3.279,7.651-2.616,11.821,1.653,10.6,10.188,19.01,18.119,25.359,9.628,7.729,22.666,11.288,34.714,12.478,9.284.9,18.594,1.432,27.884,2.466a147.748,147.748,0,0,1,21.137,4.346q5.181,1.562,10.318,3.1c2.667.787,5.666,2.309,8.464,2.388.078,0,.026-.079-.026-.1A1.1,1.1,0,0,0,1812.144,125.777Zm-107.129-39c.117.137.227.28.344.417C1705.242,87.062,1705.132,86.919,1705.015,86.782Zm8.164,7.885c.163.124.319.248.475.377C1713.5,94.915,1713.342,94.791,1713.179,94.667Zm57.576,21.189c.175.026.351.046.527.072C1771.106,115.9,1770.93,115.882,1770.755,115.856Z" fill="#0e8080"/>
        <path id="Path_2223" data-name="Path 2223" d="M1765.144,114.951c-.905-.1-1.811-.2-2.717-.294l-.055,0C1763.289,114.749,1764.2,114.853,1765.144,114.951Z" fill="#0e8080"/>
        <path id="Path_2224" data-name="Path 2224" d="M1786.183,113.728c-9.511-4.886-19.374-7.924-29.731-10.39-5.439-1.295-10.982-1.978-16.466-2.895a158.848,158.848,0,0,1-16.108-3.513,68.071,68.071,0,0,1-9.505-4.04,47.55,47.55,0,0,1-7.729-4.925,36.6,36.6,0,0,1-6.3-7.052,46.951,46.951,0,0,1-4.755-9.668c0-.032-.053-.058-.1-.058s-.052.006-.052.032c.4,13.669,10.162,25.49,21.547,31.917,13.963,7.929,29.739,9.835,45.445,11.521,3.828.425,7.66.712,11.467,1.1,3.083.4,6.128.917,9.212,1.125,2.875.208,5.77.156,8.646.462-.1-.026-.208-.026-.306-.052,1.093.149,2.186.253,3.279.377.071,0,.071-.072.026-.1-3.077-1.25-6.18-2.668-9.154-4.145C1785.8,113.526,1785.988,113.624,1786.183,113.728Zm-79.532-25.756c.2.175.4.325.572.5C1707.054,88.3,1706.852,88.147,1706.651,87.972Z" fill="#0e8080"/>
        <path id="Path_2225" data-name="Path 2225" d="M1774.505,130.3c.527.267,1.047.534,1.567.807a1.742,1.742,0,0,1,.189.091C1775.676,130.9,1775.09,130.589,1774.505,130.3Z" fill="#0e8080"/>
        <path id="Path_2226" data-name="Path 2226" d="M1833.459,151.154c.007,0,.02.006.026.006-1.8-.2-3.6-.358-5.387-.533l.69.078c-1.08-.117-2.153-.222-3.233-.332a98.9,98.9,0,0,1-15.627-3.175,100.783,100.783,0,0,1-12.348-4.619c-4.881-2.618-9.7-5.338-14.658-7.875-.015-.008-.029-.016-.045-.023-.065-.039-.13-.072-.195-.1q-3.279-1.756-6.61-3.474a61.819,61.819,0,0,0-27.74-6.909,56.868,56.868,0,0,0-10.018.891c-5.719,1.015-11.535,2.388-17.2,3.787-5.029,1.255-10.1,2.765-15.262,3.253-1.587.025-3.149-.072-4.73-.2-2.576-.3-5.146-.7-7.735-.95-.052,0-.078.079,0,.1a104,104,0,0,0,12.706,3.455c6.4,1.08,13.336.293,19.8-.319,7.989-.559,16.037-1.216,24.032-.566,2.394.4,4.749.924,7.085,1.536,1.574.553,3.1,1.158,4.625,1.841,7.709,4.215,15.425,8.679,23.538,11.97,8.971,3.611,18.378,4.574,27.929,5.237,7.319.482,14.82.1,21.579-2.927.078-.02-.052-.072-.078-.072C1834.221,151.212,1833.843,151.193,1833.459,151.154Zm-106.8-17c.163-.013.319-.026.482-.045C1726.974,134.128,1726.818,134.141,1726.655,134.154Zm55.832.326c-.553-.293-1.119-.579-1.678-.879C1781.368,133.9,1781.934,134.187,1782.487,134.48Zm-.234-.117c.163.084.325.162.488.246l.084.046C1782.637,134.557,1782.441,134.46,1782.253,134.363Zm26.484,12.5c.183.053.378.1.56.157C1809.115,146.971,1808.92,146.919,1808.737,146.866Z" fill="#0e8080"/>
        <path id="Path_2227" data-name="Path 2227" d="M1782.832,134.655l-.085-.046c.046.027.091.046.13.072.016.007.03.015.045.023C1782.892,134.689,1782.862,134.671,1782.832,134.655Z" fill="#0e8080"/>
        <path id="Path_2228" data-name="Path 2228" d="M1843.788,176.673l.241.031.012,0C1843.957,176.692,1843.872,176.686,1843.788,176.673Z" fill="#0e8080"/>
        <path id="Path_2229" data-name="Path 2229" d="M1844.087,176.712a.119.119,0,0,0-.046-.006h.01Z" fill="#0e8080"/>
        <path id="Path_2230" data-name="Path 2230" d="M1857.716,179.724c-.351-.091-.7-.195-1.053-.292.175.045.357.123.533.175-.56-.175-1.119-.332-1.7-.507.233.078.461.123.663.2a76.151,76.151,0,0,0-12.1-2.594l-.022,0a206.489,206.489,0,0,0-23.48-1.566c-4.547,0-9.069-.235-13.616-.261-1.627,0-3.227.026-4.853.026-2.876.046-5.745.085-8.646-.1a89.9,89.9,0,0,1-9.551-2.024,107.667,107.667,0,0,1-13.6-5.217,110.432,110.432,0,0,1-13.466-8.614c-8.516-7.78-13.864-18.248-21.834-26.589a64.9,64.9,0,0,0-17.962-12.933c.026.02.045.033.072.052-1.093-.585-2.238-1.171-3.357-1.73a.1.1,0,0,0,.052.019c-.573-.319-1.165-.663-1.724-1.008a.126.126,0,0,0-.078-.02c-.046,0-.085.013-.052.046,2.335,2.361,5.2,4.112,7.741,6.194a58.775,58.775,0,0,1,9.674,12.029c5.218,8.444,9.3,17.343,15.5,25.229,3.227,4.118,7.722,7.319,11.84,10.5a58.315,58.315,0,0,0,15.783,8.789,112.363,112.363,0,0,0,32.834,6.453c7.781.365,15.595-.884,23.336-1.639,9.805-.527,19.94-1.151,29.582-3.142a12.913,12.913,0,0,0,2.3-.332c.013,0,.019.007.032.007h.014c-.007-.007-.007-.007-.007-.013a.343.343,0,0,0,.084-.014.216.216,0,0,0-.077.027h.006c.123,0,.325-.1.2-.228-.261-.306-.989-.416-1.419-.527A6.143,6.143,0,0,0,1857.716,179.724Zm-128.123-44.336c.065.091.124.182.182.279C1729.717,135.57,1729.658,135.479,1729.593,135.388Zm130.732,45.162a.054.054,0,0,0-.032.007A.054.054,0,0,1,1860.325,180.55Z" fill="#0e8080"/>
        <path id="Path_2231" data-name="Path 2231" d="M1771.247,203.428c.034,0,.066.015.1.018.332.025.661.027.993.054C1771.956,203.474,1771.6,203.448,1771.247,203.428Z" fill="#0e8080"/>
        <path id="Path_2232" data-name="Path 2232" d="M1882.482,210.136c.062.005.123.013.185.018.088.007.183,0,.27.008C1882.787,210.162,1882.631,210.136,1882.482,210.136Z" fill="#0e8080"/>
        <path id="Path_2233" data-name="Path 2233" d="M1885.227,209.576c-16.316-9.14-34.5-2.745-51.707-.553a95.994,95.994,0,0,1-10.591-.195,55.587,55.587,0,0,1-6.467-1.087c-11.21-3.564-22.282-7.995-34.188-8.4-.813-.026-1.626-.039-2.446-.039a93.771,93.771,0,0,0-16.075,1.483c-3.969.716-7.6,2.388-11.333,3.735h.071a.563.563,0,0,0-.2.026h.079c-.28.026-.56.026-.84.026-.052,0-.1.078-.026.078a7.846,7.846,0,0,0,3.052-.228c2.205-.436,4.41-.819,6.668-1.054a63.735,63.735,0,0,1,10.125.083c-.034,0-.066-.014-.1-.018.358.02.709.046,1.093.072-.332-.027-.661-.029-.993-.054a54.694,54.694,0,0,1,7.772,1.388,45.967,45.967,0,0,1,6.987,2.817c5.771,3.441,11.131,7.071,17.39,9.726a59.628,59.628,0,0,0,25.971,4.4c13.642-.528,25.86-6.259,38.565-10.462a54.091,54.091,0,0,1,6.3-1.06,56,56,0,0,1,8.331-.1c-.062-.005-.123-.013-.185-.018.149,0,.3.026.455.026-.087-.008-.182,0-.27-.008.9.074,1.808.188,2.684.261h-.176c.429.027.865.072,1.295.124h-.052c.039.02.091.039.143.065.006.007.019.026.032.046a.1.1,0,0,0-.019.071V210.7c0,.046-.026.072-.026.1-.052.078.1.052.123.052.716-.508-1.32-1.217-1.652-1.4C1885.1,209.5,1885.149,209.524,1885.227,209.576Zm-123.8-6.232.2-.02Zm25.165,4.554c.26.137.514.266.774.4C1787.1,208.164,1786.848,208.035,1786.588,207.9Z" fill="#0e8080"/>
        <path id="Path_2234" data-name="Path 2234" d="M1881,221.022a56.661,56.661,0,0,0-7.676-.494,77.547,77.547,0,0,0-14.788,1.509c-9.251,1.815-17.838,5.8-26.81,8.594a114.279,114.279,0,0,1-16.427,3.162,117.563,117.563,0,0,1-15.444-.072c-9.375-.91-19.121-2.016-28.437-.175-.071.026-.019.1.026.1a67.812,67.812,0,0,1,7.814.117,121.523,121.523,0,0,1,17.929,3.7,82.673,82.673,0,0,0,21.606,2.869,103.422,103.422,0,0,0,23.4-2.993c6.831-1.658,13.252-4.527,19.946-6.642a89.294,89.294,0,0,1,13.031-2.29,113.493,113.493,0,0,1,16.551-.514c4.033.449,8.008,1.483,12.074,1.894.026,0,.156-.027.079-.072-2.011-1.275-3.943-2.694-6.051-3.813C1892.611,223.13,1886.8,221.81,1881,221.022Zm-101.651,12.751a.294.294,0,0,1,.078.007A.294.294,0,0,0,1779.347,233.773Zm34.356.183c.449-.039.9-.092,1.34-.137C1814.6,233.864,1814.152,233.917,1813.7,233.956Zm77.412-6.122c.182.013.37.032.553.052C1891.485,227.866,1891.3,227.847,1891.115,227.834Zm.793.071c.117.013.235.02.352.026C1892.143,227.925,1892.025,227.918,1891.908,227.9Z" fill="#0e8080"/>
        <path id="Path_2235" data-name="Path 2235" d="M1902.833,237.1c-6.252-1.724-13.422-.657-19.316,1.835-4.879,2.108-9.6,4.216-13.668,7.722a92.557,92.557,0,0,1-14.078,10.175c-.729.273-1.464.507-2.212.716-.9.11-1.783.2-2.694.279a92.581,92.581,0,0,1-10.838-.565c-1.477-.326-2.915-.7-4.34-1.146a89.877,89.877,0,0,1-11.58-5.718c-5.926-4-10.773-9.485-16.062-14.287-5.29-4.775-10.982-7.442-17.715-9.68a.064.064,0,0,0-.033-.006c-.052,0-.1.038-.045.084,2.01,1.223,4.118,2.309,6.1,3.559a18.486,18.486,0,0,1,3.031,2.765c4.034,5.009,6.884,10.76,11.2,15.555a48.606,48.606,0,0,0,22.822,14.637,59.206,59.206,0,0,0,29.939.866c8.2-1.763,14.2-7.462,20.051-12.973a59.185,59.185,0,0,1,11.71-8.438,36.461,36.461,0,0,1,4.248-1.535,23.991,23.991,0,0,1,2.869-.41,38.636,38.636,0,0,1,4.489.345c1.613.254,3.227.6,4.84.748h-.13a6.516,6.516,0,0,0,1.015.052c.026,0,.13-.052.052-.078-.266-.1-.514-.241-.781-.345C1908.786,239.69,1906.085,237.986,1902.833,237.1Zm-78.368,13.539c.13.084.267.169.4.266C1824.732,250.809,1824.595,250.724,1824.465,250.64Zm77.1-10.1c.137,0,.267,0,.4-.006C1901.831,240.536,1901.7,240.536,1901.564,240.536Zm10.214.761c-.019-.019-.033-.019-.058-.032C1911.745,241.278,1911.759,241.278,1911.778,241.3Z" fill="#0e8080"/>
        <path id="Path_2236" data-name="Path 2236" d="M1918.182,260.64c.07,0,.139.006.208,0,.373-.014.739-.047,1.113-.058C1919.048,260.613,1918.612,260.613,1918.182,260.64Z" fill="#0e8080"/>
        <path id="Path_2237" data-name="Path 2237" d="M1916.478,255.838a31.8,31.8,0,0,0-4.482-.306,48.344,48.344,0,0,0-11.626,1.627,60.362,60.362,0,0,0-17.357,7.241c-6.122,3.675-11.645,7.9-18.028,11.118a59.584,59.584,0,0,1-9.661,3.266,45.176,45.176,0,0,1-6.753.891c-2.55-.006-5.061-.046-7.592-.279-1.223-.131-2.875-.586-3.786.429-.052.052.1.078.124.052.156-.078.3-.176.455-.254,0,.006,0,.013-.007.013.052-.019.124-.039.189-.065l-.02.019a1.411,1.411,0,0,0,.163-.045,2.906,2.906,0,0,1,.618.078h-.026c3.455.761,6.786,1.548,10.292,2,4.958.637,10.012-.228,14.814-1.347,10.819-2.472,20.382-9.023,30.16-13.968.176-.084.352-.162.527-.247a95.292,95.292,0,0,1,15.445-4.619,60.769,60.769,0,0,1,8.463-.8c-.069,0-.138-.007-.208,0,.43-.027.866-.027,1.321-.053-.374.011-.74.044-1.113.058,2.4-.041,4.793.076,7.189.2a73.435,73.435,0,0,0,10.084.052h0c.052,0,.13-.026.052-.078-2.068-.735-4.267-1.236-6.369-1.965A60.623,60.623,0,0,0,1916.478,255.838Zm-60.92,22.894.514-.1ZM1893,266.761c.13-.058.26-.123.39-.182C1893.259,266.638,1893.129,266.7,1893,266.761Zm36.874-7.722c-.13-.058-.267-.1-.4-.15C1929.606,258.941,1929.743,258.981,1929.873,259.039Z" fill="#0e8080"/>
      </g>
    </g>
  </g>
</svg>
