<svg xmlns="http://www.w3.org/2000/svg" xmlns:xlink="http://www.w3.org/1999/xlink" width="226.617" height="388.018" viewBox="0 0 226.617 388.018">
  <defs>
    <clipPath id="clip-path">
      <rect id="Rectangle_786" data-name="Rectangle 786" width="226.617" height="388.018" transform="translate(410.494 -248)" fill="none"/>
    </clipPath>
  </defs>
  <g id="Group_949" data-name="Group 949" transform="translate(-410.494 248)" opacity="0.394" clip-path="url(#clip-path)">
    <g id="Group_948" data-name="Group 948" transform="translate(-372.94 -788)">
      <path id="Path_2581" data-name="Path 2581" d="M808.831,722.941h0c-.035,0-.07,0-.1,0Z"/>
      <path id="Path_2582" data-name="Path 2582" d="M727.076,601.376l-.047.067.047-.047Z"/>
      <path id="Path_2583" data-name="Path 2583" d="M944.024,766.017a11.685,11.685,0,0,0-2.28-2.7l-.623-.523h.074c.107-1.025.208-2.071.288-3.117a19.041,19.041,0,0,0-.918-6.234c-.912-3.117-2.983-5.577-5.075-7.776a28.6,28.6,0,0,0-6.837-4.846l-1.207-.677a68.588,68.588,0,0,0-6.542-3.379,30.358,30.358,0,0,0-4.27-1.6,36.651,36.651,0,0,0-4.793-.945,54.7,54.7,0,0,0-8.714-.684,60.619,60.619,0,0,0-10.82.972c-2.225.4-4.424.945-6.623,1.495-2.386.6-4.792,1.1-7.206,1.541-.864.161-1.749.315-2.614.45h-2.2a30.3,30.3,0,0,1-4.143-.215,14.787,14.787,0,0,1-1.777-.523,7.025,7.025,0,0,1-1.206-.757,16.389,16.389,0,0,1-1.649-1.7,9.389,9.389,0,0,1-.63-1.073,18.687,18.687,0,0,1-.63-2.962,8.4,8.4,0,0,1,.026-1.307,13.042,13.042,0,0,1,.577-1.757,14.1,14.1,0,0,1,1.521-2.641,18.149,18.149,0,0,1,1.964-1.883,46.6,46.6,0,0,1,7.227-3.694c1.783-.684,3.559-1.233,5.4-1.837a49.873,49.873,0,0,1,6.2-1.515,33.356,33.356,0,0,1,3.667-.187c1.388,0,2.775.08,4.136.214l2.963.288c1.991.181,3.982.389,5.973.651a103.5,103.5,0,0,1,10.4,2.486l2.037.577a61.556,61.556,0,0,1,7.911,2.648l.864.395a14.5,14.5,0,0,0,2.541,1.019c-.027-.181-.081-.342-.108-.5a1.189,1.189,0,0,0-.181-.08,3.95,3.95,0,0,0-.4-.865l.55.838a10.421,10.421,0,0,0-1.488-3.09c-.477-.758-.972-1.516-1.415-2.306-.422-.758-.811-1.515-1.233-2.279l-.811-1.542c-.443-.838-.865-1.7-1.281-2.594l-.523-1.046c-.6-1.234-1.206-2.46-1.89-3.694a35.611,35.611,0,0,0-2.514-3.847c-.911-1.254-1.856-2.541-2.848-3.768a36.553,36.553,0,0,0-6.523-6.18,23.842,23.842,0,0,1-.161-3.955,33.2,33.2,0,0,0-2.9-13.8c-.711-1.515-1.415-3.064-2.2-4.532-.791-1.408-1.656-2.775-2.521-4.109-.811-1.227-1.648-2.433-2.587-3.586-1.079-1.254-2.179-2.487-3.278-3.694a38.15,38.15,0,0,0-3.56-3.506,44.259,44.259,0,0,0-7.407-5.081,38.662,38.662,0,0,0-4.169-1.964,21.72,21.72,0,0,0-4.759-1.468,23.2,23.2,0,0,0-3.775-.362,7.6,7.6,0,0,0-.784.027c-.811.02-1.595.047-2.413.127a2.011,2.011,0,0,0,.684-1.233c.154-2.434-1.7-4.6-3.325-6.255a30.342,30.342,0,0,0-5.028-3.773,36.178,36.178,0,0,1-3.693-2.588,28.23,28.23,0,0,1-3.352-3.593l-.731-1.2-.737-1.207a20.049,20.049,0,0,0-1.28-1.783c-.416-.495-.865-.965-1.307-1.407a18.386,18.386,0,0,0-6.938-4.089,32.247,32.247,0,0,0-4.693-1.126,15.159,15.159,0,0,0-2.353-.208,16.862,16.862,0,0,0-4.665.684,32.279,32.279,0,0,0-8.165,3.505,42.333,42.333,0,0,0-3.854,2.641,31.233,31.233,0,0,0-3.084,2.8l-1.89,1.943c-1.441,1.488-2.876,2.957-4.371,4.371-.865.865-1.756,1.676-2.648,2.46l-.65.577-1.233,1.072c-.6.55-1.227,1.073-1.83,1.623l-.738.737-1.515,1.441c-1.206.885-2.44,1.776-3.693,2.614l-.838.577-1.126.5-.919.369a20.85,20.85,0,0,1-3.137.864c-.63.081-1.314.181-1.991.235a21.8,21.8,0,0,1-2.279.107h-1.153c-.992,0-1.991-.027-2.983-.08-.737-.081-1.414-.155-2.152-.262-.415-.08-.811-.208-1.226-.315a34.644,34.644,0,0,1-4.954-2.359,10.552,10.552,0,0,1-1.569-1.361,18.817,18.817,0,0,1-1.307-1.83c-.315-.577-.6-1.126-.865-1.676a5.2,5.2,0,0,1-.422-1.361,7.491,7.491,0,0,1-.047-1.025,16.317,16.317,0,0,1,.6-2.7c.4-1.126.818-2.226,1.314-3.325a37.476,37.476,0,0,1,1.857-3.64l.864-1.254c.208-.241.657-.817,1.126-1.387a16.917,16.917,0,0,1,1.281-1.468,39.865,39.865,0,0,1,3.981-3.8c1.388-1.126,2.829-2.145,4.3-3.164a34.232,34.232,0,0,1,4.451-2.514,54.259,54.259,0,0,1,6.047-2.306c2.487-.73,4.947-1.28,7.488-1.783,2.989-.5,6-.938,9.009-1.253,1.179-.107,2.386-.134,3.559-.161h.711l1.468-.027c1.1,0,2.2.027,3.271.134a21.489,21.489,0,0,1,4.109.811l.731.342a11.079,11.079,0,0,0-3.479-3.432,33.237,33.237,0,0,0-6-3.325c-1.307-.55-2.641-1.019-4-1.495a44.754,44.754,0,0,1-5.45-2.118,26.229,26.229,0,0,1-3.768-2.487l-1.575-1.233-1.568-1.254c-1.1-.865-1.676-1.334-2.306-1.756-1.2-.731-2.434-1.388-3.64-1.991a20.241,20.241,0,0,0-3.741-1.569,25.49,25.49,0,0,0-6.938-1.1c-.576,0-1.153.027-1.7.08A29.438,29.438,0,0,0,774,589.846a12.536,12.536,0,0,0-2.487-1.649,40.961,40.961,0,0,0-4.478-2.045,26.152,26.152,0,0,0-4.216-1.2,33.208,33.208,0,0,0-4.786-.71c-1.388-.107-2.8-.208-4.19-.208a7.681,7.681,0,0,0-.791.027c-1.75.074-3.479.208-5.209.389-.415.054-.865.107-1.28.161-.918.576-1.81,1.126-2.728,1.7-1.435.912-2.876,1.777-4.264,2.749-.63.415-1.287.838-1.89,1.28-.5.4-.965.764-1.461,1.153a34.369,34.369,0,0,0-2.755,2.487c-.785.784-1.542,1.575-2.273,2.386-1.441,1.622-2.775,3.325-4.116,5.028l-.046.047c-.865,1.166-1.7,2.292-2.494,3.539-.677,1.073-1.361,2.172-2.011,3.271-.684,1.127-1.314,2.28-1.911,3.433-.63,1.179-1.153,2.326-1.676,3.532-.288.784-.576,1.6-.817,2.387-.262.838-.47,1.675-.651,2.513-.395,1.75-.683,3.479-.945,5.262.027-.08.027-.16.054-.261-.289,2.46-.422,4.92-.523,7.38-.054,1.207-.027,2.44,0,3.667,0,1.153.154,2.306.262,3.486v.027c.315,2.2.677,4.37,1.1,6.542a49.069,49.069,0,0,0,1.521,5.839c.6,1.863,1.227,3.693,1.831,5.55.657,1.938,1.28,3.855,2.017,5.765-.027-.027-.027-.053-.054-.08a45.23,45.23,0,0,0,2.119,4.37c.395.711.791,1.415,1.179,2.1.054.053.135.08.182.127.951.61,1.863,1.233,2.781,1.87a1.237,1.237,0,0,1,.155-.034c.107-.026.127.128.026.155.242.167.49.335.731.5l-.074-.08c2.226,1.488,4.425,3.063,6.57,4.632,0-.5.027-.965.053-1.468a25.323,25.323,0,0,1,1.281-5.732,79.717,79.717,0,0,1,5.027-11.469,95.759,95.759,0,0,1,7.28-11.577c2.487-3.452,5.289-6.676,7.856-10.055l-.027.027a.536.536,0,0,0,.081-.127h.027v-.027a67.519,67.519,0,0,0,4.216-6.576,72.559,72.559,0,0,0,3.191-6.6c-.027,0-.027.027-.053.027,1.179-2.957,2.359-5.946,3.639-8.876a26.061,26.061,0,0,1,2.568-4.323c.891-1.307,1.863-2.541,2.855-3.767.523-.6,1.046-1.234,1.569-1.837s1.052-1.227,1.629-1.776a29.7,29.7,0,0,1,3.847-3.171c.758-.5,1.515-.992,2.3-1.441.63-.342,1.233-.677,1.863-1.019,1.488-.785,2.956-1.576,4.4-2.414h.053c.081,0,.128.108.054.135-1.495.992-2.99,1.91-4.5,2.828-.6.369-1.233.7-1.81,1.126-.677.443-1.333.919-1.991,1.415.027-.027.054-.054.054-.08-.677.576-1.414,1.126-2.037,1.729a28.4,28.4,0,0,0-2.153,2.252c-.992,1.18-1.91,2.353-2.828,3.56h.027v0c-.939,1.28-1.857,2.54-2.668,3.9-.423.711-.892,1.414-1.261,2.172-.335.764-.677,1.522-.992,2.279.027-.027.027-.054.054-.1,0-.026.027-.053.027-.08,0,.027-.027.054-.027.08-.577,1.489-1.126,2.983-1.7,4.478-.549,1.408-1.045,2.849-1.622,4.291a52.671,52.671,0,0,1-4.163,8.432,74.3,74.3,0,0,1-5.792,7.957c-2.3,2.729-4.531,5.477-6.676,8.306.054-.054.08-.108.134-.161a104.362,104.362,0,0,0-6.341,9.613,106.008,106.008,0,0,0-4.894,9.659c0-.027.027-.074.027-.1-.476,1.227-.972,2.46-1.387,3.714a23.894,23.894,0,0,0-.785,3.64v-.047c-.053.469-.08.939-.107,1.388a1.925,1.925,0,0,0,.234.181l6.992,5.182c1.18.891,2.407,1.729,3.586,2.621,1.18.864,2.387,1.7,3.56,2.567,2.071,1.461,4.169,2.876,6.261,4.29-.081-.047-.127-.1-.208-.154.55.369,1.1.731,1.622,1.072.135-.026.262-.053.369-.08a10.436,10.436,0,0,0,2.487-1.126,26.578,26.578,0,0,0,3.164-2.038,42.073,42.073,0,0,0,3.64-2.99l-.074.081c.208-.182.416-.389.624-.577l-.074.08c1.072-1.045,2.118-2.145,3.137-3.271,1.026-1.079,2.044-2.178,2.989-3.351,1.911-2.36,3.714-4.847,5.705-7.153,1.026-1.179,2.1-2.279,3.117-3.425,1-1.106,1.991-2.232,3.01-3.3,1.234-1.307,2.487-2.514,3.774-3.714.576-.522,1.153-1.025,1.7-1.548.576-.523,1.153-1.046,1.756-1.515,1.361-1.079,2.748-2.152,4.19-3.117,1.387-.919,2.795-1.81,4.236-2.621,2.99-1.649,6-3.218,9.116-4.605a95.874,95.874,0,0,1,10.317-4.036,100.783,100.783,0,0,1,9.894-2.54,75.8,75.8,0,0,1,9.72-1.254q2.584-.2,5.182-.235c.731-.027,1.441-.027,2.172-.053.71-.027,1.414-.107,2.1-.161h.027c.073,0,.1.161,0,.161-.684.1-1.388.234-2.1.288s-1.442.1-2.145.154c-1.549.107-3.064.262-4.586.449-1.676.208-3.351.416-5,.7-1.415.235-2.8.523-4.19.811.054,0,.107-.027.161-.027a106.573,106.573,0,0,0-13.568,4.19,135.319,135.319,0,0,0-12.8,6.026,2.4,2.4,0,0,0,.208-.134,87.165,87.165,0,0,0-8.614,5.262c-.865.631-1.7,1.234-2.514,1.884-.7.557-1.388,1.127-2.071,1.7-1.146.972-2.273,1.991-3.372,2.99l.154-.161c-1.83,1.783-3.586,3.666-5.4,5.523-1.6,1.676-3.271,3.3-4.766,5.081-.758.892-1.488,1.81-2.252,2.7-.7.838-1.388,1.7-2.145,2.514-1.442,1.6-2.957,3.11-4.505,4.605a43.345,43.345,0,0,1-4.371,3.747,37.79,37.79,0,0,1-4.008,2.614,22.6,22.6,0,0,1-2.568,1.26,13.162,13.162,0,0,1-1.461.47c1.937,1.287,3.9,2.567,5.838,3.9,2.488,1.73,4.894,3.513,7.381,5.236,1.864,1.286,3.8,2.439,5.738,3.613,1.126.683,2.252,1.367,3.352,2.1.1-.054.208-.134.288-.181.523-.342,1.046-.711,1.568-1.026,1.207-.758,2.461-1.441,3.721-2.091a54.67,54.67,0,0,1,7.749-3.064c2.172-.71,4.4-1.334,6.6-1.91,2.7-.684,5.343-1.575,7.964-2.487,2.487-.892,4.846-1.991,7.253-3.044,2.648-1.1,5.262-2.2,7.856-3.425,2.172-1.052,4.371-2.071,6.5-3.251,2.54-1.461,5.027-3.037,7.514-4.579,1.2-.763,2.38-1.548,3.533-2.386,1.1-.865,2.172-1.75,3.271-2.588a27.973,27.973,0,0,1,3.64-2.513c.657-.369,1.314-.738,1.991-1.079.784-.362,1.595-.731,2.386-1.073a44.674,44.674,0,0,1,4.344-1.569c1.548-.5,3.117-.971,4.686-1.36a32.579,32.579,0,0,1,4.5-.838c1.783-.188,3.54-.342,5.343-.4.4-.027.784-.027,1.179-.027a24.209,24.209,0,0,1,3.352.208c1.469.215,2.93.4,4.4.711a34.8,34.8,0,0,1,8.667,2.855A35.561,35.561,0,0,1,893.487,675c1.361.918,2.722,1.857,4.029,2.882a.083.083,0,0,1-.107.127c-.939-.65-1.911-1.28-2.876-1.883l.027.027a37.818,37.818,0,0,0-4.009-2.2c-.918-.4-1.8-.784-2.748-1.153-.684-.261-1.388-.443-2.1-.684.054,0,.081.027.135.027a53.1,53.1,0,0,0-5.631-1.153c-1.756-.234-3.56-.416-5.343-.5a45.26,45.26,0,0,0-5.945.369c-1.147.181-2.3.341-3.453.576-.865.155-1.729.369-2.594.577l.235-.081q-3.1.906-6.127,2.045c-.992.362-2.018.73-2.983,1.18s-1.938.911-2.883,1.387c-.623.362-1.253.731-1.883,1.146-.55.342-1.073.738-1.623,1.127-.972.737-1.91,1.548-2.855,2.332-1.046.838-2.091,1.623-3.2,2.387-1.072.757-2.2,1.408-3.3,2.118-2.2,1.334-4.37,2.722-6.65,3.928-2.017,1.073-4.109,2.045-6.207,2.983-2.225,1-4.5,1.937-6.8,2.829l-2.989,1.18c-1.173.469-2.327.992-3.533,1.414-2.226.785-4.451,1.488-6.73,2.092-2.38.657-4.82,1.153-7.2,1.7h.081a.087.087,0,0,1,.073-.026.087.087,0,0,0-.073.026,66.388,66.388,0,0,0-9.559,2.883,44.312,44.312,0,0,0-5.477,2.621c-.5.282-1.019.57-1.515.858.731.476,1.441.972,2.145,1.5.972.683,1.884,1.441,2.829,2.172.918.71,1.83,1.441,2.748,2.151,1.65,1.334,3.3,2.615,4.974,3.9,1.415,1.072,2.775,2.225,4.143,3.378.262.047.55.1.811.154,1.019.208,2.038.443,3.063.631,1.02.207,2.038.415,3.064.549,1.125.181,2.25.288,3.376.362,2.345.076,4.7.052,7.068-.02,1.18-.054,2.359-.107,3.539-.268,1.28-.181,2.541-.389,3.794-.623-.053.026-.107.026-.181.053a64.437,64.437,0,0,0,9.606-2.856c2.648-1.025,5.188-2.252,7.756-3.459,0-.026,0-.026.027-.026a.068.068,0,0,1,.047-.027c.053,0,.08-.027.134-.047-.027.02-.054.02-.081.047,1.576-.811,3.144-1.622,4.74-2.3a25.334,25.334,0,0,1,5.4-1.576c1.857-.362,3.74-.6,5.631-.891,1.83-.235,3.666-.6,5.5-.939h-.027a.1.1,0,0,0,.081-.026c.054,0,.127-.027.181-.027h-.027c3.694-.731,7.441-1.1,11.181-1.569,1.837-.214,3.64-.5,5.45-.838,1.8-.315,3.613-.576,5.417-.838,2.044-.315,4.116-.549,6.153-.737,1.937-.181,3.875-.416,5.792-.677a42.418,42.418,0,0,1,5.208-.422c.342,0,.684.027,1.026.027a17.26,17.26,0,0,1,4.029.549c.107.027.053.181-.054.161a11.9,11.9,0,0,0-1.723-.241h.047a17.158,17.158,0,0,0-2.822-.047,28.369,28.369,0,0,0-3.385.308c-2.018.342-3.982.737-5.993,1.053-2.151.315-4.35.6-6.495.965-1.991.342-3.955.737-5.946,1.126a1.673,1.673,0,0,0,.187-.054c-1.387.316-2.8.631-4.189.865-1.341.261-2.675.449-4.035.657-2.749.416-5.524.811-8.273,1.307-2.225.5-4.43,1-6.656,1.334-2.246.369-4.478.684-6.677,1.126a28.929,28.929,0,0,0-4.343,1.314c-1.207.523-2.387,1.073-3.587,1.649.074-.027.155-.08.235-.107-1.783.865-3.586,1.7-5.4,2.487-1.964.838-3.928,1.575-5.946,2.225a52.911,52.911,0,0,1-6.388,1.65,44.107,44.107,0,0,1-6.2.817c-1.917.1-3.828.02-5.738-.027a38.478,38.478,0,0,1-5.758-.422,59.166,59.166,0,0,1-6.026-1.334c-.677-.181-1.361-.369-2.065-.55.912.785,1.83,1.6,2.721,2.38,2.46,2.152,5.055,4.143,7.649,6.127,1.227,1,2.487,1.937,3.767,2.882,1.126.812,2.2,1.676,3.325,2.514,1.287,1,2.541,2.045,3.8,3.117,1.2,1.019,2.326,2.119,3.479,3.218,2.2,2.1,4.558,3.955,6.811,5.946.342.315.677.6,1.045.918.892.288,1.783.523,2.668.731.918.208,1.837.449,2.756.576,1.045.161,2.091.262,3.136.369h-.127c1.126.053,2.225.154,3.325.154,1.153.027,2.333.027,3.479.027a60.7,60.7,0,0,0,6.864-.5c4.371-.5,8.748-1.233,13.065-2.045-.08.027-.154.027-.234.054,1.072-.208,2.171-.442,3.244-.677a43.307,43.307,0,0,1,9.143-1.441c.784-.027,1.569-.027,2.353-.027,2.722,0,5.423.08,8.091.288a87.672,87.672,0,0,1,9.794,1.334,85.35,85.35,0,0,1,8.908,2.36,42.688,42.688,0,0,1,4.451,1.675,49.219,49.219,0,0,1,4.425,2.2,16.163,16.163,0,0,1,1.414.838l1.415.939c.576.395,1.153.811,1.729,1.233,1.153.838,2.272,1.676,3.378,2.541,2.642,2.064,5.236,4.243,7.669,6.569,1.207,1.18,2.434,2.36,3.667,3.486.63.576,1.253,1.1,1.883,1.622.081.08-.026.208-.1.127-.891-.677-1.783-1.36-2.648-2.065-1.414-1.179-2.775-2.386-4.162-3.559-2.749-2.36-5.712-4.478-8.668-6.576v.027c0-.027-.027-.027-.054-.054h0c-.992-.65-1.964-1.307-2.956-1.964a36.8,36.8,0,0,0-3.251-1.883,50.365,50.365,0,0,0-6.1-2.668c-.811-.289-1.6-.55-2.433-.765-.919-.288-1.83-.522-2.749-.757-1.468-.395-2.963-.731-4.424-1.046a84.057,84.057,0,0,0-9.9-1.468h-.08c-.63-.053-1.26-.08-1.884-.107h.289c-2.83-.127-5.658-.288-8.487-.261-1.361,0-2.722.026-4.082.161-1.261.127-2.514.341-3.775.576a.026.026,0,0,0,.027-.027c-1.675.342-3.325.677-4.974.992-1.937.342-3.874.63-5.811.892a118.807,118.807,0,0,1-12.623,1.126c-1.937.054-3.874-.081-5.812-.181-.864-.054-1.756-.161-2.621-.262-.891-.08-1.783-.187-2.668-.341a39.571,39.571,0,0,1-5.423-1.442,1.637,1.637,0,0,0-.422-.127c.63.55,1.26,1.1,1.864,1.649,1.072.965,2.091,1.984,3.144,2.983,1.28,1.233,2.614,2.434,3.9,3.667,1.045,1.019,2.065,2.091,3.063,3.191,2.065,2.3,4.056,4.712,6.047,7.1a.381.381,0,0,0,.08.107.348.348,0,0,1,.1.127l-.027-.027c1.18,1.334,2.359,2.675,3.566,4.009,1.126,1.227,2.353,2.433,3.613,3.559a35.876,35.876,0,0,0,3.741,3.064c1.287.918,2.567,1.857,3.827,2.855,1.127.892,2.253,1.8,3.4,2.642,1.025.764,2.071,1.468,3.063,2.205a32.6,32.6,0,0,1,3.667,2.929c1.18,1.1,2.333,2.253,3.486,3.406,1.226,1.206,2.433,2.406,3.559,3.693a34.794,34.794,0,0,1,2.594,3.352c.939,1.307,1.884,2.641,2.883,3.948.811,1.106,1.676,2.179,2.46,3.332a45.829,45.829,0,0,1,2.8,4.786c.7,1.34,1.415,2.675,2.172,3.982,1.7,2.936,3.432,5.812,5.108,8.748.711,1.28,1.441,2.567,2.252,3.767.657,1,1.361,1.964,2.1,2.909.912,1.234,1.911,2.407,2.749,3.72.261.443.549.865.811,1.308.5.7.992,1.414,1.542,2.091l-.074-.074a40.672,40.672,0,0,0,3.01,3.379,22.382,22.382,0,0,0,2.145,1.964,19.71,19.71,0,0,0,3.144,1.649c1.387.6,2.829,1.126,4.216,1.75a18.662,18.662,0,0,1,4.424,2.466,17.034,17.034,0,0,1,3.955,4.317.1.1,0,0,1-.161.107c-.18-.261-.335-.495-.522-.737v.027a15.309,15.309,0,0,0-1.415-1.542,18.909,18.909,0,0,0-1.568-1.334c.027,0,.027.027.053.027A15.035,15.035,0,0,0,924.6,849c-.811-.389-1.648-.758-2.513-1.1h-.027c-.027-.026-.027-.026-.054-.026h.027c-.576-.208-1.126-.389-1.676-.63.054,0,.081.026.1.026-.811-.288-1.622-.549-2.434-.885-.784-.341-1.595-.63-2.352-1.025a11.294,11.294,0,0,1-2.152-1.488,31.581,31.581,0,0,1-3.01-3.117c-.127-.161-.288-.342-.416-.5.074.107.155.241.235.342.992,1.414,2.038,2.8,3.09,4.216l1.569,2.125c.577.785,1.1,1.6,1.622,2.407.657.965,1.287,1.964,1.891,2.956.569.918,1.173,1.81,1.722,2.728.764,1.307,1.468,2.641,2.152,3.975.677,1.287,1.361,2.567,1.991,3.875.523,1.052,1.019,2.071,1.488,3.144.449.972.838,1.964,1.287,2.963.362.047.757.1,1.126.18a48.694,48.694,0,0,1,7.2,2.28,7.057,7.057,0,0,0-1.046-3.694c-.268-.6-.556-1.207-.791-1.8a39.65,39.65,0,0,1-1.938-9.72,58.075,58.075,0,0,1,.027-6.991,54.879,54.879,0,0,1,.973-6.731c.207-.911.288-1.387.361-1.883.792-3.848,1.837-8.118,3.3-13.226l.6-2.038c.449-1.468.891-2.963,1.26-4.451.523-2.125.891-4.243,1.206-6.442.55-3.848.993-8.9-.6-13.641a8.564,8.564,0,0,0-1.441-2.568,42.972,42.972,0,0,1,1.441-4.846c.362-.939.939-2.065,1.515-3.191l.711-1.468c.7-1.441,1.361-2.909,1.937-4.4a39.829,39.829,0,0,0,2.541-10.317,19.211,19.211,0,0,0-.235-4.612A9.26,9.26,0,0,0,944.024,766.017ZM759.889,598.956l-1.334,1.287a69.112,69.112,0,0,0-5.818,7.2c-1.019,1.388-1.777,2.594-2.514,3.774a43.4,43.4,0,0,0-2.487,4.525c-1.388,2.963-2.514,6.1-3.351,8.486a70.6,70.6,0,0,0-2.434,8.507c-.577,2.648-.945,5.343-1.334,8.017l-.107.892-.235,1.414c-.369,2.433-.731,4.867-1.019,7.327l-.053.918-.657-.5.053-.053a21.038,21.038,0,0,1-2.017-2.2l-.731-.865c-.63-.838-1.073-1.468-1.522-2.1-.7-1.072-1.36-2.145-2.01-3.244a45.331,45.331,0,0,1-2.91-5.892,29.2,29.2,0,0,1-1.676-5.946,22.25,22.25,0,0,1,.107-5.1c.208-1.414.443-2.828.785-4.243a33.772,33.772,0,0,1,1.441-4.243l.442-.992.443-1.026a8.128,8.128,0,0,1,.63-1.227l.4-.737a36.284,36.284,0,0,1,2.379-3.767c.523-.711,1.026-1.334,1.549-1.937l.576-.631.55-.63a25.9,25.9,0,0,1,3.217-2.929h.027v.027c.027,0,.081-.054.107-.081,1.254-.865,2.514-1.675,3.821-2.487a29.446,29.446,0,0,1,4.036-2.017l1.019-.416a34.177,34.177,0,0,1,3.613-1.367,53.633,53.633,0,0,1,5.208-1.361,46.767,46.767,0,0,1,6.154-.55A39.57,39.57,0,0,0,759.889,598.956Zm8.56,59.311a6.8,6.8,0,0,1-.288.711,12.13,12.13,0,0,1-1.126,1.622,42.331,42.331,0,0,1-7.488,5.678,52.926,52.926,0,0,1-9.793,4.611,12.8,12.8,0,0,1-2.065.39l-.791-.075c-.389-.71-.362-.945-.308-1.206a19.185,19.185,0,0,1,.965-2.46,34.7,34.7,0,0,1,3.667-5.162,40.524,40.524,0,0,1,6.542-5.288A34.022,34.022,0,0,1,763.4,654.5h0c1.18-.342,2.226-.55,3.3-.764.02,0,.1-.027.1-.054s.026-.02.026-.02a7.641,7.641,0,0,0,.946.415l.65.577a3.074,3.074,0,0,1,.315,1.206A12.271,12.271,0,0,1,768.449,658.267Zm75.782-3.693c-.63.523-1.26,1-1.857,1.468l-1.18.891a26.233,26.233,0,0,0-5.342,5.731l-2.487,3.486-2.514,3.506c-.711.918-1.441,1.837-2.172,2.7-.892,1.174-1.837,2.253-2.775,3.326l-.08.073.053.054-.053-.027a36.64,36.64,0,0,1-2.675,2.7,19.339,19.339,0,0,1-1.515,1.335,15.8,15.8,0,0,1-1.757,1.307c-1.125.656-2.278,1.286-3.431,1.836a27.984,27.984,0,0,1-3.3,1.388,37.7,37.7,0,0,1-8.433,1.8,17.937,17.937,0,0,1-1.991-.1c-.416-.135-.838-.268-1.281-.423l-.676-.4.046-.047-.523-.711a5.9,5.9,0,0,1-.388-2.145c.1-1.287.288-2.983.549-4.659a8.842,8.842,0,0,1,.523-1.964,16.634,16.634,0,0,1,.758-1.917,24.711,24.711,0,0,1,2.513-3.64l2.072-2.172c.838-.811,1.676-1.595,2.54-2.38.885-.81,1.857-1.575,2.823-2.3.817-.6,1.628-1.18,2.493-1.783l.208-.155a.057.057,0,0,0,.054-.053l.549-.389.027.047c.469-.308.965-.6,1.461-.885,1-.529,1.991-1.052,3.01-1.521.892-.416,1.81-.758,2.728-1.127.892-.369,1.8-.684,2.749-.992a69.157,69.157,0,0,1,7.018-1.81l3.821-.677a24.85,24.85,0,0,1,3.224-.315l.389-.107v.08l1.414-.026c1.361,0,2.7.053,4.063.154Zm-26.344,51.562a5.19,5.19,0,0,1-.55,1.153,7.64,7.64,0,0,1-1.253.992,24.19,24.19,0,0,1-5.792,1.991c-1.308.261-2.561.442-3.875.576-.677.054-1.387.074-2.064.074l-1.442-.02a22.382,22.382,0,0,1-3.666-.764,12.186,12.186,0,0,1-2.119-.966l-.6-.368v-.155a6.007,6.007,0,0,1,.181-1.414l-.08-.027.234-.449a5,5,0,0,0-.154.476,15.368,15.368,0,0,1,.63-1.522,4.813,4.813,0,0,1,.389-.495.421.421,0,0,1,.134-.182,14.145,14.145,0,0,1,2.072-1.521,16.033,16.033,0,0,1,2.748-1.207,34.035,34.035,0,0,1,3.479-1.046h0a.026.026,0,0,1,.027.027h.026c.027,0,.081-.027.108-.027.677-.107,1.414-.207,2.118-.261.288-.027.577-.054.865-.054l.864.027.865.027c.235,0,.651.054,1.073.107l.731.1a19.778,19.778,0,0,1,3.666,1.836,5.412,5.412,0,0,1,1.126.966s.449.71.449.737A8.88,8.88,0,0,1,817.887,706.136Zm84.348-15.083c-.737-.315-1.468-.63-2.2-.918a20.7,20.7,0,0,0-3.272-1,7.523,7.523,0,0,0-1.783-.154,21.338,21.338,0,0,0-4.84.684c-1.206.234-2.359.549-3.512.864l-.965.262a49.616,49.616,0,0,0-5.189,1.414,37.43,37.43,0,0,0-4.109,1.723l-1.414.737c-1.073.55-2.145,1.1-3.245,1.622-.764.369-1.521.678-2.306.993l-.683.235-.812.288c-1.494.449-2.983.817-4.5,1.179a47.176,47.176,0,0,1-5.363,1c-.556.047-1.287.074-1.991.074-.476,0-.972,0-1.441-.027a4.4,4.4,0,0,0-1.649-.362l-1.783-.188a5.219,5.219,0,0,1-.892-.1,37.561,37.561,0,0,1-4.793-1.287,2.518,2.518,0,0,1,1.63-1.388l1.253-.549a16.718,16.718,0,0,0,2.882-1.777l.523-.4h.027c1.1-.731,2.2-1.415,3.325-2.119l2.091-1.313a40.871,40.871,0,0,0,3.486-2.615c.731-.576,1.441-1.153,2.2-1.7a25.621,25.621,0,0,1,2.54-1.494c1.073-.55,2.172-1.046,3.272-1.542l1.729-.811,1.73-.811a31.166,31.166,0,0,1,3.532-1.6,19.478,19.478,0,0,1,4.217-.966h.207a23.3,23.3,0,0,1,4.009.289,38.9,38.9,0,0,1,7.488,2.406c.864.47,1.7.945,2.513,1.468.657.442,1.287.945,1.938,1.468,1.937,1.7,3.378,3.01,4.746,4.451l1.253,1.388.764.891A1.52,1.52,0,0,0,902.235,691.053Zm-50.409,42.419a1.193,1.193,0,0,0-.161.389c.027.027-.074.288-.054.288a18.6,18.6,0,0,1-2.775,1.26,46.641,46.641,0,0,1-7.642,2.226c-.6.027-1.206.054-1.81.054a17.773,17.773,0,0,1-2.037-.108c-1.6-.154-3.118-.4-4.693-.657a40.068,40.068,0,0,1-8.01-2.433,4.411,4.411,0,0,1-.785-.523,2.637,2.637,0,0,1,.235-1.28,17.028,17.028,0,0,1,1.254-2.071l.5-.55a8.751,8.751,0,0,1,1.622-1.361,13.526,13.526,0,0,1,1.784-.784,41.679,41.679,0,0,1,6.649-1.153c.838-.054,1.649-.081,2.487-.081s1.676.027,2.487.081l.7-.027-.027.08a36.633,36.633,0,0,1,8.252,2.327l.657.341c0,.054.1.443.154.443.027,0,.134.288.154.288.4.027.63.422.765.865v.026h.027a.931.931,0,0,0,.046.188,9.59,9.59,0,0,1,.269,1.147A9.771,9.771,0,0,1,851.826,733.472ZM917,814.67a9.3,9.3,0,0,1-.449.892c-.234.207-.415.415-.676.63a20.041,20.041,0,0,1-1.884.965l-1.079.208.026-.047a20.77,20.77,0,0,1-4.109-2.306c-1.226-.972-2.2-1.783-3.144-2.621-1.2-1.046-2.326-2.226-3.425-3.379-2.36-2.433-4.565-5.128-6.4-7.434.027-.027-.054-.053-.08-.08a42.332,42.332,0,0,1-3.352-5.812,22.418,22.418,0,0,1-1.227-3.821h-.054l-.026-.08.4.026h-.215c.4.081.631.108.892.155a39.205,39.205,0,0,1,7.333,2.386,62.852,62.852,0,0,1,5.712,2.856,45.086,45.086,0,0,1,4.793,3.271,53.654,53.654,0,0,1,6.046,5.684,28.172,28.172,0,0,1,1.261,4.4,10.209,10.209,0,0,1,.046,2.513A8.592,8.592,0,0,1,917,814.67Zm10.578-29.723a89.409,89.409,0,0,0-12.045-4.974c-3.3-1.173-6.677-2.2-10.056-3.217l-1.963-.6-2.018-.6c-1.18-.368-2.387-.7-3.533-1.1-2.018-.7-4.036-1.415-6.053-2.2l-4.793-2.044-2.9-1.227c-3.405-1.441-6.207-2.755-8.828-4.143-1.991-1.046-3.975-2.064-5.993-3.063a4.49,4.49,0,0,0,1.046.107c.235,0,.5-.027.731-.027l3.224-.154,1.622-.08c1.495-.108,2.936-.262,4.4-.4,1.414-.127,2.594-.181,3.8-.181l1.019.027c1.1,0,2.172.027,3.272.027l1.649.053c1.106,0,2.205.128,3.278.235l1.072.1c4.82.658,9.432,1.288,13.7,2.963a61.207,61.207,0,0,1,12.254,7.334,46.678,46.678,0,0,1,5.162,4.659c1.595,1.7,3.116,3.432,4.558,5.235a31.345,31.345,0,0,1,2.9,4.4c.738,1.414,1.415,2.855,2.045,4.3A33.945,33.945,0,0,0,927.58,784.947Z" fill="#091d36"/>
      <path id="Path_2584" data-name="Path 2584" d="M727,601.472l.027-.027Z"/>
      <path id="Path_2585" data-name="Path 2585" d="M757.957,636.54a.006.006,0,0,1,.007-.006h-.007Z"/>
      <path id="Path_2586" data-name="Path 2586" d="M755.184,700.706h-.026v.108C755.158,700.76,755.158,700.733,755.184,700.706Z"/>
      <path id="Path_2587" data-name="Path 2587" d="M730.362,694.76l0,0a.284.284,0,0,0,.025-.025Z"/>
      <path id="Path_2588" data-name="Path 2588" d="M689.438,729.852a.889.889,0,0,1,.181-.107h-.027C689.538,729.772,689.485,729.826,689.438,729.852Z"/>
      <path id="Path_2589" data-name="Path 2589" d="M755.211,692.776q-3.267-2.343-6.442-4.746c-4.056-3.09-8.01-6.308-12.019-9.479a3.032,3.032,0,0,0,.054.523c0,.108-.161.135-.181.027,0-.073-.027-.154-.027-.235a3.072,3.072,0,0,1-.945,1.315,15.1,15.1,0,0,1-2.776,1.333c-2.1.785-4.3,1.281-6.442,1.911h.027a.1.1,0,0,0,.081-.027.1.1,0,0,1-.081.027c-.576.181-1.152.369-1.7.577a12.484,12.484,0,0,0-2.118,1.072,27.829,27.829,0,0,0-4.3,3.117c-1.468,1.361-2.937,2.721-4.324,4.109-1.334,1.388-2.587,2.856-3.767,4.351-.6.784-1.261,1.568-1.831,2.406-.475.757-.971,1.522-1.441,2.279a16.036,16.036,0,0,0-.791,1.441c-.207.416-.388.838-.6,1.254-.288.657-.6,1.307-.865,1.964-.63,1.522-1.233,3.037-1.729,4.585-.5,1.595-.919,3.245-1.468,4.813-.577,1.629-1.18,3.251-1.884,4.82-.684,1.468-1.414,2.909-2.226,4.324a20.651,20.651,0,0,1-3.72,5.155,17.444,17.444,0,0,1-3.794,2.674c-.838.389-1.676.811-2.514,1.2-.757.342-1.495.684-2.252,1.052-.711.363-1.361.758-2.044,1.153a1.779,1.779,0,0,0,.261-.187,20.728,20.728,0,0,0-1.937,1.334c-.416.341-.812.683-1.227,1.052-.577.55-1.126,1.1-1.676,1.676,0-.027.02-.027.02-.054a50.369,50.369,0,0,0-3.713,4.371,28.732,28.732,0,0,0-1.884,2.594c-.55.838-1.052,1.676-1.549,2.514h.027v0c-.027,0-.027,0-.027.027v.026a.184.184,0,0,1-.053.1c0-.027.027-.047.027-.074a.126.126,0,0,0-.054.1h.02c-.891,1.7-1.723,3.412-2.48,5.161a39.4,39.4,0,0,0-1.991,5.524,15.726,15.726,0,0,0-.469,3.144l-.081,1.488c.027.791.027,1.549.107,2.306.107.945.262,1.864.443,2.775.234,1.073.5,2.152.791,3.2-.027-.027-.027-.081-.054-.135.335,1.153.7,2.253,1.073,3.379.388,1.1.838,2.145,1.28,3.225a48.723,48.723,0,0,0,3.01,5.65v-.026c.529.818,1.079,1.628,1.629,2.44a27.845,27.845,0,0,1,1.434,2.46.082.082,0,0,1-.154.054c-.208-.343-.415-.685-.657-1.053l.027.027c-.784-1.147-1.649-2.273-2.487-3.4-.784-1.079-1.488-2.2-2.172-3.352a38.254,38.254,0,0,1-1.91-3.639c-.5-1.153-1.046-2.306-1.468-3.513-.416-1.227-.865-2.433-1.207-3.694a29.755,29.755,0,0,1-.784-3.371,29.209,29.209,0,0,1-.315-2.99,20.385,20.385,0,0,1,.523-6.02,26.831,26.831,0,0,1,1.18-3.72c.522-1.361,1.025-2.721,1.621-4.036.631-1.36,1.288-2.721,1.992-4.028a42.223,42.223,0,0,1,4.558-6.576c.811-1.046,1.7-2.038,2.621-3.01a20.261,20.261,0,0,1,3.821-3.352A35.232,35.232,0,0,1,685.034,732c1.548-.7,3.063-1.441,4.558-2.252h.027a.082.082,0,0,1,.053-.027l.027-.026a11.291,11.291,0,0,0,1.83-1.335,9.505,9.505,0,0,0,1.046-.965c.054-.053.08-.107.134-.161l-.054.054.054-.054a21.768,21.768,0,0,0,2.252-3.217c.469-.791.939-1.6,1.415-2.414-.054.081-.108.188-.161.262.6-1.153,1.18-2.3,1.7-3.506a35.4,35.4,0,0,0,1.622-4.035c.784-2.353,1.521-4.74,2.46-7.065.5-1.261,1.079-2.488,1.675-3.721a27.35,27.35,0,0,1,1.838-3.3,33.861,33.861,0,0,1,2.433-3.405c.683-.838,1.387-1.676,2.125-2.514.784-.865,1.6-1.73,2.433-2.568.992-.965,2.044-1.856,3.09-2.775a38.644,38.644,0,0,1,5.209-3.982c.576-.335,1.153-.676,1.729-.965a10.376,10.376,0,0,1,1.623-.737c.71-.235,1.441-.443,2.151-.624,2.065-.5,4.163-.891,6.174-1.495v.027a16.271,16.271,0,0,0,3.043-1.26H735.5a.954.954,0,0,0,.309-.288,3.279,3.279,0,0,0,.5-.731,3.955,3.955,0,0,1,.234-.369c0-.073-.026-.127-.026-.18-.993-.785-1.991-1.569-2.984-2.333-1.36-1.073-2.775-2.065-4.163-3.091-.368-.288-.763-.549-1.125-.838a30.558,30.558,0,0,1-4.639.838,26.678,26.678,0,0,1-6.335-.073c-2.071-.235-4.109-.523-6.154-.765a53.715,53.715,0,0,0-6.126-.261.418.418,0,0,0,.18-.027c-2.044.081-4.082.288-6.1.53-.993.127-2.018.261-3.01.469-.946.235-1.837.442-2.776.677h.054c-1.656.476-3.3.972-4.954,1.549-1.622.576-3.271,1.126-4.947,1.676q-2.473.783-4.947,1.649c-1.6.576-3.171,1.26-4.712,1.963-3.171,1.415-6.181,3.118-9.352,4.559-1.468.677-2.956,1.388-4.424,2.091-.784.423-1.568.812-2.359,1.234-.758.388-1.462.838-2.172,1.253.053-.027.134-.073.181-.1-.939.623-1.911,1.226-2.8,1.937-.838.677-1.676,1.361-2.487,2.092-1.6,1.468-3.164,2.989-4.686,4.558a34.894,34.894,0,0,0-2.406,2.882,37.663,37.663,0,0,0-2.568,3.9,40.073,40.073,0,0,0-2.721,7.541v.074c-.235,1-.476,1.991-.657,2.963-.128.911-.288,1.8-.4,2.748-.1.865-.208,1.756-.234,2.621-.026.974-.023,1.949,0,2.929.08,2.748.187,5.5,0,8.272-.1,1.388-.208,2.775-.443,4.143-.261,1.622-.549,3.191-.838,4.786-.026.107-.181.107-.161,0,.242-1.937.557-3.9.684-5.838.081-1.623.107-3.218.107-4.84,0-.235,0-.523-.026-.791-.081-3.3-.577-6.623-.449-9.948a48.13,48.13,0,0,1,1.468-9.606c.207-.791.449-1.6.71-2.36a22.774,22.774,0,0,1,1.388-3.559c.522-1,1.1-1.964,1.722-2.936.423-.63.818-1.28,1.288-1.884a43.477,43.477,0,0,1,3.271-3.794c1.18-1.206,2.386-2.386,3.586-3.539a32.641,32.641,0,0,1,4.009-3.3c.63-.443,1.28-.865,1.937-1.281.731-.476,1.495-.891,2.279-1.34,2.829-1.542,5.839-2.749,8.721-4.19,1.488-.758,2.983-1.542,4.5-2.252,1.6-.731,3.171-1.488,4.82-2.119,2.963-1.1,5.946-2.017,8.982-2.882,3.3-1.046,6.55-2.065,9.928-2.849a30.693,30.693,0,0,1,4.894-.711c1.6-.127,3.2-.288,4.819-.288,1.676,0,3.325.081,4.974.235a46.444,46.444,0,0,1,4.686.684c1.495.261,3.009.576,4.5.784a24.261,24.261,0,0,0,2.8.315c.81,0,1.6,0,2.406-.027h-.074a32.3,32.3,0,0,0,4.813-.576c-.416-.315-.838-.63-1.28-.945.026.053.026.08.054.107.053.107-.081.181-.162.08l-.308-.476a6.305,6.305,0,0,1-.63-.442c-2.333-1.622-4.585-3.379-6.918-5v.027c-.549-.4-1.1-.757-1.676-1.153-.074-.054,0-.154.054-.154.027,0,.027,0,.054.02,1.783,1.106,3.512,2.252,5.235,3.432V667.4h0c1,.684,2.018,1.341,3.043,2.018-.918-1.441-1.81-2.882-2.594-4.371a68.735,68.735,0,0,1-3.037-7.2c-.918-2.467-1.89-4.927-2.755-7.414a50.942,50.942,0,0,1-1.83-7.434c-.342-1.729-.657-3.459-.837-5.215-.128-1.649-.182-3.272-.208-4.92a75.78,75.78,0,0,1,.63-9.452,41.939,41.939,0,0,1,.838-4.451c.208-.784.415-1.576.65-2.36.208-.65.476-1.28.71-1.937a38.5,38.5,0,0,1,2.353-4.793c.711-1.28,1.495-2.541,2.279-3.767.946-1.441,1.857-2.883,2.91-4.244.938-1.206,1.91-2.379,2.9-3.532.657-.791,1.341-1.549,2.018-2.306a21.985,21.985,0,0,1,1.548-1.6c1.174-1.126,2.38-2.225,3.66-3.251a55.618,55.618,0,0,1,8.279-5.262c.63-.342,1.254-.7,1.884-1.045-.5.08-.992.153-1.522.234-1.28.208-2.561.523-3.847.838l-1.415.369c-1.361.315-2.7.73-4.029,1.173a42.563,42.563,0,0,0-5.738,2.225,28.666,28.666,0,0,0-5.5,3.352c-1.414,1.079-2.8,2.232-4.189,3.432-1.126,1.026-2.253,2.1-3.325,3.2a47.306,47.306,0,0,0-3.747,4.5,22.29,22.29,0,0,0-2.433,3.949c-1.02,2.178-1.784,3.773-2.38,5.422-.423,1.1-.838,2.226-1.153,3.352-.342,1.388-.657,2.749-.945,4.136-.235,1.207-.4,2.46-.523,3.721a31.072,31.072,0,0,0-.235,3.874,68.646,68.646,0,0,0,.416,8.145c.342,2.929.784,5.838,1.387,8.721.523,2.54,1.1,5.1,1.783,7.615a21.871,21.871,0,0,0,1.73,4.639,18.1,18.1,0,0,0-2.648-1.469l-.784-.368c-3.037-1.435-6.1-2.8-9.217-4.083-3.587-1.521-6.938-2.748-10.29-3.82-3.3-1.073-6.623-2.072-10-2.937a173.16,173.16,0,0,0-20.243-3.639l-5.209-.731c-5.108-.737-10.189-1.468-15.291-1.991a118.219,118.219,0,0,0-13.486-.6h-1.6l-3.566.027c-3.928.027-7.883.054-11.805.235-2.8.08-5.738.188-8.667.315l-1-.107-.919-.074a2.369,2.369,0,0,0-.415-.026c-.63,0-.918.08-1.1.315a.751.751,0,0,0,.053.938c.288.63.523.684.758.71a8.631,8.631,0,0,0,1.83,1.308,4.385,4.385,0,0,0,1.937.576l1.18.107a49.668,49.668,0,0,0,5.161.812c1.046.073,2.065.1,3.091.1h1.126c.65-.027,1.28-.1,1.91-.181,1.307-.134,2.514-.181,3.721-.234h1.957l2.125.026h6.73c1.7,0,3.406,0,5.108.054,3.037.073,6.047.181,9.083.308l4.632.242c.838.026,1.649.1,2.487.18l1.944.181,1.488.188c.6.074,1.234.181,1.864.261l5.39.678,5.422.683c3.379.47,6.731,1.1,10.082,1.777,3.714.864,7.354,1.809,11.02,2.909,3.855,1.126,7.649,2.306,11.416,3.613l3.613,1.233c2.387.838,4.794,1.676,7.153,2.541l1.495.523,1.488.55c-2.018.234-4,.677-5.993,1.1l-3.405.757c-6.65,1.334-13.119,2.675-19.406,4.351a99.08,99.08,0,0,0-9.606,3.083q-4.716,1.729-9.271,3.855a81.628,81.628,0,0,0-9.479,5.5,76.092,76.092,0,0,0-8.4,6.415,49.88,49.88,0,0,0-4.713,4.82,55.876,55.876,0,0,0-4.377,5.523A38.886,38.886,0,0,0,628,707.725a38.221,38.221,0,0,0-.911,6.911c-.108,2.386-.215,4.766-.235,7.152a52.984,52.984,0,0,0,.443,6.751c.261,2.017.442,4.062.576,6.079.107,3.326-.027,7.039-.161,10.733-.073,1.783-.208,3.539-.415,5.315a13.967,13.967,0,0,0-.181,2.775l-.684.342h.134a7.617,7.617,0,0,0,4.082-1.307c.812-.476,1.622-.918,2.434-1.341,1.052-.549,2.071-1.1,3.063-1.749a21.546,21.546,0,0,0,4.163-4.009,41.526,41.526,0,0,0,3.928-5.181,23.3,23.3,0,0,0,2.487-5.658c.549-1.676,1-3.378,1.441-5.108l.208-.7a56.989,56.989,0,0,1,2.045-6.126l.422-1.073.362-1.026c.342-.918.657-1.83,1.079-2.721.416-.992.885-2.018,1.388-2.983.073-.108.127-.215.181-.289,0,0-.027-.026,0-.026l-.081-.027.134-.134c0,.053-.08.134-.053.161a48.542,48.542,0,0,1,5.865-8.668,39.253,39.253,0,0,1,3.667-3.251c1.153-.858,2.353-1.676,3.559-2.46a17.726,17.726,0,0,1,2.172-1.2,17.907,17.907,0,0,1,1.964-.764l.684-.288.027.053c1.541-.416,3.063-.838,4.632-1.126l.683-.208v.081a8.481,8.481,0,0,1,1.489.207,18.651,18.651,0,0,1,2.647,1.415,11.516,11.516,0,0,1,1.308,1.253l.315.711a8.616,8.616,0,0,1,.107,1.8,19.81,19.81,0,0,1-.865,3.405A26.635,26.635,0,0,1,679.51,710a34.617,34.617,0,0,1-4.324,3.981l-.523.443c-.965.838-1.937,1.622-2.9,2.433l-1.361,1.126-.811.6c-2.279,1.756-4.558,3.506-6.7,5.449-2.494,2.273-4.873,4.686-7.179,7.173a78.651,78.651,0,0,0-6.469,8.064c-.865,1.254-1.676,2.541-2.433,3.875a29,29,0,0,0-2.28,5.162,23.163,23.163,0,0,0-.992,9.263,35.216,35.216,0,0,0,2.145,9.613,28.17,28.17,0,0,0,5.108,9.164c1.073,1.233,2.172,2.413,3.3,3.586l1.6,1.649,1.575,1.676c1.153,1.153,2.326,2.279,3.506,3.4a40,40,0,0,0,4.531,3.486c1.046.757,2.172,1.468,3.3,2.145l.919.576c1.6,1.019,3.143,2.072,4.712,3.144a61.984,61.984,0,0,0,9.036,5.182,51.142,51.142,0,0,0,6.254,2.46,12.686,12.686,0,0,0,3.406,1.106h.442c.134,0,.241,0,.241-.027.027,0-.214-.214-.214-.241s-.288-.235-.315-.262l-1.1-.7-.55-.577a21.657,21.657,0,0,1-2.7-4.632c-.549-1.314-1.046-2.7-1.468-4.089a24.014,24.014,0,0,1-.865-3.767c-.234-1.783-.469-3.587-.6-5.423a30.8,30.8,0,0,1,.181-5.6c.288-2.145.523-4.083.7-6.046.16-1.261.288-2.28.449-3.252.181-1.2.442-2.379.7-3.559.422-2.092.918-4.217,1.414-6.308a54.454,54.454,0,0,1,1.864-6.415l.335-1.026c.6-1.749,1.206-3.479,1.89-5.181a56.352,56.352,0,0,1,3.3-6.57c1.334-2.232,2.722-4.431,4.243-6.522.912-1.046,1.435-1.622,1.985-2.172l.864-.738.55-.442a29.014,29.014,0,0,1,3.9-2.674c1.1-.577,2.2-1.147,3.325-1.65a16.082,16.082,0,0,1,1.676-.523,9.443,9.443,0,0,1,1.495-.1,23.772,23.772,0,0,1,2.775.181,9.132,9.132,0,0,1,1.495.342,15.436,15.436,0,0,1,2.2,2.065,13.811,13.811,0,0,1,1.045,1.7,20.073,20.073,0,0,1,.945,3.251c.128,1.046.235,2.092.262,3.191a34.04,34.04,0,0,1-.181,3.613,34.885,34.885,0,0,1-1.729,7.2l-.477,1.233c-.965,2.2-2.379,4.894-3.82,7.595l-1.227,2.279-1.026,1.911-1.126,2.2-1.1,2.2-2.118,4.189c-.657,1.335-1.261,2.675-1.864,4.009l-.389.912a72.476,72.476,0,0,0-3.378,8.909c-.5,1.622-.946,3.217-1.334,4.866a24.594,24.594,0,0,0-.711,5.028,27.116,27.116,0,0,0,.235,4.35c.214,1.723.522,3.4.891,5.075a24.891,24.891,0,0,0,.972,3.143,15.811,15.811,0,0,0,2.3,4.036,25.605,25.605,0,0,0,4.216,4.136c1.233,1.045,2.514,2.018,3.8,2.983a53.439,53.439,0,0,0,4.839,3.351,17.354,17.354,0,0,0,2.36,1.1l.684.215-.027.073c.194.081.409.175.61.262-.208-.423-.422-.838-.637-1.254-1-1.884-1.937-3.8-2.855-5.738a114.8,114.8,0,0,1-4.766-11.308c-.758-2.2-1.469-4.425-2.172-6.65-.262-.865-.55-1.73-.785-2.594a31.514,31.514,0,0,1-.864-3.486,16.851,16.851,0,0,1-.315-2.876c0-.811.027-1.6.08-2.386.047-.523.047-1.019.127-1.515.081-.657.181-1.287.262-1.918.134-.938.342-1.883.55-2.795.207-.945.422-1.917.656-2.829.443-1.729.865-3.485,1.442-5.161.523-1.569,1.072-3.117,1.622-4.686.63-1.729,1.307-3.4,2.018-5.108.623-1.468,1.36-2.9,2.064-4.343,1.388-2.829,2.776-5.685,4.3-8.46a78.118,78.118,0,0,1,5.209-8.668c1.964-2.721,3.874-5.5,6-8.144,1.1-1.388,2.279-2.749,3.378-4.163.966-1.18,1.884-2.38,2.749-3.613.938-1.307,1.8-2.668,2.668-4.029.784-1.26,1.649-2.467,2.514-3.693.945-1.334,1.89-2.7,2.775-4.089.838-1.281,1.6-2.588,2.333-3.929l-.027.027c.657-1.253,1.26-2.514,1.783-3.794.288-.711.549-1.387.784-2.1l.47-1.749v-.108a26.733,26.733,0,0,0,.422-2.882c.026-.742.025-1.51,0-2.253a13.5,13.5,0,0,0-.235-2.272C755.3,693.118,755.258,692.944,755.211,692.776Zm-18.065,8.949.073,1.6a66.779,66.779,0,0,1-.047,8.011,20.875,20.875,0,0,1-.476,2.252,13.13,13.13,0,0,1-.891,1.73,13.5,13.5,0,0,1-1.361,1.414,18.921,18.921,0,0,1-2.487,1.488c-.811.288-1.622.523-2.433.737a21.971,21.971,0,0,1-2.226.128,5.164,5.164,0,0,1-1.36-.181,9.383,9.383,0,0,1-1.468-.785,13.522,13.522,0,0,1-1.18-1.152,9.872,9.872,0,0,1-.758-1.261c-.208-.65-.422-1.253-.6-1.937a18.282,18.282,0,0,1-.027-2.722,33,33,0,0,1,1.548-6.441c.39-1.019.785-2.018,1.254-3.01a17.047,17.047,0,0,1,1.6-2.648,39.18,39.18,0,0,1,4.058-4.192l0,0,.027-.027a.284.284,0,0,1-.025.025,46.5,46.5,0,0,1,4.556-3.242c.885-.55,1.83-1.073,2.775-1.569a32.814,32.814,0,0,0-.684,6.335A52.445,52.445,0,0,0,737.146,701.725Z"/>
      <path id="Path_2590" data-name="Path 2590" d="M778.772,712.062v0Z"/>
      <path id="Path_2591" data-name="Path 2591" d="M713.341,788.915c0-.053.011-.106.011-.159,0-.025-.01-.05-.011-.075Z"/>
      <path id="Path_2592" data-name="Path 2592" d="M810.171,740.028c-.009-.026-.019-.051-.027-.077v.077Z"/>
      <path id="Path_2593" data-name="Path 2593" d="M829.624,851c-1.388-1.623-2.749-3.272-4.056-4.948-1.314-1.7-2.594-3.452-3.774-5.262-.55-.865-1.126-1.729-1.649-2.621-.6-1.045-1.207-2.091-1.776-3.164-.838-1.548-1.576-3.144-2.306-4.739-.711-1.522-1.415-3.037-2.1-4.585-1.388-3.191-2.8-6.362-3.875-9.687-.523-1.622-1.046-3.277-1.515-4.953-.241-.859-.449-1.777-.657-2.668a22.427,22.427,0,0,1-.442-2.36c-.262-1.776-.476-3.559-.577-5.336-.107-1.649-.107-3.251-.053-4.873.053-.891.181-1.783.288-2.648.1-.885.208-1.8.342-2.694.207-1.676.389-3.352.623-5,.262-1.884.55-3.747.865-5.6.288-1.6.63-3.171.892-4.739.549-3.191.971-6.389,1.414-9.607.261-1.863.523-3.747.7-5.63.16-1.549.187-3.091.241-4.639-.027-1.361-.027-2.722-.134-4.083-.127-1.333-.208-2.694-.416-4.008-.214-1.281-.422-2.541-.71-3.794-.261-1.126-.523-2.226-.811-3.325v-.077a54.287,54.287,0,0,0-1.83-5.212c-.3-.677-.624-1.354-.959-2.031-.918-.744-1.857-1.5-2.788-2.239-1.207-.945-2.434-1.884-3.587-2.909-2.433-2.172-4.846-4.425-7.36-6.489-1.227-1.026-2.514-2.018-3.767-3.017-1.1-.911-2.2-1.83-3.305-2.721-1.254-1.046-2.514-2.065-3.767-3.091-1.1-.891-2.28-1.7-3.433-2.513l.081.08c-.154-.107-.315-.208-.5-.315a47.535,47.535,0,0,1,.342,6.308c-.027.865-.054,1.729-.134,2.594a21.379,21.379,0,0,1-.288,2.146c-.316,1.414-.731,2.781-1.18,4.169a89.6,89.6,0,0,1-3.3,8.507c-1.207,2.674-2.514,5.315-3.929,7.882v.027a.026.026,0,0,0-.026.027c-.7,1.281-1.442,2.561-2.092,3.848-.683,1.361-1.313,2.722-1.937,4.109-1.207,2.594-2.333,5.235-3.432,7.856-1.18,2.829-2.36,5.658-3.3,8.587s-1.877,5.882-2.723,8.832a35.309,35.309,0,0,0-.816,4.052c-.155,1.307-.235,2.621-.309,3.928-.161,2.434-.241,4.874-.241,7.307a109.038,109.038,0,0,0,1.079,13.407,101.528,101.528,0,0,0,2.748,12.1c0-.053-.026-.107-.026-.16q1.336,4.635,2.8,9.27c.416,1.334.865,2.668,1.335,4.009a36.573,36.573,0,0,0,2.2,5.363v-.021c.161.208.288.443.449.677a.087.087,0,0,1-.134.108,12.383,12.383,0,0,1-1.334-2.172c-.208-.422-.422-.865-.6-1.287-.4-.892-.811-1.8-1.153-2.722-.684-1.7-1.334-3.378-1.964-5.108-1.233-3.378-2.46-6.757-3.506-10.209a90.4,90.4,0,0,1-2.36-9.143,86.312,86.312,0,0,1-1.307-10.1c-.107-1.81-.234-3.614-.261-5.45-.054-1.468,0-2.93.047-4.4.053-1.883.107-3.774.315-5.657a36.448,36.448,0,0,1,.891-4.606c.919-3.324,1.965-6.629,3.118-9.873,1.1-3.2,2.486-6.261,3.874-9.352.63-1.414,1.26-2.849,1.937-4.263.711-1.468,1.388-2.936,2.152-4.377,1.462-2.749,3.084-5.363,4.605-8.091a1.3,1.3,0,0,1-.08.187c1.548-2.855,3.036-5.737,4.377-8.694.6-1.361,1.173-2.775,1.7-4.163.576-1.494,1.126-2.989,1.542-4.5v-.027c.026,0,.026,0,.026-.027v.027a40.535,40.535,0,0,0,.73-8.322c-.026-.937-.047-1.875-.126-2.779-2.253-1.441-4.559-2.829-6.731-4.377-1.387-.966-2.748-1.964-4.062-2.956-1.173-.918-2.326-1.81-3.533-2.7-2.54-1.89-5.181-3.694-7.749-5.557a.161.161,0,0,0-.107.027h.027a.1.1,0,0,1-.08.027c-.1.026-.181-.128-.074-.155.027-.027.027-.027.047-.027-.1-.08-.235-.154-.336-.234l-.475-.315c.027.054.027.127.053.181a20.438,20.438,0,0,1,.422,3.566,17.81,17.81,0,0,1-.234,4.056,25.169,25.169,0,0,1-.918,3.586,44.593,44.593,0,0,1-3.513,7.722c-1.434,2.494-3.01,4.874-4.552,7.253-.764,1.207-1.441,2.44-2.178,3.64-.677,1.18-1.435,2.306-2.2,3.406-1.7,2.439-3.586,4.739-5.363,7.1-1.89,2.487-3.566,5.081-5.315,7.642-.838,1.18-1.629,2.413-2.36,3.64s-1.388,2.494-2.091,3.747c.047-.08.1-.181.154-.261-1.334,2.513-2.594,5.081-3.875,7.648-1.307,2.615-2.62,5.262-3.8,7.957-1.126,2.648-2.092,5.37-3.064,8.091a67.876,67.876,0,0,0-2.225,7.8c-.027.027-.027.054-.027.107-.02,0-.02.027-.02.054-.134.677-.288,1.361-.449,1.991-.128.623-.208,1.226-.315,1.856a27.19,27.19,0,0,0-.351,4.922,40.411,40.411,0,0,0,1.477,7.332c.422,1.542.838,3.09,1.313,4.659q1.057,3.539,2.273,7.045c.764,2.145,1.649,4.244,2.514,6.335.449,1.1.918,2.2,1.387,3.3.45.965.892,1.937,1.341,2.929.262.577.5,1.153.731,1.73a17.553,17.553,0,0,0,2.306.7,49.974,49.974,0,0,0,6.207,1.314,59.4,59.4,0,0,0,6.435.416l2.232-.027.7-.027c.7-.026,1.415-.047,2.072-.127l-.973-1.388-1.072-1.072c-1.233-1.287-2.406-2.621-3.512-3.982a51.833,51.833,0,0,1-5.759-10.316,68.756,68.756,0,0,1-2.279-7.334,59.646,59.646,0,0,1-1.226-7.119,87.027,87.027,0,0,1,.315-17.388c.207-1.415.415-2.856.65-4.351.315-1.857.6-3.111.918-4.344l.442-1.883c.315-1.442.738-2.829,1.153-4.217l.55-1.837c.5-1.7,1.153-3.351,1.81-5l.416-1.019a65.885,65.885,0,0,1,4.243-8.667c1.676-2.8,3.559-5.685,5.785-8.722l.737-.918.731-.912a28.636,28.636,0,0,1,2.54-1.91c.865-.63,1.73-1.26,2.668-1.837a8.856,8.856,0,0,1,1.6-.677,6.836,6.836,0,0,1,1.648-.241l.678.188a8.936,8.936,0,0,1,1.414,1.018,7.237,7.237,0,0,1,.811,1.783,24.122,24.122,0,0,1,.5,5.236,37.67,37.67,0,0,1-1.522,7.776c-.5,1.622-1.046,3.17-1.6,4.685l-.342,1-.865,2.614-.865,2.6-.315.891c-.549,1.6-1.1,3.144-1.568,4.713-.523,1.783-1.046,3.559-1.6,5.342l-.315,1.073c-1.072,3.533-1.91,6.73-2.674,9.928a87.07,87.07,0,0,0-1.622,9.217c-.289,2.118-.47,4.236-.657,6.334l-.336,3.64c-.315,3.064-.522,6.127-.549,9.217a49.807,49.807,0,0,0,.7,9.009c.315,1.7.737,3.379,1.179,5.055a32.167,32.167,0,0,0,1.938,4.84,32.549,32.549,0,0,0,4.92,7.856c.523.576,1.1,1.126,1.649,1.649a13,13,0,0,0,3.278,2.279A30.776,30.776,0,0,0,762.121,839a39.453,39.453,0,0,0,5.054,1.81,32.552,32.552,0,0,0,4.056.891,25.72,25.72,0,0,0,3.693.416l1.676.027c1.126,0,2.279-.054,3.379-.107a5.236,5.236,0,0,0-.758-2.038l-1.388-2.675q-1.3-2.474-2.674-4.947a82.374,82.374,0,0,1-5.812-13.407c-.523-1.515-.992-3.063-1.441-4.605l-.55-1.917c-.731-2.487-1.414-4.974-2.091-7.487a85.721,85.721,0,0,1-1.676-9.687,69.773,69.773,0,0,1-.4-10.578l.053-1.046c.027-.891.054-1.756.107-2.647.128-1.623.262-3.218.416-4.847a48.121,48.121,0,0,1,1.991-8.795l.234-.784c.4-1.26.838-2.541,1.308-3.8l.764-2.038.315-.817a8.193,8.193,0,0,1,1.1-1.12,11.982,11.982,0,0,1,1.488-1H771a9.751,9.751,0,0,1,2.2-.63,11.534,11.534,0,0,1,1.6-.1c.469,0,.938.027,1.435.074a13.749,13.749,0,0,1,2.252.63,19.757,19.757,0,0,1,2.621,1.153c.657.341,1.28.71,1.91,1.1a20.956,20.956,0,0,1,1.81,1.649c.577.758,1.073,1.521,1.569,2.279.288.523.549,1.072.811,1.622a40.886,40.886,0,0,1,2.018,6.469,62.248,62.248,0,0,1,.415,7.722,67.276,67.276,0,0,1-.362,7.622c-.161.811-.4,2.172-.63,3.559-.315,1.918-.422,3.3-.55,4.693l-.134,1.387-.207,2.172-.182,2.2a50.057,50.057,0,0,0-.107,5.289,63.531,63.531,0,0,0,1.073,10.45,86.659,86.659,0,0,0,2.44,10.156,39.01,39.01,0,0,0,3.975,8.8l.684,1.153c.576.966,1.152,1.965,1.756,2.9a40.456,40.456,0,0,0,3.56,5.108c.522.576,1.1,1.126,1.648,1.649a18.181,18.181,0,0,0,4.612,3.2,49.342,49.342,0,0,0,4.947,2.145,32.3,32.3,0,0,0,4.163,1.307,44,44,0,0,0,4.947.757l1.287.161c1.307.154,2.588.342,3.9.416,1.461.08,2.956.107,4.424.107h1.622c.389-.014.778-.027,1.166-.047-.623-.563-1.233-1.12-1.823-1.709C831.092,852.517,830.334,851.786,829.624,851ZM759.031,717.719l-.054-.053-.342-.235a7.888,7.888,0,0,1-1.414-1.7,2.984,2.984,0,0,1,.107-1.025,16.5,16.5,0,0,1,.657-1.6,14.656,14.656,0,0,1,1.253-1.622,22.567,22.567,0,0,1,3.037-2.386.128.128,0,0,0,.081-.047L762.3,709l.214-.08c-.027.026-.16.08-.134.107a12.215,12.215,0,0,1,1.542-.684,3.268,3.268,0,0,1,.892-.1,5.226,5.226,0,0,1,1.34.208,8.466,8.466,0,0,1,1.6.677l.415.683a7.948,7.948,0,0,1,.288,1.911,1.309,1.309,0,0,0-.026.442c.026.027,0,.342.026.342a10.1,10.1,0,0,0-.65,1.314,11.779,11.779,0,0,1-1.495,1.883l-.656.342v-.053a5.38,5.38,0,0,0-1.623.5,17.663,17.663,0,0,1-2.721,1.045c-.262.027-.737.108-1.26.161a1.177,1.177,0,0,0-.362-.026c-.108,0-.188,0-.215.026A2.433,2.433,0,0,1,759.031,717.719ZM794.88,741.2c-.261,1.441-.6,2.856-.945,4.3l-.315,1.287a34.8,34.8,0,0,0-.811,8.768,3.682,3.682,0,0,1-.6.523,4.767,4.767,0,0,1-.785.315,6.983,6.983,0,0,1-1.072.134l-.865-.214.054-.047a6.436,6.436,0,0,1-1.234-1.576,26.4,26.4,0,0,1-1.515-3.533v.027a12.207,12.207,0,0,1-.422-2.44c-.08-.838-.127-1.675-.127-2.513a26.9,26.9,0,0,1,1.307-7.776,58.063,58.063,0,0,1,2.668-7.434c.161-.208.341-.443.549-.684l.765-.362v.074a5.643,5.643,0,0,1,1.83.63,4.86,4.86,0,0,1,.63.5c.026.027.234.261.288.261.027,0,.208.188.235.188.154.576.261.838.341,1.1a19.389,19.389,0,0,1,.389,3.667A29.759,29.759,0,0,1,794.88,741.2Z" fill="#091d36"/>
      <path id="Path_2594" data-name="Path 2594" d="M756.859,774.644c.024-.086.055-.172.079-.258v0C756.912,774.456,756.885,774.564,756.859,774.644Z"/>
      <path id="Path_2595" data-name="Path 2595" d="M904.039,850.633l0-.01c-.015-.034-.035-.064-.05-.1C904.012,850.552,904.012,850.606,904.039,850.633Z"/>
      <path id="Path_2596" data-name="Path 2596" d="M826.3,761.418a3.092,3.092,0,0,1,.258-.244c.021-.025.035-.046.057-.071Z"/>
      <path id="Path_2597" data-name="Path 2597" d="M921.247,858.516c-.684-1.18-1.368-2.36-2.126-3.513-.469-.7-.965-1.414-1.441-2.145-.5-.811-1.019-1.595-1.568-2.386-.5-.757-.972-1.542-1.495-2.272-.838-1.18-1.7-2.333-2.514-3.513-.864-1.207-1.7-2.38-2.487-3.613-.677-1.019-1.253-2.092-1.883-3.144-.63-1.019-1.234-2.038-1.884-3.037-.684-1.1-1.314-2.2-1.911-3.325h.021c-.1-.181-.182-.341-.289-.523-.442-.549-.885-1.125-1.307-1.7-.918-1.234-1.729-2.514-2.534-3.821-1.991-3.251-4.116-6.442-6.1-9.713-1.052-1.676-1.991-3.459-3.043-5.162a37.885,37.885,0,0,0-3.218-4.5c-.053-.081-.107-.128-.154-.208.55,1.1,1.072,2.2,1.595,3.3,1.1,2.306,2.172,4.585,3.064,6.965.784,2.171,1.334,4.424,1.91,6.65.684,2.62,1.415,5.188,2.306,7.728.416,1.2.892,2.353,1.307,3.56.369,1.019.731,2.044,1.1,3.036.865,2.28,1.756,4.505,2.668,6.757.89,2.249,1.834,4.472,2.771,6.694a37,37,0,0,0,1.841,3.623,24.855,24.855,0,0,0,2.145,3.09l-.054-.054c1.26,1.495,2.594,2.936,3.875,4.371.08.08-.027.215-.1.134-1.7-1.676-3.378-3.3-4.954-5.081a24.162,24.162,0,0,1-1.515-2.092,22.946,22.946,0,0,1-1.36-2.306c-1.7-3.3-3.2-6.622-4.633-10v0h.027c-.576-1.34-1.153-2.648-1.7-3.982-.5-1.26-.972-2.54-1.441-3.821-.523-1.367-1.046-2.728-1.549-4.089-.442-1.307-.865-2.668-1.227-4-.71-2.675-1.26-5.4-1.991-8.071a71.772,71.772,0,0,0-3.17-8.48c0,.054.027.08.027.1-.155-.389-.342-.785-.5-1.174,0,.027.027.047.027.074-.757-1.776-1.548-3.559-2.359-5.289-1.442-1.857-2.849-3.74-4.371-5.523a.026.026,0,0,1-.027-.027A.026.026,0,0,0,881,798c-.864-.912-1.756-1.777-2.641-2.614-.972-.919-1.937-1.864-2.936-2.776-.992-.891-1.99-1.809-3.036-2.621-.945-.73-1.938-1.414-2.936-2.1a.026.026,0,0,0,.026.027.026.026,0,0,1-.026-.027c-.912-.6-1.83-1.173-2.722-1.83-1.019-.731-2.018-1.494-3.01-2.252-.992-.731-1.964-1.468-2.983-2.172-1.052-.71-2.125-1.388-3.09-2.172a62.292,62.292,0,0,1-5.812-5.4c-1.863-1.937-3.593-3.955-5.316-5.973a.026.026,0,0,1-.027-.026.026.026,0,0,0,.027.026l.027.027c-1.655-1.883-3.331-3.767-5.054-5.631-1.6-1.723-3.379-3.3-5.108-4.866-1.233-1.153-2.46-2.306-3.694-3.486-1.019-.965-2.118-1.884-3.17-2.829-1.146-.965-2.273-1.964-3.426-2.929-1.206-1-2.44-1.991-3.559-3.064-1.18-1.1-2.333-2.225-3.513-3.3-1.206-1.072-2.379-2.125-3.64-3.117-1.206-.945-2.379-1.883-3.613-2.8-1.153-.864-2.306-1.729-3.459-2.621-.033-.033-.08-.06-.12-.094.362.664.7,1.348.985,2.031a50.336,50.336,0,0,1,2.775,7.991c.4,1.622.765,3.217,1.026,4.867.234,1.494.389,3.016.523,4.531.127,1.495.154,2.983.181,4.478,0,1.414-.054,2.829-.181,4.216-.289,3.01-.6,6.047-.972,9.063-.154,1.515-.362,3.01-.577,4.525-.207,1.415-.5,2.829-.7,4.243-.5,3.09-.891,6.181-1.26,9.3-.181,1.595-.362,3.19-.549,4.819-.1.785-.235,1.6-.262,2.407l-.074,1.964c0,1.254.021,2.54.128,3.767.134,1.368.234,2.755.449,4.116.261,1.441.469,2.9.858,4.317.315,1.26.657,2.514,1.025,3.774h-.026c.657,2.2,1.36,4.424,2.225,6.569.919,2.306,1.83,4.639,2.8,6.939.469,1.152.965,2.332,1.468,3.485.442,1.1.885,2.2,1.415,3.244.623,1.207,1.226,2.441,1.856,3.641.47.891.966,1.7,1.469,2.594v-.027a.086.086,0,0,0,.02.054c0,.006.006.013.013.026s.02.027.04.054a.007.007,0,0,1-.007-.007c1.616,2.615,3.339,5.2,5.2,7.649.938,1.233,1.83,2.54,2.882,3.693,1.006,1.093,2.031,2.172,3.057,3.245.228-.007.455-.021.683-.027.838-.047,1.7-.074,2.568-.074,2.091,0,3.821.1,5.524.262,1.26.1,2.332.208,3.485.234l.677.208a26.273,26.273,0,0,0-2.145-2.983l-1.233-1.495-.5-.65a18.544,18.544,0,0,0-1.153-1.468l-.939-1-.972-1.019c-.811-.918-1.568-1.83-2.333-2.8-1.622-2.044-3.217-4.189-4.658-6.415-1.207-1.91-2.2-3.9-3.218-5.919l-.4-.731a62.215,62.215,0,0,1-3.271-7.749,51.717,51.717,0,0,1-2.513-11.576h.027v-.027h-.027v-.128c-.027-1.079-.027-2.3-.027-3.512a22.93,22.93,0,0,1,.288-3.613c.208-.677.442-1.361.677-2.018.5-1.227,1.079-2.433,1.629-3.64.576-1.019.858-1.515,1.173-1.991l1.314-1.649a17.428,17.428,0,0,1,2.54-2.514,12.609,12.609,0,0,1,1.985-.864l1.991-.469a.971.971,0,0,1,.261-.027,3.214,3.214,0,0,1,.55.053,21.653,21.653,0,0,1,3.325,1.307,7.372,7.372,0,0,1,1.025.684,12.4,12.4,0,0,1,1.542,1.83l.576.737.054-.026A64.862,64.862,0,0,1,845.753,803a26.12,26.12,0,0,1,.737,3.928c.128,1.1.208,2.178.262,3.251l.1,3.875c0,1.226-.027,2.486-.047,3.713V819a97.973,97.973,0,0,0,.181,10.215c.261,3.01.576,6.02,1.126,9a89.8,89.8,0,0,0,2.252,9.559c.416,1.441.892,2.883,1.361,4.3a24.8,24.8,0,0,0,2.36,5.363,21.147,21.147,0,0,0,3.82,4.323c.657.55,1.281,1.1,1.965,1.569.837.63,1.729,1.207,2.614,1.783a24.882,24.882,0,0,0,4.451,2.333c.918.315,1.629.576,2.386.757.892.235,1.784.416,2.668.577a23.476,23.476,0,0,0,3.567.368c.288.074.6.155.884.208a57.491,57.491,0,0,0,11.55,1.019,91.579,91.579,0,0,0,9.217-.65l1.938-.188c2.171-.208,4.316-.369,6.489-.523,1.7-.107,3.4-.234,5.134-.368l1-.155v.081a2.257,2.257,0,0,1,.416-.027c1.387-.054,2.748-.054,4.136-.054l3.639.027a58.669,58.669,0,0,1,6.939.416c-.705-1.414-1.388-2.849-2.173-4.243C923.573,862.625,922.42,860.581,921.247,858.516Zm-87.54-75.6a8.335,8.335,0,0,1-1.622,1.288c-.234.053-.677.207-1.126.362a3.251,3.251,0,0,1-.731.16,8.361,8.361,0,0,1-1.649-.261,4.977,4.977,0,0,1-1.233-.5l-.677-.63.053-.027c-.529-1.073-.972-2.172-1.414-3.271a33.66,33.66,0,0,1-1.26-3.486,15.867,15.867,0,0,1-.4-2.722V772.6c.054-1.1.215-2.54.422-4.029a32.506,32.506,0,0,1,.731-3.485l.215-.865a19.5,19.5,0,0,1,.73-1.938,5.75,5.75,0,0,1,.808-1.108,3.092,3.092,0,0,0-.258.244l.315-.315c-.022.025-.036.046-.057.071a2.3,2.3,0,0,1,.238-.225,9.133,9.133,0,0,1,1.991,1.521,19.625,19.625,0,0,1,1.676,2.246,17.678,17.678,0,0,1,.865,2.071,3.456,3.456,0,0,0,.234.55c.054,0,.208.442.208.442l.081.791.207.731c.449,1.783.838,3.351,1.153,4.974a40.057,40.057,0,0,1,1.026,6.73,1.7,1.7,0,0,0-.027.369,1.3,1.3,0,0,0,.054.341C834.076,782.051,833.922,782.5,833.707,782.915Zm54.1,59.808a4.8,4.8,0,0,1-1.441,1.206,4.188,4.188,0,0,1-1.234.389,11.651,11.651,0,0,1-2.326-.442,19.64,19.64,0,0,1-2.909-1.308c-.811-.422-1.569-.918-2.353-1.387a21.448,21.448,0,0,1-3.566-2.856,19.948,19.948,0,0,1-2.514-3.693,64.9,64.9,0,0,1-2.748-6.073,26.935,26.935,0,0,1-.945-3.091c-.389-1.495-.651-2.647-.912-3.874l-.027.026c-.422-1.963-.784-3.954-1.153-5.945-.207-1.1-.4-2.2-.549-3.3a27.252,27.252,0,0,1-.262-4.612,30.813,30.813,0,0,1,.992-4.793,6.783,6.783,0,0,1,.315-.858,24.978,24.978,0,0,1,1.234-2.728,12.6,12.6,0,0,1,1.126-1.307h.054a3.892,3.892,0,0,1,1.984.549,9.493,9.493,0,0,1,.945.838,28.179,28.179,0,0,1,2.333,3.667c1.515,2.983,2.775,6.046,4.055,9.163l1.314,3.09A64.476,64.476,0,0,0,882,821.3c.55,1.02,1.126,2.018,1.7,3.01l1.569,2.722a49.279,49.279,0,0,1,3.324,8.379c.154.711.235,1.053.289,1.388a19.919,19.919,0,0,1,.154,3.036A16.66,16.66,0,0,1,887.81,842.723Z" fill="#091d36"/>
      <path id="Path_2598" data-name="Path 2598" d="M778.015,720.441a.026.026,0,0,1,.027-.027h-.027Z"/>
      <path id="Path_2599" data-name="Path 2599" d="M770.438,741.123a.026.026,0,0,1,.006-.014V741.1a.046.046,0,0,1-.013.027Z"/>
      <path id="Path_2600" data-name="Path 2600" d="M714.5,779.826a.56.56,0,0,0,.013-.1c0,.047-.027.1-.027.154C714.5,779.86,714.5,779.847,714.5,779.826Z"/>
      <path id="Path_2601" data-name="Path 2601" d="M671.387,749.122a.045.045,0,0,0,.006-.027c-.006.014-.013.034-.02.054A.036.036,0,0,0,671.387,749.122Z"/>
    </g>
  </g>
</svg>
