<svg version="1.1" id="Layer_1" xmlns="http://www.w3.org/2000/svg" x="0" y="0" viewBox="0 0 474 114" style="enable-background:new 0 0 474 114" xml:space="preserve"><style>.st0{fill:#85782f}.st1{fill:#213b73}</style><path class="st0" d="M47.5 70.4c-.3 0-.5.2-.6.5L45 86.8c0 .7.5 1.2 1.2 1.2.5 0 1-.5 1-1l.9-16c0-.3-.3-.6-.6-.6zM47.9 62.9l-.6 5.5c0 .3.2.6.5.5.2 0 .4-.2.5-.5l.3-5.5c0-.2-.1-.3-.3-.3-.3 0-.4.2-.4.3zM48.2 59.6l-.1 1.2c0 .2.1.3.3.3.1 0 .2-.1.2-.2l.1-1.2c0-.1-.1-.2-.2-.2-.2-.1-.2 0-.3.1z"/><path class="st0" d="m47.7 59.6-.4 1.2c-.1.2.1.3.2.3s.2-.1.3-.2l.4-1.2c0-.1 0-.3-.2-.3s-.3.1-.3.2zM46.5 62.8l-2 5.4c-.1.3.1.6.4.7.2 0 .5-.1.5-.4L47 63c.1-.2-.1-.4-.3-.4 0-.1-.2 0-.2.2zM45.1 62.3l-3.3 5c-.2.3-.1.7.3.8.2.1.5 0 .6-.2l2.9-5.2c.1-.2 0-.4-.2-.5-.1-.1-.2 0-.3.1zM47 59.4l-.8 1.2c-.1.1 0 .4.1.4s.2 0 .3-.1l.7-1.2c.1-.1 0-.3-.1-.3 0-.1-.1-.1-.2 0zM46.4 59l-1.1 1c-.1.1-.1.4.1.4.1.1.2 0 .3-.1l1-1.1c.1-.1.1-.3-.1-.3 0 .1-.1.1-.2.1zM43.7 61.6l-4.5 4.3c-.3.2-.2.7.1.8.2.1.5.1.7-.1l4.2-4.5c.1-.1.1-.4-.1-.5-.1-.2-.3-.1-.4 0zM42.5 60.5l-5.6 3.2c-.3.2-.4.6-.1.9.2.2.5.2.7.1l5.4-3.6c.2-.1.2-.4.1-.5-.2-.2-.4-.2-.5-.1zM45.8 58.6l-1.4.8c-.2.1-.2.3 0 .5.1.1.2.1.3 0L46 59c.1-.1.1-.3 0-.4 0-.1-.1-.1-.2 0zM45.3 57.9l-1.6.5c-.2.1-.3.3-.2.5.1.1.2.2.3.1l1.6-.6c.2-.1.2-.2.1-.4 0-.1-.1-.1-.2-.1zM41.5 59 35 61c-.4.1-.5.5-.3.9.1.2.4.3.7.3l6.4-2.4c.2-.1.3-.3.2-.5-.2-.3-.3-.3-.5-.3zM40.8 57.3l-7.1.4c-.4 0-.7.4-.5.8.1.3.4.5.7.4l7-.9c.2 0 .4-.2.3-.4v-.1c0-.1-.2-.2-.4-.2zM44.9 57l-1.8.1c-.2 0-.3.2-.3.4.1.1.2.2.3.2l1.8-.2c.2 0 .3-.2.2-.3 0-.1-.1-.2-.2-.2zM41 55.7c0-.2-.1-.3-.3-.4L33.4 54c-.3-.1-.7.2-.7.6v.1c0 .3.2.5.5.6l7.4.8c.2.1.4-.1.4-.4 0 .1 0 0 0 0zM44.8 56.1l-1.9-.3c-.2 0-.4.1-.4.3 0 .2.1.3.3.3l1.9.2c.2 0 .3-.1.3-.3 0-.1-.1-.2-.2-.2zM41 53.3l-7-3c-.4-.2-.8.1-.9.5-.1.3.1.6.4.7l7.2 2.6c.2.1.4-.1.5-.3v-.1c0-.1-.1-.3-.2-.4zM44.9 55l-1.9-.8c-.2-.1-.4 0-.5.3 0 .2.1.3.2.4l1.9.7c.1.1.3 0 .3-.2.2-.2.1-.3 0-.4zM47.4 56.3c0-.1 0-.2-.2-.3l-.4-.2c-.1-.1-.3 0-.3.2 0 .1.1.2.1.2l.4.2c.2 0 .3 0 .4-.1zM45.3 54l-1.7-1.3c-.2-.1-.4-.1-.5.1-.1.2 0 .3.1.4l1.8 1.2c.1.1.3 0 .4-.1.1-.1 0-.2-.1-.3zM47.6 56c.1-.1 0-.2-.1-.3l-.5-.5c-.1-.1-.3 0-.3.1s0 .2.1.3l.6.4c0 .1.2 0 .2 0zM41.8 51.4l-6.4-4.7c-.3-.3-.8-.1-1 .2-.1.3 0 .7.2.8l6.7 4.3c.2.1.4 0 .5-.1 0 0 0-.1.1-.1.1-.1 0-.3-.1-.4zM43.1 49.6l-5.3-6.4c-.3-.3-.8-.3-1.1 0-.2.3-.2.7 0 .9l5.7 6c.1.2.4.1.5 0l.1-.1c.2 0 .2-.2.1-.4zM47.9 55.7c.1-.1.1-.2 0-.3l-.6-.7c-.1-.1-.3-.1-.3 0-.1.1-.1.2 0 .3l.6.7c.1 0 .3.1.3 0zM46 53.1l-1.5-1.7c-.1-.2-.4-.2-.6 0-.1.1-.1.3 0 .5l1.6 1.6c.1.1.3.1.4 0 .2-.1.2-.3.1-.4zM48.3 55.5c.1-.1.1-.2.1-.3l-.5-.9c-.1-.1-.2-.2-.3-.1-.1.1-.1.2-.1.3l.5.9c.1.1.2.1.3.1zM47 52.4l-1.1-2.2c-.1-.2-.4-.3-.6-.1-.2.1-.2.3-.1.5l1.2 2.1c.1.1.3.2.4.1.2-.1.3-.3.2-.4zM44.8 48.1 41 40.4c-.2-.4-.7-.5-1.1-.3-.3.2-.4.6-.2.9l4.3 7.4c.1.2.4.3.6.1.3.1.3-.2.2-.4zM48.7 55.4c.1 0 .2-.2.1-.3l-.2-1.1c0-.1-.2-.2-.3-.2-.1 0-.2.2-.2.3l.3 1.1c.1.1.2.2.3.2zM47 47.2l-2.1-8.8c-.1-.4-.6-.7-1-.5h-.1c-.3.1-.5.5-.4.9l2.6 8.6c.1.2.3.4.6.3.3-.1.4-.3.4-.5zM48.1 52l-.6-2.6c-.1-.2-.3-.3-.5-.3-.2.1-.3.3-.2.5l.8 2.5c0 .2.2.2.4.2.1 0 .2-.1.1-.3zM49.2 55.4c.1 0 .2-.1.2-.3V54c0-.1-.1-.2-.2-.2s-.3.1-.2.2l.1 1.2c-.1.1 0 .2.1.2zM49.4 52v-2.8c0-.2-.2-.4-.4-.4s-.4.2-.4.4l.2 2.8c0 .2.1.3.3.3.1 0 .3-.2.3-.3zM49.4 46.8v-9.4c0-.4-.4-.8-.8-.7h-.1c-.4 0-.6.4-.6.8l.6 9.4c0 .2.2.4.5.4.2-.1.4-.3.4-.5zM50.6 52.2l.7-2.9c.1-.2-.1-.4-.3-.5-.2 0-.4.1-.4.3l-.6 3c0 .2.1.3.2.3.1.1.3 0 .4-.2zM49.6 55.5c.1 0 .2-.1.2-.2l.3-1.1c0-.1 0-.2-.1-.3-.1 0-.3 0-.3.2l-.2 1.1c-.1.2 0 .3.1.3zM51.8 47.1l2.3-9.5c.1-.4-.2-.8-.6-.9h-.1c-.4 0-.7.2-.8.6L51 46.9c0 .2.1.5.4.5.1 0 .3-.1.4-.3zM51.6 52.8 53 50c.1-.2 0-.5-.2-.5-.2-.1-.4 0-.5.2l-1.2 2.9c-.1.1 0 .3.1.4.2 0 .4-.1.4-.2zM50 55.7c.1 0 .2 0 .3-.1l.5-1c.1-.1 0-.2-.1-.3-.1-.1-.3 0-.3.1l-.4 1c-.2.1-.1.3 0 .3zM54.1 47.9l4.6-9.1c.2-.4 0-.9-.4-1 0 0-.1 0-.2-.1-.4-.1-.7.1-.9.4l-4 9.3c-.1.2 0 .5.2.6.3.2.6.1.7-.1zM50.3 56c.1.1.2 0 .3-.1l.7-.8c.1-.1.1-.2 0-.3-.1-.1-.3-.1-.4 0l-.6.8c-.1.2-.1.3 0 .4zM56.2 49.2l6.8-8.1c.3-.3.2-.8-.2-1.1-.1 0-.1-.1-.2-.1-.3-.2-.7-.1-.9.2l-6.3 8.5c-.2.2-.1.5.1.7.3.1.6.1.7-.1zM52.6 53.5l2.1-2.5c.1-.2.1-.4-.1-.6-.2-.1-.4-.1-.5.1l-2 2.7c-.1.1-.1.3 0 .4.2.1.4.1.5-.1zM58 51l8.8-6.5c.4-.3.4-.9.1-1.2-.3-.3-.8-.3-1.1 0l-8.4 7.1c-.2.2-.2.5-.1.7.2 0 .5 0 .7-.1zM53.3 54.5l2.8-2.1c.2-.1.2-.4.1-.6-.1-.2-.4-.2-.6 0L52.9 54c-.1.1-.1.3-.1.4.2.2.3.2.5.1zM50.5 56.3c.1.1.2.1.3 0l.8-.6c.1-.1.1-.2.1-.3-.1-.1-.2-.2-.3-.1l-.8.7c-.1.1-.1.2-.1.3zM53.7 55.6l3.4-1.5c.2-.1.3-.4.2-.6-.1-.2-.3-.3-.5-.2L53.5 55c-.1.1-.2.2-.1.4 0 .2.2.3.3.2zM59.3 53.2l10.9-4.7c.3-.1.4-.4.2-.7-.1-.2-.3-.4-.4-.7-.1-.2-.4-.3-.6-.2l-10.5 5.3c-.2.1-.3.4-.2.6.1.4.4.5.6.4zM53.9 56.8l3.9-.7c.2 0 .4-.3.3-.5-.1-.2-.3-.4-.5-.3l-3.8.9c-.1 0-.2.2-.2.3 0 .2.1.3.3.3zM60.1 55.7l11.8-2.1c.5-.1.8-.6.7-1.1-.1-.4-.6-.7-1-.6L60 54.7c-.3.1-.4.3-.3.6-.1.3.2.4.4.4zM60.3 58.3l12.3.7c.5 0 1-.4.9-.9 0-.5-.4-.8-.9-.8l-12.3.1c-.3 0-.5.2-.5.5 0 .2.2.4.5.4zM53.8 57.9l4.1.2c.2 0 .4-.2.4-.4s-.2-.4-.4-.4h-4.1c-.1 0-.3.1-.3.3 0 .2.2.3.3.3zM59.9 60.9l12.2 3.7c.5.2 1-.2 1.1-.7.1-.5-.2-.9-.7-1L60.1 60c-.3-.1-.5.1-.6.4 0 .2.1.5.4.5zM53.5 59l4.1 1.2c.2.1.5-.1.5-.3 0-.2-.1-.4-.3-.5l-4.1-1c-.1 0-.3 0-.3.2-.1.2 0 .4.1.4zM50.7 57.9s0 .1 0 0c-.1.1 0 .3.1.3l.8.2c.1 0 .2 0 .3-.1 0-.1 0-.3-.2-.3l-.8-.2c-.1 0-.1 0-.2.1zM53 60.1l3.8 2.2c.2.1.5 0 .6-.2.1-.2 0-.4-.2-.5l-4-2c-.1-.1-.3 0-.4.1 0 .1.1.3.2.4zM50.5 58.3c-.1.1 0 .2.1.3l.7.4c.1.1.2 0 .3-.1.1-.1 0-.3-.1-.3l-.8-.4c-.1 0-.2.1-.2.1zM58.9 63.5l11.4 6.6c.5.3 1.1.1 1.3-.5.2-.4 0-.9-.4-1.2l-11.8-5.9c-.3-.1-.6 0-.7.2-.1.4 0 .7.2.8zM52.3 61l3.4 3.2c.2.2.5.1.7-.1.1-.2.1-.4-.1-.6l-3.6-3c-.1-.1-.3-.1-.4 0-.1.2-.1.4 0 .5zM57.5 65.8l10 9.4c.4.4 1.1.3 1.4-.2.3-.4.2-.9-.2-1.2L58.1 65c-.2-.2-.6-.1-.7.1-.2.3-.1.6.1.7zM50.2 58.7c-.1.1-.1.2 0 .3l.7.6c.1.1.2.1.3 0 .1-.1.1-.2 0-.3l-.7-.6c-.1-.1-.3-.1-.3 0zM51.4 61.7l2.7 4.1c.2.2.5.3.7.1.2-.2.2-.4 0-.6l-2.9-3.9c-.1-.1-.3-.2-.4-.1-.1.2-.2.3-.1.4zM55.5 67.9l7.8 11.9c.3.5 1.1.6 1.5.2.4-.3.4-.9.1-1.3l-8.6-11.4c-.2-.2-.5-.3-.8-.1-.1.2-.2.5 0 .7zM49.8 59c-.1.1-.1.2-.1.3l.5.8c.1.1.2.1.3 0 .1-.1.1-.2 0-.3l-.4-.8c-.1-.1-.2-.1-.3 0zM50.4 62.4l1.7 4.8c.1.3.4.4.7.2.2-.1.3-.4.2-.6l-2-4.7c-.1-.1-.2-.2-.4-.1s-.3.2-.2.4zM53 69.5l5.1 14c.2.6.9.8 1.5.5.4-.3.6-.8.4-1.3l-6-13.6c-.1-.3-.5-.4-.7-.3-.3.2-.4.5-.3.7zM49.4 59.2c-.1 0-.1.1-.1.2.1.3.2.7.3 1 0 .1.2.2.3.1.1-.1.2-.2.1-.3-.1-.3-.3-.7-.4-1 0 0-.1-.1-.2 0zM48.8 59.6l.1 1.1c0 .2.2.3.3.2.1 0 .2-.2.2-.3l-.2-1.1c0-.1-.1-.2-.2-.2-.1.1-.2.2-.2.3zM50.1 70.6 51.9 86c.1.6.7 1.1 1.3.9.5-.2.8-.7.7-1.2l-2.8-15.2c-.1-.3-.4-.5-.7-.4-.2 0-.3.2-.3.5zM49.4 62.4c-.2 0-.3.2-.3.3l.6 5.3c0 .3.3.5.6.4.2-.1.4-.3.3-.5l-1-5.2c.1-.2 0-.3-.2-.3zM52 56.2c0-.1-.2-.2-.3-.1l-.8.4c-.1.1-.2.1-.1.2 0 .1.2.1.3.1l.8-.4c.1 0 .1-.1.1-.2zM52.1 56.9c0-.1-.1-.2-.3-.2l-.8.2h-.1c-.1 0-.2.1-.2.2s.1.1.2.1h.1l.8-.1c.2 0 .3-.1.3-.2zM51 57.4c-.2 0-.2.1-.3.2 0 .1 0 .1.1.1 0 0 .1.1.2.1h.8c.1 0 .2-.1.2-.2s-.1-.3-.2-.3l-.8.1z"/><path class="st0" d="M50.6 58v.1c0-.1.1-.2.1-.3 0 0-.1.1-.1.2zM47 90.6c0-.6-.5-1.2-1.1-1.1h-.2c-.5 0-1 .4-1 .9l-.2 2.1c-.1.7.5 1.4 1.2 1.4s1.2-.5 1.3-1.2v-2.1zM44.3 70.2c-.3-.1-.6.1-.7.4l-7.9 21.6c-.3.8.3 1.7 1.2 1.7h.1c.6 0 1-.4 1.2-.9l6.5-22c.1-.4-.1-.7-.4-.8zM41.1 69.3c-.3-.1-.6 0-.7.2L25.8 91.7c-.6 1 .1 2.2 1.2 2.2.5 0 1-.3 1.3-.7l13.2-23c.1-.4-.1-.8-.4-.9zM67.1 81.6c-.4-.5-1.1-.6-1.6-.1-.4.4-.4.9-.2 1.4l6.8 10.4c.3.4.7.7 1.2.7 1.2 0 1.9-1.4 1.2-2.4l-7.4-10zM61.4 86c-.2-.5-.9-.8-1.4-.5-.1 0-.1.1-.2.1-.4.2-.6.8-.4 1.2l2.3 6.2c.2.5.7.8 1.2.8h.2c.9 0 1.5-.9 1.2-1.8l-2.9-6zM54.6 89.2c-.1-.6-.8-1-1.4-.8-.6.1-.9.6-.9 1.1l.4 3.3c.1.6.6 1.1 1.2 1.1.8 0 1.4-.7 1.2-1.5l-.5-3.2zM68.2 41.1c-.4.3-.4.8-.1 1.2l.2.2c.3.3.7.3 1.1.1l12.4-9.3c.4-.3.6-.7.6-1.1 0-1.2-1.4-1.9-2.3-1.1l-11.9 10zM72.1 45.6c-.5.2-.7.9-.4 1.3.2.4.7.6 1.2.4l8.7-3.7c.5-.2.8-.6.8-1.1 0-.9-1-1.5-1.8-1.1l-8.5 4.2zM74.8 51.1c-.5.1-.9.7-.7 1.2.1.5.6.8 1.1.7l6.2-1.1c.6-.1 1-.6 1-1.1 0-.7-.7-1.3-1.4-1.1l-6.2 1.4zM76.1 57.2c-.6 0-1 .5-1 1s.4.9.9.9l5.1.3c.7 0 1.2-.5 1.2-1.2 0-.6-.5-1.2-1.2-1.2l-5 .2zM75.9 63.6c-.6-.1-1.1.2-1.2.8-.1.5.2 1 .7 1.1l5.5 1.6c.7.2 1.5-.3 1.5-1.1 0-.5-.4-1-.9-1.1l-5.6-1.3zM74.4 70c-.5-.3-1.2 0-1.4.5-.2.5 0 1 .4 1.3l7.3 4.2c.8.4 1.7-.1 1.7-1v-.3c0-.4-.2-.8-.6-1L74.4 70zM71.4 76.1c-.5-.4-1.2-.3-1.5.2-.3.4-.2 1 .1 1.4l9.8 9.3c.9.9 2.5.2 2.5-1.1 0-.4-.2-.9-.5-1.1l-10.4-8.7zM39.3 38.7c.3-.2.4-.7.3-1l-8.5-16.8c-.2-.5-.7-.8-1.3-.8-1.1 0-1.8 1.2-1.2 2.1l9.5 16.3c.3.4.8.5 1.2.2zM43.7 36.4c.4-.2.6-.6.5-1l-3.4-14.3c-.1-.6-.6-1-1.2-1h-.1c-.9 0-1.5.8-1.2 1.6l4.3 14.1c.1.5.6.7 1.1.6zM48.6 35.2c.4 0 .8-.4.8-.8v-13c0-.7-.6-1.3-1.3-1.3-.7 0-1.3.6-1.3 1.3l.8 12.9c.1.5.5.9 1 .9zM53.8 35.2c.5.1.9-.2 1-.7l3.1-12.9c.2-.8-.4-1.6-1.3-1.6-.6 0-1.2.5-1.3 1.1L53 34.2c-.1.5.3 1 .8 1zM59 36.4c.4.2.9 0 1.1-.4l7-13.9c.5-.9-.2-2-1.2-2-.6 0-1.1.3-1.3.8l-6.1 14.3c-.2.5 0 1.1.5 1.2zM63.9 38.8c.4.3.9.2 1.2-.2l13.4-16c.9-1 .1-2.6-1.2-2.6-.5 0-1 .2-1.3.6L63.6 37.5c-.3.5-.2 1.1.3 1.3zM47.2 56.7c0-.1-.1-.2-.2-.2h-.2c-.1 0-.3.1-.2.3 0 .1.1.1.2.1h.2s.2-.1.2-.2z"/><path class="st0" d="M46.9 56.9c-.1 0-.2.1-.2.2s.1.1.1.1h.1c.1 0 .2-.1.2-.2s-.1-.2-.1-.2c0 .1-.1.1-.1.1z"/><circle class="st0" cx="47.1" cy="57.5" r=".2"/><g><path class="st0" d="M38 67.6c-.3-.2-.6-.1-.8.1L19.1 84.8c-.3.3-.4.6-.4 1 0 1.3 1.6 1.9 2.5 1l17-18.2c.2-.3.1-.7-.2-1zM35.2 66.2c.3-.2.4-.7.1-1-.2-.2-.5-.3-.8-.1l-15.2 8.8c-.4.2-.6.6-.6 1 0 1 1.1 1.5 1.9 1l14.6-9.7zM32.7 63.1c.4-.1.6-.6.4-1-.1-.3-.5-.4-.8-.3l-12.9 3.9c-.4.1-.8.5-.8 1v.1c0 .7.7 1.2 1.4 1l12.7-4.7zM31.1 59.3c.4-.1.7-.5.6-.9-.1-.3-.4-.5-.7-.5l-11.3.7c-.6 0-1 .5-1 1.1 0 .6.6 1.1 1.2 1.1l11.2-1.5zM30.4 55c.4 0 .8-.3.8-.7 0-.3-.2-.7-.6-.7l-10.7-1.9c-.6-.1-1.2.4-1.2 1 0 .5.4 1 .9 1.1L30.4 55zM30.8 50.6c.4.1.9-.1 1-.5.1-.3-.1-.7-.4-.8l-11.2-4.8c-.7-.3-1.5.2-1.5 1v.2c0 .4.3.8.7 1l11.4 3.9zM32.2 46.1c.4.2.9.1 1.1-.3.2-.3.1-.7-.2-.9l-12.4-9.2c-.8-.6-2 0-2 1 0 .4.2.8.6 1.1l12.9 8.3zM34.7 42c.3.3.9.3 1.2 0 .2-.3.2-.7 0-1L21.3 23.6c-.9-1.1-2.7-.4-2.7 1 0 .4.1.8.4 1L34.7 42z"/></g><g><path class="st1" d="M96.7 65.5v11.1h4.4v3.1H93V65.5h3.7zM111.1 68.6h-4.4V71h4.1v3.1h-4.1v2.5h4.4v3.1h-8V65.5h8v3.1zM120.6 71.8h7.3c0 .8 0 1.4-.1 2.1-.1.6-.2 1.2-.4 1.7-.3.7-.6 1.4-1.1 2-.5.6-1 1.1-1.6 1.4-.6.4-1.3.7-2 .9-.7.2-1.5.3-2.3.3-1.1 0-2.1-.2-3-.5-.9-.4-1.7-.9-2.3-1.5s-1.2-1.5-1.5-2.4c-.4-.9-.5-1.9-.5-3.1 0-1.1.2-2.1.5-3.1.4-.9.9-1.7 1.5-2.4.7-.7 1.4-1.2 2.4-1.5.9-.4 2-.5 3.1-.5 1.5 0 2.8.3 3.9 1 1.1.6 2 1.6 2.6 3l-3.5 1.5c-.3-.8-.7-1.3-1.3-1.7-.5-.3-1.1-.5-1.8-.5-.6 0-1.1.1-1.5.3-.5.2-.8.5-1.2.9-.3.4-.6.8-.8 1.4-.2.5-.3 1.1-.3 1.8 0 .6.1 1.2.2 1.7.2.5.4 1 .7 1.3.3.4.7.7 1.2.9.5.2 1 .3 1.6.3.4 0 .7 0 1.1-.1.3-.1.6-.2.9-.4.3-.2.5-.4.7-.7.2-.3.3-.6.4-1.1h-3v-3zM138.4 77.3h-5.3l-.8 2.5h-3.9l5.4-14.2h4l5.4 14.2h-3.9l-.9-2.5zm-1-2.8-1.7-4.7-1.7 4.7h3.4zM144.8 65.5h5.4c1 0 1.9.2 2.7.6.8.4 1.6.9 2.2 1.6.6.6 1.1 1.4 1.5 2.3.4.9.5 1.8.5 2.7 0 .9-.2 1.8-.5 2.7-.4.9-.9 1.6-1.5 2.3-.6.7-1.4 1.2-2.2 1.6-.8.4-1.8.6-2.7.6h-5.4V65.5zm3.7 11.1h.8c.6 0 1.2-.1 1.7-.3.5-.2.9-.5 1.3-.8.3-.4.6-.8.8-1.3.2-.5.3-1 .3-1.6 0-.6-.1-1.1-.3-1.6-.2-.5-.5-.9-.8-1.3-.3-.4-.8-.6-1.3-.8-.5-.2-1.1-.3-1.7-.3h-.8v8zM158.9 72.6c0-1.1.2-2 .6-3 .4-.9.9-1.7 1.6-2.4.7-.7 1.5-1.2 2.5-1.6 1-.4 2-.6 3.2-.6 1.1 0 2.2.2 3.2.6 1 .4 1.8.9 2.5 1.6.7.7 1.2 1.5 1.6 2.4.4.9.6 1.9.6 3s-.2 2-.6 3c-.4.9-.9 1.7-1.6 2.4-.7.7-1.5 1.2-2.5 1.6-1 .4-2 .6-3.2.6-1.2 0-2.2-.2-3.2-.6-1-.4-1.8-.9-2.5-1.6-.7-.7-1.2-1.5-1.6-2.4-.4-.9-.6-1.9-.6-3zm3.8 0c0 .6.1 1.1.3 1.6.2.5.5.9.9 1.2.4.4.8.6 1.3.8.5.2 1 .3 1.5.3s1-.1 1.5-.3.9-.5 1.3-.8.7-.8.9-1.2c.2-.5.3-1 .3-1.6 0-.6-.1-1.1-.3-1.6-.2-.5-.5-.9-.9-1.2s-.8-.6-1.3-.8c-.5-.2-1-.3-1.5-.3s-1 .1-1.5.3c-.5.2-.9.5-1.3.8-.4.4-.7.8-.9 1.2-.2.5-.3 1.1-.3 1.6zM206.2 70.3c-.9-1-1.9-1.6-3.2-1.6-.6 0-1.1.1-1.5.3-.5.2-.9.5-1.2.8-.3.3-.6.8-.8 1.2-.2.5-.3 1-.3 1.5 0 .6.1 1.1.3 1.6.2.5.5.9.8 1.2.3.4.7.6 1.2.8.5.2 1 .3 1.5.3 1.2 0 2.2-.5 3.2-1.5v4.4l-.4.1c-.6.2-1.1.3-1.6.4-.5.1-1 .1-1.4.1-1 0-1.9-.2-2.8-.6-.9-.4-1.7-.9-2.4-1.6-.7-.7-1.2-1.5-1.6-2.4-.4-.9-.6-1.9-.6-3s.2-2.1.6-3c.4-.9 1-1.7 1.6-2.4.7-.7 1.5-1.2 2.4-1.5.9-.4 1.8-.6 2.8-.6.6 0 1.1.1 1.7.2.5.1 1.1.3 1.7.6v4.7zM208.1 72.6c0-1.1.2-2 .6-3 .4-.9.9-1.7 1.6-2.4.7-.7 1.5-1.2 2.5-1.6 1-.4 2-.6 3.2-.6 1.1 0 2.2.2 3.2.6 1 .4 1.8.9 2.5 1.6.7.7 1.2 1.5 1.6 2.4.4.9.6 1.9.6 3s-.2 2-.6 3c-.4.9-.9 1.7-1.6 2.4-.7.7-1.5 1.2-2.5 1.6-1 .4-2 .6-3.2.6-1.2 0-2.2-.2-3.2-.6-1-.4-1.8-.9-2.5-1.6-.7-.7-1.2-1.5-1.6-2.4-.4-.9-.6-1.9-.6-3zm3.9 0c0 .6.1 1.1.3 1.6.2.5.5.9.9 1.2.4.4.8.6 1.3.8.5.2 1 .3 1.5.3s1-.1 1.5-.3.9-.5 1.3-.8.7-.8.9-1.2c.2-.5.3-1 .3-1.6 0-.6-.1-1.1-.3-1.6-.2-.5-.5-.9-.9-1.2s-.8-.6-1.3-.8c-.5-.2-1-.3-1.5-.3s-1 .1-1.5.3c-.5.2-.9.5-1.3.8-.4.4-.7.8-.9 1.2-.2.5-.3 1.1-.3 1.6zM225.5 79.7l2.4-14.2h3.6l2.8 7.6 2.8-7.6h3.6l2.4 14.2h-3.7l-1.2-8.2-3.3 8.2h-1.5l-3.2-8.2-1.2 8.2h-3.5zM249.2 65.5v14.2h-3.7V65.5h3.7zM259.9 69.1c-.4-.3-.8-.6-1.2-.7-.4-.2-.8-.2-1.2-.2-.5 0-.9.1-1.2.3-.3.2-.5.5-.5.9 0 .3.1.5.2.6.1.2.3.3.6.4.2.1.5.2.8.3l.9.3c1.2.4 2.1.9 2.6 1.6.6.7.8 1.6.8 2.6 0 .7-.1 1.4-.4 2-.2.6-.6 1.1-1.1 1.5-.5.4-1 .7-1.7 1-.7.2-1.5.3-2.3.3-1.8 0-3.4-.5-5-1.6l1.6-3c.6.5 1.1.9 1.6 1.1.5.2 1.1.4 1.6.4.6 0 1-.1 1.3-.4.3-.3.4-.6.4-.9 0-.2 0-.4-.1-.6-.1-.2-.2-.3-.4-.4-.2-.1-.4-.3-.7-.4-.3-.1-.6-.2-1-.4-.5-.2-.9-.3-1.4-.5-.5-.2-.9-.4-1.2-.7-.4-.3-.6-.7-.9-1.1-.2-.5-.3-1-.3-1.7s.1-1.3.3-1.9c.2-.6.6-1.1 1-1.5.4-.4.9-.7 1.5-1 .6-.2 1.3-.3 2-.3s1.4.1 2.2.3c.8.2 1.5.5 2.2.9l-1 2.8zM268 65.5v14.2h-3.7V65.5h3.7zM270.3 72.6c0-1.1.2-2 .6-3 .4-.9.9-1.7 1.6-2.4.7-.7 1.5-1.2 2.5-1.6 1-.4 2-.6 3.2-.6 1.1 0 2.2.2 3.2.6 1 .4 1.8.9 2.5 1.6.7.7 1.2 1.5 1.6 2.4.4.9.6 1.9.6 3s-.2 2-.6 3c-.4.9-.9 1.7-1.6 2.4-.7.7-1.5 1.2-2.5 1.6-1 .4-2 .6-3.2.6-1.2 0-2.2-.2-3.2-.6-1-.4-1.8-.9-2.5-1.6-.7-.7-1.2-1.5-1.6-2.4-.4-.9-.6-1.9-.6-3zm3.8 0c0 .6.1 1.1.3 1.6.2.5.5.9.9 1.2s.8.6 1.3.8c.5.2 1 .3 1.5.3s1-.1 1.5-.3.9-.5 1.3-.8.7-.8.9-1.2c.2-.5.3-1 .3-1.6 0-.6-.1-1.1-.3-1.6-.2-.5-.5-.9-.9-1.2s-.8-.6-1.3-.8c-.5-.2-1-.3-1.5-.3s-1 .1-1.5.3c-.5.2-.9.5-1.3.8s-.7.8-.9 1.2c-.2.5-.3 1.1-.3 1.6zm7.4-10.7-3.6 2.5-1.4-1.3 3.1-2.9 1.9 1.7zM288.3 79.7V65.5h3.7l6.8 8.7v-8.7h3.7v14.2h-3.7L292 71v8.7h-3.7zM311.8 65.5h5.4c1 0 1.9.2 2.7.6.8.4 1.6.9 2.2 1.6.6.6 1.1 1.4 1.5 2.3.4.9.5 1.8.5 2.7 0 .9-.2 1.8-.5 2.7-.4.9-.9 1.6-1.5 2.3-.6.7-1.4 1.2-2.2 1.6-.8.4-1.8.6-2.7.6h-5.4V65.5zm3.6 11.1h.8c.6 0 1.2-.1 1.7-.3.5-.2.9-.5 1.3-.8.3-.4.6-.8.8-1.3.2-.5.3-1 .3-1.6 0-.6-.1-1.1-.3-1.6-.2-.5-.5-.9-.8-1.3-.3-.4-.8-.6-1.3-.8-.5-.2-1.1-.3-1.7-.3h-.8v8zM334.6 68.6h-4.4V71h4.1v3.1h-4.1v2.5h4.4v3.1h-8V65.5h8v3.1zM347.3 65.5v11.1h4.4v3.1h-8.1V65.5h3.7zM362.8 77.3h-5.3l-.8 2.5h-3.9l5.4-14.2h4l5.4 14.2h-3.9l-.9-2.5zm-1-2.8-1.7-4.7-1.7 4.7h3.4zM377.1 65.5l3.4 8.7 3.4-8.7h4l-6 14.2H379l-5.9-14.2h4zM397.5 68.6h-4.4V71h4.1v3.1h-4.1v2.5h4.4v3.1h-8V65.5h8v3.1zM411.9 79.7h-4.6l-3.5-5.5v5.5h-3.7V65.5h5.7c.8 0 1.5.1 2.1.3.6.2 1.1.6 1.5 1 .4.4.7.9.9 1.4.2.5.3 1.1.3 1.7 0 1.1-.3 2-.8 2.6-.5.7-1.3 1.1-2.3 1.4l4.4 5.8zm-8.1-7.8h.7c.7 0 1.3-.2 1.7-.5.4-.3.6-.7.6-1.3 0-.6-.2-1-.6-1.3-.4-.3-.9-.5-1.7-.5h-.7v3.6zM413.5 65.5h5.4c1 0 1.9.2 2.7.6.8.4 1.6.9 2.2 1.6.6.6 1.1 1.4 1.5 2.3.4.9.5 1.8.5 2.7 0 .9-.2 1.8-.5 2.7-.4.9-.9 1.6-1.5 2.3-.6.7-1.4 1.2-2.2 1.6-.8.4-1.8.6-2.7.6h-5.4V65.5zm3.6 11.1h.8c.6 0 1.2-.1 1.7-.3.5-.2.9-.5 1.3-.8.3-.4.6-.8.8-1.3.2-.5.3-1 .3-1.6 0-.6-.1-1.1-.3-1.6-.2-.5-.5-.9-.8-1.3-.3-.4-.8-.6-1.3-.8-.5-.2-1.1-.3-1.7-.3h-.8v8zM436.3 77.3H431l-.8 2.5h-3.9l5.4-14.2h4l5.4 14.2h-3.9l-.9-2.5zm-1-2.8-1.7-4.7-1.7 4.7h3.4zM442.7 65.5h5.4c1 0 1.9.2 2.7.6.8.4 1.6.9 2.2 1.6.6.6 1.1 1.4 1.5 2.3.4.9.5 1.8.5 2.7 0 .9-.2 1.8-.5 2.7-.4.9-.9 1.6-1.5 2.3-.6.7-1.4 1.2-2.2 1.6-.8.4-1.8.6-2.7.6h-5.4V65.5zm3.6 11.1h.8c.6 0 1.2-.1 1.7-.3.5-.2.9-.5 1.3-.8.3-.4.6-.8.8-1.3.2-.5.3-1 .3-1.6 0-.6-.1-1.1-.3-1.6-.2-.5-.5-.9-.8-1.3-.3-.4-.8-.6-1.3-.8-.5-.2-1.1-.3-1.7-.3h-.8v8zM185.9 58.4v25.1c0 .1-.1.2-.3.2h-1.9c-.2 0-.3-.1-.3-.2V58.4c0-.1.1-.2.3-.2h1.9c.2 0 .3.1.3.2"/><g><path class="st0" d="M97.7 40h6.7v-6.8h4.6v17.7h-4.6v-7.3h-6.7v7.3h-4.6V33.1h4.6V40zM123.1 47.8h-6.6l-1.1 3.1h-4.9l6.7-17.7h5l6.7 17.7H124l-.9-3.1zm-1.2-3.5-2.1-5.9-2.1 5.9h4.2zM133.2 42.4l-6.5-9.2h5.5l3.3 4.8 3.3-4.8h5.5l-6.5 9.2v8.5h-4.6v-8.5zM163.1 37h-5.5v3h5.1v3.9h-5.1v7H153V33.1h10.2V37zM170 33.1v9.6c0 .5 0 1 .1 1.6 0 .5.2 1 .4 1.5.2.4.5.8.9 1.1.4.3 1 .4 1.8.4s1.4-.1 1.8-.4c.4-.3.7-.6.9-1.1.2-.4.3-.9.4-1.5 0-.5.1-1.1.1-1.6v-9.6h4.6v10.3c0 2.8-.6 4.8-1.9 6s-3.2 1.9-5.8 1.9c-2.6 0-4.6-.6-5.8-1.9s-1.9-3.3-1.9-6V33.1h4.4zM190.8 37v13.8h-4.6V37h-3.8v-3.9h12.2V37h-3.8zM200.8 33.1v9.6c0 .5 0 1 .1 1.6 0 .5.2 1 .4 1.5.2.4.5.8.9 1.1.4.3 1 .4 1.8.4s1.4-.1 1.8-.4c.4-.3.7-.6.9-1.1.2-.4.3-.9.4-1.5 0-.5.1-1.1.1-1.6v-9.6h4.6v10.3c0 2.8-.6 4.8-1.9 6s-3.2 1.9-5.8 1.9c-2.6 0-4.6-.6-5.8-1.9s-1.9-3.3-1.9-6V33.1h4.4zM229.6 50.9h-5.7l-4.4-6.8v6.8h-4.6V33.1h7.2c1 0 1.8.1 2.6.4.7.3 1.3.7 1.8 1.2s.8 1.1 1.1 1.7c.2.7.4 1.4.4 2.1 0 1.3-.3 2.4-1 3.3-.7.8-1.6 1.4-2.9 1.7l5.5 7.4zm-10.1-9.8h.9c.9 0 1.6-.2 2.1-.6.5-.4.7-.9.7-1.6s-.2-1.2-.7-1.6c-.5-.4-1.2-.6-2.1-.6h-.9v4.4zM229.9 42c0-1.3.2-2.5.7-3.7.5-1.1 1.2-2.1 2-3 .9-.8 1.9-1.5 3.1-2 1.2-.5 2.5-.7 4-.7 1.4 0 2.7.2 3.9.7 1.2.5 2.2 1.1 3.1 2 .9.8 1.5 1.8 2 3 .5 1.1.7 2.4.7 3.7 0 1.3-.2 2.5-.7 3.7-.5 1.1-1.2 2.1-2 3-.9.8-1.9 1.5-3.1 2-1.2.5-2.5.7-3.9.7s-2.8-.2-4-.7c-1.2-.5-2.2-1.1-3.1-2-.9-.8-1.5-1.8-2-3-.4-1.2-.7-2.4-.7-3.7zm4.9 0c0 .7.1 1.4.4 2 .3.6.6 1.1 1.1 1.6.5.4 1 .8 1.6 1 .6.2 1.2.4 1.9.4s1.3-.1 1.9-.4c.6-.2 1.1-.6 1.6-1s.8-1 1.1-1.6c.3-.6.4-1.2.4-2s-.1-1.4-.4-2c-.3-.6-.6-1.1-1.1-1.6-.5-.4-1-.8-1.6-1-.6-.2-1.2-.4-1.9-.4s-1.3.1-1.9.4c-.6.2-1.1.6-1.6 1s-.8 1-1.1 1.6c-.3.6-.4 1.3-.4 2zM252.9 46.4h4l-4.3 7.8h-2.7l3-7.8zM276.8 37.7c-.5-.4-1-.7-1.5-.9-.5-.2-1-.3-1.5-.3-.6 0-1.1.1-1.5.4s-.6.7-.6 1.1c0 .3.1.6.3.8.2.2.4.4.7.5.3.1.6.3 1 .4.4.1.8.2 1.1.4 1.5.5 2.6 1.2 3.3 2 .7.8 1 1.9 1 3.3 0 .9-.2 1.7-.5 2.5-.3.7-.8 1.4-1.3 1.9-.6.5-1.3.9-2.2 1.2s-1.8.4-2.9.4c-2.2 0-4.3-.7-6.2-2l2-3.7c.7.6 1.4 1.1 2 1.4.7.3 1.3.4 2 .4.8 0 1.3-.2 1.7-.5s.6-.7.6-1.2c0-.3 0-.5-.1-.7-.1-.2-.3-.4-.5-.5-.2-.2-.5-.3-.9-.5s-.8-.3-1.3-.5l-1.8-.6c-.6-.2-1.1-.5-1.5-.9-.4-.4-.8-.8-1.1-1.4-.3-.6-.4-1.3-.4-2.2 0-.9.1-1.7.4-2.4s.7-1.3 1.2-1.8 1.2-.9 1.9-1.2c.8-.3 1.6-.4 2.5-.4.9 0 1.8.1 2.8.4 1 .2 1.9.6 2.7 1.1l-1.4 3.5zM286.4 33.1v17.7h-4.6V33.1h4.6zM301.7 40h6.7v-6.8h4.6v17.7h-4.6v-7.3h-6.7v7.3h-4.6V33.1h4.6V40zM327.1 47.8h-6.6l-1.1 3.1h-4.9l6.7-17.7h5l6.7 17.7H328l-.9-3.1zm-1.2-3.5-2.1-5.9-2.1 5.9h4.2zM337.2 42.4l-6.5-9.2h5.5l3.3 4.8 3.3-4.8h5.5l-6.5 9.2v8.5h-4.6v-8.5zM360.1 33.1l4.3 10.8 4.3-10.8h5l-7.5 17.7h-3.7l-7.4-17.7h5zM385.2 37h-5.5v3h5.2v3.9h-5.2V47h5.5v3.9h-10.1V33.1h10.1V37zM402.8 50.9H397l-4.4-6.8v6.8H388V33.1h7.2c1 0 1.8.1 2.6.4.7.3 1.3.7 1.8 1.2s.8 1.1 1.1 1.7c.2.7.4 1.4.4 2.1 0 1.3-.3 2.4-1 3.3s-1.6 1.4-2.9 1.7l5.6 7.4zm-10.2-9.8h.9c.9 0 1.6-.2 2.1-.6.5-.4.7-.9.7-1.6s-.2-1.2-.7-1.6c-.5-.4-1.2-.6-2.1-.6h-.9v4.4zM404.2 33.1h6.8c1.2 0 2.3.2 3.4.7 1.1.5 2 1.1 2.8 1.9.8.8 1.4 1.7 1.9 2.8.5 1.1.7 2.2.7 3.4 0 1.2-.2 2.3-.7 3.3s-1.1 2-1.9 2.8c-.8.8-1.7 1.5-2.8 2s-2.2.7-3.4.7h-6.8V33.1zm4.6 13.9h1.1c.8 0 1.5-.1 2.1-.4.6-.2 1.2-.6 1.6-1 .4-.4.8-1 1-1.6s.3-1.3.3-2-.1-1.4-.4-2c-.2-.6-.6-1.1-1-1.6-.4-.4-1-.8-1.6-1-.6-.2-1.3-.4-2.1-.4h-1.1v10zM432.3 47.8h-6.6l-1.1 3.1h-4.9l6.7-17.7h5l6.7 17.7h-4.9l-.9-3.1zm-1.2-3.5-2.1-5.9-2.1 5.9h4.2zM439.8 33.1h6.8c1.2 0 2.3.2 3.4.7 1.1.5 2 1.1 2.8 1.9.8.8 1.4 1.7 1.9 2.8.5 1.1.7 2.2.7 3.4 0 1.2-.2 2.3-.7 3.3s-1.1 2-1.9 2.8c-.8.8-1.7 1.5-2.8 2s-2.2.7-3.4.7h-6.8V33.1zm4.7 13.9h1.1c.8 0 1.5-.1 2.1-.4.6-.2 1.2-.6 1.6-1 .4-.4.8-1 1-1.6s.3-1.3.3-2-.1-1.4-.4-2c-.2-.6-.6-1.1-1-1.6-.4-.4-1-.8-1.6-1-.6-.2-1.3-.4-2.1-.4h-1.1v10z"/></g></g></svg>