<?xml version="1.0" encoding="utf-8"?>
<!-- Generator: Adobe Illustrator 25.0.1, SVG Export Plug-In . SVG Version: 6.00 Build 0)  -->
<svg version="1.1" id="Capa_1" xmlns="http://www.w3.org/2000/svg" xmlns:xlink="http://www.w3.org/1999/xlink" x="0px" y="0px"
	 viewBox="0 0 283.1062 47.8834" enable-background="new 0 0 283.1062 47.8834" xml:space="preserve">
<g id="Artboard_3_" transform="translate(27.335 -17.547)">
	<g id="Logo-CV-color-vertical_3_" transform="translate(0 0)">
		<g id="Group_18_3_" transform="translate(0)">
			<g id="Group_154_3_" transform="translate(52 10.859)">
				<g id="Group_16_3_" transform="translate(215.113 17.119)">
					<path id="Shape_3_" fill="#FFFFFF" d="M-149.9696,2.2974h2.4079l5.0159,19.4653l4.7735-19.4653h2.431l-6.1646,22.3489h-2.1866
						L-149.9696,2.2974z"/>
					<path id="Shape-2_3_" fill="#FFFFFF" d="M-133.3095,2.2974h10.9713v1.8909h-8.7706v7.8664h8.2858v1.8587h-8.2858v8.8752h8.7706
						v1.8587h-10.9713V2.2974z"/>
					<path id="Shape-3_3_" fill="#FFFFFF" d="M-118.6811,2.2974h5.4032c1.6724-0.0824,3.3254,0.3876,4.7041,1.3377
						c1.2276,0.9833,1.8923,2.5079,1.7772,4.0765c0.0297,1.2837-0.3629,2.5417-1.1174,3.5807
						c-0.8915,1.1078-2.1096,1.9064-3.4811,2.2821c0.9411,0.1915,1.7891,0.6973,2.4049,1.4343
						c0.6097,0.8966,1.0134,1.9171,1.1818,2.9882l1.3186,6.6483h-2.3325l-0.8871-5.383c-0.1378-1.3434-0.6407-2.6235-1.4544-3.7013
						c-0.7678-0.7945-1.8465-1.2106-2.949-1.1375h-2.428v10.2209h-2.1394V2.2955L-118.6811,2.2974z M-116.5418,4.2517v8.3632h2.2349
						c1.392,0.0657,2.7596-0.382,3.8432-1.2582c0.9827-0.8515,1.5221-2.1057,1.4644-3.4046c0.0797-1.0356-0.3029-2.0533-1.045-2.78
						c-0.8985-0.6784-2.0134-1.006-3.1361-0.9213h-3.3614L-116.5418,4.2517z"/>
					<path id="Shape-4_3_" fill="#FFFFFF" d="M-103.6464,2.2974h5.195c2.3353-0.1449,4.5716,0.9625,5.8719,2.9078
						c1.2908,1.9379,1.9362,4.7541,1.9362,8.4488c0.0194,1.946-0.2775,3.8823-0.8791,5.7331
						c-0.4592,1.5695-1.4092,2.9506-2.7106,3.9408c-1.229,0.8788-2.7077,1.3397-4.2183,1.3146h-5.195V2.2935V2.2974z
						 M-101.4517,4.2517v18.5068h3.0074c1.776,0.1076,3.4437-0.8588,4.2334-2.4532c0.8623-1.6361,1.2935-4.0789,1.2935-7.3283
						c0.1319-2.2422-0.331-4.4796-1.3417-6.4854c-0.8625-1.4748-2.4808-2.3395-4.1861-2.2369L-101.4517,4.2517z"/>
					<path id="Shape-5_3_" fill="#FFFFFF" d="M-84.4447,2.2974h2.1544l6.2762,22.3489h-2.4511l-1.911-7.7215h-5.9704l-1.911,7.7215
						h-2.3908L-84.4447,2.2974z M-83.4067,5.0212l-2.4914,10.0932h5.029L-83.4067,5.0212z"/>
					<path id="Shape-6_3_" fill="#FFFFFF" d="M-73.9823,2.2974h5.196c2.3353-0.1448,4.5715,0.9626,5.8719,2.9078
						c1.2901,1.9379,1.9352,4.7541,1.9352,8.4488c0.0192,1.946-0.2777,3.8823-0.8791,5.7331
						c-0.4606,1.5702-1.4124,2.9513-2.7157,3.9408c-1.2289,0.879-2.7077,1.3398-4.2183,1.3146h-5.195V2.2935L-73.9823,2.2974z
						 M-71.7876,4.2517v18.5068h3.0063c1.7763,0.108,3.4446-0.8585,4.2344-2.4532c0.8616-1.6361,1.2928-4.0789,1.2935-7.3283
						c0.1317-2.2422-0.3312-4.4795-1.3417-6.4854c-0.8625-1.4748-2.4808-2.3395-4.1861-2.2369L-71.7876,4.2517z"/>
				</g>
				<path id="Shape-7_3_" fill="#FFFFFF" d="M-62.704,40.9647c-1.1592,0.8259-2.532,1.3001-3.9538,1.3658
					c-1.4113,0.0129-2.7694-0.5381-3.7728-1.5308c-1.1558-1.1654-1.9674-2.6272-2.3455-4.2244
					c-0.503-1.8838-0.7513-3.8265-0.7383-5.7763c-0.1223-2.872,0.5328-5.7237,1.8959-8.2546
					c0.9752-1.947,2.9641-3.1784,5.1417-3.1833c1.3691,0.0436,2.6895,0.5185,3.7728,1.3568v2.5849
					c-0.9296-1.1091-2.254-1.8131-3.6933-1.9634c-1.5281,0-2.7435,0.8563-3.646,2.5688c-1.0173,2.2903-1.4801,4.7883-1.3508,7.2911
					c-0.0786,2.2559,0.3658,4.4993,1.2985,6.5548c0.865,1.732,2.0532,2.5987,3.5646,2.6c1.484-0.1583,2.8513-0.878,3.822-2.0116
					L-62.704,40.9647z"/>
				<path id="Shape-8_3_" fill="#FFFFFF" d="M-53.519,19.3541c2.2033,0.0051,4.2342,1.193,5.3187,3.111
					c1.3552,2.074,2.032,4.9881,2.0307,8.7424c0.1437,2.8468-0.5882,5.6694-2.0971,8.0877c-1.128,1.8696-3.1472,3.018-5.3307,3.0315
					c-2.1882,0.0088-4.2224-1.1247-5.3659-2.9903c-1.3786-1.9948-2.0679-4.7578-2.0679-8.2888
					c-0.1517-2.9792,0.5421-5.9406,2.0015-8.5423c1.1227-1.9797,3.2372-3.188,5.5128-3.1502 M-53.4164,21.3335
					c-1.7783-0.0295-3.3856,1.0553-4.0232,2.7157c-0.946,2.2511-1.3875,4.6821-1.2935,7.1221
					c-0.1034,2.2927,0.3602,4.5756,1.3498,6.6463c0.6502,1.491,2.115,2.4617,3.7416,2.4793
					c1.6578-0.0241,3.1444-1.0261,3.7889-2.5537c1.0097-2.1689,1.4784-4.5503,1.3659-6.9401c0-3.1797-0.4798-5.5544-1.4393-7.1241
					s-2.1226-2.3536-3.4891-2.3516"/>
				<path id="Shape-9_3_" fill="#FFFFFF" d="M-41.4675,19.3541l4.8198,11.9047l4.7987-11.9047h2.609v21.6247h-1.9684V27.1852
					l0.0161-3.5485c0-0.4432-0.0054-1.104-0.0161-1.9824c-0.4287,1.5452-0.9432,3.0653-1.5409,4.5532l-3.8985,9.8045l-3.3041-8.2395
					c-0.6417-1.5905-1.4065-3.5686-2.2942-5.9343c0.1395,4.6602,0.2092,7.2482,0.2092,7.7638v11.3768h-2.0669V19.3541H-41.4675z"/>
				<rect id="Rectangle-path-2_3_" x="-26.2155" y="19.3591" fill="#FFFFFF" width="2.7026" height="21.6197"/>
				<path id="Shape-10_3_" fill="#FFFFFF" d="M-20.0751,37.7079c0.7828,0.7285,1.6428,1.3693,2.5648,1.911
					c0.6151,0.3348,1.3033,0.5127,2.0036,0.518c1.0875-0.0058,2.1256-0.4547,2.8746-1.2432
					c0.854-0.8561,1.3122-2.0295,1.2643-3.2377c0.0302-0.9074-0.2636-1.7959-0.8288-2.5065
					c-0.9119-0.8797-2.0088-1.5446-3.2105-1.9462c-3.124-1.274-4.6864-3.2096-4.687-5.8065
					c-0.0327-1.5872,0.566-3.1226,1.6646-4.2686c1.0116-1.1378,2.4646-1.7844,3.987-1.7742
					c1.4441,0.0645,2.8267,0.6032,3.9337,1.5328v2.8927c-0.6312-0.6749-1.3437-1.2689-2.1212-1.7682
					c-0.5359-0.3135-1.1454-0.4791-1.7662-0.4798c-0.988-0.0209-1.9337,0.4012-2.5779,1.1506
					c-0.6696,0.7239-1.0374,1.6763-1.0279,2.6623c-0.0463,0.8988,0.289,1.7754,0.9233,2.4139
					c1.0033,0.824,2.1306,1.4839,3.3403,1.9553c0.8305,0.3443,1.621,0.778,2.3576,1.2935c0.6396,0.4883,1.1522,1.1234,1.4946,1.8517
					c0.4124,0.8486,0.6192,1.7824,0.6035,2.7257c0.0479,1.7796-0.6111,3.5057-1.8326,4.8007
					c-1.1023,1.2426-2.686,1.951-4.3471,1.9442c-1.6967-0.0888-3.3171-0.7331-4.6116-1.8336L-20.0751,37.7079z"/>
				<rect id="Rectangle-path-3_3_" x="-7.6132" y="19.3591" fill="#FFFFFF" width="2.7026" height="21.6197"/>
				<path id="Shape-11_3_" fill="#FFFFFF" d="M4.2743,19.7162c2.1916-0.0005,4.2177,1.166,5.3177,3.0617
					c1.3538,2.0431,2.0314,4.9123,2.0327,8.6076c0.1414,2.8075-0.5917,5.5896-2.0981,7.9629
					c-1.1436,1.847-3.1584,2.9742-5.3308,2.9822c-2.1778,0.0131-4.2073-1.1014-5.3649-2.946
					c-1.3779-1.9633-2.0669-4.6823-2.0669-8.157c-0.1508-2.9366,0.5438-5.8548,2.0016-8.4085
					C-0.0975,20.8616,2.011,19.6739,4.2743,19.7162z M4.3749,21.6644c-1.7686-0.0342-3.3725,1.0335-4.0232,2.6785
					c-0.9461,2.2122-1.388,4.6073-1.2935,7.0114c-0.1034,2.2578,0.3607,4.5055,1.3498,6.5377
					c0.6617,1.4756,2.1234,2.4295,3.7406,2.4411c1.6481-0.0177,3.1317-1.0026,3.7879-2.5145
					c1.0092-2.1302,1.4789-4.4759,1.3679-6.8304c0-3.1307-0.4798-5.4682-1.4393-7.0124c-0.6571-1.3482-1.9944-2.2333-3.4922-2.3114
					H4.3749z M5.1866,13.9539h2.4401l-3.5123,4.6005H2.7465L5.1866,13.9539z"/>
				<path id="Shape-12_3_" fill="#FFFFFF" d="M15.8672,19.3601l6.5377,14.3981l1.7099,3.7959
					c-0.116-3.8837-0.174-5.893-0.174-6.0277V19.3561h1.911v21.6227h-2.1514l-6.3255-13.87
					c-0.1797-0.3916-0.5177-1.228-1.0138-2.5095l-0.7594-1.911c-0.0312,0.4345-0.0463,0.688-0.0463,0.7594l0.0774,1.6727
					l0.0161,2.4009l-0.0463,0.9294v12.5282h-1.911V19.3541h2.1766L15.8672,19.3601z"/>
				<g id="Group_15_3_" transform="translate(181.56 27.019)">
					<path id="Shape-13_3_" fill="#FFFFFF" d="M-150.1642,2.3498h2.8163c1.2804-0.0739,2.5004,0.5511,3.1884,1.6334
						c0.7881,1.4523,1.152,3.0971,1.0501,4.7464c0.0108,1.0912-0.15,2.1774-0.4768,3.2186c-0.245,0.874-0.7596,1.6484-1.4705,2.2128
						c-0.6617,0.4913-1.4671,0.7505-2.2912,0.7372h-2.8163V2.3498z M-148.9724,3.4492v10.3899h1.6314
						c0.976,0.054,1.8868-0.4912,2.3003-1.377c0.5403-1.3014,0.781-2.7077,0.7041-4.1147c0.0724-1.2566-0.1783-2.5108-0.7282-3.643
						c-0.4541-0.82-1.3373-1.3077-2.2731-1.2552H-148.9724z"/>
					<path id="Shape-14_3_" fill="#FFFFFF" d="M-141.3806,2.3549h6.2752V3.417h-5.0169v4.4165h4.7383v1.044h-4.7383v4.9827h5.0169
						v1.044h-6.2752V2.3549z"/>
					<path id="Shape-15_3_" fill="#FFFFFF" d="M-129.7294,2.3549h1.3075v11.4892h4.9717v1.0601h-6.2752L-129.7294,2.3549z"/>
					<path id="Shape-16_3_" fill="#FFFFFF" d="M-121.2122,2.3498h1.2703l3.7034,12.5504h-1.4453l-1.1275-4.336h-3.5203
						l-1.1245,4.336h-1.4081L-121.2122,2.3498z M-120.5997,3.8797l-1.4695,5.6677h2.9681L-120.5997,3.8797z"/>
				</g>
			</g>
			<path fill="#FFFFFF" d="M231.8947,42.7565c-0.0253-0.0146-0.0565-0.0146-0.0819,0c0,0-0.0728,0.0546-0.0728,0.0819
				c-0.0132,0.0476-0.0132,0.0979,0,0.1456l0.182,0.3548l0.1547-0.0455C232.068,43.1008,232.0049,42.9147,231.8947,42.7565z
				 M234.3149,48.4248l0.2093-0.1456l-0.2093-0.5277c-0.1456,0-0.2366,0-0.2275,0.1274
				C234.069,48.0872,234.154,48.2912,234.3149,48.4248z M232.2222,42.1743c-0.0777-0.1048-0.177-0.1917-0.2911-0.2548
				c-0.1092,0.1092-0.1183,0.1274-0.0637,0.1911c0.085,0.0971,0.1795,0.1855,0.282,0.2639
				c0.1365-0.1001,0.1547-0.1365,0.1001-0.2002L232.2222,42.1743z M235.1428,50.3628c0.0342,0.061,0.0738,0.1189,0.1183,0.1729
				c0.1092-0.0728,0.2547-0.0546,0.373-0.182c-0.1092-0.2002-0.2093-0.4094-0.3185-0.6187
				c-0.1092-0.2093-0.2184-0.4367-0.3366-0.646c-0.0993-0.2148-0.2148-0.4216-0.3457-0.6187
				c-0.0832,0.0119-0.1653,0.0302-0.2457,0.0546c-0.0642,0.0121-0.1064,0.074-0.0943,0.1382
				c0.0023,0.0121,0.0065,0.0238,0.0124,0.0347c0.0174,0.0472,0.0387,0.0928,0.0637,0.1365L235.1428,50.3628z M232.3496,44.5125
				c0.3821,0.8188,0.7734,1.6468,1.1646,2.4656c0.0298,0.0655,0.0632,0.1293,0.1001,0.1911h0.0546c0.3093,0,0.3366,0,0.2093-0.3002
				c-0.0174-0.0472-0.0387-0.0928-0.0637-0.1365c-0.373-0.7825-0.7461-1.5649-1.1282-2.3474
				c-0.08-0.1873-0.1711-0.3696-0.2729-0.5459c-0.0401-0.0578-0.1195-0.0721-0.1773-0.032c-0.0125,0.0087-0.0233,0.0195-0.032,0.032
				c-0.0518,0.0636-0.0518,0.1548,0,0.2184c0.0465,0.1704,0.1043,0.3376,0.1729,0.5004L232.3496,44.5125z M234.7607,46.3322
				c-0.0345-0.1754-0.1199-0.3368-0.2457-0.464c-0.2496-0.2838-0.4748-0.5882-0.6733-0.9098c0-0.0546-0.0637-0.1092-0.1001-0.1547
				l-0.182-0.1638c-0.091-0.0637-0.091-0.0637-0.2457,0.0637c0.379,0.6171,0.8049,1.2041,1.2738,1.756L234.7607,46.3322z
				 M236.0799,48.1519c0.0242-0.0263,0.0427-0.0573,0.0546-0.091c-0.0341-0.0611-0.0737-0.1189-0.1183-0.1729l-0.3457-0.4367
				c-0.0728-0.0819-0.1456-0.1729-0.2274-0.2548c-0.0819-0.0819-0.0546,0-0.0819,0l-0.2093,0.1456
				c0,0.0637,0.0455,0.1092,0.0728,0.1456c0.0273,0.0364,0.2275,0.3002,0.3457,0.4367c0.1055,0.1387,0.221,0.2695,0.3457,0.3912
				c0.0455,0.0091,0.1638-0.0364,0.2184-0.1547L236.0799,48.1519z M238.8094,52.4372l0.1092,0.1456
				c0.057,0.077,0.1503,0.1184,0.2457,0.1092c0.1255-0.0129,0.2419-0.0712,0.3275-0.1638l-0.0546-0.1092
				c-0.1653-0.2721-0.3476-0.5334-0.5459-0.7825c-0.3275-0.3821-0.6278-0.8007-0.9098-1.2101
				c-0.0407-0.0447-0.0717-0.0974-0.091-0.1547c0-0.1365-0.1456-0.2002-0.2638-0.282l-0.3002,0.1456
				c0,0.1456,0.0728,0.2275,0.1274,0.3093L238.8094,52.4372z M241.0203,51.1088c0.1183-0.1183,0.2275-0.2184,0.3275-0.3275
				c0.0653-0.0469,0.0803-0.1378,0.0334-0.2031c-0.0092-0.0129-0.0205-0.0242-0.0334-0.0334l-0.0728-0.0637l-2.0744-1.7378
				c-0.0524-0.0342-0.1071-0.0646-0.1638-0.091l-0.1729,0.2275c-0.0028,0.0303-0.0028,0.0607,0,0.091l2.1381,2.0835
				L241.0203,51.1088z M238.2908,48.4885c0.1365-0.1547,0.1456-0.1729,0.1365-0.2275c0-0.0716-0.0337-0.139-0.091-0.182
				c-0.0711-0.059-0.138-0.1228-0.2002-0.1911l-1.5831-1.6468l-0.1183-0.1001c-0.0665-0.0532-0.161-0.0532-0.2275,0
				c-0.052,0.0531-0.052,0.138,0,0.1911l0.2547,0.2548c0.1183,0.1092,0.2457,0.2002,0.3548,0.3002
				c0.3912,0.3639,0.7552,0.7461,1.11,1.1373L238.2908,48.4885z M236.8624,49.6349l0.1729-0.1092l0.1547-0.1365
				c-0.1027-0.2024-0.2414-0.3843-0.4094-0.5368c-0.1376-0.1902-0.293-0.3669-0.464-0.5277l-0.282,0.1183
				c-0.0068,0.0483-0.0068,0.0973,0,0.1456C236.3165,48.9707,236.5894,49.2892,236.8624,49.6349z M231.7855,40.6548
				c0,0,0,0.0546,0,0.0728s0,0,0,0c0.0683-0.0382,0.1297-0.0874,0.182-0.1456c0,0,0-0.1092,0-0.182
				C231.8676,40.4486,231.7991,40.5446,231.7855,40.6548z M232.6954,36.9063c-0.1911,0.5641-0.3912,1.1191-0.5823,1.6741
				l-0.373,1.1009c0,0,0.0637,0.0455,0.091,0.0455c0.0289,0.0132,0.0621,0.0132,0.091,0c0.0225-0.0171,0.0411-0.0388,0.0546-0.0637
				c0.004-0.0302,0.004-0.0608,0-0.091c0.3002-0.7552,0.7006-1.8197,0.9917-2.5384c0.008-0.0482,0.008-0.0974,0-0.1456
				c0.0067-0.07-0.0446-0.1322-0.1146-0.139c-0.0134-0.0013-0.0269-0.0004-0.0401,0.0025
				c-0.0625,0.0311-0.1088,0.0874-0.1274,0.1547H232.6954z M233.9873,33.267c-0.0804,0.0206-0.1431,0.0834-0.1638,0.1638
				c-0.0252,0.0561-0.0465,0.1138-0.0637,0.1729l-0.1638,0.5277l-0.4913,1.3829c0,0.1365-0.0819,0.2729-0.1274,0.4276h0.3184
				c0.3184-0.9098,0.6278-1.7287,0.9098-2.6112c-0.1274-0.0637-0.1365-0.0637-0.2275-0.0455L233.9873,33.267z M231.9129,44.4579
				c0.0546,0,0.0819,0,0.091-0.1001v-0.1274c0-0.0637,0-0.1638,0-0.2639s-0.1092-0.1092-0.2093-0.0819s-0.1092,0.0637-0.091,0.1547
				c0.0182,0.091,0.0637,0.2366,0.1001,0.3548s0.0364,0.091,0.1001,0.0819L231.9129,44.4579z M232.0221,39.9088l-0.091,0.1092l0,0
				l0.1001-0.0819L232.0221,39.9088z M234.0328,38.353c0,0,0,0.0455,0,0.0546c0.0269,0.0069,0.055,0.0069,0.0819,0
				c0.0316-0.0057,0.0603-0.0217,0.0819-0.0455c0.1729-0.1729,0.3366-0.3457,0.5004-0.5277
				c0.0235-0.0302,0.0419-0.064,0.0546-0.1001v-0.0546c0,0-0.0637,0-0.0819,0c-0.2217,0.1778-0.4204,0.3826-0.5914,0.6096
				L234.0328,38.353z M235.625,33.9858l-0.0546,0.1092c-0.1547,0.2911-0.3002,0.5823-0.464,0.9098
				c-0.1638,0.3275-0.4367,0.6915-0.646,1.0463c-0.0636,0.1044-0.1184,0.214-0.1638,0.3275c-0.0226,0.0427-0.0226,0.0938,0,0.1365
				c0.0317,0.0628,0.1083,0.088,0.1711,0.0564c0.0243-0.0123,0.0441-0.032,0.0564-0.0564l0.7006-1.0645
				c0.2729-0.4185,0.5277-0.8461,0.8006-1.2738v-0.1092c0,0,0-0.0637,0-0.091c-0.1638-0.1638-0.282-0.1456-0.4094,0.0546
				L235.625,33.9858z M242.4124,49.1618c0.0487,0.0299,0.1006,0.0543,0.1547,0.0728c0.0928-0.0669,0.1653-0.1582,0.2093-0.2639
				c0.091-0.1638,0.0819-0.2002-0.0728-0.3002l-2.3747-1.5194l-0.182-0.0637l-0.2093,0.3639
				c0.0637,0.1183,0.1638,0.1547,0.2457,0.2184l1.5285,1.0281L242.4124,49.1618z M231.1304,54.2295
				c-0.0044,0.0515-0.0044,0.1032,0,0.1547c0.0423,0.1433,0.1785,0.2378,0.3275,0.2275c0.1335-0.0227,0.2368-0.1296,0.2547-0.2639
				c0.0043-0.0697,0.0043-0.1396,0-0.2093v-1.947c0.0085-0.1494-0.0911-0.2835-0.2366-0.3184
				c-0.0546,0.1456-0.182,0.1092-0.2911,0.1092c-0.0566,0.0686-0.0829,0.1573-0.0728,0.2457L231.1304,54.2295z M231.4125,48.2974
				c-0.0965,0.0019-0.1792,0.0695-0.2002,0.1638c-0.0137,0.0905-0.0137,0.1825,0,0.2729c0,0.3457,0,0.6915,0,1.0372
				c0.0135,0.1848,0.0135,0.3702,0,0.555c-0.001,0.2531,0.0203,0.5058,0.0637,0.7552c-0.0051,0.0178-0.0051,0.0367,0,0.0546
				c0.0499,0.0302,0.1058,0.0488,0.1638,0.0546c0.0455-0.0185,0.0816-0.0546,0.1001-0.1001c0.0094-0.0511,0.0094-0.1035,0-0.1547
				c0-0.5459,0-1.1009-0.0728-1.6468c0-0.2639,0-0.5368,0-0.8007C231.4559,48.423,231.4376,48.3589,231.4125,48.2974z
				 M231.4944,40.3455c0,0.0455,0,0.091,0.091,0.1092c0.091,0.0182,0.1092-0.1547,0.1547-0.2457s0-0.1183-0.1183-0.2002
				C231.5854,40.1362,231.5308,40.2363,231.4944,40.3455z M231.7218,42.4472c0,0,0,0-0.0637,0c-0.0637,0-0.0546,0.0637,0,0.0728
				c0.0231,0.0261,0.0509,0.0477,0.0819,0.0637C231.7462,42.5374,231.7399,42.4903,231.7218,42.4472z M231.5308,43.1569
				c0,0.0455,0,0.0819,0.0728,0.0637c0.0294-0.0111,0.0526-0.0343,0.0637-0.0637c0-0.0728,0-0.1092-0.0728-0.091
				C231.5613,43.0858,231.5381,43.1189,231.5308,43.1569z M227.1727,47.3057L227.1727,47.3057
				c-0.103-0.0719-0.2448-0.0467-0.3167,0.0563c-0.0076,0.011-0.0143,0.0226-0.0199,0.0347
				c-0.0819,0.1274-0.182,0.2457-0.2639,0.3821c-0.182,0.2911-0.3639,0.5823-0.5368,0.9098l-0.2729,0.4367
				c0.0777,0.1191,0.193,0.2088,0.3275,0.2548c0.0379-0.0319,0.0716-0.0686,0.1001-0.1092c0.3457-0.5277,0.6733-1.0645,1.019-1.6013
				c0.093-0.0918,0.0939-0.2416,0.0021-0.3345c-0.0007-0.0007-0.0014-0.0014-0.0021-0.0021l0,0L227.1727,47.3057z M231.8037,37.2157
				c0.0637,0,0.1729,0,0.1911-0.0546c0.0025-0.0424,0.0025-0.085,0-0.1274c0-0.1183,0.0728-0.4003,0-0.4185
				c-0.0728-0.0171-0.1458,0.0275-0.1638,0.1001c-0.0506,0.1214-0.0931,0.246-0.1274,0.373
				c-0.0102,0.0594,0.0297,0.1159,0.0891,0.1261C231.7964,37.215,231.8001,37.2154,231.8037,37.2157z M232.1676,35.7872
				c0-0.2366,0.0819-0.4731,0.1183-0.7188c0.0091-0.045,0.0091-0.0914,0-0.1365c-0.2002-0.0546-0.2457,0-0.273,0.1274
				c-0.03,0.1073-0.0512,0.2168-0.0637,0.3275c-0.0229,0.1782-0.0229,0.3586,0,0.5368
				C232.1131,35.9328,232.1404,35.9237,232.1676,35.7872z M233.8054,27.6897c0.4276-1.3829,0.9098-2.7295,1.2556-4.1579h-1.5831
				c-0.151,1.2447-0.3667,2.4807-0.646,3.703c-0.0728,0.3639-0.3457,1.0827,0,1.3647
				C233.4687,29.1273,233.678,28.0991,233.8054,27.6897z M232.4952,32.2753c0.0637,0,0.3093,0,0.373-0.0728
				c0.0637-0.0728,0.0637-0.282,0.0819-0.4185s0-0.3639,0.0819-0.5459c0.0819-0.182,0.091-0.4822,0.1365-0.7188
				c0.0455-0.2366,0-0.3639,0.0728-0.5459v-0.1092c0-0.1092-0.2729-0.2275-0.3821-0.2275c-0.087-0.0001-0.1589,0.0678-0.1638,0.1547
				c0,0,0,0,0,0.0546c-0.091,0.5368-0.182,1.0736-0.2638,1.6013c-0.0364,0.2426-0.0637,0.4883-0.0819,0.737
				c-0.001,0.0553,0.043,0.1009,0.0982,0.1019C232.4643,32.2865,232.4806,32.2828,232.4952,32.2753z M231.4034,45.7863
				c-0.009-0.0531-0.0553-0.0917-0.1092-0.091c-0.0639-0.0078-0.1246,0.0301-0.1456,0.091c-0.014,0.0599-0.014,0.1221,0,0.182
				v0.5823l0,0v0.6005c-0.0147,0.0598-0.0147,0.1222,0,0.182c0.0294,0.0511,0.0789,0.0874,0.1365,0.1001
				c0.0579-0.0118,0.1096-0.0441,0.1456-0.091c0.014-0.0599,0.014-0.1221,0-0.182c0-0.4003,0-0.8007,0-1.1919
				C231.4247,45.9072,231.4156,45.8465,231.4034,45.7863z M232.2132,34.6772c0.0623,0.015,0.1266-0.0152,0.1547-0.0728
				c0.032-0.0636,0.0564-0.1308,0.0728-0.2002c0.0204-0.3055,0.0599-0.6093,0.1183-0.9098c0,0,0,0,0-0.0546
				c0.0064-0.03,0.0064-0.061,0-0.091c-0.0305-0.0568-0.0902-0.0919-0.1547-0.091c-0.0613,0.0058-0.1123,0.0495-0.1274,0.1092
				c-0.005,0.0209-0.005,0.0428,0,0.0637c-0.0546,0.3275-0.1001,0.6642-0.1456,0.9917c-0.0045,0.0332-0.0045,0.0669,0,0.1001
				C232.1132,34.5877,232.1492,34.6556,232.2132,34.6772z M231.5854,39.3629c0.0307-0.076,0.0521-0.1554,0.0637-0.2366
				c0.091-0.464,0.1638-0.9098,0.2457-1.4102c0.004-0.0515,0.004-0.1032,0-0.1547c0,0,0-0.0455,0-0.0546
				c-0.0252-0.0303-0.061-0.0498-0.1001-0.0546c0,0-0.0637,0-0.0728,0c-0.0266,0.0649-0.0479,0.1318-0.0637,0.2002
				c-0.1001,0.5186-0.1183,1.0554-0.1729,1.5831c-0.0086,0.042-0.0086,0.0854,0,0.1274
				C231.4853,39.3629,231.5854,39.3811,231.5854,39.3629z M229.7657,43.5845c0.0089-0.083-0.0346-0.1627-0.1092-0.2002
				c-0.0728,0-0.1183,0-0.1547,0.0637l-0.091,0.1274l-1.392,2.0653c-0.0819,0.1274-0.1547,0.2639-0.2548,0.4185
				c0.0637,0.0455,0.091,0.0819,0.1274,0.091c0.2093,0.1001,0.2547,0.091,0.373-0.1001l1.5012-2.3019
				c0.025-0.0521,0.0433-0.1071,0.0546-0.1638H229.7657z M227.5184,47.151v-0.0546c0.0274-0.0809-0.016-0.1687-0.0969-0.1961
				c-0.0274-0.0093-0.0569-0.0107-0.0851-0.0041c-0.0353-0.0125-0.0739-0.0125-0.1092,0c-0.1196,0.0933-0.1508,0.2612-0.0728,0.3912
				h0.2275L227.5184,47.151z M218.0652,51.0724c0.9098-0.7097,1.8743-1.4102,2.7932-2.129
				c0.4185-0.3184,1.7287-1.0008,1.1282-1.7105c-0.1638-0.2002-0.4913,0-0.6733,0.0546c-0.6096,0.3002-1.1646,0.6642-1.7378,1.0008
				c-0.9098,0.5641-1.9198,1.1009-2.8751,1.6559c-0.3275,0.1911-0.9098,0.4185-1.1282,0.7461
				c-0.0914,0.2311-0.1196,0.4823-0.0819,0.7279v1.5922C216.3815,52.4092,217.2409,51.7623,218.0652,51.0724z M243.8499,46.9691
				c0.1313-0.0866,0.2378-0.2057,0.3093-0.3457c0,0-0.0546-0.0546-0.0819-0.0637l-2.8842-1.1373
				c-0.0484-0.0043-0.0972-0.0043-0.1456,0c-0.1072,0.0949-0.186,0.2178-0.2275,0.3548c0.3457,0.1638,0.6824,0.282,1.0099,0.4185
				l1.0281,0.4185C243.1857,46.7143,243.5133,46.869,243.8499,46.9691z M229.0469,46.9691
				c0.0472-0.0937,0.0867-0.1911,0.1183-0.2911c0-0.0546,0-0.1365-0.1092-0.1638c-0.0622-0.015-0.1266,0.0152-0.1547,0.0728
				c-0.0474,0.1063-0.0751,0.2204-0.0819,0.3366L229.0469,46.9691z M235.8434,36.4423c-0.1183,0.1274-0.2366,0.2639-0.3457,0.4003
				c-0.1273,0.1249-0.2293,0.2732-0.3002,0.4367l0.182,0.1365c0.3766-0.3609,0.7178-0.757,1.019-1.1828
				c0-0.1001-0.0819-0.1911-0.2001-0.2184c-0.1183-0.0273-0.2457,0.2729-0.3548,0.3912L235.8434,36.4423z M234.9336,30.2282
				l-0.4094,0.9917l-0.4094,1.0008c-0.0448,0.0692-0.0448,0.1583,0,0.2275c0.0733,0.0749,0.1788,0.1089,0.282,0.091
				c0.0822-0.0176,0.1523-0.071,0.1911-0.1456c0.0174-0.0472,0.0387-0.0928,0.0637-0.1365l0.8188-1.8197
				c0-0.0819,0.0637-0.1729,0.1001-0.2639c-0.0824-0.1243-0.2042-0.2172-0.3457-0.2639c-0.0829-0.0313-0.1756,0.0091-0.2093,0.091
				c-0.0295,0.0616-0.0538,0.1255-0.0728,0.1911L234.9336,30.2282z M249.6001,44.4215c-0.2002-0.1638-0.6733-0.1365-0.9098-0.1638
				c-0.7006-0.0728-1.4102-0.1729-2.1108-0.2729c-0.2639,0-0.7097-0.1729-0.9098-0.0546s-0.182,0.3639-0.182,0.555l4.3126,0.9098
				C249.7274,45.1221,249.8275,44.5853,249.6001,44.4215z M247.835,37.0064l-1.2829,0.3821
				c-0.5191,0.1023-1.0256,0.261-1.5103,0.4731c-0.1666,0.0825-0.2348,0.2845-0.1523,0.4511
				c0.0138,0.0278,0.0313,0.0536,0.0522,0.0766c0.2729,0.2729,1.2101-0.1001,1.5376-0.1729l2.3383-0.5368
				c0.2275-0.0637,0.6642-0.0728,0.828-0.282c0.1638-0.2093,0.0819-0.6642,0.0819-0.9098
				c-0.6388,0.1349-1.2704,0.3019-1.8925,0.5004V37.0064z M249.7274,49.8805v-1.11c-1.3606-0.4241-2.697-0.9222-4.0033-1.4921
				c-0.5641-0.2184-1.3011-0.6824-1.5194,0.1365c1.1737,0.6824,2.4747,1.1737,3.703,1.7378
				C248.4862,49.4605,249.0963,49.7046,249.7274,49.8805z M242.4488,41.0006l-0.7097,0.0546c-0.0797,0.0842-0.0797,0.216,0,0.3002
				c0,0.0819,0.1365,0.0637,0.2184,0.0637l0,0l2.6294,0.1092c0.1187,0.0359,0.2453,0.0359,0.3639,0
				c0.0362-0.1279,0.0362-0.2633,0-0.3912c-0.1324-0.1429-0.3251-0.2139-0.5186-0.1911L242.4488,41.0006z M244.6051,44.1213
				c0.0497-0.16,0.0497-0.3313,0-0.4913c-0.0168-0.0375-0.0507-0.0646-0.091-0.0728c-0.0593-0.0298-0.1247-0.0454-0.1911-0.0455
				l-1.7287-0.2366c-0.1179-0.0409-0.2461-0.0409-0.3639,0c-0.0766,0.0721-0.1049,0.1819-0.0728,0.282
				c0.0551,0.0997,0.1462,0.1746,0.2547,0.2093h0.182l1.6377,0.2911c0.1076,0.0625,0.2304,0.094,0.3548,0.091L244.6051,44.1213z
				 M249.7456,40.8914c-1.4648,0-2.9206,0.1456-4.3854,0.1456v0.6551l4.3854,0.0728V40.8914z M236.18,29.009
				c0.3927-0.4575,0.7008-0.9812,0.9098-1.5467c0.4822-0.8279,0.9553-1.6559,1.4284-2.4929
				c0.3194-0.4579,0.5821-0.9528,0.7825-1.4739h-1.292c-0.189-0.0283-0.3822,0.0002-0.555,0.0819
				c-0.3548,0.2548-0.5095,1.11-0.6551,1.5103c-0.5702,1.2835-1.0743,2.5954-1.5103,3.9305
				C235.5795,29.0727,235.9253,29.2,236.18,29.009z M238.1453,29.2819c-0.1183,0.182-0.2639,0.4276-0.0819,0.6187
				c0.6642,0.737,1.4284-0.5823,1.7651-1.0008c0.8552-1.1009,1.7651-2.22,2.6112-3.3209c0.5795-0.6447,1.0973-1.3423,1.5467-2.0835
				h-1.4375c-0.2164-0.0409-0.4386-0.0409-0.6551,0c-0.3639,0.1729-0.6369,0.837-0.8461,1.1646
				c-0.6187,0.9917-1.2738,1.9652-1.8833,2.9479C238.864,28.2265,238.4637,28.7451,238.1453,29.2819z M243.8317,38.3257
				l-0.4458,0.1183c-0.0546,0-0.1001,0.0637-0.1456,0.0819c-0.0077,0.1083,0.0322,0.2146,0.1092,0.2911
				c0.315-0.0238,0.6232-0.1039,0.9098-0.2366c0.0114-0.1281-0.0207-0.2563-0.091-0.3639L243.8317,38.3257z M248.2171,30.2827
				c0.5042-0.2318,0.9705-0.5386,1.3829-0.9098c0.199-0.5902,0.199-1.2294,0-1.8197c-1.0008,0.7279-1.9561,1.5194-2.9388,2.2746
				l-1.9198,1.4375c-0.7097,0.5459-1.4284,1.0827-2.1199,1.6468c-0.2275,0.1911-0.5368,0.5641-0.1729,0.8279
				c0.2184,0.1547,0.5095,0,0.7006-0.1547c0.5641-0.3548,1.1191-0.7188,1.665-1.0827
				C245.9425,31.7476,247.0525,31.0379,248.2171,30.2827z M240.7292,31.0197c-0.2457,0.2184-0.6096,0.5277-0.2729,0.8461
				c0.5004,0.5004,0.9735,0.1547,1.4102-0.2184l1.3557-1.1646c1.4557-1.2859,2.9175-2.5597,4.3854-3.8213
				c0.4822-0.4094,0.9644-0.8188,1.4375-1.2374c0.2184-0.2002,0.5277-0.4003,0.6369-0.6824c0.0597-0.4012,0.0597-0.8089,0-1.2101
				c-0.5004-0.0777-1.0099-0.0777-1.5103,0c-0.2623,0.1413-0.4942,0.333-0.6824,0.5641l-1.0099,1.1009
				c-1.3739,1.3738-2.7295,2.7841-4.0852,4.1579C241.8392,29.9097,241.3024,30.4738,240.7292,31.0197z M232.6681,42.0651
				c0.0546,0,0.1092-0.0455,0.1183-0.1274c0.0091-0.0819,0-0.0546,0-0.0637l-0.4731-0.182c0,0-0.0637,0-0.0728,0s0,0.091,0,0.1092
				C232.358,41.9244,232.5052,42.0153,232.6681,42.0651z M236.3074,43.6027l0.0637-0.2184l-0.2093-0.1001l-1.1919-0.4822
				l-0.6733-0.2729c-0.0986-0.05-0.2079-0.075-0.3185-0.0728c-0.0546,0.182-0.0455,0.2093,0.0546,0.2548h0.0819l2.0107,0.8279
				c0.062,0.034,0.13,0.0556,0.2002,0.0637H236.3074z M233.8145,43.2024c0.059,0.1205,0.1639,0.2123,0.2911,0.2548
				c0.0458,0.0439,0.118,0.0439,0.1638,0c0.044-0.0561,0.044-0.135,0-0.1911c-0.0993-0.1119-0.2344-0.1859-0.3821-0.2093
				c-0.091,0.0182-0.1001,0.0819-0.0546,0.1456H233.8145z M234.0874,41.3827c0.127,0.0134,0.2551,0.0134,0.3821,0h0.9098
				c0.1365,0,0.1729-0.0455,0.1729-0.1911c0.0025-0.0424,0.0025-0.085,0-0.1274c-0.4752-0.0126-0.9506,0.0209-1.4193,0.1001
				L234.0874,41.3827z M236.271,40.4729c0.0819,0,0.1092-0.0637,0.1183-0.1456c0.0091-0.0819,0-0.2002-0.1729-0.2002h-0.2457
				c-0.1211,0.0093-0.2428,0.0093-0.3639,0c-0.0987,0.0011-0.1968,0.0164-0.2911,0.0455c-0.0847,0.0425-0.1782,0.0643-0.2729,0.0637
				c-0.3338,0.0221-0.6607,0.1054-0.9644,0.2457c0,0,0,0-0.0546,0.0637c0.0429,0.1245,0.1711,0.1982,0.3002,0.1729l0.8552-0.1183
				l0.7552-0.1274L236.271,40.4729z M234.051,40.2272l-0.1092-0.1638c-0.1846,0.0409-0.3604,0.1148-0.5186,0.2184
				c0.0546,0.1638,0.091,0.1911,0.1911,0.1547l0.3912-0.1456c0,0,0.0455,0.0091,0.0637-0.0182L234.051,40.2272z M239.4281,39.4993
				l-0.4822,0.091c-0.128,0.0399-0.2588,0.0703-0.3912,0.091c-0.3087,0.0436-0.6131,0.1137-0.9098,0.2093
				c-0.1365,0-0.1547,0.091-0.1092,0.2548c0.0117,0.0311,0.0304,0.0591,0.0546,0.0819c0.0573,0.009,0.1156,0.009,0.1729,0
				c0.9491-0.1594,1.8879-0.3751,2.8114-0.646c0.0092-0.0847,0.0092-0.1701,0-0.2548c-0.0048-0.0651-0.0615-0.1141-0.1267-0.1092
				c-0.0002,0-0.0005,0-0.0007,0.0001c-0.2242,0.0172-0.4432,0.0758-0.646,0.1729c-0.1114,0.0661-0.2306,0.1181-0.3548,0.1547
				L239.4281,39.4993z M233.5597,41.692c0,0,0-0.0546,0-0.0637c-0.0673-0.0247-0.1378-0.04-0.2093-0.0455h-0.0819
				c-0.0347,0.0354-0.0347,0.092,0,0.1274c0.0798,0.1101,0.232,0.1381,0.3457,0.0637
				C233.6078,41.7404,233.5881,41.7109,233.5597,41.692z M233.4778,42.2016c0-0.0455,0-0.091-0.0728-0.1092l-0.3184-0.1547
				c-0.0546,0-0.1183,0-0.1365,0.1001c-0.0212,0.04-0.006,0.0895,0.034,0.1107c0.0065,0.0034,0.0134,0.006,0.0206,0.0076
				c0.1092,0.0475,0.2217,0.087,0.3366,0.1183c0,0,0.0637-0.0182,0.1365-0.0455V42.2016z M233.6416,41.2917
				c0.0065-0.0361,0.0065-0.0731,0-0.1092c-0.0232-0.0101-0.0496-0.0101-0.0728,0h-0.5186c-0.1456,0-0.1638,0-0.1638,0.2639h0.7188
				c0,0,0.0273-0.1092,0.0364-0.1456V41.2917z M232.6681,40.2727c-0.0401-0.003-0.075,0.0271-0.078,0.0672
				c-0.0008,0.0112,0.0009,0.0225,0.0052,0.0329c0,0,0.0546,0,0.0728,0c0.035-0.0177,0.066-0.0425,0.091-0.0728
				c-0.0455,0.0091-0.0637-0.0182-0.091-0.0182V40.2727z M232.9137,42.4927l0.2093,0.182c0,0,0.1274-0.0455,0.1274-0.091
				c0.0012-0.0212,0.0012-0.0425,0-0.0637c-0.0639-0.0794-0.162-0.1234-0.2639-0.1183c0,0-0.091,0.0819-0.0728,0.1001V42.4927z
				 M239.3644,37.2885l-0.3093,0.1365c-0.3353,0.1449-0.6605,0.3121-0.9735,0.5004c-0.2547,0.1547-0.5186,0.2911-0.7643,0.4458
				c-0.2457,0.1547-0.3548,0.2366-0.5368,0.3548l0.091,0.2911h0.0546c0.0266,0.0084,0.0552,0.0084,0.0819,0l2.8114-1.4284l0,0l0,0
				c-0.0078-0.1358-0.0784-0.2603-0.1911-0.3366L239.3644,37.2885z M239.046,46.7416l0.2275,0.1638
				c0.0848,0.0438,0.1891,0.0105,0.2329-0.0743c0.0013-0.0025,0.0025-0.005,0.0037-0.0075
				c0.0589-0.0687,0.0509-0.1721-0.0178-0.2309c-0.0112-0.0096-0.0235-0.0176-0.0368-0.0238l-0.2002-0.1001
				C239.1442,46.5189,239.0656,46.6213,239.046,46.7416z M236.7259,35.9965l0.6187-0.5004c0.1638-0.1365,0.1456-0.2275,0-0.3548
				l-0.1274-0.0728l-0.1092,0.0728c-0.2093,0.2002-0.4185,0.4003-0.6187,0.6096c-0.2002,0.2093-0.1183,0.182,0.0728,0.3457
				C236.619,36.067,236.6737,36.0336,236.7259,35.9965z M240.3016,45.4679c0.0536,0.0143,0.1101,0.0143,0.1638,0
				c0.0637-0.0546,0.1274-0.1183,0.1001-0.2184l-0.0728-0.0546l-2.593-1.0554c-0.1068-0.0433-0.2162-0.0797-0.3275-0.1092
				c-0.1547,0.2366-0.1547,0.2639,0,0.3548h0.0546l2.4656,1.0372C240.1591,45.4487,240.2298,45.4641,240.3016,45.4679z
				 M241.5935,43.5117c0.061,0.0841,0.1601,0.1319,0.2639,0.1274c0.091,0,0.1729-0.1092,0.1911-0.2366s0-0.1183-0.1274-0.1365
				c-0.0929-0.0234-0.1871-0.0416-0.282-0.0546C241.5935,43.3297,241.5298,43.4298,241.5935,43.5117z M232.4952,40.6821
				c-0.1406,0.0443-0.2664,0.1261-0.3639,0.2366c0.0637,0,0.1183,0.091,0.1547,0.0819c0.1476-0.0199,0.2848-0.0869,0.3912-0.1911
				C232.6772,40.7003,232.6135,40.6548,232.4952,40.6821z M238.0088,30.674c-0.1547,0-0.282-0.1911-0.5004-0.091
				c-0.4367,0.7552-0.9098,1.5194-1.3102,2.2837c-0.053,0.1005-0.0721,0.2153-0.0546,0.3275
				c-0.0107,0.0847,0.0493,0.1621,0.134,0.1729c0.0129,0.0016,0.026,0.0016,0.0388,0c0.0703-0.0011,0.1391-0.0199,0.2002-0.0546
				c0.1213-0.0724,0.2241-0.1721,0.3002-0.2911l1.292-1.9107c0-0.0728,0.0819-0.1456,0.1092-0.2002s-0.0728-0.2457-0.182-0.2729
				L238.0088,30.674z M243.0947,35.8145l-0.1547-0.1001c-0.1017-0.0789-0.244-0.0789-0.3457,0l-1.9288,0.9098
				c-0.1911,0.091-0.2639,0.273-0.3821,0.4276c-0.1183,0.1547,0,0.091,0,0.1547c0.3177,0.0506,0.6427-0.021,0.9098-0.2002
				l0.1638-0.0819l1.5376-0.6915c0.1835-0.0529,0.2893-0.2445,0.2364-0.428c-0.0026-0.0091-0.0056-0.0181-0.009-0.0269
				L243.0947,35.8145z M236.4348,44.8401c0.0294-0.049,0.0538-0.1008,0.0728-0.1547c-0.6278-0.4276-1.2829-0.8007-1.9197-1.201
				c0,0,0,0-0.0819,0l-0.0728,0.1911l0.5368,0.4094c0.3759,0.2991,0.7778,0.5641,1.201,0.7916
				c0.0753,0.0666,0.1903,0.0596,0.2569-0.0156c0.0149-0.0168,0.0265-0.0361,0.0343-0.0571L236.4348,44.8401z M235.9071,37.7707
				c0.0546,0.1365,0.1274,0.1911,0.2275,0.1911c0.0803,0.0005,0.1591-0.0215,0.2275-0.0637
				c0.0365-0.0158,0.0703-0.0373,0.1001-0.0637l1.8197-1.3557c0.0541-0.032,0.1032-0.0719,0.1456-0.1183
				c0.061-0.074,0.061-0.1808,0-0.2548c-0.0632-0.1313-0.2209-0.1864-0.3522-0.1232c-0.0136,0.0066-0.0267,0.0143-0.039,0.0231
				l-0.1183,0.091l-1.2374,0.9462c-0.266,0.2111-0.5154,0.4423-0.7461,0.6915L235.9071,37.7707z M235.2975,38.5986
				c0.0909-0.0367,0.154-0.1208,0.1638-0.2184c0,0,0-0.0455-0.0455-0.0637c-0.0455-0.0182-0.0819,0-0.1092,0
				c-0.0609,0.0336-0.1162,0.0766-0.1638,0.1274c-0.044,0.0561-0.044,0.135,0,0.1911c0.0819,0,0.1274-0.0455,0.182-0.0728
				L235.2975,38.5986z M234.8881,44.8128c-0.2184,0.0728-0.2457,0.1456-0.1001,0.2911l0.0637,0.0546l0.7643,0.6733l0,0
				c0.1729-0.1001,0.182-0.1456,0.0455-0.2639l-0.5823-0.5459L234.8881,44.8128z M234.142,40.1726
				c-0.0045,0.0241-0.0045,0.0487,0,0.0728l0.1274,0.0637l1.2283-0.5732l0.6369-0.2911c0.1456-0.0728,0.1547-0.182,0-0.2911
				c-0.0895-0.054-0.2016-0.054-0.2911,0l-0.2184,0.1092l-1.1464,0.6096c-0.1148,0.0732-0.2189,0.162-0.3093,0.2639L234.142,40.1726
				z M242.5034,39.1081c0.1729,0,0.3548-0.091,0.5459-0.1456c0-0.3275-0.0819-0.3639-0.3457-0.282l-0.9098,0.2548
				c-0.1365,0.0455-0.2638,0.1092-0.3912,0.1638v0.2457c0.2457,0,0.2547,0,0.4003,0
				C242.0245,39.2344,242.2602,39.1548,242.5034,39.1081z M233.7599,44.1304l0.5459,0.4913
				c0.0258,0.0319,0.0565,0.0595,0.091,0.0819c0.0611,0.0667,0.1647,0.0713,0.2314,0.0102
				c0.0266-0.0243,0.0444-0.0567,0.0507-0.0921c0.0105-0.074-0.0211-0.1477-0.0819-0.1911l-0.9098-0.8188l-0.4276-0.3093
				l-0.1911,0.1456C233.2588,43.7128,233.4926,43.9435,233.7599,44.1304z M236.8351,43.8029c0,0,0,0,0.0637-0.0455
				s0-0.0546,0-0.0637c-0.0453-0.116-0.1575-0.192-0.282-0.1911c-0.0546,0-0.091,0.0455-0.1001,0.091
				c-0.0154,0.0411-0.0154,0.0863,0,0.1274C236.644,43.7574,236.7441,43.7756,236.8351,43.8029z M237.1899,42.3198
				c-0.0413-0.0574-0.1033-0.0966-0.1729-0.1092c-0.2002-0.0546-0.4003-0.091-0.6005-0.1274l-1.483-0.2366l-0.737-0.1092
				c-0.1092,0-0.1729,0.0455-0.182,0.1547c-0.0152,0.0687,0.0282,0.1367,0.0969,0.1518c0.007,0.0015,0.0142,0.0025,0.0213,0.0028
				c0.1638,0,0.5823,0.1183,0.7552,0.1365c0.3497,0.0027,0.6967,0.061,1.0281,0.1729c0.0389,0.0086,0.0793,0.0086,0.1183,0
				l0.5732,0.1092c0.1663,0.0435,0.3376,0.0649,0.5095,0.0637C237.1808,42.4745,237.2354,42.4017,237.1899,42.3198z
				 M232.2586,42.893c-0.0355,0.0777-0.0013,0.1695,0.0764,0.205c0.0161,0.0074,0.0333,0.0119,0.0509,0.0134
				c0,0,0.0455,0,0.0455-0.0546c-0.0041-0.08-0.0536-0.1507-0.1274-0.182C232.3041,42.8748,232.2677,42.8839,232.2586,42.893z
				 M238.6275,46.4596c0.0688,0.0464,0.1419,0.086,0.2184,0.1183c0.035,0.0142,0.0742,0.0142,0.1092,0
				c0.0955-0.0816,0.1067-0.2252,0.025-0.3207c-0.0077-0.009-0.0161-0.0174-0.025-0.025l-0.1092-0.0637
				c-0.3882-0.2265-0.7648-0.4725-1.1282-0.737c-0.1183-0.091-0.2457-0.1729-0.3821-0.2639l-0.2366,0.282
				c0.0598,0.0599,0.1271,0.1119,0.2002,0.1547c0.4003,0.282,0.8461,0.5732,1.292,0.8552H238.6275z M233.3141,44.4215
				c0.0397-0.0474,0.0397-0.1164,0-0.1638c-0.1477-0.2395-0.3354-0.4519-0.555-0.6278c-0.0637,0-0.1001,0.0637-0.0819,0.1183
				c0.1177,0.2379,0.2677,0.4583,0.4458,0.6551c0.041,0.0571,0.1206,0.0702,0.1778,0.0292
				C233.3054,44.4292,233.3099,44.4255,233.3141,44.4215z M241.7937,33.6582c-0.1236,0.0011-0.244,0.0391-0.3457,0.1092
				l-1.9834,1.1919c-0.0596,0.0354-0.1121,0.0817-0.1547,0.1365c0,0.0637-0.0546,0.1365-0.091,0.1911s-0.1365,0.0546-0.1365,0.1638
				l0.2639,0.2457c0.1729-0.091,0.3457-0.1729,0.5004-0.2729l1.9743-1.1828c0.064-0.0341,0.1249-0.0736,0.182-0.1183
				c0.0894-0.0879,0.1148-0.2221,0.0637-0.3366c-0.0464-0.1075-0.1563-0.1734-0.273-0.1638V33.6582z M232.8591,43.0204
				c0.0442-0.0411,0.0838-0.0869,0.1183-0.1365c-0.1321-0.1736-0.292-0.3242-0.4731-0.4458l-0.1729,0.1183l0.3639,0.4458
				C232.7361,43.0516,232.8086,43.0596,232.8591,43.0204z M240.3107,32.3845c-0.1365-0.2366-0.2457-0.2275-0.4276,0l-1.8834,1.8925
				l-0.1274,0.1274c-0.1001,0.1274-0.0546,0.2366,0.1001,0.2729h0.1001c0.0993,0.0143,0.199-0.0235,0.2638-0.1001
				c0.1456-0.1274,0.182-0.0819,0.3366-0.2093l0.2548-0.2457c0.1645-0.1215,0.3142-0.262,0.4458-0.4185
				c0.282-0.3002,0.4003-0.3002,0.6915-0.6096l0.2912-0.3093c0.061-0.074,0.061-0.1808,0-0.2548
				C240.335,32.4836,240.3197,32.4347,240.3107,32.3845z M240.62,43.0022c-0.1256-0.0017-0.2507-0.017-0.373-0.0455
				c-0.1333-0.0508-0.2767-0.0695-0.4185-0.0546c-0.0633,0.0758-0.0839,0.1786-0.0546,0.2729
				c0.2754,0.083,0.5592,0.1349,0.8461,0.1547C240.6837,43.2115,240.7383,43.1114,240.62,43.0022z M238.2271,42.893
				c0.337,0.0296,0.6696,0.0968,0.9917,0.2002h0.1547c0.07,0.0022,0.1372-0.028,0.182-0.0819c0.0546-0.0728,0-0.1365,0-0.2184
				l-0.7825-0.182l-0.5732-0.1183c-0.0933-0.0201-0.1853,0.0392-0.2054,0.1325c-0.0029,0.0132-0.0042,0.0268-0.0038,0.0403
				c0,0.1001,0,0.1456,0.1456,0.1729L238.2271,42.893z M241.0749,41.4373c0.0551-0.1087,0.0551-0.2371,0-0.3457h-0.2002
				c-1.1737,0-2.6658,0-3.0116,0.0455c-0.0147,0.069-0.0147,0.1403,0,0.2093c0,0.0728,0.1092,0.091,0.182,0.1001h0.091h2.7932
				C240.9781,41.4501,241.0271,41.4471,241.0749,41.4373z M233.405,37.7161l-0.9098,1.4466
				c-0.0966,0.1433-0.1847,0.2922-0.2638,0.4458c-0.0195,0.0338-0.0195,0.0754,0,0.1092c0,0.0455,0.2547-0.2184,0.2911-0.2548
				c0.0596-0.0689,0.1143-0.1418,0.1638-0.2184l0.2366-0.3548c0.182-0.2366,0.3639-0.464,0.5368-0.7097
				c0.1318-0.1433,0.2229-0.3192,0.2639-0.5095c-0.0637,0-0.1183-0.0728-0.1729-0.0728S233.4687,37.6524,233.405,37.7161z
				 M236.8351,40.209c-0.0473-0.0829-0.1529-0.1117-0.2358-0.0644c-0.0268,0.0153-0.0491,0.0376-0.0644,0.0644
				c-0.0279,0.0591-0.0027,0.1296,0.0564,0.1575c0.0053,0.0025,0.0108,0.0046,0.0164,0.0063
				c0.0944,0.0167,0.1914-0.01,0.2639-0.0728c0,0,0-0.0546-0.0182-0.091H236.8351z M237.0444,41.3645
				c0.0849-0.0094,0.1461-0.0858,0.1367-0.1707c-0.0001-0.0007-0.0002-0.0014-0.0002-0.0021c0-0.0819-0.0637-0.1001-0.1274-0.1092
				h-0.1274h-0.9098c-0.0746-0.0106-0.1437,0.0413-0.1543,0.1159c-0.0001,0.0008-0.0002,0.0016-0.0003,0.0024
				c-0.0046,0.0484-0.0046,0.0972,0,0.1456h0.7552L237.0444,41.3645z M233.405,40.9642c0,0,0.0637-0.0455,0.091-0.0728l0,0
				c0,0-0.091-0.0637-0.1274-0.0546c-0.0508,0.0156-0.0996,0.037-0.1456,0.0637c0,0,0,0,0,0.0546
				c0,0.0546,0.0637,0.0273,0.1274,0.0091H233.405z M233.0229,40.5184c-0.0546,0-0.1183,0.0546-0.1092,0.1183
				s0.0637,0.0637,0.091,0.091l0.1456-0.0546c0.013-0.0257,0.013-0.0561,0-0.0819c-0.0139-0.0638-0.0769-0.1043-0.1407-0.0905
				c-0.0148,0.0032-0.0288,0.0092-0.0413,0.0177H233.0229z M234.5878,38.8443l-1.0372,0.7461
				c-0.067,0.0471-0.1281,0.1021-0.182,0.1638c-0.0427,0.0351-0.0489,0.0982-0.0138,0.1409
				c0.0042,0.005,0.0088,0.0097,0.0138,0.0138c0.0636,0.0416,0.1457,0.0416,0.2093,0c0.072-0.0335,0.1393-0.0764,0.2002-0.1274
				c0.2915-0.2428,0.5952-0.4705,0.9098-0.6824c0.1456-0.0834,0.2677-0.2023,0.3548-0.3457l-0.0819-0.2002
				c-0.1547,0.1092-0.2912,0.1911-0.4276,0.2911H234.5878z M232.2041,41.3918h0.2911c0.0637-0.1547,0.0546-0.2002-0.0819-0.2184
				c-0.0993-0.0215-0.2031-0.0053-0.2911,0.0455c-0.0297,0.0217-0.0494,0.0545-0.0546,0.091c0,0,0.0546,0.0819,0.0819,0.0819
				H232.2041z M219.6848,41.7739c0.3093-0.2275,0.2275-0.6096,0.1729-0.9098c-1.4375,0-2.8751-0.1456-4.3126-0.1456v1.4284
				c0.8098,0,1.6468,0,2.4657-0.1274c0.0823,0.0287,0.1679,0.0471,0.2547,0.0546c-0.0705-0.0284-0.1436-0.0497-0.2184-0.0637
				c0.2002,0,0.4094,0,0.6005-0.0546c0.1911-0.0546,0.7188,0.0273,0.9826-0.182H219.6848z M232.1586,40.3182
				c0.0105,0.0292,0.0295,0.0545,0.0546,0.0728c0,0,0.091,0,0.1092,0c0.0528-0.0635,0.1015-0.1304,0.1456-0.2002
				c-0.0819-0.1001-0.1456-0.1001-0.2093,0c-0.0637,0.1001-0.1729,0.0364-0.1547,0.1274L232.1586,40.3182z M233.6325,39.1081
				c0.0329-0.0369,0.0577-0.0803,0.0728-0.1274c0.0039-0.0424,0.0039-0.085,0-0.1274c-0.1911,0-0.2457,0.1729-0.3366,0.2639
				c-0.091,0.091-0.2002,0.2093-0.3093,0.3002c-0.1586,0.1252-0.3048,0.2654-0.4367,0.4185
				c0.1183,0.1183,0.1547,0.1274,0.2366,0.0546L233.6325,39.1081z M234.0146,38.6714c0.0028-0.0303,0.0028-0.0607,0-0.091h-0.091
				c0,0-0.0819,0.0728,0,0.1274c0.0217,0.0297,0.0545,0.0494,0.091,0.0546c-0.0546,0.0273-0.0455-0.0364-0.0546-0.091
				L234.0146,38.6714z M233.8418,37.2157l-0.0637,0.0637c0,0.0546,0,0.1274,0.1001,0.1547c0.0555,0.0278,0.123,0.0079,0.1547-0.0455
				l0,0c-0.0056-0.1054-0.0956-0.1862-0.2009-0.1806c-0.0152,0.0008-0.0302,0.0034-0.0447,0.0078H233.8418z M227.946,34.7682
				l0.2184,0.464l0.4094,0.7643c0.1001,0.1729,0.2002,0.3548,0.3093,0.5277c0.0417,0.0502,0.1163,0.0571,0.1665,0.0154
				c0.0056-0.0047,0.0108-0.0098,0.0154-0.0154c0.056-0.0225,0.0831-0.086,0.0607-0.142c-0.0018-0.0044-0.0038-0.0086-0.0061-0.0127
				c-0.0637-0.1456-0.1456-0.273-0.2002-0.4185c-0.1274-0.2911-0.3275-0.5459-0.4276-0.8461
				c-0.0698-0.17-0.1583-0.3317-0.2639-0.4822c0,0-0.1001-0.0637-0.1183-0.0819C227.946,34.559,227.8459,34.6499,227.946,34.7682z
				 M231.1577,37.9981c0,0,0.0728,0,0.091-0.0728c0.0096-0.0481,0.0096-0.0975,0-0.1456c0-0.2729-0.0455-0.7279-0.0637-0.9826
				c-0.091,0-0.1365,0-0.1547,0.0546c-0.0082,0.0173-0.0082,0.0373,0,0.0546c0,0.2002,0,0.4822,0,0.7916
				c-0.0026,0.1072,0.0293,0.2125,0.091,0.3002L231.1577,37.9981z M231.1577,39.7086c0,0,0,0,0.0819,0.0546
				c0.0352-0.1157,0.0352-0.2392,0-0.3548c0-0.2911,0-0.5732-0.0728-0.8643c0.0043-0.0697,0.0043-0.1396,0-0.2093
				c0,0,0-0.091-0.0819-0.0728c-0.0327,0.0189-0.0533,0.0533-0.0546,0.091c0,0.1092,0,0.2184,0,0.3366s0,0.464,0,0.7006
				C231.0617,39.5004,231.1044,39.6072,231.1577,39.7086z M231.085,45.3314c0,0.1001,0.1183,0.182,0.1911,0.1638
				c0.0728-0.0182,0.1092-0.0728,0.1092-0.1911v-0.646l0,0v-0.5823c0.008-0.0695,0.008-0.1397,0-0.2093
				c0,0-0.0546-0.0728-0.0819-0.0728c-0.0487-0.0029-0.0959,0.0173-0.1274,0.0546c-0.0359,0.0606-0.0547,0.1297-0.0546,0.2002
				c0,0.4003,0,0.7916,0,1.1919C231.1045,45.2686,231.0922,45.2993,231.085,45.3314z M231.2396,43.3206c0,0,0.0637,0,0.0819-0.0637
				c0.0451-0.114,0.0451-0.2409,0-0.3548c0,0-0.0728-0.0637-0.1638-0.1365c0,0.2093,0,0.3366,0,0.464
				c0,0.1274,0.0364,0.0819,0.0819,0.1001L231.2396,43.3206z M230.9485,36.233c0.1157-0.0007,0.2267-0.0464,0.3093-0.1274v-0.3002
				l-0.0819-2.3019c0.0043-0.0606,0.0043-0.1214,0-0.182c-0.007-0.0639-0.0551-0.1157-0.1183-0.1274
				c-0.1183,0-0.2274,0-0.2184,0.1729c0.0091,0.1729,0,0.0819,0,0.1183c0,0.6551,0,1.3193,0,1.9743c0,0.091,0,0.182,0,0.2729v0.2457
				C230.8939,36.0693,230.9212,36.1512,230.9485,36.233z M230.4936,28.4904c0.2093,0.1638,0.7461,0.2457,0.8461-0.0637
				c0.0454-0.3747,0.0454-0.7535,0-1.1282c0.1001-1.2647,0.0819-2.5202,0.0819-3.7849h-1.4921
				c0.2275,1.2465,0.1638,2.5293,0.3275,3.7849c0.0455,0.3457-0.0637,1.0008,0.2366,1.2101V28.4904z M225.5714,30.492
				c0.2184-0.2184,0-0.555-0.0637-0.7825c-0.3093-0.5823-0.646-1.1555-0.9098-1.7378c-0.6005-1.0736-1.1919-2.1654-1.8197-3.2481
				c-0.1729-0.3002-0.4003-1.0008-0.7279-1.1646c-0.2166-0.0396-0.4385-0.0396-0.6551,0h-1.4466
				c1.2101,1.9743,2.6476,3.8213,3.9305,5.7501c0.282,0.3821,1.019,1.8834,1.6923,1.201V30.492z M221.7228,30.0189
				c0.4186,0.5269,0.8651,1.031,1.3374,1.5103c0.182,0.1456,0.4913,0.3184,0.6642,0.0455c0.1729-0.2729-0.0728-0.5914-0.2184-0.8007
				c-0.4185-0.5914-0.9098-1.1555-1.292-1.7378c-0.9098-1.3284-1.9198-2.6203-2.8751-3.9305l-0.7734-1.0463
				c-0.1274-0.1638-0.2547-0.3912-0.4549-0.4822c-0.2164-0.0409-0.4386-0.0409-0.6551,0h-1.3374
				c0.4216,0.7757,0.9794,1.4692,1.6468,2.0471c1.3102,1.4375,2.6567,2.9024,3.9578,4.4127V30.0189z M229.3563,34.1768
				c0.0819,0.2457,0.1729,0.4822,0.2457,0.7188c0.1456,0.5095,0.282,1.0281,0.4185,1.5376l0.0546,0.1183h0.2184
				c0.004-0.0454,0.004-0.0911,0-0.1365c-0.0243-0.2239-0.0763-0.4439-0.1547-0.6551c-0.0398-0.0938-0.0703-0.1913-0.091-0.2911
				c0-0.1729-0.0728-0.3548-0.1274-0.5277c-0.1092-0.373-0.2366-0.737-0.3548-1.11c-0.021-0.0609-0.0817-0.0988-0.1456-0.091
				c-0.0732,0.012-0.1292,0.0717-0.1365,0.1456c-0.0091,0.0296-0.0091,0.0613,0,0.091L229.3563,34.1768z M231.2578,40.0634h-0.0546
				c-0.0248,0.0135-0.0466,0.0321-0.0637,0.0546c-0.044,0.1016-0.044,0.2169,0,0.3184c0.1729-0.1274,0.2002-0.2548,0.1183-0.3548
				L231.2578,40.0634z M227.4365,29.1455c0.091,0.1274,0.2639,0.2275,0.4003,0.1092c0.3275-0.2639,0-1.1919-0.091-1.5285
				c-0.372-1.3865-0.6277-2.8017-0.7643-4.2307h-1.5922c0.5095,1.5558,1.0918,3.0752,1.6377,4.6129
				c0.0898,0.374,0.2274,0.7348,0.4094,1.0736L227.4365,29.1455z M228.7467,32.5937c0,0.1092,0,0.2457,0.1911,0.3184l0.2184-0.0546
				c0.0734-0.018,0.1208-0.0891,0.1092-0.1638c0.0044-0.0515,0.0044-0.1032,0-0.1547c-0.1911-0.7188-0.3912-1.4375-0.5732-2.1654
				c-0.091-0.3548-0.2184-0.2911-0.4367-0.182c-0.1026,0.0385-0.1582,0.1496-0.1274,0.2548l0.0546,0.1729
				C228.3464,31.3109,228.5374,31.9659,228.7467,32.5937z M215.4904,45.3314c1.3284-0.2729,2.6294-0.7279,3.9305-1.1009
				c0.4094-0.1092,1.201-0.3093,0.9098-0.9098c-0.1729-0.3912-0.9098-0.1365-1.2283-0.091l-1.1646,0.0637l0,0l0,0
				c-0.8007,0.0728-1.6013,0.1547-2.402,0.2548L215.4904,45.3314z M230.257,42.9203c-0.0819,0-0.1638-0.091-0.182-0.0819
				c-0.0182,0.0091,0,0,0,0.0546c0,0.0546,0,0.1092,0,0.1092c0.0818,0.0122,0.1599-0.0386,0.182-0.1183V42.9203z M217.028,28.7542
				c1.019,0.9462,2.0107,2.0198,3.0752,2.9297c0.5277,0.464,1.0281,0.9735,1.5831,1.4193c0.2274,0.1729,0.5277,0.3821,0.8098,0.1547
				c0.282-0.2275,0-0.5095-0.1274-0.7006c-0.3548-0.5004-0.8371-0.9098-1.2374-1.3647c-1.0463-1.201-2.2109-2.2928-3.2845-3.4756
				c-0.7229-0.9107-1.5105-1.7681-2.3565-2.5657v1.483c-0.0326,0.2547-0.0045,0.5134,0.0819,0.7552
				C215.8453,27.9263,216.5549,28.3539,217.028,28.7542z M225.4349,47.2238c0.2548-0.2093,0.4276-0.4913,0.7279-0.6278
				c0.0295-0.025,0.0569-0.0523,0.0819-0.0819l0.2093-0.3366c0,0-0.0637-0.0728-0.1001-0.0819
				c-0.09-0.0322-0.1905-0.007-0.2548,0.0637l-0.737,0.737c-0.0056,0.0146-0.0056,0.0308,0,0.0455
				c-0.0135,0.0568-0.0135,0.116,0,0.1729c-0.0546,0.0364,0.0091,0.0819,0.0455,0.1092H225.4349z M230.5209,42.0651
				c0.0111-0.0324,0.0111-0.0676,0-0.1001c-0.0257-0.013-0.0561-0.013-0.0819,0c-0.0674,0.0569-0.1284,0.121-0.182,0.1911
				c0,0,0,0.091,0,0.1729c0.1013-0.0649,0.1831-0.1561,0.2366-0.2639H230.5209z M227.6185,50.3173c0,0,0,0,0.0728,0
				c0.0235-0.0268,0.0419-0.0577,0.0546-0.091c0.3457-0.8097,0.6915-1.6195,1.0281-2.4293c0.0043-0.0484,0.0043-0.0971,0-0.1456
				c-0.0888-0.0867-0.2041-0.1412-0.3275-0.1547c-0.0955,0.1198-0.1694,0.2552-0.2184,0.4003
				c-0.0819,0.1911-0.1547,0.4003-0.2366,0.5914c-0.2001,0.4731-0.4003,0.9098-0.6096,1.4102
				c-0.1274,0.2911-0.1092,0.3184,0.2093,0.4185H227.6185z M231.4034,29.755c0-0.2093,0-0.282-0.2366-0.373
				c-0.1198-0.027-0.2441-0.027-0.3639,0c-0.0652,0.0048-0.1141,0.0615-0.1092,0.1267c0,0.0002,0,0.0005,0,0.0007v0.273
				c0,0.3184,0,0.6369,0.0637,0.9098c0,0.5095,0.0637,1.019,0.1001,1.5285v0.182c0.0365,0.0646,0.1084,0.1006,0.182,0.091
				c0.0634-0.0044,0.1139-0.0549,0.1183-0.1183c0-0.1001,0-0.2002,0-0.3002c0.0546-0.6551,0.1001-1.3102,0.1456-1.9561l0,0
				c0-0.0637,0-0.1274,0-0.182C231.332,29.8739,231.3654,29.813,231.4034,29.755z M231.1214,42.6019
				c0,0,0.0546,0.0728,0.0819,0.0728s0.0819,0,0.091-0.0546c0.0137-0.0691,0.0137-0.1402,0-0.2093
				c0.0001-0.0405-0.0205-0.0783-0.0546-0.1001c0,0-0.0819,0-0.1547,0C231.0122,42.3107,231.1123,42.4836,231.1214,42.6019z
				 M230.8757,39.281c0-0.2548-0.0637-0.4913-0.1001-0.7188s-0.1001-0.6005-0.1638-0.9098
				c-0.0358-0.1753-0.0814-0.3484-0.1365-0.5186c-0.021-0.0609-0.0817-0.0988-0.1456-0.091
				c-0.0609,0.0168-0.1024,0.0733-0.1001,0.1365c0.0012,0.0212,0.0012,0.0425,0,0.0637c0.1183,0.5732,0.3275,1.4284,0.4549,2.0107
				c-0.0034,0.0272-0.0034,0.0547,0,0.0819h0.0546c0.0177,0.0062,0.0369,0.0062,0.0546,0c0,0,0.0728-0.0728,0.0819-0.0728V39.281z
				 M230.7301,42.2288c0,0-0.0637,0-0.0637,0.0546c0,0.0546,0,0.0455,0,0.0546h0.0728L230.7301,42.2288z M230.8302,40.2181
				l-0.1001-0.0546c0,0-0.0637,0.1092-0.091,0.1365l0.1456,0.0637L230.8302,40.2181z M230.4936,43.0568
				c0.0374-0.0148,0.0671-0.0444,0.0819-0.0819c0.0808-0.1514,0.1245-0.3198,0.1274-0.4913c-0.0819,0-0.1638,0-0.1911,0.0728
				c-0.0831,0.1276-0.1417,0.2695-0.1729,0.4185c-0.0083,0.0235-0.0083,0.0492,0,0.0728c0.0485,0.0294,0.11,0.0257,0.1547-0.0091
				L230.4936,43.0568z M228.6739,51.9641c-0.3639,1.574-0.8098,3.1298-1.2192,4.6856c-0.3275,1.2374-0.6005,2.4929-0.9735,3.703
				h1.7378c0.2729-2.1381,0.5459-4.2853,0.8552-6.4234c0.1365-0.6551,0.6005-1.947-0.3548-1.9834L228.6739,51.9641z
				 M234.3149,54.2568v-0.1183c-0.1365-0.6824-0.2729-1.3647-0.4185-2.038c-0.0126-0.0928-0.0339-0.1842-0.0637-0.2729
				c-0.0518-0.1494-0.2133-0.2302-0.3639-0.182c-0.0881,0.0245-0.1735,0.058-0.2547,0.1001c0,0.1638,0.0637,0.3002,0.091,0.4367
				c0.1456,0.6915,0.282,1.3829,0.4276,2.0744c0.0176,0.0877,0.0451,0.1732,0.0819,0.2547
				c0.0307,0.0688,0.0976,0.1146,0.1729,0.1183C234.233,54.6481,234.3149,54.5025,234.3149,54.2568z M234.1784,55.5124
				c-0.2729,0.2002,0,1.1555,0.0455,1.4193c0.2002,1.1373,0.4276,2.2746,0.5732,3.4028h1.0645
				c-0.1716-1.2423-0.4767-2.4624-0.9098-3.6393C234.879,56.4677,234.6606,55.1667,234.1784,55.5124z M233.2686,50.6721
				c0.0052-0.0484,0.0052-0.0972,0-0.1456c0-0.1729-0.0819-0.3366-0.1183-0.5095l-0.2184-0.9098v-0.0546h-0.2002
				c-0.0452,0.1013-0.0452,0.2171,0,0.3184l0.2457,0.9098l0.1183,0.4458c0,0.1092,0.091,0.1456,0.1729,0.1092
				s0.0273-0.0455,0.0091-0.1638L233.2686,50.6721z M232.7681,48.7796c0.0354-0.0472,0.0546-0.1047,0.0546-0.1638
				c-0.0237-0.1387-0.0571-0.2755-0.1001-0.4094c-0.0052-0.0449-0.0458-0.0771-0.0907-0.0719
				c-0.0096,0.0011-0.0189,0.0039-0.0275,0.0083l-0.1547,0.0455c0.0098,0.2008,0.056,0.3981,0.1365,0.5823
				c0.016,0.0327,0.0462,0.0562,0.0819,0.0637c0.0446,0.0087,0.0894-0.0137,0.1092-0.0546L232.7681,48.7796z M216.473,33.5036
				c0.7461,0.4003,1.5103,0.7552,2.2655,1.1737c0.5371,0.3133,1.0932,0.5928,1.665,0.837c0.2327,0.1269,0.5211,0.0863,0.7097-0.1001
				c0.4367-0.5004-0.7825-1.1464-1.0827-1.3829l-2.9479-2.2473c-0.4865-0.4401-1.0205-0.8246-1.5922-1.1464v1.5831
				c-0.0382,0.2456-0.0099,0.4969,0.0819,0.7279C215.7452,33.2215,216.2001,33.358,216.473,33.5036z M232.4952,47.0601v-0.0819
				c-0.1274-0.6915-0.2638-1.392-0.4003-2.0835c-0.0087-0.0701-0.0303-0.1379-0.0637-0.2002
				c-0.0285-0.0568-0.0968-0.0809-0.1547-0.0546c-0.0652,0.0042-0.1146,0.0605-0.1104,0.1257
				c0.0002,0.0036,0.0006,0.0072,0.0012,0.0108c0,0,0,0.0455,0,0.0728l0.3548,2.1563c0,0.0455,0,0.1001,0,0.1456
				c0.0258,0.0919,0.1212,0.1456,0.2131,0.1198c0.0018-0.0005,0.0035-0.001,0.0053-0.0016
				C232.4952,47.2329,232.4952,47.151,232.4952,47.0601z M247.835,56.9045c-1.3465-1.2647-2.6385-2.593-3.9396-3.8941
				c-0.555-0.5641-1.11-1.1009-1.6923-1.6377c-0.1911-0.1729-0.4094-0.4185-0.6733-0.2002c-0.2639,0.2184,0,0.4913,0.1365,0.6642
				c0.4822,0.5277,0.9644,1.0463,1.4648,1.5649c1.6741,1.7287,3.239,3.5756,4.9313,5.2952c0.5277,0.5459,1.292,1.7378,1.4739,1.6377
				c0.1983-0.5903,0.1983-1.2293,0-1.8197C249.1178,57.9781,248.3263,57.3685,247.835,56.9045z M247.7622,52.0459l-2.8751-1.9106
				c-0.4827-0.395-1.0149-0.7253-1.5831-0.9826l-0.3821,0.4549c0.6655,0.7104,1.4283,1.323,2.2655,1.8197
				c1.4494,1.182,2.9685,2.2758,4.5492,3.2754c0-0.373,0.1183-1.0099-0.1274-1.3375
				C249.061,52.8379,248.4388,52.3935,247.7622,52.0459z M238.4091,55.8945c-0.3457-0.6096-0.737-1.6559-1.1828-1.3829
				c-0.4458,0.2729,0.1456,1.1009,0.3275,1.5285c0.7835,1.386,1.4647,2.8273,2.038,4.3126h1.3647
				c-0.2577-0.5555-0.5621-1.0881-0.9098-1.5922C239.5191,57.8052,238.955,56.8499,238.4091,55.8945z M247.2345,33.2943
				c-0.746,0.4094-1.5194,0.7552-2.2655,1.1373s-1.4011,0.5459-1.0645,1.3466c1.4515-0.455,2.8659-1.0208,4.2307-1.6923
				c0.4003-0.1729,1.2556-0.3457,1.5103-0.7006s0.0819-0.9644,0.0819-1.3102C248.8535,32.387,248.0172,32.7959,247.2345,33.2943z
				 M231.4671,55.7126c-0.4003,0-0.3093,0.8279-0.3457,1.0827c-0.1621,1.179-0.2472,2.3674-0.2547,3.5574h1.1282
				c0-1.1828,0-2.3838-0.1365-3.5574C231.831,56.5132,231.9311,55.7126,231.4671,55.7126z M241.2751,54.7209
				c-0.4048-0.5588-0.8454-1.0906-1.3193-1.5922l-0.373,0.2275c0.3032,0.5947,0.6725,1.1532,1.1009,1.665
				c0.7552,1.1373,1.5376,2.2837,2.3292,3.4028c0.3002,0.4185,0.5732,0.8552,0.9098,1.2829
				c0.1183,0.1729,0.2366,0.4458,0.4458,0.5277c0.4617,0.1088,0.9369,0.1487,1.4102,0.1183
				c-0.648-1.0397-1.3944-2.0147-2.2291-2.9115L241.2751,54.7209z M237.099,53.3652c-0.3002-0.5368-0.6005-1.0736-0.9098-1.6104
				c-0.0637-0.1183-0.1092-0.2457-0.1729-0.3548c-0.0552-0.1475-0.1422-0.2811-0.2548-0.3912l-0.3093,0.1638
				c0.0637,0.2729,1.019,2.4656,1.1737,2.7295c0.2245,0.0089,0.4424-0.0769,0.6005-0.2366
				C237.1899,53.5199,237.1535,53.4562,237.099,53.3652z M226.5449,51.0087c-0.2184,0.091-0.3184,0.3639-0.4185,0.5641
				l-0.7188,1.4375c-0.7734,1.5558-1.5285,3.1207-2.3019,4.6765c-0.4999,0.8429-0.9232,1.729-1.2647,2.6476h2.5657
				c0.243-1.2075,0.5806-2.3939,1.0099-3.5483c0.5641-1.8925,1.1009-3.7758,1.7105-5.6683
				C226.9452,51.0451,226.7451,50.9268,226.5449,51.0087z M225.1801,51.1907c0.2547-0.4185,0.3912-0.8461-0.1092-1.1646
				c-0.3367-0.1911-0.5732,0.182-0.7461,0.4094c-0.4822,0.6278-0.9098,1.2738-1.4285,1.8925
				c-1.4193,1.8197-2.7295,3.6848-4.167,5.5136c-0.5338,0.8956-1.1924,1.7105-1.9561,2.4202
				c0.5978,0.1293,1.2135,0.154,1.8197,0.0728c0.221,0.0312,0.4463,0.0061,0.6551-0.0728c0.2168-0.1883,0.3906-0.421,0.5095-0.6824
				c0.2729-0.4276,0.5459-0.8552,0.8279-1.2829c1.0827-1.6559,2.129-3.33,3.2208-4.9859c0.5004-0.7006,0.9371-1.4011,1.4102-2.1199
				H225.1801z M222.0139,51.2635c0.5168-0.5261,1.0058-1.0788,1.4648-1.6559c0.1456-0.2002,0.2729-0.5732,0.0546-0.7734
				s-0.6005,0.091-0.7825,0.2548c-0.6642,0.5914-1.3102,1.201-1.9652,1.8197c-1.2647,1.1464-2.5293,2.2564-3.7849,3.4119
				c-0.546,0.3721-1.0283,0.8299-1.4284,1.3557c-0.0955,0.2932-0.1235,0.6043-0.0819,0.9098v1.8197
				c0.3598-0.2066,0.6703-0.4892,0.9098-0.8279c0.4094-0.4549,0.8188-0.9098,1.2192-1.3647
				C219.0752,54.5298,220.5582,52.9194,222.0139,51.2635z M216.5549,39.2173c0.7733,0.1365,1.5558,0.2911,2.3383,0.4185
				c0.2821,0.0455,0.7006,0.1638,0.9098-0.0546c0.2085-0.1963,0.2184-0.5246,0.0221-0.7331
				c-0.0071-0.0076-0.0145-0.0149-0.0221-0.0221c-0.4243-0.188-0.8757-0.3078-1.3374-0.3548l-1.201-0.2729
				c-0.6096-0.1547-1.2101-0.3275-1.8197-0.4549c0,0.3093-0.1274,0.9826,0.0819,1.2283S216.2911,39.1809,216.5549,39.2173z
				 M225.5805,45.2768c0-0.1001-0.0637-0.182-0.1547-0.1729s-0.2457,0.0455-0.2729,0.2093l0.1547,0.1729
				C225.4258,45.4224,225.535,45.3769,225.5805,45.2768z M230.5118,44.4215c0,0.0728,0,0.1274-0.0546,0.182
				c-0.0146,0.1111-0.0389,0.2207-0.0728,0.3275c-0.1181,0.369-0.1914,0.7508-0.2184,1.1373c-0.0148,0.0317-0.0148,0.0684,0,0.1001
				c0.1026,0.0634,0.2371,0.0317,0.3006-0.0709c0.0125-0.0202,0.0216-0.0424,0.027-0.0655c0.0051-0.0301,0.0051-0.0609,0-0.091
				l0.1638-1.2738C230.7392,44.5307,230.6755,44.4215,230.5118,44.4215z M229.4473,46.1047l0.6824-1.9106
				c0-0.1183,0.1638-0.3821,0.2002-0.5095s0-0.2184-0.0728-0.2548c-0.0728-0.0364-0.1638,0-0.2093,0.1365
				c-0.1183,0.2548-0.3002,0.6369-0.4094,0.9098c-0.0418,0.0918-0.0783,0.186-0.1092,0.282
				c-0.1365,0.4003-0.2639,0.8007-0.3912,1.201c-0.0253,0.0653-0.0466,0.1322-0.0637,0.2002c0,0,0,0.0637,0,0.091
				c0.0183,0.0731,0.0798,0.1274,0.1547,0.1365c0.0728,0,0.1092,0,0.1365-0.091C229.3927,46.2048,229.42,46.1593,229.4473,46.1047z
				 M230.6755,43.9393c-0.0483,0.0055-0.0916,0.0322-0.1183,0.0728c-0.0636,0.0695-0.0636,0.1761,0,0.2457c0,0,0.0546,0,0.0819,0
				c0.0273,0,0.1092-0.0728,0.1183-0.1729c0.0091-0.1001,0-0.0546,0-0.0637S230.7483,43.9484,230.6755,43.9393z M230.9121,43.0295
				c0.0534-0.0994,0.0534-0.219,0-0.3184c-0.1365,0.2275-0.1365,0.2275-0.0819,0.4003c0.0819,0,0.1092-0.0455,0.1183-0.091
				L230.9121,43.0295z M230.1387,46.3413c-0.0274,0.014-0.0497,0.0363-0.0637,0.0637c-0.0637,0.182-0.1183,0.373-0.1638,0.555
				c-0.0196,0.0607,0.0025,0.127,0.0546,0.1638c0.0643,0.0636,0.168,0.063,0.2316-0.0014c0.0197-0.0199,0.0339-0.0445,0.0414-0.0714
				c0.0871-0.2166,0.1274-0.4491,0.1183-0.6824c-0.1274-0.0546-0.1456-0.0546-0.182-0.0364L230.1387,46.3413z M229.9568,48.0154
				c-0.0941-0.0161-0.1834,0.0472-0.1995,0.1413c-0.0002,0.0014-0.0005,0.0028-0.0007,0.0043c-0.0044,0.0515-0.0044,0.1032,0,0.1547
				c0,0.2093-0.0637,0.4276-0.1001,0.6369l-0.3002,1.574c-0.0044,0.0484-0.0044,0.0971,0,0.1456
				c-0.0019,0.0804,0.0617,0.1471,0.142,0.149c0.0385,0.0009,0.0757-0.0134,0.1036-0.0399c0.0619-0.0362,0.1148-0.086,0.1547-0.1456
				c0.0558-0.1194,0.0985-0.2444,0.1274-0.373c0-0.3002,0.0819-0.5914,0.1183-0.9098c0.0364-0.3184,0.1001-0.7097,0.1456-1.0645
				v-0.091c0.0105-0.0949-0.0579-0.1803-0.1528-0.1909c-0.0006-0.0001-0.0013-0.0001-0.0019-0.0002L229.9568,48.0154z
				 M230.0932,42.429c-0.0637-0.1092-0.1365-0.1183-0.182-0.0728c-0.115,0.1082-0.2159,0.2305-0.3002,0.3639
				c0.0551,0.0653,0.1526,0.0737,0.218,0.0186c0.0067-0.0057,0.0129-0.0119,0.0186-0.0186c0.1274-0.1183,0.2001-0.2002,0.282-0.3002
				L230.0932,42.429z M224.9709,38.7897c-0.0027,0.0851,0.054,0.1607,0.1365,0.182l0.6642,0.2548
				c0.1638-0.1274,0.1729-0.2093,0-0.2639c-0.2285-0.08-0.4505-0.1773-0.6642-0.2911c-0.0364-0.0546-0.1001,0.0091-0.1001,0.1092
				L224.9709,38.7897z M224.9072,40.2181l0.1547,0.0546l0.3912,0.0637l0.6551,0.1183c0.0382,0.0139,0.0801,0.0139,0.1183,0
				c0.0388-0.0126,0.0693-0.043,0.0819-0.0819c0.0105-0.0325,0.0105-0.0675,0-0.1001c0,0,0,0-0.0819,0l-1.11-0.3002h-0.1547
				c-0.0406,0.0723-0.0472,0.1589-0.0182,0.2366L224.9072,40.2181z M224.7616,41.1734c-0.0834,0.0182-0.1388,0.0974-0.1274,0.182
				c0.0135,0.0631,0.0722,0.1061,0.1365,0.1001h0.2457l0.8279-0.0455h1.8197c0.1231,0.022,0.25,0.0061,0.3639-0.0455
				c0-0.1911,0-0.1911-0.1547-0.2093h-0.2457h-2.7295L224.7616,41.1734z M229.6201,42.0105c0,0,0-0.0637-0.0546-0.0546
				c-0.1504,0.0247-0.2993,0.0581-0.4458,0.1001c0,0,0,0-0.0637,0.0819c-0.0637,0.0819,0.0819,0.1001,0.1274,0.1001
				c0.1517-0.0013,0.2988-0.0525,0.4185-0.1456c0.0358-0.0155,0.0578-0.0521,0.0546-0.091L229.6201,42.0105z M225.2165,42.5018
				h0.091c0.282-0.0637,0.5641-0.0728,0.8461-0.1547c0.2578-0.0554,0.5193-0.0919,0.7825-0.1092
				c0.1547,0,0.182-0.0728,0.1274-0.2729c-0.1901-0.0068-0.3802,0.0146-0.5641,0.0637l-1.0281,0.1183
				c-0.1092,0-0.2184,0.0546-0.3275,0.0819c-0.0641,0.0359-0.0914,0.1139-0.0637,0.182c0.008,0.0598,0.0629,0.1017,0.1227,0.0937
				C225.2074,42.5039,225.212,42.503,225.2165,42.5018z M225.2165,37.5159c-0.007,0.0299-0.007,0.0611,0,0.091
				c0.0505,0.0643,0.1086,0.1223,0.1729,0.1729l0.9098,0.6005l1.1828,0.7279l0.2366,0.1274l0.1638-0.1911
				c-0.1267-0.1087-0.2605-0.209-0.4003-0.3002c-0.3457-0.2002-0.646-0.4731-0.9917-0.6733
				c-0.3457-0.2002-0.6369-0.4367-0.9098-0.6642C225.4076,37.2976,225.3439,37.3158,225.2165,37.5159z M226.2628,36.233
				c-0.0531-0.052-0.138-0.052-0.1911,0c-0.0879,0.067-0.1049,0.1926-0.0379,0.2805c0.0109,0.0143,0.0236,0.027,0.0379,0.0379
				c0.1729,0.1547,0.3639,0.3002,0.5459,0.4458c0.0422,0.0065,0.0852,0.0065,0.1274,0c0,0,0.1092-0.0637,0.1274-0.1183
				c0.0226-0.0427,0.0226-0.0938,0-0.1365C226.6541,36.6425,226.463,36.4514,226.2628,36.233z M228.592,43.9757
				c0.2184-0.2184,0.5277-0.555,0.7552-0.7734c0.0205-0.0321,0.0387-0.0655,0.0546-0.1001c-0.1001-0.091-0.1911-0.1183-0.282,0
				c-0.091,0.1183-0.5186,0.5186-0.7188,0.7279c-0.0528,0.0465-0.0578,0.127-0.0113,0.1798
				c0.0035,0.004,0.0073,0.0078,0.0113,0.0113c0.0409,0.0509,0.1153,0.0591,0.1663,0.0182c0.0096-0.0077,0.018-0.0169,0.0248-0.0273
				V43.9757z M228.6739,40.673h-0.0728c-0.0142,0.035-0.0142,0.0742,0,0.1092c0.0694,0.0547,0.1672,0.0547,0.2366,0
				c0.0182-0.0546-0.0819-0.0637-0.1638-0.0728V40.673z M229.5837,41.2644c0,0,0-0.0819-0.0546-0.091
				c-0.2662-0.0634-0.5436-0.0634-0.8098,0c-0.0373,0.0187-0.059,0.0586-0.0546,0.1001c0.0028,0.0372,0.023,0.071,0.0546,0.091
				c0.0419,0.0094,0.0854,0.0094,0.1274,0h0.6369c0,0,0.1001-0.0273,0.1183-0.0637L229.5837,41.2644z M228.965,41.6829
				c0,0.0546,0,0.1365,0.1092,0.1274c0.045-0.0196,0.0876-0.044,0.1274-0.0728c0-0.1092-0.0728-0.1092-0.1183-0.1183
				c-0.0441-0.0102-0.0881,0.0172-0.0983,0.0613c-0.0009,0.0038-0.0015,0.0076-0.0018,0.0115L228.965,41.6829z M225.4804,43.5572
				c0.0685,0.0186,0.1407,0.0186,0.2093,0c0.3002-0.1001,0.5914-0.2184,0.9098-0.3366c0.0545-0.0314,0.1036-0.0714,0.1456-0.1183
				c0.0295-0.0526,0.0107-0.1191-0.0419-0.1486c-0.0041-0.0023-0.0083-0.0043-0.0127-0.0061h-0.1456l-0.6005,0.2002l-0.5914,0.2002
				c-0.0182,0.1638,0.0364,0.2366,0.1456,0.2457L225.4804,43.5572z M226.6723,40.2545c-0.0546,0-0.1092,0-0.1092,0.091
				c0.0044,0.0464,0.0274,0.0891,0.0637,0.1183c0.0524,0.0351,0.1111,0.0599,0.1729,0.0728
				c0.2341,0.0636,0.4764,0.0912,0.7188,0.0819c0,0,0,0,0.0637,0v-0.1547c-0.2911-0.0667-0.5944-0.1213-0.9098-0.1638V40.2545z
				 M228.9014,42.984c0.0452-0.0399,0.0495-0.1089,0.0097-0.1541c-0.003-0.0034-0.0063-0.0067-0.0097-0.0097
				c-0.0494-0.0336-0.1143-0.0336-0.1638,0c-0.0656,0.0275-0.1268,0.0643-0.182,0.1092c-0.2184,0.1456-0.4276,0.282-0.6278,0.4367
				c-0.4118,0.325-0.84,0.6286-1.2829,0.9098c-0.1161,0.0653-0.2258,0.1414-0.3275,0.2275
				c-0.0379,0.0319-0.0716,0.0686-0.1001,0.1092c-0.0315,0.0572-0.0106,0.1292,0.0466,0.1606
				c0.0246,0.0135,0.0532,0.0179,0.0807,0.0122c0.0514,0.0065,0.1033,0.0065,0.1547,0c0.1343-0.069,0.2649-0.1449,0.3912-0.2275
				c0.2548-0.182,0.5004-0.3821,0.7643-0.5641c0.2638-0.182,0.6005-0.4276,0.9098-0.6369L228.9014,42.984z M230.0022,41.8103
				c-0.0086,0.0204-0.0086,0.0433,0,0.0637h0.0728c0,0,0-0.0728,0-0.0819s-0.0637-0.0182-0.0546,0.0182H230.0022z M230.2115,41.1916
				h-0.2639c0,0,0,0-0.0637,0c0.0637,0.1729,0.2093,0.1183,0.3184,0.1274s0.1183-0.0546,0.0273-0.1274L230.2115,41.1916z
				 M219.2935,36.324c-1.3011-0.6915-2.5566-1.4466-3.8577-2.1381v1.8197c1.2101,0.2457,2.4384,0.6915,3.6393,1.0554
				c0.2729,0.091,0.9826,0.5004,1.201,0.1274s-0.6824-0.7279-0.928-0.8643L219.2935,36.324z M215.4358,47.242v1.5103
				c1.4102-0.737,2.8205-1.483,4.2307-2.2018c0.4549-0.2366,1.3829-0.555,0.9553-1.2465c-0.2184-0.3548-0.9098,0-1.1828,0.0728
				c-0.9098,0.2911-1.9106,0.5823-2.866,0.8552c-0.2912,0.0819-0.9098,0.1274-1.0554,0.3821
				c-0.0759,0.2073-0.0854,0.433-0.0273,0.646L215.4358,47.242z M228.1735,41.9377c0.0264-0.0417,0.0264-0.0948,0-0.1365
				c-0.0093-0.0517-0.0569-0.0875-0.1092-0.0819c-0.1365,0-0.5641,0.091-0.7006,0.1001l0,0c0,0-0.0637,0-0.0728,0
				c-0.0329,0.0485-0.0518,0.1052-0.0546,0.1638c0,0,0.091,0.0637,0.1274,0.091l0.7461-0.1638L228.1735,41.9377z M227.7368,39.7632
				c-0.3281-0.1688-0.6688-0.3118-1.019-0.4276c-0.0383-0.0178-0.0748-0.0391-0.1092-0.0637l-0.3912-0.1638
				c-0.0708-0.0259-0.1492,0.0106-0.175,0.0814c-0.0033,0.009-0.0056,0.0183-0.007,0.0278
				c-0.0175,0.0628,0.0191,0.1279,0.0819,0.1456l1.665,0.6824c0.1638-0.1729,0.1638-0.1729,0.0546-0.2638L227.7368,39.7632z
				 M227.1636,37.1429c-0.074-0.061-0.1808-0.061-0.2547,0c-0.0603,0.0362-0.0798,0.1145-0.0436,0.1748
				c0.0107,0.0179,0.0257,0.0328,0.0436,0.0436c0.1547,0.1365,0.3093,0.2639,0.4549,0.4094l0.4549,0.5004
				c0.1331,0.149,0.2899,0.275,0.464,0.373c0.0955-0.0737,0.1131-0.2108,0.0395-0.3063c-0.0114-0.0148-0.0247-0.028-0.0395-0.0395
				L227.1636,37.1429z M228.0734,44.1577c-0.0358,0.0384-0.0358,0.098,0,0.1365c0.0298,0.0637,0.1057,0.0912,0.1694,0.0614
				c0.0043-0.002,0.0085-0.0043,0.0126-0.0068l0.1365-0.1547c0.009-0.0266,0.009-0.0553,0-0.0819l-0.1001-0.0728L228.0734,44.1577z
				 M227.7823,44.4579l-0.0728,0.0637c-0.2547,0.2729-0.5004,0.555-0.7552,0.837c0,0,0,0,0,0.0546
				c0.1365,0.1365,0.1911,0.1547,0.3002,0s0.4822-0.5004,0.7188-0.7552c0.0039-0.0149,0.0039-0.0306,0-0.0455
				c0.0546-0.0819,0-0.2184,0-0.2548c0-0.0364-0.182,0.0637-0.2366,0.1092L227.7823,44.4579z M226.9634,42.8475
				c-0.0083,0.0726-0.0083,0.1458,0,0.2184c0.4364-0.1201,0.8624-0.2753,1.2738-0.464c0.1162-0.0176,0.2225-0.0756,0.3002-0.1638
				c-0.0819-0.2002-0.091-0.2002-0.2366-0.1547l-0.3184,0.1183l-0.9098,0.2911c-0.0364,0.0637-0.1365,0.091-0.1547,0.1638
				L226.9634,42.8475z M230.6755,39.8724c0-0.1092-0.0637-0.2184-0.1001-0.3184l-0.7006-1.6286
				c-0.0455-0.1009-0.1035-0.1957-0.1729-0.2821c-0.0342-0.0178-0.075-0.0178-0.1092,0c-0.0351,0.0321-0.0657,0.0689-0.091,0.1092
				c-0.0091,0.0296-0.0091,0.0613,0,0.091c0.1001,0.2457,0.2548,0.5914,0.3548,0.837c0.1891,0.372,0.3562,0.7548,0.5004,1.1464
				c0.0111,0.0514,0.0363,0.0987,0.0728,0.1365c0.0407,0.0172,0.0867,0.0172,0.1274,0
				C230.5573,39.9634,230.6755,39.9361,230.6755,39.8724z M223.8973,42.4654l-0.8461,0.1365h-0.2184
				c-0.0485,0.091-0.0485,0.2002,0,0.2911c0.0854,0.0665,0.1924,0.0989,0.3002,0.091c0.3072-0.0391,0.6112-0.0999,0.9098-0.182
				c0.0683-0.0233,0.1351-0.0506,0.2002-0.0819c-0.015-0.0467-0.0332-0.0923-0.0546-0.1365
				c-0.0546-0.1274-0.0637-0.1274-0.2729-0.1001L223.8973,42.4654z M222.0776,35.5689c-0.0455,0.1365,0,0.2002,0.1092,0.2911
				l0.0728,0.0455l1.8834,1.11l0.1638,0.1274c0.1183,0,0.282-0.0819,0.282-0.2366c-0.0378-0.0469-0.0805-0.0896-0.1274-0.1274
				l-0.6733-0.4276c-0.4458-0.2911-0.9098-0.5823-1.3466-0.8643c-0.2001-0.1638-0.3002-0.1183-0.373,0.1001L222.0776,35.5689z
				 M221.5772,37.0883c0,0-0.1001,0.0728-0.1092,0.1183c-0.0294,0.1847,0.0621,0.3676,0.2275,0.4549h0.1183l1.9653,0.7734
				c0.0544,0.0292,0.1126,0.0506,0.1729,0.0637c0.0383,0.0132,0.08,0.0132,0.1183,0c0.0796-0.0481,0.128-0.1345,0.1274-0.2275
				c0-0.091-0.0546-0.1274-0.1183-0.1638l-0.1092-0.0455l-2.1745-0.9098L221.5772,37.0883z M225.2165,33.3853
				c-0.0707,0.0785-0.1152,0.1771-0.1274,0.282c-0.0017,0.0242-0.0017,0.0486,0,0.0728c0.2426,0.2851,0.4883,0.558,0.737,0.8188
				c0.0864,0.098,0.2359,0.1074,0.3339,0.021c0.0074-0.0065,0.0144-0.0135,0.021-0.021c0.0528-0.0465,0.0578-0.127,0.0113-0.1798
				c-0.0035-0.004-0.0073-0.0078-0.0113-0.0113l-0.837-1.019C225.2981,33.3399,225.2507,33.3534,225.2165,33.3853z
				 M224.7434,32.5209c-0.0335-0.0236-0.0703-0.042-0.1092-0.0546c-0.0677,0.0289-0.1318,0.0655-0.1911,0.1092
				c-0.093,0.0598-0.1198,0.1837-0.06,0.2766c0.0155,0.0241,0.0359,0.0445,0.06,0.06c0.1365,0.1365,0.282,0.2639,0.4276,0.3912
				c0.0202,0.0231,0.045,0.0417,0.0728,0.0546c0.0809,0.0242,0.1682-0.0049,0.2184-0.0728c0.0397-0.0474,0.0397-0.1164,0-0.1638
				L224.7434,32.5209z M222.487,39.4266c-0.182,0-0.273,0-0.2821,0.2457c-0.0091,0.2457,0.0546,0.2002,0.2002,0.2275h0.3275
				l0.9644,0.1456c0.1274,0,0.2184-0.0637,0.2457-0.2275c0.0273-0.1638,0-0.1638-0.1911-0.1911L222.487,39.4266z M223.5061,33.5581
				l-0.1092-0.0546h-0.0728c-0.1339,0.0576-0.1957,0.2128-0.138,0.3467c0.0166,0.0385,0.0421,0.0725,0.0744,0.0992l0.1638,0.1456
				l0.9098,0.8189c0.0664,0.0481,0.1248,0.1064,0.1729,0.1729c0.1668,0.1927,0.3597,0.3612,0.5732,0.5004l0.1365,0.0819
				c0.0633,0.0306,0.1395,0.0041,0.1701-0.0593c0.0062-0.0128,0.0102-0.0266,0.0118-0.0408c0.0137-0.0691,0.0137-0.1402,0-0.2093
				c-0.0354-0.049-0.0784-0.092-0.1274-0.1274l-1.6104-1.5649L223.5061,33.5581z M223.2058,46.8599
				c0.0777,0.0496,0.1771,0.0496,0.2547,0l0.1001-0.0728l1.2465-0.9098l0.2002-0.1638c-0.0083-0.1089-0.0852-0.2005-0.1911-0.2275
				l-0.1456,0.0728l-1.4921,0.9098c0,0-0.0728,0-0.091,0.0728c-0.0282,0.0295-0.0445,0.0684-0.0455,0.1092
				c0.0096,0.0851,0.0562,0.1616,0.1274,0.2093H223.2058z M222.3597,44.9947c0.4006-0.1745,0.8107-0.3264,1.2283-0.4549
				c0.3651-0.1069,0.7163-0.2565,1.0463-0.4458l0.1547-0.1001c0-0.0819,0-0.1456,0-0.2184
				c-0.0213-0.0597-0.0834-0.0947-0.1456-0.0819l-0.4913,0.1729c-0.1547,0.0546-0.3002,0.1274-0.4549,0.1729l-1.3647,0.4549
				c-0.0934,0.0263-0.1847,0.0598-0.273,0.1001c-0.0043,0.0271-0.0043,0.0548,0,0.0819v0.091
				c-0.091,0.2911-0.0182,0.3366,0.2639,0.2275H222.3597z M221.5772,42.893c-0.0625,0.0029-0.1149,0.0479-0.1274,0.1092
				c-0.0043,0.0697-0.0043,0.1396,0,0.2093l0.1911,0.1274c0.072,0.0464,0.1645,0.0464,0.2366,0
				c0.0819-0.0819,0.1729-0.0728,0.282-0.0819l0.373-0.0819c0-0.0819,0.0455-0.1274,0.0546-0.1729
				c0.0091-0.0455,0-0.2093-0.1456-0.1911C222.1049,42.8202,221.832,42.8566,221.5772,42.893z M220.8948,41.0097
				c-0.0552,0.1032-0.0804,0.2198-0.0728,0.3366c0.0884,0.1204,0.2333,0.186,0.3821,0.1729h2.6385h0.182
				c0.0404-0.1086,0.0404-0.2281,0-0.3366c-0.0986-0.0586-0.2134-0.0841-0.3275-0.0728h-0.9098l-1.5376-0.0546
				c-0.1166-0.0535-0.247-0.0694-0.373-0.0455H220.8948z M221.2133,39.3538c-0.0137,0.0691-0.0137,0.1402,0,0.2093
				c-0.0102,0.0798,0.0462,0.1526,0.126,0.1628c0.0035,0.0004,0.007,0.0008,0.0105,0.001c0.1326,0.0221,0.2662,0.0373,0.4003,0.0455
				h0.1183c0.1365,0,0.2002-0.0637,0.2184-0.2093c0.0253-0.092-0.0287-0.1872-0.1208-0.2126
				c-0.0111-0.0031-0.0224-0.005-0.0339-0.0058l-0.5368-0.091c-0.0577-0.0402-0.1371-0.0261-0.1774,0.0316
				c-0.014,0.0201-0.022,0.0439-0.0228,0.0685H221.2133z M227.946,36.4696c-0.0595-0.0956-0.1297-0.1841-0.2093-0.2639
				c-0.2338-0.2302-0.4441-0.4832-0.6278-0.7552l-0.0728-0.1274c-0.0503-0.0411-0.1226-0.0411-0.1729,0
				c-0.0283,0.0366-0.0442,0.0812-0.0455,0.1274c0.0172,0.1223,0.0711,0.2366,0.1547,0.3275l1.4012,1.7196
				c0,0,0.2729,0.4458,0.282,0.4458c0.0477,0.0123,0.0978,0.0123,0.1456,0c0.049-0.0389,0.092-0.0849,0.1274-0.1365
				c0-0.0728-0.0728-0.1365-0.1092-0.1911C228.6011,37.3885,228.1553,36.7244,227.946,36.4696z M229.9841,40.2636l0.1001-0.1547
				c-0.1911-0.2093-0.3912-0.3912-0.5914-0.5823h-0.0546c0,0-0.0728,0-0.0819,0s-0.0546,0.0819,0,0.1092
				c0.0405,0.08,0.0926,0.1536,0.1547,0.2184l0.4458,0.4094L229.9841,40.2636z M229.9841,40.9551c0,0,0.0819,0,0.1092,0
				s0-0.1365,0-0.1456c-0.035,0.0114-0.0685,0.0266-0.1001,0.0455c0,0-0.091,0.0637,0.0364,0.1001H229.9841z M229.0742,39.9543
				c0-0.2729-0.2548-0.282-0.4094-0.4003c-0.1001,0.1365-0.1092,0.182,0,0.2184c0.1102,0.0725,0.2257,0.1364,0.3457,0.1911
				c0,0,0.0455-0.0091,0.0819-0.0091H229.0742z M229.7748,40.6275l-1.2556-0.5732c-0.0359-0.0085-0.0733-0.0085-0.1092,0
				c0,0.2729,0,0.3093,0.2547,0.3821l0.9735,0.3639h0.0546c0.0728-0.0182,0.1365-0.0182,0.0728-0.1729H229.7748z M230.4572,40.7185
				c0.0546,0,0.1365-0.0455,0.1274-0.1001c-0.0487-0.1646-0.186-0.2877-0.3548-0.3184c0,0-0.0637,0-0.091,0.0637
				c-0.009,0.0266-0.009,0.0553,0,0.0819c0.0863,0.119,0.2024,0.2131,0.3366,0.2729H230.4572z M226.6723,32.0478
				c-0.1128-0.3357-0.2923-0.6452-0.5277-0.9098H226.09l-0.2366,0.1092c0,0.1547,0,0.2548,0.1092,0.3548l0.7915,1.3466
				c0.1547,0.2639,0.2912,0.5277,0.4367,0.7825c0.0332,0.0948,0.1371,0.1448,0.2319,0.1115c0.0145-0.0051,0.0283-0.012,0.041-0.0205
				c0.0546-0.0391,0.101-0.0885,0.1365-0.1456c-0.1456-0.2639-0.2729-0.5095-0.4185-0.737
				C226.9968,32.6512,226.8267,32.3536,226.6723,32.0478z M228.7376,38.8261c-0.1001,0.1638-0.1092,0.2457,0,0.3366
				c0.1092,0.091,0.2275,0.1729,0.3548,0.2639c0-0.0455,0.0819-0.0728,0.1001-0.1092c0.0125-0.0353,0.0125-0.0739,0-0.1092
				C229.0688,39.0509,228.9139,38.9208,228.7376,38.8261z M229.6474,42.3744c0,0,0-0.0455,0-0.0546
				c0-0.0091-0.1183,0.0819-0.1092,0.1183l0.0637,0.0637c0,0,0.1638-0.1001,0.0819-0.1274H229.6474z M224.4432,48.0609
				c0,0,0.0728,0,0.091,0l0.6733-0.6551c0.0488-0.0392,0.0671-0.1051,0.0455-0.1638c-0.0306-0.0666-0.0999-0.1068-0.1729-0.1001
				c-0.059,0.0075-0.1152,0.0294-0.1638,0.0637c-0.1911,0.182-0.3821,0.3639-0.5641,0.555
				C224.1702,47.9517,224.3067,48.0609,224.4432,48.0609z M229.329,38.3439c0-0.0637-0.1092-0.0819-0.1547-0.0455
				c-0.0319,0.0399-0.0319,0.0966,0,0.1365c0.0178,0.0383,0.0391,0.0748,0.0637,0.1092l0.4913,0.7006l0.1365,0.1365
				c0.0277-0.0974,0.0074-0.202-0.0546-0.282c-0.1183-0.2002-0.2366-0.4003-0.3639-0.6005
				c-0.0348-0.0493-0.0744-0.095-0.1183-0.1365V38.3439z M229.1834,36.6971c-0.0883,0.0093-0.1552,0.0841-0.1547,0.1729
				c0,0.0819,0.2002,0.4094,0.2639,0.4094s0.1729-0.0728,0.1638-0.1365c-0.0091-0.0637-0.2002-0.4185-0.2729-0.4276V36.6971z"/>
		</g>
	</g>
</g>
</svg>
