<svg version="1.1" id="Layer_1" xmlns="http://www.w3.org/2000/svg" x="0" y="0" viewBox="0 0 1193.6 104" style="enable-background:new 0 0 1193.6 104" xml:space="preserve"><style>.st0{fill:#85782f}.st1{fill:#213b73}</style><path class="st0" d="M609 64.8c-.3 0-.5.2-.5.5l-1.8 15.2c-.1.6.4 1.2 1.1 1.1.5 0 .9-.4 1-1l.8-15.2c0-.3-.3-.6-.6-.6zM609.4 57.6l-.6 5.2c0 .3.2.5.5.5.2 0 .4-.2.4-.4l.3-5.3c0-.2-.1-.3-.3-.3-.2.1-.3.2-.3.3zM609.7 54.5l-.1 1.2c0 .2.1.3.3.3.1 0 .2-.1.2-.2l.1-1.2c0-.1-.1-.2-.2-.2-.2-.1-.3 0-.3.1zM609.2 54.4l-.4 1.2c-.1.2 0 .3.2.3.1 0 .2-.1.3-.2l.3-1.2c0-.1 0-.2-.2-.3l-.2.2zM608 57.5l-1.9 5.1c-.1.3.1.6.4.6.2 0 .5-.1.5-.3l1.5-5.2c.1-.2-.1-.4-.2-.4s-.2.1-.3.2zM606.7 57.1l-3.1 4.7c-.2.3-.1.6.2.7.2.1.5 0 .6-.2l2.8-4.9c.1-.2 0-.4-.2-.4-.1-.1-.2 0-.3.1zM608.6 54.3l-.7 1.1c-.1.1 0 .3.1.4.1 0 .2 0 .3-.1l.7-1.1c.1-.1 0-.3-.1-.3-.2-.1-.3-.1-.3 0zM608 54l-1 1c-.1.1-.1.3.1.4.1.1.2 0 .3-.1l1-1c.1-.1.1-.2 0-.3-.3-.1-.4-.1-.4 0zM605.4 56.4l-4.3 4.1c-.2.2-.2.6.1.8.2.1.5.1.7-.1l4.1-4.3c.1-.1.1-.4-.1-.5-.2-.2-.4-.1-.5 0zM604.2 55.3l-5.4 3.1c-.3.2-.4.6-.1.8.2.2.5.2.7.1l5.2-3.4c.2-.1.2-.4.1-.5-.2-.1-.3-.2-.5-.1zM607.4 53.5l-1.3.8c-.2.1-.2.3 0 .4.1.1.2.1.3 0l1.3-.8c.1-.1.1-.3 0-.4h-.3zM606.9 52.9l-1.5.5c-.2.1-.3.3-.2.4.1.1.2.1.3.1l1.5-.6c.1-.1.2-.2.1-.4 0 0-.1-.1-.2 0zM603.3 53.9l-6.2 1.9c-.3.1-.5.5-.3.8.1.2.4.3.7.2l6.1-2.2c.2-.1.3-.3.2-.5-.2-.1-.4-.2-.5-.2zM602.7 52.3l-6.8.4c-.4 0-.6.4-.5.7.1.3.3.5.6.4l6.7-.8c.2 0 .3-.2.3-.4v-.1c0-.1-.2-.2-.3-.2zM606.5 52l-1.7.1c-.2 0-.3.2-.3.4 0 .1.2.2.3.2l1.7-.2c.2 0 .3-.2.2-.3 0-.1-.1-.2-.2-.2zM602.8 50.8c0-.2-.1-.3-.3-.3l-7-1.2c-.3-.1-.6.2-.6.5v.1c0 .3.2.5.5.5l7 .8c.2 0 .4-.2.4-.4zM606.4 51.1l-1.8-.3c-.2 0-.4.1-.4.3 0 .2.1.3.3.3l1.8.2c.2 0 .3-.1.3-.3 0-.1-.1-.2-.2-.2zM602.8 48.5l-6.7-2.9c-.4-.2-.8.1-.8.4-.1.3.1.6.4.7l6.9 2.5c.2.1.4 0 .4-.2v-.1c0-.2-.1-.3-.2-.4zM606.5 50.1l-1.8-.8c-.2-.1-.4 0-.4.2s.1.3.2.4l1.8.7c.1.1.3 0 .3-.2.1-.1 0-.2-.1-.3zM608.9 51.3c0-.1 0-.2-.2-.3l-.4-.2c-.1-.1-.3 0-.3.2 0 .1 0 .2.1.2l.4.1c.2.2.3.1.4 0zM606.9 49.1l-1.6-1.2c-.2-.1-.4-.1-.5.1-.1.1 0 .3.1.4l1.7 1.1c.1.1.3 0 .4-.1.1 0 0-.2-.1-.3zM609.1 51c.1-.1 0-.2-.1-.3l-.5-.4c-.1-.1-.3 0-.3.1s0 .2.1.2l.6.4c0 .1.2.1.2 0zM603.6 46.6l-6.1-4.5c-.3-.2-.8-.1-1 .2-.1.3 0 .6.2.8l6.4 4.1c.2.1.4 0 .5-.1 0 0 0-.1.1-.1 0-.1 0-.3-.1-.4zM604.8 45l-5.1-6.1c-.3-.3-.8-.3-1 0-.2.3-.2.6 0 .9l5.5 5.8c.1.1.4.1.5 0l.1-.1c.1-.2.1-.4 0-.5zM609.4 50.7c.1-.1.1-.2 0-.3l-.6-.7c-.1-.1-.2-.1-.3 0-.1.1-.1.2 0 .3l.6.6c.1.2.3.2.3.1zM607.6 48.3l-1.4-1.7c-.1-.2-.4-.2-.5 0-.1.1-.1.3 0 .5l1.5 1.6c.1.1.3.1.4 0 .1-.2.1-.3 0-.4z"/><path class="st0" d="M609.8 50.6c.1-.1.1-.2 0-.3l-.5-.9c-.1-.1-.2-.2-.3-.1-.1.1-.1.2-.1.3l.5.9c.2.1.3.1.4.1zM608.5 47.6l-1-2.1c-.1-.2-.3-.3-.5-.1-.1.1-.2.3-.1.5l1.2 2c.1.1.2.2.4.1 0-.1.1-.3 0-.4zM606.5 43.5l-3.7-7.3c-.2-.4-.7-.5-1-.2-.3.2-.4.6-.2.9l4.1 7.1c.1.2.4.3.6.1.2-.1.3-.4.2-.6z"/><path class="st0" d="M610.2 50.5c.1 0 .2-.2.1-.3l-.3-1.1c0-.1-.1-.2-.3-.2-.1 0-.2.2-.2.3l.3 1.1c.2.1.3.2.4.2zM608.5 42.6l-2-8.4c-.1-.4-.5-.6-.9-.5h-.1c-.3.1-.5.5-.4.8l2.5 8.2c.1.2.3.4.6.3.2 0 .4-.2.3-.4zM609.6 47.2l-.6-2.4c-.1-.2-.3-.3-.5-.3-.2.1-.3.3-.2.4l.7 2.4c0 .1.2.2.3.2.3 0 .3-.1.3-.3zM610.6 50.5c.1 0 .2-.1.2-.2v-1.1c0-.1-.1-.2-.2-.2s-.2.1-.2.2l.1 1.1c-.1.1 0 .2.1.2zM610.8 47.2v-2.7c0-.2-.2-.4-.4-.4s-.4.2-.3.4l.2 2.7c0 .1.1.3.3.3.1 0 .2-.2.2-.3zM610.8 42.3v-9c0-.4-.4-.7-.8-.7h-.1c-.4 0-.6.4-.6.7l.6 9c0 .2.2.4.5.4.2 0 .4-.2.4-.4zM611.9 47.4l.6-2.7c0-.2-.1-.4-.3-.5-.2 0-.4.1-.4.3l-.5 2.8c0 .1.1.3.2.3.2.1.4 0 .4-.2zM611 50.6c.1 0 .2-.1.2-.2l.2-1c0-.1 0-.2-.1-.3-.1 0-.3 0-.3.2l-.2 1.1s.1.2.2.2zM613.1 42.5l2.2-9.1c.1-.4-.2-.8-.6-.8h-.1c-.4 0-.7.2-.7.6l-1.6 9.2c0 .2.1.5.4.5.1 0 .3-.2.4-.4zM613 47.9l1.3-2.7c.1-.2 0-.4-.2-.5-.2-.1-.4 0-.5.2l-1.2 2.7c-.1.1 0 .3.1.4.2.1.4.1.5-.1zM611.4 50.8c.1 0 .2 0 .3-.1l.5-.9c0-.1 0-.2-.1-.3-.1-.1-.3 0-.3.1l-.4 1c-.2 0-.1.1 0 .2zM615.3 43.3l4.4-8.7c.2-.4 0-.8-.4-.9h-.1c-.3-.1-.7 0-.8.4l-3.8 8.9c-.1.2 0 .5.2.6.2 0 .4-.1.5-.3z"/><path class="st0" d="M611.7 51c.1.1.2 0 .3-.1l.6-.8c.1-.1.1-.2 0-.3-.1-.1-.3-.1-.3 0l-.6.8c-.1.2-.1.4 0 .4zM617.4 44.5l6.5-7.8c.3-.3.2-.8-.2-1-.1 0-.1-.1-.2-.1-.3-.2-.7-.1-.9.2l-6 8.1c-.1.2-.1.5.1.6.2.2.5.2.7 0zM613.9 48.7l2-2.4c.1-.2.1-.4-.1-.6-.2-.1-.4-.1-.5.1l-1.9 2.5c-.1.1-.1.3 0 .4.2.1.4.1.5 0zM619.1 46.3l8.4-6.3c.4-.3.4-.8.1-1.2-.3-.3-.7-.3-1.1 0l-8 6.8c-.2.2-.2.4-.1.6.2.2.5.2.7.1zM614.5 49.6l2.7-2c.2-.1.2-.4.1-.6-.1-.2-.4-.2-.5 0l-2.6 2.2c-.1.1-.1.2-.1.4.1.1.3.1.4 0zM611.9 51.3c.1.1.2.1.3 0l.7-.6c.1-.1.1-.2.1-.3-.1-.1-.2-.2-.3-.1l-.7.6c-.1.2-.2.4-.1.4zM615 50.7l3.3-1.4c.2-.1.3-.3.2-.5-.1-.2-.3-.3-.5-.2l-3.2 1.6c-.1.1-.2.2-.1.3-.1.2.1.2.3.2zM620.3 48.4l10.4-4.5c.3-.1.4-.4.2-.7-.1-.2-.3-.4-.4-.6-.1-.2-.4-.3-.6-.2l-10 5.1c-.2.1-.3.4-.2.6.2.3.4.4.6.3zM615.1 51.8l3.7-.6c.2 0 .4-.3.3-.5 0-.2-.3-.3-.5-.3l-3.6.9c-.1 0-.2.2-.2.3 0 .1.2.2.3.2zM621.1 50.7l11.2-2c.5-.1.8-.6.6-1-.1-.4-.6-.7-1-.6l-11.1 2.7c-.2.1-.4.3-.3.5.1.3.3.5.6.4zM621.2 53.2l11.8.7c.5 0 .9-.4.9-.9s-.4-.8-.8-.8l-11.8.1c-.3 0-.5.2-.5.5 0 .2.2.4.4.4zM615 52.9l3.9.2c.2 0 .4-.2.4-.4s-.2-.4-.4-.4H615c-.1 0-.3.1-.3.2.1.2.2.4.3.4zM620.9 55.8l11.7 3.5c.5.1 1-.2 1.1-.7.1-.4-.2-.9-.7-1l-11.9-2.8c-.3-.1-.5.1-.6.4 0 .2.1.5.4.6zM614.8 53.9l3.9 1.2c.2.1.5-.1.5-.3 0-.2-.1-.4-.3-.5l-3.9-.9c-.1 0-.3 0-.3.2-.2.1-.1.3.1.3zM612.1 52.9c-.1.1 0 .3.1.3l.7.2c.1 0 .2 0 .3-.1 0-.1 0-.2-.2-.3l-.9-.1c.1-.1 0-.1 0 0zM614.3 54.9 618 57c.2.1.5 0 .6-.2.1-.2 0-.4-.2-.5l-3.8-1.9c-.1-.1-.3 0-.4.1-.1.2-.1.3.1.4zM611.9 53.3c-.1.1 0 .2 0 .3l.7.4c.1.1.2 0 .3-.1.1-.1 0-.2-.1-.3l-.7-.4c-.1 0-.2 0-.2.1zM619.9 58.2l10.9 6.3c.5.3 1.1.1 1.3-.4.2-.4 0-.9-.4-1.1l-11.3-5.6c-.2-.1-.5 0-.6.2-.1.2-.1.5.1.6zM613.6 55.8l3.2 3c.2.2.5.1.6-.1.1-.2.1-.4-.1-.6l-3.4-2.8c-.1-.1-.3-.1-.4 0 0 .2 0 .4.1.5zM618.5 60.4l9.5 9c.4.4 1.1.3 1.4-.2.3-.4.2-.9-.2-1.2l-10.1-8.4c-.2-.2-.5-.1-.7.1-.1.3-.1.6.1.7zM611.6 53.6c-.1.1-.1.2 0 .3l.6.6c.1.1.2.1.3 0 .1-.1.1-.2 0-.3l-.7-.6c-.1-.1-.2-.1-.2 0zM612.8 56.5l2.5 3.9c.1.2.5.3.6.1.2-.1.2-.4 0-.6l-2.8-3.7c-.1-.1-.3-.1-.4 0 0 .1 0 .2.1.3zM616.6 62.4l7.5 11.4c.3.5 1 .6 1.4.2.3-.3.4-.9.1-1.2l-8.2-10.9c-.2-.2-.5-.3-.7-.1-.2.1-.2.4-.1.6zM611.2 53.9c-.1.1-.1.2-.1.3l.5.8c.1.1.2.1.3 0 .1-.1.1-.2 0-.3l-.6-.7c.1-.2 0-.2-.1-.1zM611.8 57.1l1.7 4.6c.1.3.4.4.6.2.2-.1.3-.3.2-.5l-1.9-4.5c-.1-.1-.2-.2-.4-.1-.2 0-.3.2-.2.3zM614.2 64l4.9 13.4c.2.6.9.8 1.4.5.4-.2.6-.8.4-1.2l-5.7-13c-.1-.3-.5-.4-.7-.2-.2 0-.3.2-.3.5zM610.8 54.1c-.1 0-.1.1-.1.2.1.2.2.7.3 1 0 .1.2.2.3.1.1-.1.2-.2.1-.3-.1-.3-.3-.7-.4-1 0 0-.1-.1-.2 0zM610.3 54.5l.1 1.1c0 .1.2.2.3.2.1 0 .2-.1.2-.3l-.2-1.1c0-.1-.1-.2-.2-.2-.2.1-.3.2-.2.3zM611.5 65l1.7 14.7c.1.6.7 1 1.3.8.5-.1.8-.6.7-1.1l-2.6-14.5c-.1-.3-.4-.5-.7-.4-.3 0-.4.2-.4.5zM610.9 57.2c-.1 0-.1 0 0 0-.2 0-.3.2-.2.3l.6 5.1c0 .3.3.5.6.4.2-.1.3-.3.3-.5l-.9-5c-.1-.3-.3-.4-.4-.3zM613.3 51.2c0-.1-.2-.2-.3-.1l-.8.4c-.1.1-.2.1-.1.2 0 .1.2.1.3.1l.8-.3c.1-.1.1-.2.1-.3zM613.4 51.9c0-.1-.1-.2-.3-.2l-.7.2c-.1 0-.2.1-.2.2s.1.1.2.1h.1l.8-.1s.1-.1.1-.2zM612.4 52.3c-.1 0-.1 0 0 0-.2 0-.2.1-.2.2s0 .1.1.1c0 0 .1.1.2.1h.8c.1 0 .2-.1.2-.2s-.1-.2-.2-.2h-.9zM612 52.9l.1-.1-.1.1zM608.5 84.1c0-.6-.5-1.1-1.1-1.1h-.2c-.5 0-.9.4-1 .9l-.2 2c-.1.7.5 1.3 1.2 1.3.6 0 1.2-.5 1.2-1.1l.1-2zM606 64.6c-.1 0-.1 0 0 0-.3 0-.5.1-.6.4l-7.5 20.7c-.3.8.3 1.6 1.1 1.6h.1c.5 0 1-.4 1.2-.9l6.2-21.1c0-.3-.2-.6-.5-.7zM602.9 63.8c-.3-.1-.6 0-.7.2l-13.9 21.2c-.6.9.1 2.1 1.2 2.1.5 0 1-.3 1.2-.7l12.6-22c0-.3-.1-.7-.4-.8zM627.7 75.5c-.4-.5-1.1-.6-1.5-.1-.4.3-.4.9-.2 1.3l6.5 9.9c.3.4.7.6 1.2.6 1.2 0 1.8-1.3 1.1-2.3l-7.1-9.4zM622.3 79.7c-.2-.5-.9-.7-1.4-.4-.1 0-.1.1-.2.1-.4.2-.6.7-.4 1.2l2.2 6c.2.5.6.8 1.1.8h.2c.9 0 1.4-.9 1.1-1.7l-2.6-6zM615.8 82.7c-.1-.6-.8-1-1.3-.7-.5.1-.9.6-.8 1.1l.4 3.1c.1.6.6 1.1 1.2 1.1.7 0 1.3-.7 1.2-1.4l-.7-3.2zM628.8 36.8c-.3.3-.4.8-.1 1.1 0 .1.1.1.1.2.3.3.7.3 1 .1l11.9-8.8c.3-.3.5-.7.5-1.1 0-1.2-1.3-1.8-2.2-1l-11.2 9.5zM632.5 41.1c-.5.2-.6.8-.4 1.3.2.4.7.5 1.1.4l8.3-3.6c.4-.2.7-.6.7-1.1 0-.9-.9-1.5-1.7-1.1l-8 4.1zM635.1 46.4c-.5.1-.8.7-.7 1.2.1.4.6.7 1 .6l6-1c.5-.1.9-.5.9-1.1 0-.7-.7-1.2-1.4-1.1l-5.8 1.4zM636.3 52.2c-.5 0-1 .4-.9 1 0 .5.4.9.9.9l4.9.3c.6 0 1.2-.5 1.2-1.1 0-.6-.5-1.1-1.1-1.1h-5zM636.1 58.3c-.5-.1-1.1.2-1.2.8-.1.5.2.9.7 1.1l5.3 1.6c.7.2 1.4-.3 1.4-1.1v-.1c0-.5-.4-1-.9-1.1l-5.3-1.2zM634.7 64.4c-.5-.3-1.1 0-1.3.5-.2.4 0 1 .4 1.2l6.9 4c.7.4 1.6-.1 1.6-1v-.3c0-.4-.2-.8-.6-1l-7-3.4zM631.9 70.2c-.5-.4-1.1-.3-1.5.2-.3.4-.2 1 .1 1.3l9.4 8.9c.9.9 2.4.2 2.4-1 0-.4-.2-.8-.5-1.1l-9.9-8.3zM601.2 34.5c.3-.2.4-.6.2-1l-8.1-16.1c-.2-.5-.7-.7-1.2-.7-1 0-1.7 1.1-1.2 2l9.1 15.5c.3.5.8.6 1.2.3zM605.4 32.3c.4-.1.6-.5.5-.9l-3.2-13.7c-.1-.5-.6-.9-1.2-.9h-.1c-.8 0-1.4.8-1.2 1.6l4.1 13.5c.1.3.6.5 1.1.4zM610.1 31.1c.4 0 .7-.4.7-.8V17.9c0-.7-.5-1.2-1.2-1.2s-1.3.6-1.2 1.3l.8 12.4c0 .4.4.8.9.7zM615 31.2c.4.1.8-.2.9-.6l2.9-12.3c.2-.8-.4-1.5-1.2-1.5-.6 0-1.1.4-1.2 1l-2.1 12.5c-.1.4.2.8.7.9zM620 32.3c.4.1.9 0 1-.4l6.7-13.3c.4-.9-.2-1.9-1.2-1.9-.5 0-1 .3-1.2.8l-5.8 13.7c-.2.5 0 1 .5 1.1zM624.7 34.6c.4.2.9.2 1.1-.2l12.8-15.3c.8-1 .1-2.5-1.1-2.5-.5 0-.9.2-1.2.6l-11.8 16.1c-.4.5-.3 1.1.2 1.3zM608.7 51.7c0-.1-.1-.2-.2-.2h-.2c-.1 0-.3.1-.2.2 0 .1.1.1.2.1h.2c.1.1.2 0 .2-.1z"/><path class="st0" d="M608.5 51.9c-.1 0-.2.1-.2.2s.1.1.1.1h.1c.1 0 .2-.1.2-.2s-.1-.2-.1-.2c0 .1-.1.1-.1.1z"/><circle class="st0" cx="608.6" cy="52.5" r=".1"/><g><path class="st0" d="M600 62.2c-.2-.2-.5-.1-.8.1l-17.3 16.4c-.3.3-.4.6-.4 1 0 1.2 1.5 1.8 2.3.9l16.3-17.5c.2-.3.2-.7-.1-.9zM597.2 60.8c.3-.2.4-.6.1-.9-.2-.2-.5-.3-.8-.1L582 68.2c-.4.2-.6.6-.6 1 0 .9 1 1.5 1.8 1l14-9.4zM594.9 57.8c.4-.1.5-.6.3-.9-.1-.3-.5-.4-.7-.3l-12.3 3.7c-.4.1-.7.5-.7 1v.1c0 .7.7 1.2 1.4.9l12-4.5zM593.3 54.2c.4 0 .7-.4.6-.8-.1-.3-.4-.5-.7-.5l-10.8.6c-.5 0-1 .5-1 1 0 .6.5 1.1 1.1 1l10.8-1.3zM592.7 50.1c.4 0 .8-.3.8-.7 0-.3-.2-.6-.6-.7l-10.2-1.8c-.6-.1-1.2.4-1.2 1 0 .5.4.9.9 1l10.3 1.2zM593 45.8c.4.1.8-.1.9-.5.1-.3-.1-.7-.4-.8l-10.7-4.6c-.7-.3-1.4.2-1.4.9v.2c0 .4.3.8.7 1l10.9 3.8zM594.4 41.6c.4.2.9.1 1-.3.2-.3.1-.7-.2-.9l-11.8-8.8c-.8-.6-1.9 0-1.9 1 0 .4.2.8.5 1l12.4 8zM596.7 37.7c.3.3.8.3 1.1 0 .2-.3.2-.7 0-1l-13.9-16.5c-.9-1-2.5-.4-2.5.9 0 .4.1.7.4 1l14.9 15.6z"/></g><g><path class="st1" d="M669.1 45.6V61h6.1v4.3h-11.1V45.6h5zM688.9 50h-6v3.3h5.7v4.3h-5.7V61h6v4.3h-11.1V45.6h11.1V50zM702 54.3h10.1c0 1 0 2-.1 2.8-.1.9-.3 1.6-.5 2.4-.4 1-.9 1.9-1.5 2.7s-1.3 1.4-2.2 2c-.8.5-1.8.9-2.8 1.2-1 .3-2.1.4-3.2.4-1.5 0-2.9-.3-4.1-.8-1.2-.5-2.3-1.2-3.2-2.1-.9-.9-1.6-2-2.1-3.3s-.7-2.7-.7-4.2.2-2.9.7-4.2 1.2-2.4 2.1-3.3c.9-.9 2-1.6 3.3-2.1s2.7-.8 4.3-.8c2 0 3.8.4 5.4 1.3s2.7 2.3 3.6 4.1l-4.8 2c-.4-1.1-1-1.8-1.7-2.3s-1.5-.7-2.4-.7c-.8 0-1.4.1-2.1.4-.6.3-1.2.7-1.6 1.2-.4.5-.8 1.2-1 1.9s-.4 1.6-.4 2.5c0 .8.1 1.6.3 2.3s.5 1.3 1 1.8c.4.5 1 .9 1.6 1.2s1.4.4 2.2.4c.5 0 1-.1 1.4-.2.5-.1.9-.3 1.3-.5.4-.3.7-.6.9-1s.4-.9.5-1.5H702v-3.6zM726.5 61.9h-7.2l-1.2 3.4h-5.4l7.4-19.6h5.5l7.4 19.6h-5.4l-1.1-3.4zm-1.3-3.9-2.3-6.5-2.3 6.5h4.6zM735.3 45.6h7.5c1.3 0 2.6.3 3.7.8 1.2.5 2.2 1.3 3 2.1.9.9 1.6 1.9 2.1 3.1.5 1.2.7 2.4.7 3.7s-.2 2.5-.7 3.7-1.2 2.2-2 3.1c-.9.9-1.9 1.6-3 2.2-1.2.5-2.4.8-3.8.8h-7.5V45.6zm5.1 15.4h1.2c.9 0 1.7-.1 2.4-.4.7-.3 1.3-.7 1.7-1.1.5-.5.8-1.1 1.1-1.7.2-.7.4-1.4.4-2.2s-.1-1.5-.4-2.2c-.3-.7-.6-1.3-1.1-1.7-.5-.5-1.1-.9-1.7-1.1-.7-.3-1.5-.4-2.3-.4h-1.2V61h-.1zM754.7 55.5c0-1.5.3-2.8.8-4.1s1.3-2.4 2.2-3.3c.9-.9 2.1-1.7 3.4-2.2 1.3-.5 2.8-.8 4.4-.8 1.6 0 3 .3 4.3.8s2.5 1.3 3.4 2.2c1 .9 1.7 2 2.2 3.3s.8 2.6.8 4.1-.3 2.8-.8 4.1-1.3 2.4-2.2 3.3c-1 .9-2.1 1.7-3.4 2.2-1.3.5-2.8.8-4.3.8-1.6 0-3-.3-4.4-.8-1.3-.5-2.5-1.3-3.4-2.2s-1.7-2-2.2-3.3-.8-2.7-.8-4.1zm5.3 0c0 .8.1 1.5.4 2.2.3.7.7 1.2 1.2 1.7s1.1.9 1.7 1.1c.7.3 1.4.4 2.1.4.7 0 1.4-.1 2.1-.4s1.2-.6 1.8-1.1.9-1.1 1.2-1.7c.3-.7.4-1.4.4-2.2s-.1-1.5-.4-2.2c-.3-.7-.7-1.2-1.2-1.7s-1.1-.9-1.8-1.1c-.7-.3-1.4-.4-2.1-.4-.7 0-1.4.1-2.1.4-.7.3-1.2.6-1.7 1.1s-.9 1.1-1.2 1.7c-.2.7-.4 1.4-.4 2.2zM819.9 52.2c-1.2-1.4-2.6-2.2-4.3-2.2-.8 0-1.5.1-2.1.4-.6.3-1.2.7-1.7 1.1-.5.5-.8 1-1.1 1.7s-.4 1.4-.4 2.1c0 .8.1 1.5.4 2.2.3.7.6 1.2 1.1 1.7s1 .9 1.7 1.1c.6.3 1.3.4 2.1.4 1.6 0 3.1-.7 4.4-2.1v6l-.5.2c-.8.3-1.5.5-2.2.6s-1.3.2-2 .2c-1.3 0-2.6-.3-3.9-.8-1.2-.5-2.3-1.2-3.3-2.2-.9-.9-1.7-2-2.3-3.3s-.9-2.7-.9-4.2.3-2.9.8-4.2c.6-1.3 1.3-2.3 2.2-3.3.9-.9 2-1.6 3.3-2.1s2.5-.8 3.9-.8c.8 0 1.5.1 2.3.2s1.5.4 2.4.8l.1 6.5zM822.5 55.5c0-1.5.3-2.8.8-4.1s1.3-2.4 2.2-3.3c.9-.9 2.1-1.7 3.4-2.2 1.3-.5 2.8-.8 4.4-.8 1.6 0 3 .3 4.3.8s2.5 1.3 3.4 2.2c1 .9 1.7 2 2.2 3.3s.8 2.6.8 4.1-.3 2.8-.8 4.1-1.3 2.4-2.2 3.3c-1 .9-2.1 1.7-3.4 2.2-1.3.5-2.8.8-4.3.8-1.6 0-3-.3-4.4-.8-1.3-.5-2.5-1.3-3.4-2.2s-1.7-2-2.2-3.3-.8-2.7-.8-4.1zm5.3 0c0 .8.1 1.5.4 2.2.3.7.7 1.2 1.2 1.7s1.1.9 1.7 1.1c.7.3 1.4.4 2.1.4.7 0 1.4-.1 2.1-.4.7-.3 1.2-.6 1.8-1.1s.9-1.1 1.2-1.7c.3-.7.4-1.4.4-2.2s-.1-1.5-.4-2.2c-.3-.7-.7-1.2-1.2-1.7s-1.1-.9-1.8-1.1c-.7-.3-1.4-.4-2.1-.4-.7 0-1.4.1-2.1.4-.7.3-1.2.6-1.7 1.1s-.9 1.1-1.2 1.7c-.2.7-.4 1.4-.4 2.2zM846.4 65.3l3.3-19.6h5l3.9 10.5 3.9-10.5h5l3.3 19.6h-5L864.1 54l-4.6 11.3h-2L853.2 54l-1.7 11.3h-5.1zM879.1 45.6v19.6H874V45.6h5.1zM893.9 50.7c-.6-.5-1.1-.8-1.7-1-.6-.2-1.1-.3-1.6-.3-.7 0-1.2.2-1.6.5-.4.3-.6.7-.6 1.2 0 .3.1.6.3.9.2.2.5.4.8.6.3.2.7.3 1.1.4.4.1.8.3 1.3.4 1.7.6 2.9 1.3 3.6 2.2.8.9 1.1 2.1 1.1 3.6 0 1-.2 1.9-.5 2.7s-.8 1.5-1.5 2.1c-.6.6-1.4 1-2.4 1.4-.9.3-2 .5-3.2.5-2.5 0-4.7-.7-6.8-2.2l2.2-4.1c.8.7 1.5 1.2 2.2 1.5s1.5.5 2.2.5c.8 0 1.4-.2 1.8-.6.4-.4.6-.8.6-1.3 0-.3-.1-.6-.2-.8-.1-.2-.3-.4-.5-.6-.2-.2-.6-.4-.9-.5-.4-.2-.9-.3-1.4-.5-.7-.2-1.3-.4-1.9-.7-.6-.3-1.2-.6-1.7-1s-.9-.9-1.2-1.6c-.3-.6-.5-1.4-.5-2.4s.2-1.9.5-2.6c.3-.8.8-1.5 1.3-2 .6-.6 1.3-1 2.1-1.3s1.8-.5 2.8-.5 2 .1 3 .4c1.1.3 2.1.7 3 1.2l-1.7 3.9zM905 45.6v19.6h-5.1V45.6h5.1zM908.2 55.5c0-1.5.3-2.8.8-4.1s1.3-2.4 2.2-3.3c.9-.9 2.1-1.7 3.4-2.2 1.3-.5 2.8-.8 4.4-.8 1.6 0 3 .3 4.3.8s2.5 1.3 3.4 2.2c1 .9 1.7 2 2.2 3.3s.8 2.6.8 4.1-.3 2.8-.8 4.1-1.3 2.4-2.2 3.3c-1 .9-2.1 1.7-3.4 2.2-1.3.5-2.8.8-4.3.8-1.6 0-3-.3-4.4-.8-1.3-.5-2.5-1.3-3.4-2.2s-1.7-2-2.2-3.3-.8-2.7-.8-4.1zm5.3 0c0 .8.1 1.5.4 2.2.3.7.7 1.2 1.2 1.7s1.1.9 1.7 1.1c.7.3 1.4.4 2.1.4.7 0 1.4-.1 2.1-.4.7-.3 1.2-.6 1.8-1.1.5-.5.9-1.1 1.2-1.7.3-.7.4-1.4.4-2.2s-.1-1.5-.4-2.2c-.3-.7-.7-1.2-1.2-1.7s-1.1-.9-1.8-1.1c-.7-.3-1.4-.4-2.1-.4-.7 0-1.4.1-2.1.4-.7.3-1.2.6-1.7 1.1s-.9 1.1-1.2 1.7c-.3.7-.4 1.4-.4 2.2zm10.1-14.8-5 3.4-2-1.8 4.2-4.1 2.8 2.5zM933 65.3V45.6h5.1l9.4 12v-12h5v19.6h-5l-9.4-12v12H933v.1zM965.3 45.6h7.5c1.3 0 2.6.3 3.7.8 1.2.5 2.2 1.3 3 2.1.9.9 1.6 1.9 2.1 3.1.5 1.2.7 2.4.7 3.7s-.2 2.5-.7 3.7-1.2 2.2-2 3.1c-.9.9-1.9 1.6-3 2.2-1.2.5-2.4.8-3.8.8h-7.5V45.6zm5.1 15.4h1.2c.9 0 1.7-.1 2.4-.4.7-.3 1.3-.7 1.7-1.1.5-.5.8-1.1 1.1-1.7.2-.7.4-1.4.4-2.2s-.1-1.5-.4-2.2c-.3-.7-.6-1.3-1.1-1.7-.5-.5-1.1-.9-1.7-1.1-.7-.3-1.5-.4-2.3-.4h-1.2V61h-.1zM996.7 50h-6v3.3h5.7v4.3h-5.7V61h6v4.3h-11.1V45.6h11.1V50zM1014.2 45.6V61h6.1v4.3h-11.1V45.6h5zM1035.6 61.9h-7.2l-1.2 3.4h-5.4l7.4-19.6h5.5l7.4 19.6h-5.4l-1.1-3.4zm-1.3-3.9-2.3-6.5-2.3 6.5h4.6zM1055.4 45.6l4.7 11.9 4.7-11.9h5.5l-8.2 19.6h-4l-8.2-19.6h5.5zM1083.4 50h-6v3.3h5.7v4.3h-5.7V61h6v4.3h-11.1V45.6h11.1V50zM1103.3 65.3h-6.3l-4.8-7.5v7.5h-5.1V45.6h7.9c1.1 0 2 .2 2.8.5s1.5.8 2 1.3c.5.6.9 1.2 1.2 1.9.3.7.4 1.5.4 2.3 0 1.5-.4 2.7-1.1 3.6-.7.9-1.8 1.6-3.2 1.9l6.2 8.2zm-11.2-10.9h1c1 0 1.8-.2 2.3-.6.5-.4.8-1 .8-1.8s-.3-1.4-.8-1.8c-.5-.4-1.3-.6-2.3-.6h-1v4.8zM1105.4 45.6h7.5c1.3 0 2.6.3 3.7.8 1.2.5 2.2 1.3 3 2.1.9.9 1.6 1.9 2.1 3.1.5 1.2.7 2.4.7 3.7s-.2 2.5-.7 3.7-1.2 2.2-2 3.1c-.9.9-1.9 1.6-3 2.2-1.2.5-2.4.8-3.8.8h-7.5V45.6zm5.1 15.4h1.2c.9 0 1.7-.1 2.4-.4.7-.3 1.3-.7 1.7-1.1.5-.5.8-1.1 1.1-1.7.2-.7.4-1.4.4-2.2s-.1-1.5-.4-2.2-.6-1.3-1.1-1.7c-.5-.5-1.1-.9-1.7-1.1-.7-.3-1.5-.4-2.3-.4h-1.2l-.1 10.8zM1136.8 61.9h-7.2l-1.2 3.4h-5.4l7.4-19.6h5.5l7.4 19.6h-5.4l-1.1-3.4zm-1.3-3.9-2.3-6.5-2.3 6.5h4.6zM1145.6 45.6h7.5c1.3 0 2.6.3 3.7.8 1.2.5 2.2 1.3 3.1 2.1.9.9 1.6 1.9 2.1 3.1.5 1.2.7 2.4.7 3.7s-.2 2.5-.7 3.7-1.2 2.2-2 3.1c-.9.9-1.9 1.6-3.1 2.2-1.2.5-2.4.8-3.8.8h-7.5V45.6zm5.1 15.4h1.2c.9 0 1.7-.1 2.4-.4.7-.3 1.3-.7 1.7-1.1.5-.5.8-1.1 1.1-1.7.2-.7.4-1.4.4-2.2s-.1-1.5-.4-2.2-.6-1.3-1.1-1.7c-.5-.5-1.1-.9-1.7-1.1-.7-.3-1.5-.4-2.3-.4h-1.2l-.1 10.8zM791.9 28v48c0 .2-.2.4-.4.4H789c-.2 0-.4-.2-.4-.4V28c0-.2.2-.4.4-.4h2.6c.1 0 .3.2.3.4"/></g><g style="enable-background:new"><path class="st0" d="M41.4 50h9.3v-9.6h6.5v24.9h-6.5V55.1h-9.3v10.3H35v-25h6.5V50zM77.7 61h-9.2L67 65.3h-6.9l9.5-24.9h7.1l9.5 24.9h-6.9L77.7 61zM76 56.1l-2.9-8.3-2.9 8.3H76zM92.6 53.4l-9.1-12.9h7.7l4.6 6.8 4.6-6.8h7.7L99 53.4v11.9h-6.5V53.4zM135.9 45.9h-7.8v4.2h7.1v5.5h-7.1v9.8h-6.5v-25h14.3v5.5zM146.2 40.4V54c0 .7 0 1.5.1 2.2.1.8.2 1.4.5 2.1.3.6.7 1.1 1.3 1.5.6.4 1.4.6 2.5.6s1.9-.2 2.5-.6c.6-.4 1-.9 1.3-1.5.3-.6.5-1.3.5-2.1.1-.8.1-1.5.1-2.2V40.4h6.4v14.4c0 3.9-.9 6.7-2.7 8.5s-4.5 2.7-8.2 2.7c-3.7 0-6.4-.9-8.2-2.7-1.8-1.8-2.7-4.6-2.7-8.5V40.4h6.6zM176.1 45.9v19.4h-6.5V45.9h-5.3v-5.5h17.1v5.5h-5.3zM190.8 40.4V54c0 .7 0 1.5.1 2.2.1.8.2 1.4.5 2.1.3.6.7 1.1 1.3 1.5.6.4 1.4.6 2.5.6s1.9-.2 2.5-.6c.6-.4 1-.9 1.3-1.5.3-.6.5-1.3.5-2.1.1-.8.1-1.5.1-2.2V40.4h6.4v14.4c0 3.9-.9 6.7-2.7 8.5s-4.5 2.7-8.2 2.7c-3.7 0-6.4-.9-8.2-2.7-1.8-1.8-2.7-4.6-2.7-8.5V40.4h6.6zM231.9 65.3h-8.1l-6.2-9.6v9.6h-6.5V40.4h10.1c1.4 0 2.6.2 3.6.6s1.9 1 2.6 1.7c.7.7 1.2 1.5 1.5 2.4.3.9.5 1.9.5 3 0 1.9-.5 3.4-1.4 4.6-.9 1.2-2.3 2-4 2.4l7.9 10.2zm-14.2-13.7h1.2c1.3 0 2.3-.3 2.9-.8.7-.5 1-1.3 1-2.3s-.3-1.7-1-2.3c-.7-.5-1.7-.8-2.9-.8h-1.2v6.2zM233 52.9c0-1.8.3-3.6 1-5.2s1.6-3 2.8-4.2c1.2-1.2 2.7-2.1 4.3-2.8s3.5-1 5.6-1c2 0 3.8.3 5.5 1 1.7.7 3.2 1.6 4.4 2.8 1.2 1.2 2.2 2.6 2.9 4.2.7 1.6 1 3.3 1 5.2 0 1.8-.3 3.6-1 5.2s-1.6 3-2.9 4.2c-1.2 1.2-2.7 2.1-4.4 2.8-1.7.7-3.5 1-5.5 1s-3.9-.3-5.6-1c-1.7-.7-3.1-1.6-4.3-2.8-1.2-1.2-2.2-2.6-2.8-4.2-.7-1.7-1-3.4-1-5.2zm6.8 0c0 1 .2 1.9.6 2.7.4.8.9 1.6 1.5 2.2.6.6 1.4 1.1 2.2 1.4.8.3 1.7.5 2.7.5.9 0 1.8-.2 2.7-.5.8-.3 1.6-.8 2.2-1.4.6-.6 1.2-1.3 1.5-2.2.4-.8.6-1.7.6-2.7 0-1-.2-1.9-.6-2.7s-.9-1.6-1.5-2.2c-.6-.6-1.4-1.1-2.2-1.4-.8-.3-1.7-.5-2.7-.5-.9 0-1.8.2-2.7.5-.8.3-1.6.8-2.2 1.4-.6.6-1.1 1.3-1.5 2.2-.4.8-.6 1.7-.6 2.7zM265.9 59h5.6l-6.1 10.9h-3.8l4.3-10.9zM300.7 46.8c-.7-.6-1.4-1-2.1-1.3-.7-.3-1.4-.4-2-.4-.8 0-1.5.2-2 .6-.5.4-.8.9-.8 1.6 0 .4.1.8.4 1.1s.6.5 1 .7c.4.2.9.4 1.5.5.5.2 1.1.3 1.6.5 2.1.7 3.7 1.6 4.6 2.8 1 1.2 1.5 2.7 1.5 4.6 0 1.3-.2 2.4-.6 3.5-.4 1-1.1 1.9-1.9 2.7-.8.7-1.8 1.3-3 1.7-1.2.4-2.6.6-4.1.6-3.1 0-6.1-.9-8.7-2.8l2.8-5.2c1 .9 1.9 1.5 2.9 1.9.9.4 1.9.6 2.8.6 1.1 0 1.8-.2 2.4-.7.5-.5.8-1 .8-1.7 0-.4-.1-.7-.2-1-.1-.3-.4-.5-.7-.8-.3-.2-.7-.4-1.2-.6-.5-.2-1.1-.4-1.8-.7-.8-.3-1.7-.6-2.5-.9-.8-.3-1.5-.7-2.1-1.3-.6-.5-1.1-1.2-1.5-2-.4-.8-.6-1.8-.6-3.1s.2-2.3.6-3.3c.4-1 1-1.9 1.7-2.6.7-.7 1.6-1.3 2.7-1.7 1.1-.4 2.3-.6 3.6-.6 1.2 0 2.5.2 3.9.5 1.3.3 2.6.8 3.9 1.5l-2.9 5.3zM314.9 40.4v24.9h-6.5V40.4h6.5zM337.8 50h9.3v-9.6h6.5v24.9h-6.5V55.1h-9.3v10.3h-6.5v-25h6.5V50zM374 61h-9.2l-1.5 4.3h-6.9l9.5-24.9h7.1l9.5 24.9h-6.9L374 61zm-1.7-4.9-2.9-8.3-2.9 8.3h5.8zM388.9 53.4l-9.1-12.9h7.7l4.6 6.8 4.6-6.8h7.7l-9.1 12.9v11.9h-6.5V53.4zM422.4 40.4l6 15.1 6-15.1h7L431 65.3h-5.1l-10.5-24.9h7zM458.3 45.9h-7.7v4.2h7.3v5.5h-7.3v4.3h7.7v5.5h-14.2v-25h14.2v5.5zM483.6 65.3h-8.1l-6.2-9.6v9.6h-6.5V40.4H473c1.4 0 2.6.2 3.6.6s1.9 1 2.6 1.7c.7.7 1.2 1.5 1.5 2.4.3.9.5 1.9.5 3 0 1.9-.5 3.4-1.4 4.6-.9 1.2-2.3 2-4 2.4l7.8 10.2zm-14.2-13.7h1.2c1.3 0 2.3-.3 2.9-.8.7-.5 1-1.3 1-2.3s-.3-1.7-1-2.3c-.7-.5-1.7-.8-2.9-.8h-1.2v6.2zM486.3 40.4h9.6c1.7 0 3.3.3 4.8 1s2.8 1.6 3.9 2.7 2 2.5 2.6 4c.6 1.5 1 3.1 1 4.7s-.3 3.2-.9 4.7c-.6 1.5-1.5 2.8-2.6 4-1.1 1.1-2.4 2.1-3.9 2.7s-3.1 1-4.8 1h-9.6V40.4zm6.5 19.4h1.5c1.1 0 2.1-.2 3-.5.9-.4 1.6-.8 2.2-1.5.6-.6 1.1-1.3 1.4-2.2.3-.8.5-1.8.5-2.8 0-1-.2-1.9-.5-2.8-.3-.9-.8-1.6-1.4-2.2s-1.3-1.1-2.2-1.5c-.9-.4-1.9-.5-3-.5h-1.5v14zM526.4 61h-9.2l-1.5 4.3h-6.9l9.5-24.9h7.1l9.5 24.9H528l-1.6-4.3zm-1.7-4.9-2.9-8.3-2.9 8.3h5.8zM537.7 40.4h9.6c1.7 0 3.3.3 4.8 1s2.8 1.6 3.9 2.7 2 2.5 2.6 4c.6 1.5 1 3.1 1 4.7s-.3 3.2-.9 4.7c-.6 1.5-1.5 2.8-2.6 4-1.1 1.1-2.4 2.1-3.9 2.7s-3.1 1-4.8 1h-9.6V40.4zm6.4 19.4h1.5c1.1 0 2.1-.2 3-.5.9-.4 1.6-.8 2.2-1.5.6-.6 1.1-1.3 1.4-2.2.3-.8.5-1.8.5-2.8 0-1-.2-1.9-.5-2.8-.3-.9-.8-1.6-1.4-2.2s-1.3-1.1-2.2-1.5c-.9-.4-1.9-.5-3-.5h-1.5v14z"/></g></svg>