<svg xmlns="http://www.w3.org/2000/svg" xmlns:xlink="http://www.w3.org/1999/xlink" width="211.015" height="46.319" viewBox="0 0 211.015 46.319">
  <defs>
    <radialGradient id="radial-gradient" cx="0.5" cy="0.5" r="0.483" gradientTransform="translate(-0.037) scale(1.074 1)" gradientUnits="objectBoundingBox">
      <stop offset="0.509" stop-color="#917d26"/>
      <stop offset="1" stop-color="#101986"/>
    </radialGradient>
  </defs>
  <g id="Group_1625" data-name="Group 1625" transform="translate(-719.494 -4828.675)">
    <g id="Group_1624" data-name="Group 1624" transform="translate(305.665 107.675)">
      <g id="Group_1623" data-name="Group 1623" transform="translate(484.335 4721)">
        <path id="Union_1" data-name="Union 1" d="M1.662,46.17a14.081,14.081,0,0,0,2.456-3.037c1.754-2.3,3.444-4.65,5.231-6.928.612-.779,1.191-1.584,1.791-2.372.22-.285.518-.76.934-.512.636.392.462.93.14,1.461-.547.9-1.157,1.777-1.726,2.657C9.12,39.528,7.8,41.622,6.44,43.7c-.349.535-.7,1.072-1.036,1.613a2.433,2.433,0,0,1-.641.854,1.651,1.651,0,0,1-.823.095c-.385,0-.857.054-1.309.054A2.555,2.555,0,0,1,1.662,46.17Zm34.55-.035c-.262-.1-.41-.442-.56-.664-.376-.531-.72-1.083-1.1-1.613-1-1.4-1.98-2.837-2.928-4.271A10.818,10.818,0,0,1,30.3,37.5l.475-.285a19.483,19.483,0,0,1,1.651,1.993l2.752,3.416a24.279,24.279,0,0,1,2.809,3.657h-.372A4.516,4.516,0,0,1,36.212,46.136Zm-5.9.145c-.54-1.876-1.755-3.627-2.562-5.409-.225-.534-.8-1.689-.41-1.924.558-.338,1.048.976,1.481,1.735.689,1.209,1.4,2.4,2.1,3.606a13.244,13.244,0,0,1,1.1,1.993Zm-10.966,0a34.951,34.951,0,0,1,.325-4.46c.043-.326-.072-1.363.434-1.363.588,0,.457,1.007.491,1.363.14,1.468.174,2.984.174,4.46ZM40.95,44.2c-2.13-2.152-4.093-4.472-6.2-6.65-.622-.644-1.227-1.3-1.838-1.956-.2-.218-.5-.558-.169-.841s.609.034.847.254c.728.668,1.433,1.35,2.13,2.054,1.623,1.64,3.256,3.3,4.937,4.89.621.587,1.613,1.349,2.192,1.976a3.61,3.61,0,0,1-.053,2.335.061.061,0,0,1-.031.008C42.5,46.272,41.586,44.86,40.95,44.2ZM24.294,46.265c-.19-1.423-.474-2.847-.719-4.27-.06-.333-.4-1.538-.056-1.786.6-.436.87,1.194.965,1.5a22.064,22.064,0,0,1,1.139,4.555Zm-10.39,0c.474-1.518.816-3.1,1.223-4.65.515-1.957,1.077-3.912,1.529-5.884,1.2.039.615,1.666.5,2.467-.384,2.685-.73,5.377-1.07,8.067Zm-5.884,0a20.132,20.132,0,0,1,1.59-3.322c.972-1.954,1.916-3.929,2.894-5.884l.9-1.8c.118-.245.242-.589.518-.7a.972.972,0,0,1,.739.131c-.767,2.373-1.444,4.745-2.156,7.118a28.77,28.77,0,0,0-1.26,4.46ZM.049,41.52a2.651,2.651,0,0,1,.095-1.138c.343-.665,1.255-1.212,1.8-1.708,1.568-1.45,3.165-2.847,4.745-4.287.825-.743,1.633-1.5,2.467-2.245.233-.205.664-.613.987-.324.278.254.115.721-.066.972a27.455,27.455,0,0,1-1.842,2.088c-1.83,2.072-3.687,4.1-5.5,6.169-.5.575-1.018,1.14-1.529,1.708A3.785,3.785,0,0,1,.049,43.8Zm37.3-6.488A12.947,12.947,0,0,1,34.5,32.789l.475-.569a8.5,8.5,0,0,1,1.993,1.234l3.606,2.4a9.768,9.768,0,0,1,2.315,1.613c.3.4.152,1.2.152,1.677A60.125,60.125,0,0,1,37.345,35.032Zm-14.1,4.062a.243.243,0,0,1-.214-.139,1.552,1.552,0,0,1-.1-.327c-.182-.865-.36-1.732-.54-2.6-.036-.174-.074-.348-.118-.552.135-.054.227-.1.324-.128a.364.364,0,0,1,.463.232,2.5,2.5,0,0,1,.08.336q.262,1.281.523,2.562c.01.05.024.1.03.151.031.283-.087.466-.379.466Zm-3.54-.3a.814.814,0,0,1-.017-.192q0-1.256,0-2.513a.4.4,0,0,1,.1-.31h.067c.114,0,.239.009.288-.139a.393.393,0,0,1,.3.4c0,.387,0,.773,0,1.16q0,.638,0,1.276a2.214,2.214,0,0,1-.006.27.388.388,0,0,1-.325.334h-.025A.413.413,0,0,1,19.7,38.789Zm5.434-4.034.393-.2a1.426,1.426,0,0,1,.32.485c.077.147.133.305.213.451.371.675.749,1.348,1.123,2.022.061.111.118.225.183.35a1,1,0,0,1-.755.3A36.36,36.36,0,0,1,25.135,34.755ZM.049,35.067a1.862,1.862,0,0,1,.095-.918c.26-.411,1.005-.7,1.424-.94,1.2-.7,2.407-1.369,3.606-2.073.724-.42,1.424-.877,2.183-1.258.232-.119.637-.315.853-.068.752.891-.895,1.745-1.422,2.145-1.158.908-2.35,1.783-3.511,2.678A39.259,39.259,0,0,1,.049,37.06Zm29.488,1.475c-.046-.062-.09-.125-.134-.188q-.87-1.247-1.738-2.495c-.077-.111-.192-.211-.167-.4l.378-.175c.146.093.284.173.333.353a.612.612,0,0,0,.119.194c.389.51.762,1.034,1.178,1.521a9.8,9.8,0,0,1,.678.975,1.091,1.091,0,0,1,.066.139.605.605,0,0,1-.41.2.274.274,0,0,1-.044,0A.328.328,0,0,1,29.537,36.542Zm-9.63-1.831a.09.09,0,0,1-.037-.065,5.878,5.878,0,0,1-.078-.955c.015-.23.031-.459.025-.688-.011-.436-.039-.872-.054-1.308a1.38,1.38,0,0,1,.028-.342.269.269,0,0,1,.25-.209,1.775,1.775,0,0,1,.056.249q.035.5.058,1,.049,1.038.091,2.075a.463.463,0,0,1-.01.189c-.022.052-.08.12-.128.124H20.1A.522.522,0,0,1,19.907,34.711Zm12.183-.065q-1.343-1.306-2.683-2.617a.633.633,0,0,1-.07-.145L29.7,31.6a1.354,1.354,0,0,1,.2.115q1.306,1.088,2.609,2.181a1.153,1.153,0,0,1,.087.077.2.2,0,0,1-.006.3c-.134.132-.269.263-.412.4A.256.256,0,0,1,32.09,34.645Zm-10.034-.417c-.055-.183-.1-.369-.151-.554-.1-.395-.209-.79-.308-1.186a.487.487,0,0,1,.009-.409h.253c.026.035.049.053.055.075.093.385.183.77.274,1.155q.075.316.152.632c.015.062.034.123.045.186.026.14-.007.209-.111.247a.193.193,0,0,1-.065.012C22.14,34.385,22.088,34.335,22.056,34.229Zm-4.607-.109a.69.69,0,0,1,.018-.19c.125-.658.253-1.314.376-1.972.05-.266.087-.534.131-.8.01-.064.015-.128.031-.19a.211.211,0,0,1,.25-.183.226.226,0,0,1,.191.25c0,.039,0,.077-.006.116q-.088.67-.177,1.34c-.05.37-.091.742-.156,1.109a1.9,1.9,0,0,1-.163.47.588.588,0,0,1-.184.192.2.2,0,0,1-.125.044A.192.192,0,0,1,17.449,34.119Zm7.312-.322q-.489-.96-.974-1.921a1.634,1.634,0,0,1-.08-.175.155.155,0,0,1,.1-.215c.1-.029.2-.041.307-.062a3.971,3.971,0,0,1,.436.771c.149.269.288.544.429.817s.265.521.394.774c-.143.158-.325.131-.47.231C24.841,33.923,24.795,33.864,24.761,33.8Zm-9.52-.113c-.4-.127-.418-.156-.256-.535.253-.59.511-1.178.761-1.769.105-.248.2-.5.3-.752a1.7,1.7,0,0,1,.277-.495.689.689,0,0,1,.407.192.788.788,0,0,1-.031.177q-.642,1.527-1.29,3.052a.768.768,0,0,1-.074.117.78.78,0,0,1-.078.016Zm25.52-1.464a50.957,50.957,0,0,1-4.65-2.183c.272-1.029,1.2-.443,1.9-.172a50.638,50.638,0,0,0,5.03,1.88v1.423A11.174,11.174,0,0,1,40.761,32.22Zm-14.879-.712a.6.6,0,0,1-.039-.184l.357-.145a4.757,4.757,0,0,1,.579.66,2.407,2.407,0,0,1,.513.68c-.063.056-.126.119-.2.172s-.127.082-.212.135C26.538,32.389,26.2,31.957,25.882,31.508Zm-12.925.657.338-.552c.227-.371.452-.743.684-1.111.1-.162.228-.31.33-.473a.287.287,0,0,1,.425-.114h0l-.011-.011h.005a.379.379,0,0,1,.094-.493.268.268,0,0,1,.134-.06.2.2,0,0,1,.228.258.277.277,0,0,1-.03.07c-.041.064-.085.126-.136.2l-.29.026.006.011a.29.29,0,0,1,.04.424c-.431.668-.849,1.343-1.275,2.015a1.047,1.047,0,0,1-.127.138A.839.839,0,0,1,12.957,32.165Zm20.9.071c-.3-.2-.587-.419-.885-.621-.639-.434-1.281-.863-1.921-1.3-.1-.071-.232-.116-.308-.269l.261-.46a1.187,1.187,0,0,1,.226.083q1.5.956,2.989,1.919c.19.123.2.17.085.38a.729.729,0,0,1-.26.356A1.28,1.28,0,0,1,33.86,32.236Zm-12.228-.409a.163.163,0,0,1-.109-.085,2.317,2.317,0,0,1-.165-.727c.09-.032.136-.053.185-.064a.123.123,0,0,1,.156.078,3.86,3.86,0,0,1,.12.519.371.371,0,0,1-.065.211.162.162,0,0,1-.118.07ZM.049,29.848a1.411,1.411,0,0,1,.095-.787c.244-.32.965-.38,1.329-.487,1.2-.339,2.405-.712,3.606-1.072.367-.11,1.2-.532,1.477-.091.542.87-.623,1.266-1.193,1.56-1.78.9-3.547,1.845-5.314,2.775Zm28.179,1.034c-.45-.492-.913-.971-1.4-1.426-.14-.131-.3-.245-.44-.372a4.251,4.251,0,0,1-.329-.322.182.182,0,0,1,0-.245.241.241,0,0,1,.283-.043,1.02,1.02,0,0,1,.149.121q1.041,1.024,2.081,2.05c.082.081.161.167.25.238a.293.293,0,0,1,.124.227c0,.076-.009.1-.173.295C28.577,31.217,28.391,31.06,28.228,30.882Zm-4.85-.26c-.008-.123.1-.2.285-.164l.318.67-.259.184A.81.81,0,0,1,23.378,30.622Zm2.268.45c-.152-.157-.3-.322-.435-.491s-.285-.364-.423-.55a1.247,1.247,0,0,1-.092-.184l.256-.183c.042.016.086.02.109.045.1.1.187.212.276.321q.22.269.435.541a1.156,1.156,0,0,1,.152.22.313.313,0,0,1,.013.185.166.166,0,0,1-.291.095Zm-14.362-.194c-.212-.063-.262-.213-.114-.363q.35-.354.719-.69a.361.361,0,0,1,.2-.078.2.2,0,0,1,.218.124.189.189,0,0,1-.059.209l-.849.813A.513.513,0,0,1,11.284,30.878ZM19.9,30.1a.255.255,0,0,1-.172-.123.463.463,0,0,1-.042-.222c0-.27,0-.54,0-.81h-.013c0-.244,0-.488,0-.732a.688.688,0,0,1,.032-.227.182.182,0,0,1,.189-.106.136.136,0,0,1,.136.114,1.391,1.391,0,0,1,.04.266q.029.751.05,1.5a.417.417,0,0,1-.038.221.257.257,0,0,1-.178.116Zm-5.182-.2h0Zm6.261-.2a1.312,1.312,0,0,1-.046-.187q-.224-1.349-.446-2.7c-.006-.038-.011-.076-.015-.1a.154.154,0,0,1,.135-.175.169.169,0,0,1,.2.071,1.016,1.016,0,0,1,.077.257q.255,1.3.506,2.608c.007.038.021.075.026.113a.192.192,0,0,1-.169.252.306.306,0,0,1-.075.01A.2.2,0,0,1,20.983,29.707Zm1.932.109a.372.372,0,0,1-.074-.032c-.042-.079-.088-.156-.126-.237q-.733-1.548-1.464-3.1c-.087-.186-.167-.375-.244-.565a.233.233,0,0,1,.059-.281.161.161,0,0,1,.263.023c.124.225.241.453.352.684q.709,1.475,1.413,2.952c.028.058.056.115.083.174.147.317.127.381-.191.381Zm-10.563-.15a.5.5,0,0,1,.011-.222c0-.022.029-.042.047-.06.31-.306.62-.61.929-.917a.286.286,0,0,1,.313-.086.523.523,0,0,1,.125.1c-.09.148-.173.288-.262.424a.3.3,0,0,1-.106.11,4.7,4.7,0,0,0-.907.791C12.451,29.76,12.373,29.723,12.351,29.666Zm5.92-.005a.178.178,0,0,1-.073-.2c.063-.235.134-.468.208-.7.01-.032.05-.057.082-.078s.072-.019.272.038a1.946,1.946,0,0,1-.153.848c-.041.1-.1.155-.178.155A.284.284,0,0,1,18.272,29.661Zm16.14-.666c-.431-.17-.861-.342-1.289-.52s-.836-.321-1.268-.529a.989.989,0,0,1,.285-.443.9.9,0,0,1,.18.032q1.815.714,3.627,1.433a.571.571,0,0,1,.1.076,1.176,1.176,0,0,1-.384.44C35.236,29.35,34.828,29.159,34.411,28.994Zm-17.628.384a1.09,1.09,0,0,1,.107-.425.161.161,0,0,1,.192-.086c.091.033.167.13.141.2-.042.118-.1.231-.158.357Zm13.131.017a3.122,3.122,0,0,1-.288-.206.5.5,0,0,1,.261-.342c.077.04.167.081.251.132a.2.2,0,0,1,.068.321.23.23,0,0,1-.193.121A.2.2,0,0,1,29.914,29.4ZM9.69,29.339a.366.366,0,0,1-.2-.344.236.236,0,0,1,.051-.139.452.452,0,0,1,.124-.089l1.866-1.15c.054-.033.113-.059.184-.1a.324.324,0,0,1,.242.285c-.075.065-.158.144-.248.212q-.782.592-1.567,1.18c-.041.031-.084.06-.123.093a.3.3,0,0,1-.2.077A.3.3,0,0,1,9.69,29.339Zm19.64-.354a1.47,1.47,0,0,1-.274-.14q-.839-.546-1.674-1.1c-.082-.054-.156-.123-.245-.194l.294-.359c.17.116.332.217.484.33a15.236,15.236,0,0,0,1.417.925,1.243,1.243,0,0,1,.131.081.286.286,0,0,1,.007.437.153.153,0,0,1-.091.026A.14.14,0,0,1,29.33,28.985Zm-6.872-2.336c.2-.162.2-.167.316-.081a1.626,1.626,0,0,1,.222.209,1.279,1.279,0,0,1,.13.191,8.1,8.1,0,0,0,.85,1.139,1.277,1.277,0,0,1,.308.587l-.22.158A18.867,18.867,0,0,1,22.458,26.648ZM17.31,28.726a.23.23,0,0,1-.192-.169.966.966,0,0,1-.011-.123c.023-.08.047-.166.074-.252.162-.5.324-1,.49-1.5.04-.122.094-.239.145-.357.139-.318.366-.8.506-1.118.064-.146.149-.2.263-.164s.158.147.1.32-.194.481-.251.639q-.433,1.2-.867,2.392c-.026.072-.052.145-.084.215s-.071.124-.141.124A.142.142,0,0,1,17.31,28.726Zm-1.622-.27a1.191,1.191,0,0,1-.158-.12c.118-.194.211-.363.317-.522q.872-1.3,1.749-2.595c.036-.053.071-.108.11-.159s.105-.121.194-.083a.238.238,0,0,1,.143.25.92.92,0,0,1-.1.207q-.89,1.448-1.784,2.895c-.089.144-.145.207-.232.207A.623.623,0,0,1,15.689,28.456Zm2.84.018a.159.159,0,0,1-.058-.131,5.807,5.807,0,0,1,.284-1.423,2.057,2.057,0,0,0,.09-.411c.016-.072.043-.142.071-.232.206.055.286.141.262.317-.074.532-.14,1.066-.209,1.6a1.068,1.068,0,0,1-.019.113.281.281,0,0,1-.272.213A.271.271,0,0,1,18.529,28.474ZM25.359,28H25.35l-.953-.839c-.029-.026-.058-.051-.085-.078-.179-.177-.147-.272.131-.355l.276.256c.244.228.485.458.731.683.162.148.151.21-.067.33a.035.035,0,0,1-.016,0Zm-10.993-.463c.006-.025,0-.056.018-.073q.476-.529.955-1.055a1.1,1.1,0,0,1,.088-.074c.07-.061.144-.118.24-.065.08.045.09.211.025.315a.4.4,0,0,1-.048.061c-.3.316-.6.635-.906.946a.23.23,0,0,1-.153.088C14.523,27.682,14.459,27.634,14.366,27.539Zm5.265-.107a.545.545,0,0,1-.012-.114c-.005-.5-.012-1-.01-1.5a.534.534,0,0,1,.069-.252.206.206,0,0,1,.158-.069.148.148,0,0,1,.1.094,1.085,1.085,0,0,1,.03.265c0,.243,0,.486,0,.729h.036c0,.268,0,.537,0,.806,0,.148-.054.23-.138.246l-.023,0A.257.257,0,0,1,19.631,27.433Zm-7.45-.034a.319.319,0,0,1,.343-.268c.117-.008.169.1.193.221-.06.131-.194.178-.347.266ZM31.2,27.59a.712.712,0,0,1-.217-.077l-3.1-1.307c-.024-.01-.048-.018-.072-.029-.236-.11-.243-.152-.041-.442.146.045.283.077.412.13q1.627.663,3.251,1.333a.438.438,0,0,1,.088.065.244.244,0,0,1-.117.268.334.334,0,0,1-.191.059Zm6.425-1.254c0-.234-.039-.569.22-.7.31-.142.877.036,1.2.077.883.122,1.771.244,2.657.339a2.63,2.63,0,0,1,1.177.207c.28.222.152.9.152,1.217ZM.049,25.2c1-.125,2-.227,3-.325,0-.005,0-.013.009-.023s.077-.009.074.015L4.6,24.723c.4-.059,1.321-.373,1.543.117C6.5,25.61,5.5,25.862,4.984,26c-.621.177-1.243.37-1.867.56l.064.064-.064-.064c-1.016.309-2.037.61-3.067.824Zm8.108,1.515a.6.6,0,0,1,0-.115.706.706,0,0,1,.034-.1c.1-.037.216-.084.335-.124C9.1,26.18,9.678,26,10.25,25.8c.194-.065.382-.15.574-.22s.408-.145.613-.215a.157.157,0,0,1,.186.1,2.679,2.679,0,0,1,.051.271,1.967,1.967,0,0,1-.2.131,6.182,6.182,0,0,1-1.307.558A13.692,13.692,0,0,0,8.622,27a.8.8,0,0,1-.26.064C8.222,27.066,8.173,26.961,8.157,26.712Zm17.893.108a10.665,10.665,0,0,1-1.5-.994c-.223-.17-.444-.342-.679-.524l.095-.24c.05,0,.081-.017.1-.006.8.5,1.621.968,2.419,1.512a1.612,1.612,0,0,1-.1.186.229.229,0,0,1-.186.107A.32.32,0,0,1,26.05,26.82Zm-2.264-.182c-.04-.032-.073-.072-.111-.107-.228-.208-.458-.413-.684-.623a3.7,3.7,0,0,1-.816-.853l.246-.181c.086.068.457.318.53.386.366.343.728.688,1.092,1.033a.225.225,0,0,1,.1.235.207.207,0,0,1-.191.176A.263.263,0,0,1,23.786,26.638Zm-10.222-.195a.5.5,0,0,1,.123-.142,3.784,3.784,0,0,1,.407-.289A16.075,16.075,0,0,0,15.709,24.9c.257-.192.521-.373.785-.555a1.521,1.521,0,0,1,.236-.13.173.173,0,0,1,.207.055.144.144,0,0,1-.026.205c-.136.117-.273.233-.418.338-.374.27-.755.531-1.129.8-.322.233-.634.479-.958.709a4.209,4.209,0,0,1-.495.291.646.646,0,0,1-.189.043h-.01C13.57,26.657,13.5,26.544,13.564,26.443Zm6.9-.178c-.05-.144-.09-.292-.127-.44a.141.141,0,0,1,.119-.2c.126-.033.226,0,.253.1.032.122.045.25.06.337a1.406,1.406,0,0,1,0,.153c-.009.067-.039.124-.113.133l-.042,0A.141.141,0,0,1,20.466,26.264Zm1.753-.054a3.493,3.493,0,0,1-.552-.826c-.024-.066.016-.121.106-.149a3.448,3.448,0,0,1,.69.791.15.15,0,0,1-.122.236A.187.187,0,0,1,22.218,26.21Zm-6.462-.082a.125.125,0,0,1,.04-.167c.069-.052.143-.1.225-.151a.615.615,0,0,1,.121.1.113.113,0,0,1,.013.1.972.972,0,0,1-.175.191.11.11,0,0,1-.069.022A.182.182,0,0,1,15.756,26.128Zm3.274-.051a.245.245,0,0,1-.017-.314.184.184,0,0,1,.144-.087c.045,0,.087.072.123.117.012.016,0,.049,0,.087-.011.128-.055.2-.148.221l-.022,0A.125.125,0,0,1,19.03,26.078Zm17.107-.142c-.685-.117-1.369-.241-2.053-.363a1.855,1.855,0,0,1-.227-.045.5.5,0,0,1-.317-.265.348.348,0,0,1,.083-.357.726.726,0,0,1,.456-.017c.727.094,1.454.195,2.181.294a.734.734,0,0,1,.187.041.2.2,0,0,1,.112.1,1.031,1.031,0,0,1,.031.619.592.592,0,0,1-.19.031A1.5,1.5,0,0,1,36.137,25.935ZM16.261,25.78a.163.163,0,0,1-.007-.24c.261-.263.634-.66.9-.915.114-.108.231-.073.36.049a.618.618,0,0,1-.069.119c-.28.28-.67.7-.954.973a.2.2,0,0,1-.131.067A.134.134,0,0,1,16.261,25.78ZM26.853,25.5a1.773,1.773,0,0,1-.357-.1c-.036-.016-.059-.107-.053-.16a.12.12,0,0,1,.126-.116.4.4,0,0,1,.355.239.3.3,0,0,1,.006.086c-.021.015-.051.052-.074.052Zm6.3-.187a.419.419,0,0,1-.331-.159c-.08-.117-.031-.24.056-.386.135.026.246.043.355.07s.169.1.161.179c-.015.157-.119.3-.231.3Zm-7.174-.09q-1.261-.518-2.519-1.044c-.035-.015-.073-.025-.107-.042-.131-.065-.138-.1-.073-.322a.8.8,0,0,1,.4.089c.284.116.568.234.853.349.5.2,1,.4,1.5.6.081.033.158.076.257.125l-.084.276A.937.937,0,0,1,25.981,25.221Zm-13.364.018c-.136-.011-.2-.094-.193-.283.252-.088.492-.173.733-.254s.508-.172.765-.251a.337.337,0,0,1,.182,0,.129.129,0,0,1,.06.191.548.548,0,0,1-.174.143c-.367.15-.736.3-1.108.432a.451.451,0,0,1-.154.023C12.691,25.245,12.653,25.242,12.617,25.239Zm10.827-.166a.726.726,0,0,1-.369-.32.162.162,0,0,1,.064-.239.924.924,0,0,1,.484.265.193.193,0,0,1,.026.244.145.145,0,0,1-.124.068A.206.206,0,0,1,23.444,25.073ZM7.7,24.916c-.079-.041-.149-.1-.241-.157A2.3,2.3,0,0,1,7.5,24.5a.19.19,0,0,1,.168-.14c.344-.044.687-.09,1.032-.123.166-.016.228.073.189.245a2.078,2.078,0,0,1-.075.214,4.664,4.664,0,0,1-.469.1.524.524,0,0,0-.354.106.192.192,0,0,1-.136.05A.346.346,0,0,1,7.7,24.916Zm22.841-.2a.4.4,0,0,1,.065-.352,1.24,1.24,0,0,1,.523.079,2.56,2.56,0,0,0,.48.053c.142.139.077.265-.008.415A6.324,6.324,0,0,1,30.542,24.718Zm-10.723.191c-.052-.018-.126-.067-.13-.11-.015-.162-.006-.326-.006-.583.124.092.192.117.212.162a.6.6,0,0,1,.026.446.162.162,0,0,1-.1.085Zm.659-.48a.33.33,0,0,1-.027-.182.182.182,0,0,1,.1-.1.109.109,0,0,1,.1.04,1.4,1.4,0,0,1,.258.637l-.2.049C20.614,24.7,20.54,24.567,20.478,24.429Zm-.283.262a.166.166,0,0,1,.076-.113c.055-.021.091.022.093.113-.016.018-.04.07-.078.083a.08.08,0,0,1-.026,0A.069.069,0,0,1,20.195,24.691Zm9.839-.049a.757.757,0,0,1-.188-.033,6.355,6.355,0,0,0-1.241-.253c-.051-.006-.1-.015-.152-.026-.162-.033-.217-.1-.19-.226.033-.155.127-.236.268-.211q.359.064.715.144c.336.075.671.158.988.233.064.1.1.184.036.27a.255.255,0,0,1-.214.1ZM21.1,24.362c.011-.016.05-.031.063-.024a.266.266,0,0,1,.163.23c0,.025-.042.05-.059.068C21.128,24.628,21.031,24.459,21.1,24.362Zm-1.767.261c-.067-.215-.067-.215.1-.5a.387.387,0,0,1,.028.391c-.016.057-.047.11-.117.11Zm-4.935-.3c.018-.1.113-.132.2-.161.379-.122.759-.242,1.137-.367.134-.044.262-.107.4-.15.191-.062.2-.055.3.19a.7.7,0,0,1-.385.213,10.267,10.267,0,0,1-1.629.542A1.025,1.025,0,0,1,14.4,24.319Zm7.261.181c-.147-.174-.288-.352-.457-.561l.207-.154a2.641,2.641,0,0,1,.6.558,1.279,1.279,0,0,1-.148.171.16.16,0,0,1-.1.039A.136.136,0,0,1,21.658,24.5Zm-2.915.033a.111.111,0,0,1-.046-.1,1.347,1.347,0,0,1,.218-.528c.033-.046.129-.048.24-.084a1.356,1.356,0,0,1-.164.613.222.222,0,0,1-.1.105.139.139,0,0,1-.052.009A.236.236,0,0,1,18.743,24.533Zm-9.491-.1a.387.387,0,0,1,.031-.363c.086-.017.184-.039.283-.055.354-.057.709-.113,1.064-.166.257-.038.27-.03.387.2.023.044.037.093.064.162-.089.038-.164.078-.245.1a8.423,8.423,0,0,1-1.2.233.372.372,0,0,1-.06,0A.656.656,0,0,1,9.253,24.431Zm9.074.019c-.028,0-.019-.11-.022-.133a.092.092,0,0,1,.056-.072.877.877,0,0,1,.228.106.2.2,0,0,1-.171.116A.413.413,0,0,1,18.326,24.45Zm-.5-.315a1.878,1.878,0,0,1,.376-.456c.057-.059.143-.048.226.088-.1.128-.2.265-.313.382a.192.192,0,0,1-.135.066A.215.215,0,0,1,17.828,24.134Zm4.357-.04a2.235,2.235,0,0,1-.253-.22c-.03-.029.019-.117.062-.118a.4.4,0,0,1,.333.15.206.206,0,0,1,.022.071.163.163,0,0,1-.137.125A.046.046,0,0,1,22.185,24.094Zm-2.409-.028a.141.141,0,0,1-.095-.1c-.012-.124,0-.251,0-.4a.608.608,0,0,1,.2.036.174.174,0,0,1,.062.132.837.837,0,0,1-.045.261.144.144,0,0,1-.11.07Zm6.791-.216c-.241-.038-.48-.09-.72-.135a.7.7,0,0,1-.152-.023,4.223,4.223,0,0,0-1.286-.223c-.216-.025-.742-.122-.955-.167a.168.168,0,0,1-.145-.2.188.188,0,0,1,.226-.2c.2.025.719.107.922.139.623.1,1.246.194,1.867.3.253.042.5.093.753.156a.38.38,0,0,1,.214.143c.061.1,0,.194-.087.285a.814.814,0,0,1-.094.005A3.611,3.611,0,0,1,26.567,23.849Zm-6.277-.018c-.007-.01.036-.054.062-.093.033.024.083.043.083.061a.374.374,0,0,1-.044.118A.476.476,0,0,1,20.29,23.832Zm-8.24-.072a.185.185,0,0,1,.089-.23,2.338,2.338,0,0,1,.406-.1c.431-.058.863-.1,1.3-.157a2.633,2.633,0,0,1,.7-.074c.072.255.034.314-.161.336a6.627,6.627,0,0,0-.986.145c-.35.1-.708.109-1.058.187a.584.584,0,0,1-.115.01h-.007A.149.149,0,0,1,12.05,23.759Zm5.628.025c-.013-.046.087-.161.13-.139.016.008.045.055.059.064.046.033-.1.12-.115.155C17.706,23.816,17.683,23.8,17.678,23.784Zm2.97-.4c-.067-.08-.055-.11.084-.246a1.047,1.047,0,0,1,.359.323c.064.083.047.128-.089.25A2.44,2.44,0,0,1,20.648,23.382Zm-2.121.05a1.336,1.336,0,0,1,.226-.241.1.1,0,0,1,.1.007.159.159,0,0,1,.031.128.788.788,0,0,1-.333.325C18.536,23.544,18.5,23.468,18.526,23.432Zm.625.2c-.021,0-.056-.051-.051-.068s.047-.042.083-.07l.056.1c-.028.014-.057.04-.083.04Zm3.317-.018a2.893,2.893,0,0,1-.428-.144.124.124,0,0,1-.067-.158c.02-.079.1-.145.166-.119a4.118,4.118,0,0,1,.409.192c.036.02.049.08.082.14-.059.034-.113.091-.154.091Zm-5.178-.09c-.054,0-.108-.083-.166-.131.04-.05.059-.1.088-.1.184-.048.37-.09.556-.125.021,0,.066.041.074.07a.118.118,0,0,1-.026.1.885.885,0,0,1-.52.188Zm-2.352-.221c-.016-.058.032-.139.065-.2.015-.028.062-.04.095-.057a.1.1,0,0,1,.037-.008c.177-.016.71-.117.887-.127a.125.125,0,0,1,.138.1.152.152,0,0,1-.064.166.2.2,0,0,1-.066.036c-.185.04-.728.16-.938.2C15.043,23.388,14.951,23.358,14.937,23.307ZM.049,21.591c1.8,0,3.606.19,5.409.19.075.408.17.882-.211,1.177a1.532,1.532,0,0,1-.931.182,3.721,3.721,0,0,0-.376.01q-.334.044-.677.08a.94.94,0,0,1,.2.07,1.072,1.072,0,0,1-.3-.06c-1.033.1-2.105.155-3.12.155ZM21.62,23.318a1.169,1.169,0,0,1-.515-.236.173.173,0,0,1-.019-.137c.006-.026.062-.067.082-.061q.288.089.57.2c.022.009.027.064.033.08-.011.1-.067.162-.128.162A.087.087,0,0,1,21.62,23.318Zm-3.269-.242A.1.1,0,0,1,18.289,23c-.009-.047.063-.1.1-.076s.034.059.057.1c-.033.018-.063.046-.085.046Zm3.906-.148a.117.117,0,0,1,.055-.158c.036-.011.073-.017.109-.025a2.5,2.5,0,0,1,.257.057.111.111,0,0,1,.064.083.187.187,0,0,1-.053.129.262.262,0,0,1-.159.05A.341.341,0,0,1,22.257,22.928ZM17,22.888a.107.107,0,0,1,.144-.087c.051.013.187.016.144.155-.075.044-.112.081-.154.086h-.015A.136.136,0,0,1,17,22.888Zm20.538-.063v-.759c1.841,0,3.665-.19,5.5-.19V22.92Zm-.981-.142c-1.1-.041-2.206-.089-3.309-.134h-.039c-.1-.006-.221.017-.281-.084a.3.3,0,0,1,.064-.383c.278-.019.584-.045.89-.058.847-.038,1.694-.062,2.54-.109a.756.756,0,0,1,.65.245.9.9,0,0,1-.058.49.467.467,0,0,1-.223.049C36.708,22.7,36.63,22.685,36.553,22.683ZM7.189,22.636a.563.563,0,0,1-.476-.217.886.886,0,0,1,.092-.425.919.919,0,0,1,.464-.026c.642.018,1.283.05,1.925.073.384.013.769.015,1.154.029a.74.74,0,0,1,.412.093.587.587,0,0,1-.022.42,1.616,1.616,0,0,1-.224.032c-1.1.008-2.21.01-3.315.021Zm24.779-.056q-1.755-.023-3.509-.052c-.039,0-.077,0-.116-.005-.092-.01-.191-.034-.226-.123a1.011,1.011,0,0,1-.027-.27c.435-.067,2.318-.092,3.791-.056.088,0,.175.018.253.027a.5.5,0,0,1,.041.434.948.948,0,0,1-.205.045Zm-20.227-.037a.161.161,0,0,1-.17-.127.213.213,0,0,1,.16-.229.794.794,0,0,1,.115,0q1.717-.012,3.434-.024a2.618,2.618,0,0,1,.308.02c.171.019.17.021.187.261a.506.506,0,0,1-.34.06c-.036,0-.072,0-.108,0-.515,0-1.029,0-1.544,0-.231,0-.462-.011-.693,0-.347.011-.693.033-1.04.049q-.114.005-.228.005Zm11.68-.068.056-.28a10.412,10.412,0,0,1,1.78-.118.825.825,0,0,1,.05.161c0,.181-.047.24-.216.24-.4,0-.8,0-1.194-.01a1.165,1.165,0,0,0-.165.013,1.308,1.308,0,0,1-.16.013A.551.551,0,0,1,23.422,22.475Zm-6.238.007v-.007c-.116,0-.231,0-.347,0H16.81a.252.252,0,0,1-.123-.019.174.174,0,0,1-.078-.12.15.15,0,0,1,.068-.119,2.245,2.245,0,0,1,1.023.025c.036.018.082.091.071.114-.023.051-.077.116-.125.121-.068.007-.136.009-.2.009Zm4.661,0c0-.276.029-.323.2-.326.216,0,.433.011.649.022a.14.14,0,0,1,.1.049.212.212,0,0,1,.041.139c-.008.04-.057.074-.09.108a.057.057,0,0,1-.037.009h-.866Zm-.877-.007a.142.142,0,0,1-.094-.1.169.169,0,0,1,.075-.118.5.5,0,0,1,.366-.05c.162.017.182.069.095.273l-.236,0C21.1,22.48,21.036,22.479,20.968,22.474ZM18.149,22.3c.034-.021.054-.043.077-.046.114-.014.228-.023.334-.033.114.088.056.16-.011.242a.929.929,0,0,0-.1,0l-.069,0A.214.214,0,0,1,18.149,22.3Zm8.923.14c-.179,0-.357-.016-.536-.021-.306-.008-.611-.013-.954-.02a.8.8,0,0,1,0-.186c.035-.116.088-.151.191-.149l1.15.024h.057a.849.849,0,0,1,.1,0c.08.008.152.033.158.131a.188.188,0,0,1-.163.22Zm-6.1-.56a1,1,0,0,1,.465-.3c.112-.041.193.024.225.154a.841.841,0,0,1-.493.25H21.16C21.113,21.989,21.049,21.925,20.973,21.882Zm1.271.007c-.006-.009,0-.024-.009-.061a.615.615,0,0,1,.183-.084c.05-.006.106.041.158.067.007,0,.013.03.009.034-.033.033-.065.08-.105.091a.446.446,0,0,1-.111.02A.141.141,0,0,1,22.244,21.888Zm-3.942.039c-.153-.046-.04-.157-.037-.16A1.381,1.381,0,0,1,18.4,21.7c.009.021.026.153.042.189a.56.56,0,0,1-.126.034ZM16.556,21.8a.185.185,0,0,1-.041-.134c0-.018.061-.051.091-.048a.247.247,0,0,1,.252.175.355.355,0,0,1-.172.055A.2.2,0,0,1,16.556,21.8Zm6.785-.251c.033-.04.045-.071.065-.078a3.407,3.407,0,0,1,1.221-.3.941.941,0,0,0,.334-.08.891.891,0,0,1,.374-.056,2.59,2.59,0,0,0,.458-.04c.1-.011.2-.039.3-.041.167,0,.228.075.217.242a.18.18,0,0,1-.152.192c-.139.026-.279.049-.418.074-.316.056-.631.119-.949.167-.356.054-.714.095-1.071.14a.543.543,0,0,1-.069,0A.319.319,0,0,1,23.341,21.548Zm-5.509.2q-.61-.227-1.219-.458c-.261-.1-.285-.133-.325-.482.066-.007.109-.026.137-.013.533.242,1.065.487,1.584.726.046.131-.026.183-.1.233A.28.28,0,0,1,17.832,21.746Zm2.709-.1c-.02-.027-.046-.071-.037-.1a.425.425,0,0,1,.293-.29c.014.093.054.18.027.222a.859.859,0,0,1-.219.187.015.015,0,0,1-.009,0A.087.087,0,0,1,20.542,21.642Zm1.319-.114c-.01-.084.06-.129.138-.144a.143.143,0,0,1,.18.088.1.1,0,0,1-.021.1,1.035,1.035,0,0,1-.184.071C21.934,21.6,21.866,21.568,21.861,21.528Zm-2.967.1a.072.072,0,0,1-.028-.005.93.93,0,0,1-.4-.34.113.113,0,0,1,0-.1.185.185,0,0,1,.114-.08.6.6,0,0,1,.446.408c.006.055-.072.121-.134.121Zm-4.628-.184a.592.592,0,0,1-.211-.088.227.227,0,0,1-.081-.155c0-.072.066-.1.135-.1a.159.159,0,0,1,.038,0l1.094.205.01.2c-.033.02-.054.043-.076.045q-.064,0-.127,0A3.2,3.2,0,0,1,14.266,21.445Zm8.321-.306a1.841,1.841,0,0,1,.654-.278l.137.209c-.026.038-.035.066-.054.075-.068.033-.417.17-.489.192a.279.279,0,0,1-.08.015C22.682,21.352,22.645,21.3,22.586,21.139Zm-9.157.149c-.276-.048-.552-.1-.828-.147-.163-.029-.327-.053-.489-.087a1.52,1.52,0,0,1-.2-.069.383.383,0,0,1,.015-.352.816.816,0,0,1,.192,0c.468.122.934.25,1.4.377.036.01.082.017.1.042a.19.19,0,0,1,.049.131.171.171,0,0,1-.093.106.139.139,0,0,1-.052.009A.591.591,0,0,1,13.43,21.287Zm6.712-.132c.043-.132.1-.259.164-.42.169.107.2.155.149.252a3.584,3.584,0,0,1-.2.308C20.155,21.278,20.12,21.223,20.142,21.156Zm-.445-.281c.007-.027.053-.051.085-.063a.077.077,0,0,1,.067.022c.1.122.065.286-.107.442A.511.511,0,0,1,19.7,20.875Zm1.835.328a.086.086,0,0,1,.091-.123c.03,0,.058.034.113.07a.51.51,0,0,1-.119.1h-.009A.107.107,0,0,1,21.531,21.2Zm5.058.017a.152.152,0,0,1-.093-.211.217.217,0,0,1,.372-.015.475.475,0,0,1,.046.128.332.332,0,0,1-.252.1A.636.636,0,0,1,26.59,21.22Zm-5.612-.007a.121.121,0,0,1-.067-.081c-.028-.116.052-.188.128-.251s.16-.059.255.058a2.3,2.3,0,0,1-.181.254.123.123,0,0,1-.086.025A.255.255,0,0,1,20.978,21.213Zm-1.907-.132c.035-.038.082-.15.11-.169a.381.381,0,0,1,.125.065,1.587,1.587,0,0,1-.052.181C19.222,21.148,19.119,21.1,19.071,21.081Zm8.658-.112c-.058-.206-.033-.281.144-.323a6.6,6.6,0,0,1,1.164-.265,3.467,3.467,0,0,0,.489-.109c.2-.041.406-.067.6-.115A1.757,1.757,0,0,0,30.56,20a2.364,2.364,0,0,1,.817-.207.142.142,0,0,1,.163.132,2.618,2.618,0,0,1,0,.322,33.867,33.867,0,0,1-3.522.813,1.613,1.613,0,0,1-.224.013A.455.455,0,0,1,27.728,20.969Zm-4.187.019c-.017-.011-.021-.044-.039-.086a1.588,1.588,0,0,1,.39-.336c.519-.278,1.031-.569,1.546-.853.09-.049.184-.09.275-.136a.305.305,0,0,1,.356.045c.16.127.156.266-.026.356-.264.13-.533.25-.8.374l-1.545.719C23.652,21.048,23.594,21.022,23.541,20.988Zm-5.361.056c-.19-.169-.383-.336-.564-.515a1.148,1.148,0,0,1-.2-.276c-.015-.029.02-.1.049-.132s.069-.019.1-.018a.117.117,0,0,1,.068.031,9.376,9.376,0,0,1,.737.731l-.117.2C18.226,21.054,18.2,21.058,18.18,21.044Zm2.5-.238c.022-.024.093-.117.115-.142l.05.083c-.022.011-.094.091-.116.1ZM10.3,20.841l-1.2-.179c-.139-.021-.279-.037-.418-.063-.183-.035-.252-.112-.249-.283.005-.282.128-.355.358-.31.527.1,1.055.205,1.582.312.188.038.262.117.241.237-.032.193-.134.288-.286.288Zm3.217-.9c-.077-.031-.133-.079-.109-.173a.17.17,0,0,1,.232-.137c.168.059.331.133.5.2.046.02.084.069.131.077a9.28,9.28,0,0,1,1.28.538c.178.068.176.078.063.348C15.006,20.555,14.1,20.181,13.52,19.945Zm5.32.72a.366.366,0,0,1-.091-.166,14.292,14.292,0,0,0-.623-1.443c-.127-.307-.323-.74-.449-1.048a.153.153,0,0,1-.011-.11.33.33,0,0,1,.118-.137.142.142,0,0,1,.135.03,1.865,1.865,0,0,1,.219.356c.273.635.606,1.4.87,2.038.053.128.088.264.136.41-.053.051-.09.116-.138.126l-.022,0A.238.238,0,0,1,18.84,20.665ZM17,20.683c-.146-.072-.29-.15-.428-.236-.091-.056-.083-.1.037-.276.2.144.49.16.516.5a.762.762,0,0,1-.1.022A.055.055,0,0,1,17,20.683Zm5.468-.075a.123.123,0,0,1-.043-.193,1.9,1.9,0,0,1,.231-.2c.434-.317.868-.633,1.305-.944.166-.118.341-.221.533-.345l.11.246a1.362,1.362,0,0,1-.444.438,13.158,13.158,0,0,0-1.178.857,1.685,1.685,0,0,1-.26.161.2.2,0,0,1-.1.029A.309.309,0,0,1,22.468,20.607Zm-.983-.089a4.121,4.121,0,0,1,.548-.526c.137-.113.255-.251.385-.373s.18-.287.419-.334a.267.267,0,0,1-.081.318c-.26.265-.718.723-.984.981a.161.161,0,0,1-.106.06C21.619,20.645,21.568,20.6,21.485,20.519ZM7.842,20.445c-.146-.016-.324-.031-.5-.057a.2.2,0,0,1-.178-.212.927.927,0,0,1,.045-.261.163.163,0,0,1,.181-.114c.227.032.455.066.68.114a.214.214,0,0,1,.19.278c-.023.183-.1.256-.268.26H7.977C7.943,20.451,7.905,20.448,7.842,20.445Zm11.884-.078a2.117,2.117,0,0,1-.076-.409c0-.293-.035-.586-.05-.88a3.555,3.555,0,0,1,0-.424.151.151,0,0,1,.079-.111c.06-.02.088.041.094.091.012.089.012.179.02.269.03.359.064.717.089,1.076a.817.817,0,0,1-.055.456C19.783,20.405,19.73,20.39,19.726,20.366Zm.83.018a.46.46,0,0,1-.117-.059c.122-.372.352-1.044.468-1.381.243-.7.492-1.4.734-2.1a.291.291,0,0,1,.237-.221.157.157,0,0,1,.195.172.908.908,0,0,1-.05.185c-.374.954-.872,2.239-1.246,3.192a.829.829,0,0,1-.038.108.223.223,0,0,1-.073.085.177.177,0,0,1-.086.022Zm.559-.012a.154.154,0,0,1-.027-.135,6.389,6.389,0,0,1,.333-.564c.381-.606.767-1.208,1.148-1.814a.249.249,0,0,1,.208-.147.72.72,0,0,1,.216.085,1.414,1.414,0,0,1-.339.645c-.208.307-.445.593-.665.892-.106.144-.2.3-.3.444a3.216,3.216,0,0,1-.206.276c-.038.044-.27.325-.35.325A.023.023,0,0,1,21.115,20.373Zm-16.8-.1c-.982-.162-1.96-.357-2.942-.521-.325-.054-1.01-.04-1.234-.316C-.11,19.124.049,18.281.049,17.89c.759.158,1.518.379,2.278.569l1.518.347a5.752,5.752,0,0,1,1.678.443c.308.205.22.731-.019.957a.722.722,0,0,1-.5.157A4.245,4.245,0,0,1,4.319,20.27Zm12.369-.592c-.138-.111-.134-.215,0-.429a1.9,1.9,0,0,1,.542.48.164.164,0,0,1,.036.138c-.02.051-.077.088-.126.139C16.975,19.888,16.827,19.789,16.688,19.678Zm1.218.121c-.209-.291-.415-.585-.62-.879a.771.771,0,0,1-.076-.134c-.026-.06-.041-.123.02-.174s.137-.022.2.057a2.207,2.207,0,0,1,.129.192c.151.252.3.5.448.758a.409.409,0,0,1,.069.356A1.93,1.93,0,0,1,17.907,19.8Zm2.234.013c.076-.662.09-1.331.222-1.987a1.34,1.34,0,0,1,.078-.255.109.109,0,0,1,.094-.047.313.313,0,0,1,.127.067.1.1,0,0,1,.022.071,1.541,1.541,0,0,1-.02.192c-.1.594-.2,1.188-.311,1.781a1.617,1.617,0,0,1-.087.294c-.008.022-.061.026-.111.045A.9.9,0,0,1,20.141,19.812Zm12.432.1.017-.314c.162-.068.321-.149.488-.2.379-.117.763-.219,1.144-.329.326-.094.376-.058.43.363-.242.063-.462.137-.687.174a3.665,3.665,0,0,0-.883.257.563.563,0,0,1-.26.069C32.764,19.926,32.69,19.919,32.572,19.909Zm-13.312,0a.085.085,0,0,1-.063-.028.312.312,0,0,1-.042-.105c-.16-.724-.423-1.8-.582-2.523a.691.691,0,0,1-.014-.076.154.154,0,0,1,.3-.059c.033.1.16.549.179.649.07.377.142.754.2,1.133.047.29.079.582.121.9a.334.334,0,0,1-.036.077.093.093,0,0,1-.065.033Zm-4.116-.3q-.74-.455-1.477-.916c-.392-.246-.784-.493-1.17-.749a1.327,1.327,0,0,1-.217-.226.456.456,0,0,1,.015-.109c.127-.248.205-.275.407-.135.4.278.787.583,1.206.832s.8.6,1.241.843c.179.1.32.249.505.378l-.209.243C15.342,19.712,15.24,19.665,15.145,19.606Zm-2.98-.178A.24.24,0,0,1,12,19.2c0-.127.079-.206.191-.147a6.666,6.666,0,0,0,.838.366c.189.068.184.168-.021.332C12.735,19.645,12.449,19.54,12.166,19.429Zm14.731.079-.117-.366c.23-.155.446-.31.672-.448.316-.194.645-.368.96-.565a10.843,10.843,0,0,1,1.232-.625c.128-.059.256-.117.386-.17s.238-.086.361-.129a.556.556,0,0,1,.248.426.292.292,0,0,1-.017.039.075.075,0,0,1-.024.028q-1.762.9-3.526,1.8a.374.374,0,0,1-.111.023h0C26.944,19.519,26.93,19.514,26.9,19.508Zm8-.627a1.009,1.009,0,0,1,.186-.1c.184-.059.371-.105.557-.158l.48-.136a.687.687,0,0,1,.108.466,3.489,3.489,0,0,1-1.2.3A.489.489,0,0,1,34.894,18.881Zm-11.85.253c-.054-.067-.009-.119.05-.153a.457.457,0,0,1,.111-.031.4.4,0,0,1,.041.111c0,.062,0,.141-.082.146h0A.185.185,0,0,1,23.044,19.134Zm1.707-.18a.185.185,0,0,1,.013-.241.935.935,0,0,1,.207-.161.177.177,0,0,1,.136.019c.027.013.037.06.048.08a.317.317,0,0,1-.2.27.32.32,0,0,1-.136.059A.108.108,0,0,1,24.751,18.954Zm-9.273-.444c-.188-.21-.372-.425-.571-.625-.18-.182-.378-.347-.567-.52a.152.152,0,0,1,.048-.273.238.238,0,0,1,.313.059c.372.391.984,1,1.355,1.393a.286.286,0,0,1,.013.434A2.216,2.216,0,0,1,15.478,18.51Zm-4.794.389a1.441,1.441,0,0,1-.217-.077L8,17.845c-.048-.019-.1-.036-.142-.058a.546.546,0,0,1-.293-.569c.014-.059.095-.1.145-.153.1.037.191.063.273.1q1.362.584,2.724,1.171c.047.02.095.04.14.064.081.042.166.092.153.2a.342.342,0,0,1-.163.289.2.2,0,0,1-.091.019A.268.268,0,0,1,10.684,18.9Zm12.653-.113c-.015-.011-.014-.046-.016-.07a.054.054,0,0,1,.011-.036,4.316,4.316,0,0,1,.744-.767.14.14,0,0,1,.1,0c.018.005.027.038.05.073a.431.431,0,0,1-.059.125q-.312.337-.634.665a.166.166,0,0,1-.1.047h0A.174.174,0,0,1,23.337,18.786Zm13.7-.1a.431.431,0,0,1,.119-.669,9.062,9.062,0,0,1,1.9-.585c.54-.154,1.077-.32,1.613-.485.78-.24,1.573-.5,2.372-.667,0,.319.095.9-.1,1.165s-.757.274-1.041.354l-2.942.664a7.213,7.213,0,0,1-1.515.348A.56.56,0,0,1,37.036,18.683Zm-17.47-.847c-.031-.392.019-.739-.029-.991a.144.144,0,0,1,.008-.075c.032-.08.083-.127.2-.067.025.326.055.9.076,1.239a.4.4,0,0,1-.037.184c-.017.036-.067.057-.1.086A.538.538,0,0,1,19.566,17.836Zm-3.005.32c-.021-.006-.343-.545-.359-.564q-.877-1.076-1.755-2.151a.779.779,0,0,1-.2-.41.225.225,0,0,1,.061-.168.159.159,0,0,1,.212.007.788.788,0,0,1,.125.145,5.91,5.91,0,0,0,.792.942,2.359,2.359,0,0,1,.263.331c.251.326.81,1.161,1.058,1.489a2.1,2.1,0,0,1,.136.242c-.058.064-.1.137-.159.166a.079.079,0,0,1-.034.007A.594.594,0,0,1,16.561,18.156ZM26,18.127c-.118,0-.213-.079-.28-.243a7.847,7.847,0,0,1,.939-.871c.559-.414,1.122-.822,1.684-1.232.052-.038.1-.078.157-.112a.334.334,0,0,1,.491.124.262.262,0,0,1-.047.318,1.715,1.715,0,0,1-.182.143l-2.345,1.7a.583.583,0,0,1-.127.087.87.87,0,0,1-.285.08Zm-2.93-.62c-.1-.04-.158-.127-.123-.2a.145.145,0,0,1,.078-.073.228.228,0,0,1,.251.171c0,.012-.007.024-.012.035a.144.144,0,0,1-.134.076A.161.161,0,0,1,23.072,17.507Zm1.718-.244a1.629,1.629,0,0,1,.386-.545c.135-.172.276-.339.425-.5s.248-.36.445-.461a.35.35,0,0,1,.259.267,9.544,9.544,0,0,1-1.283,1.409ZM4.6,17.038c-1.495-.465-3.037-1.014-4.555-1.331V13.43c.786.414,1.56.851,2.333,1.289.831.471,1.662.943,2.507,1.389.315.169,1.518.556,1.225,1.088a.414.414,0,0,1-.385.191A4.144,4.144,0,0,1,4.6,17.038Zm12.774.292c-.083,0-.323-.408-.334-.506a.206.206,0,0,1,.2-.219c.087,0,.334.44.341.552.005.085-.094.167-.209.173Zm3.158-.1a.141.141,0,0,1-.085-.156c.006-.063.133-.416.155-.475a.172.172,0,0,1,.209-.123c.091.022.006.379,0,.521a.86.86,0,0,1-.041.165.174.174,0,0,1-.161.081A.191.191,0,0,1,20.537,17.23Zm10.7-.036c-.008-.073-.043-.156-.016-.193.141-.193.235-.425.473-.539q1.217-.584,2.426-1.185a.373.373,0,0,1,.431.017c.061.046.127.086.193.13a.436.436,0,0,1-.285.526q-.92.446-1.837.9a2.255,2.255,0,0,0-.208.1,1.64,1.64,0,0,1-.887.271A1.735,1.735,0,0,1,31.236,17.193Zm-20.131-.087A1.265,1.265,0,0,1,10.9,17l-2.36-1.4c-.033-.02-.067-.038-.1-.06-.158-.108-.187-.186-.131-.357.09-.272.21-.322.455-.167.565.358,1.125.725,1.688,1.085.281.18.568.352.848.536a.9.9,0,0,1,.157.161.319.319,0,0,1-.292.312A.176.176,0,0,1,11.105,17.106ZM14,17.013c-.232-.183-.468-.363-.687-.561a.24.24,0,0,1,.023-.4.168.168,0,0,1,.244-.008c.243.23.482.464.713.7a.192.192,0,0,1,.027.176c-.031.06-.107.1-.164.145A.6.6,0,0,1,14,17.013Zm-8.162-.451.095.095Zm-2.752,0,.095.095Zm13.73-.2c-.133-.22-.261-.443-.384-.668q-.26-.473-.51-.951c-.1-.194-.194-.391-.285-.59-.069-.151,0-.255.208-.247.03.019.112.045.147.1a2.992,2.992,0,0,1,.336.6c.13.382.373.7.532,1.067.077.176.171.345.254.519a.143.143,0,0,1-.062.2.227.227,0,0,1-.117.038A.136.136,0,0,1,16.816,16.362Zm6.874-.009a.21.21,0,0,1-.039-.171,2.713,2.713,0,0,1,.205-.415c.266-.44.548-.871.808-1.314.208-.354.395-.721.59-1.083.024-.045.042-.094.068-.138.154-.252.3-.271.526-.064a.389.389,0,0,1,.057.107,1.336,1.336,0,0,1-.065.135c-.333.535-.664,1.072-1,1.6-.283.444-.572.884-.864,1.323a.183.183,0,0,1-.147.1A.181.181,0,0,1,23.69,16.353Zm-5.327.06a1.119,1.119,0,0,1-.064-.145c-.179-.641-.352-1.284-.536-1.924-.088-.306-.2-.6-.3-.907-.028-.085-.057-.17-.081-.256a.346.346,0,0,1-.007-.114.209.209,0,0,1,.178-.176.16.16,0,0,1,.177.116c.151.461.306.921.448,1.385.067.22.1.449.158.672a2.492,2.492,0,0,0,.116.364,3.434,3.434,0,0,1,.2.82.683.683,0,0,1-.018.165Zm1.007-.727a2.487,2.487,0,0,1-.037-.3c-.008-.116-.008-.232-.009-.348q-.01-1.237-.019-2.474c0-.051,0-.1,0-.155,0-.206.133-.237.282-.208a.175.175,0,0,1,.147.158,2.225,2.225,0,0,1,.013.231q.049,1.449.1,2.9c0,.128,0,.256,0,.376a.53.53,0,0,1-.387.164C19.424,15.9,19.391,15.793,19.37,15.686Zm7.074-.3c.251-.259.511-.508.77-.76a1.089,1.089,0,0,1,.14-.1.791.791,0,0,1,.157.1c.165.163.19.269-.024.439-.262.208-.515.427-.775.638a1.667,1.667,0,0,1-.187.117C26.286,15.623,26.271,15.567,26.445,15.388Zm-4.455.265c.062-.2.11-.365.168-.531.2-.582.409-1.162.609-1.744.075-.218.137-.441.207-.66.023-.073.055-.144.081-.216a.287.287,0,0,1,.211-.2c.116-.027.118-.029.324.12L22.4,15.7Zm-1.314-.044a2.189,2.189,0,0,1,.032-.677,3.244,3.244,0,0,1,.072-.414c.041-.2.091-.219.352-.154a.9.9,0,0,1,.006.173c-.045.3-.088.6-.147.9-.027.139-.056.172-.195.172C20.762,15.613,20.723,15.611,20.675,15.608ZM37.06,13.739c.676-.349,1.368-.67,2.048-1.014.269-.136.536-.275.8-.421a16.05,16.05,0,0,1,3.132-1.532c0,.433.163,1.281-.1,1.647-.319.447-1.4.667-1.9.875a36.122,36.122,0,0,1-5.314,2.128C35.3,14.414,36.285,14.139,37.06,13.739Zm-24.779,1.6a.757.757,0,0,1-.165-.1A3.334,3.334,0,0,1,11.4,14.6a1.245,1.245,0,0,0-.225-.21q-.6-.518-1.2-1.035c-.068-.059-.138-.116-.2-.178a.339.339,0,0,1,.081-.568.448.448,0,0,1,.094-.024.51.51,0,0,1,.121.055,2.5,2.5,0,0,1,.2.182l2.025,1.96a.721.721,0,0,1,.157.168.552.552,0,0,1,.059.252.153.153,0,0,1-.157.147A.165.165,0,0,1,12.281,15.335Zm17.392-.319c-.006-.139.118-.139.167-.2s.063-.169.115-.239a.732.732,0,0,1,.2-.175c.829-.517,1.66-1.03,2.49-1.547a.879.879,0,0,1,.436-.136.346.346,0,0,1,.34.207.383.383,0,0,1-.083.426,1.509,1.509,0,0,1-.223.151q-1.24.744-2.483,1.486c-.2.117-.405.218-.628.337ZM6.217,15.1A17.339,17.339,0,0,1,4.13,14.054c-.949-.526-1.91-.972-2.847-1.478-.342-.19-.918-.359-1.139-.7a1.792,1.792,0,0,1-.095-.912V8.97A10.9,10.9,0,0,1,2.042,10.4q1.851,1.414,3.7,2.836c.38.3,1.917,1.111,1.366,1.735a.63.63,0,0,1-.49.218A1.06,1.06,0,0,1,6.217,15.1Zm-3.835-.386-.056-.056.056.056ZM21.05,14.04a.159.159,0,0,1-.133-.163.548.548,0,0,1,0-.115q.085-.628.173-1.256a.519.519,0,0,1,.018-.075.164.164,0,0,1,.164-.133.183.183,0,0,1,.185.11.437.437,0,0,1,.032.113.443.443,0,0,1,0,.073,8.784,8.784,0,0,0-.154,1.1.9.9,0,0,1-.09.25.16.16,0,0,1-.15.1A.221.221,0,0,1,21.05,14.04Zm7.351-.017c-.023,0-.074-.011-.124-.022-.192-.045-.243-.189-.121-.342a2.09,2.09,0,0,1,.158-.169c.79-.792,1.585-1.579,2.369-2.377.228-.232.363-.244.53.051.032.056.069.108.1.163a.24.24,0,0,1-.037.316l-.371.392c-.363.382-.508.382-.873.762a3.094,3.094,0,0,1-.55.525c-.047.034-.276.261-.329.306-.187.157-.231.1-.416.264a.379.379,0,0,1-.309.13ZM13.1,13.9c-.316-.337-.624-.682-.933-1.025a.4.4,0,0,1-.049-.1.574.574,0,0,1,.158-.348.168.168,0,0,1,.268-.027q.533.632,1.052,1.277a.161.161,0,0,1-.05.236.4.4,0,0,1-.23.092A.293.293,0,0,1,13.1,13.9Zm1.638-1.017c-.182-.326-.354-.657-.542-.98-.33-.566-.671-1.127-1-1.692-.076-.129-.189-.251-.129-.453l.292-.13a.272.272,0,0,1,.074.033,3.345,3.345,0,0,1,.657,1.08,11.658,11.658,0,0,0,.643,1.141c.183.294.343.6.527.93a.844.844,0,0,1-.167.18.278.278,0,0,1-.141.045A.249.249,0,0,1,14.737,12.879ZM33.9,12.86c-.454-.323-.069-.795.223-1.033.873-.706,1.771-1.38,2.657-2.066l2.467-1.92c1.234-.95,2.437-1.949,3.7-2.858a3.616,3.616,0,0,1-.057,2.342,7.146,7.146,0,0,1-1.746,1.2c-1.423.943-2.857,1.841-4.27,2.784-.69.46-1.386.917-2.088,1.36a1.367,1.367,0,0,1-.645.264A.414.414,0,0,1,33.9,12.86Zm5.158-.19.055.055Zm-27.142-.287a.428.428,0,0,1-.1-.062c-.181-.164-.365-.324-.539-.5A.256.256,0,0,1,11.3,11.4a1.74,1.74,0,0,1,.234-.137c.053.027.112.038.138.074q.276.37.539.75a.166.166,0,0,1-.029.212.277.277,0,0,1-.2.1A.164.164,0,0,1,11.911,12.384Zm14.315-.031c-.135,0-.206-.079-.211-.219a.713.713,0,0,1,.069-.41c.556-.958,1.1-1.919,1.65-2.872.273-.128.432.063.622.117.136.038.2.152.267.294-.041.076-.083.169-.138.252-.539.8-1.082,1.6-1.619,2.4a1.179,1.179,0,0,1-.384.372.531.531,0,0,1-.253.065Zm-17.721,0a1.2,1.2,0,0,1-.674-.324c-.7-.555-1.329-1.2-1.993-1.784C4.5,9.079,3.262,7.8,1.947,6.6a7.357,7.357,0,0,1-1.8-1.715A2.167,2.167,0,0,1,.049,3.94v-1.9A30.845,30.845,0,0,1,3.007,5.268C4.348,6.751,5.815,8.125,7.126,9.634c.5.581,1.114,1.084,1.559,1.708.181.241.448.62.155.879a.5.5,0,0,1-.336.131Zm8.185-.892c-.254-.824-.5-1.649-.75-2.474a2.172,2.172,0,0,1-.062-.223.242.242,0,0,1,.152-.314c.281-.139.433-.218.547.225.235.909.483,1.814.726,2.722a1.4,1.4,0,0,1,.042.187.178.178,0,0,1-.132.207c-.1.03-.2.049-.273.067C16.741,11.772,16.733,11.6,16.689,11.46Zm6.773-.263a.253.253,0,0,1-.015-.29c.174-.415.345-.832.517-1.248s.343-.832.516-1.248a2.625,2.625,0,0,1,.109-.247.2.2,0,0,1,.259-.107.81.81,0,0,1,.44.243c-.044.113-.082.221-.128.325q-.514,1.165-1.032,2.329c-.026.059-.054.117-.08.175a.318.318,0,0,1-.238.177.37.37,0,0,1-.086.01A.359.359,0,0,1,23.461,11.2Zm-4.078-.006a1.165,1.165,0,0,1-.035-.227q-.067-.96-.13-1.921c-.026-.4-.052-.794-.076-1.191-.007-.115-.006-.231,0-.346a.146.146,0,0,1,.137-.158c.037,0,.074,0,.111,0a.707.707,0,0,1,.342.045.408.408,0,0,1,.3.475c0,.077-.018.153-.025.23s-.012.154-.018.23h0q-.092,1.229-.185,2.458c-.01.128-.028.255-.045.382a.157.157,0,0,1-.152.146h-.019A.216.216,0,0,1,19.384,11.192Zm1.857-.308c.028-.306.057-.612.1-.915.1-.671.22-1.341.331-2.012,0-.025.006-.051.012-.076a.214.214,0,0,1,.206-.19c.138,0,.476.152.481.29a.928.928,0,0,1-.006.154c-.029.228-.055.457-.093.684-.051.3-.116.6-.168.907-.038.227-.061.456-.1.684-.028.177-.067.352-.1.531-.082.049-.389.052-.469.089a.171.171,0,0,1-.071.017A.133.133,0,0,1,21.241,10.883ZM31.4,10.51c-.421-.4.042-.782.349-1.066.712-.684,1.394-1.394,2.088-2.088,1.725-1.725,3.4-3.5,5.125-5.22L40.287.808a2.747,2.747,0,0,1,.854-.7,6.061,6.061,0,0,1,1.9-.057,5.045,5.045,0,0,1-.057,1.518c-.135.357-.521.6-.8.854-.595.523-1.2,1.044-1.8,1.559q-2.766,2.376-5.5,4.8c-.569.482-1.139.975-1.708,1.463a1.892,1.892,0,0,1-1.105.581A.941.941,0,0,1,31.4,10.51Zm-21.841-.4a22.766,22.766,0,0,1-1.684-1.9C6.234,6.321,4.545,4.475,2.88,2.611A9.137,9.137,0,0,1,.808.049H2.516A2.161,2.161,0,0,1,3.34.106c.25.11.408.4.565.607.32.44.647.886.97,1.329C6.076,3.69,7.31,5.317,8.5,6.977c.527.738,1.095,1.446,1.613,2.183.19.268.5.675.282,1.014a.355.355,0,0,1-.31.177A.892.892,0,0,1,9.555,10.108Zm1.028-2.847C8.965,4.847,7.166,2.521,5.648.049h1.8a2.057,2.057,0,0,1,.817.057c.417.2.7,1.082.92,1.461.746,1.359,1.483,2.725,2.235,4.081.393.727.814,1.45,1.205,2.183.137.285.347.7.079.975a.645.645,0,0,1-.465.224C11.544,9.029,10.869,7.689,10.583,7.261Zm17.805.787c-.219-.242-.035-.557.1-.787.407-.664.863-1.323,1.279-1.993.773-1.234,1.6-2.456,2.373-3.7C32.4,1.156,32.75.315,33.205.106a2.071,2.071,0,0,1,.818-.057h1.8A16.557,16.557,0,0,1,33.89,2.611c-1.1,1.383-2.177,2.793-3.283,4.176-.332.415-1,1.537-1.679,1.537A.724.724,0,0,1,28.388,8.049ZM15.043,7.143a5.635,5.635,0,0,1-.5-1.305C13.851,3.91,13.114,2,12.481.049h1.993a31.788,31.788,0,0,0,.968,5.314c.076.421.52,1.579.114,1.912a.272.272,0,0,1-.176.066A.466.466,0,0,1,15.043,7.143Zm9.87-.167a34.378,34.378,0,0,1,1.745-4.518q.08-.208.153-.417c.174-.5.374-1.576.821-1.9a.944.944,0,0,1,.571-.1l.127,0h1.613a8.5,8.5,0,0,1-.922,1.8q-.894,1.568-1.79,3.132a6.442,6.442,0,0,1-1.2,1.936.708.708,0,0,1-.449.135C25.359,7.055,25.123,6.993,24.913,6.977Zm-2.675-.384a.671.671,0,0,1-.415-.186c-.435-.357-.09-1.25,0-1.708a44.5,44.5,0,0,0,.817-4.65h1.993c-.5,1.747-1.044,3.486-1.581,5.22-.128.409-.322,1.324-.81,1.324Zm-3.349-.3c-.376-.268-.239-1.091-.293-1.5-.206-1.569-.135-3.185-.42-4.745h1.9c0,1.585.022,3.166-.095,4.745a6.564,6.564,0,0,1-.03,1.423.438.438,0,0,1-.465.26A1.048,1.048,0,0,1,18.888,6.3Zm7.733-3.874.037.037Z" transform="translate(97.4 0)" fill="url(#radial-gradient)"/>
        <g id="Group_156" data-name="Group 156" transform="translate(32 15.638)">
          <path id="Path_804" data-name="Path 804" d="M104.453,545.409h1.677l3.494,13.715,3.324-13.715h1.693l-4.293,15.747h-1.523Z" transform="translate(-104.453 -545.409)" fill="#101986"/>
          <path id="Path_805" data-name="Path 805" d="M180.295,545.409h7.653v1.332H181.83v5.542h5.779v1.309H181.83v6.254h6.118v1.309h-7.653Z" transform="translate(-168.527 -545.409)" fill="#101986"/>
          <path id="Path_806" data-name="Path 806" d="M245.913,545.409h3.793a5.341,5.341,0,0,1,3.3.943,3.371,3.371,0,0,1,1.247,2.873,4.141,4.141,0,0,1-.785,2.523,4.744,4.744,0,0,1-2.444,1.608,2.968,2.968,0,0,1,1.687,1.01,5.187,5.187,0,0,1,.83,2.105l.926,4.685h-1.637l-.623-3.793a5.226,5.226,0,0,0-1.021-2.607,2.631,2.631,0,0,0-2.07-.8h-1.7v7.2h-1.5Zm1.5,1.377v5.892h1.569a3.985,3.985,0,0,0,2.7-.886,3.005,3.005,0,0,0,1.027-2.4,2.479,2.479,0,0,0-.734-1.958,3.238,3.238,0,0,0-2.2-.649Z" transform="translate(-223.963 -545.409)" fill="#101986"/>
          <path id="Path_807" data-name="Path 807" d="M313.494,545.409h3.635a4.59,4.59,0,0,1,4.109,2.049,10.818,10.818,0,0,1,1.354,5.954,12.74,12.74,0,0,1-.615,4.041,5.39,5.39,0,0,1-1.9,2.777,4.91,4.91,0,0,1-2.952.926h-3.635Zm1.535,1.377v13.038h2.1A3.1,3.1,0,0,0,320.1,558.1a11.5,11.5,0,0,0,.9-5.163,9.039,9.039,0,0,0-.939-4.57,3.167,3.167,0,0,0-2.929-1.576Z" transform="translate(-281.058 -545.409)" fill="#101986"/>
          <path id="Path_808" data-name="Path 808" d="M377.9,545.409h1.508l4.394,15.747H382.09l-1.338-5.441h-4.179l-1.335,5.441h-1.673Zm.727,1.919-1.744,7.111h3.523Z" transform="translate(-331.808 -545.409)" fill="#101986"/>
          <path id="Path_809" data-name="Path 809" d="M448.221,545.409h3.635a4.59,4.59,0,0,1,4.109,2.049,10.819,10.819,0,0,1,1.354,5.954,12.74,12.74,0,0,1-.615,4.041,5.391,5.391,0,0,1-1.9,2.777,4.91,4.91,0,0,1-2.952.926h-3.635Zm1.535,1.377v13.038h2.1a3.1,3.1,0,0,0,2.963-1.728,11.5,11.5,0,0,0,.9-5.163,9.039,9.039,0,0,0-.939-4.57,3.167,3.167,0,0,0-2.929-1.576Z" transform="translate(-394.879 -545.409)" fill="#101986"/>
        </g>
        <g id="Group_160" data-name="Group 160" transform="translate(-72.506 11.907)">
          <g id="Group_1626" data-name="Group 1626" transform="translate(0 1.207)">
            <g id="Group_157" data-name="Group 157">
              <path id="Path_810" data-name="Path 810" d="M117.617,517.811a5.309,5.309,0,0,1-2.726.888,3.774,3.774,0,0,1-2.6-1,5.73,5.73,0,0,1-1.617-2.748,13.424,13.424,0,0,1-.508-3.754,9.912,9.912,0,0,1,1.306-5.366,4.014,4.014,0,0,1,3.547-2.068,4.664,4.664,0,0,1,2.6.881v1.68a3.936,3.936,0,0,0-2.546-1.276,2.811,2.811,0,0,0-2.515,1.67,9.845,9.845,0,0,0-.932,4.738,9.049,9.049,0,0,0,.9,4.262,2.724,2.724,0,0,0,2.458,1.69,4.134,4.134,0,0,0,2.639-1.307Z" transform="translate(-108.161 -500.429)" fill="#101986"/>
              <path id="Path_811" data-name="Path 811" d="M145.053,503.768a3.9,3.9,0,0,1,3.391,2.022,10.513,10.513,0,0,1,1.3,5.682,9.213,9.213,0,0,1-1.338,5.257,3.951,3.951,0,0,1-6.822.026,9.507,9.507,0,0,1-1.317-5.386,10.438,10.438,0,0,1,1.275-5.552A3.949,3.949,0,0,1,145.053,503.768Zm.062,1.286a2.7,2.7,0,0,0-2.566,1.768,11.037,11.037,0,0,0-.825,4.63,9.2,9.2,0,0,0,.861,4.318,2.632,2.632,0,0,0,2.385,1.612,2.665,2.665,0,0,0,2.416-1.659,9.786,9.786,0,0,0,.871-4.51,9.2,9.2,0,0,0-.918-4.63A2.624,2.624,0,0,0,145.116,505.054Z" transform="translate(-129.637 -500.428)" fill="#101986"/>
              <path id="Path_812" data-name="Path 812" d="M178.132,504.259l3.121,7.963,3.105-7.963h1.69v14.465h-1.275v-9.229l.011-2.374q0-.446-.011-1.327a29.631,29.631,0,0,1-1,3.047l-2.524,6.56-2.139-5.513q-.623-1.6-1.485-3.969.135,4.676.135,5.195v7.611h-1.338V504.259Z" transform="translate(-154.151 -500.92)" fill="#101986"/>
              <path id="Path_813" data-name="Path 813" d="M214.318,504.259h1.41v14.465h-1.41Z" transform="translate(-179.251 -500.919)" fill="#101986"/>
              <path id="Path_814" data-name="Path 814" d="M233.8,515.692a10.315,10.315,0,0,0,1.8,1.239,3.172,3.172,0,0,0,1.405.337,2.911,2.911,0,0,0,2.016-.809,2.716,2.716,0,0,0,.887-2.1,2.364,2.364,0,0,0-.581-1.628,6.039,6.039,0,0,0-2.25-1.265q-3.287-1.244-3.287-3.774a3.743,3.743,0,0,1,1.166-2.774,3.847,3.847,0,0,1,2.794-1.146,4.821,4.821,0,0,1,2.758,1v1.876a7.713,7.713,0,0,0-1.488-1.151,2.609,2.609,0,0,0-1.239-.311,2.507,2.507,0,0,0-2.53,2.478,1.993,1.993,0,0,0,.648,1.571,8.769,8.769,0,0,0,2.348,1.272,8.994,8.994,0,0,1,1.654.84,3.317,3.317,0,0,1,1.047,1.2,3.67,3.67,0,0,1,.42,1.772,4.354,4.354,0,0,1-4.334,4.385,5.694,5.694,0,0,1-3.235-1.192Z" transform="translate(-195.144 -500.429)" fill="#101986"/>
              <path id="Path_815" data-name="Path 815" d="M265.987,504.259h1.41v14.465h-1.41Z" transform="translate(-216.588 -500.92)" fill="#101986"/>
              <path id="Path_816" data-name="Path 816" d="M290.4,499.742a3.894,3.894,0,0,1,3.391,2.022,10.507,10.507,0,0,1,1.3,5.682,9.214,9.214,0,0,1-1.338,5.257,3.952,3.952,0,0,1-6.823.026,9.509,9.509,0,0,1-1.317-5.387,10.436,10.436,0,0,1,1.275-5.552A3.949,3.949,0,0,1,290.4,499.742Zm.062,1.286A2.7,2.7,0,0,0,287.9,502.8a11.037,11.037,0,0,0-.824,4.63,9.2,9.2,0,0,0,.86,4.319,2.633,2.633,0,0,0,2.385,1.612,2.665,2.665,0,0,0,2.416-1.659,9.785,9.785,0,0,0,.871-4.51,9.2,9.2,0,0,0-.918-4.63A2.624,2.624,0,0,0,290.464,501.027Zm.519-5.091h1.555l-2.24,3.038h-.871Z" transform="translate(-231.631 -496.402)" fill="#101986"/>
              <path id="Path_817" data-name="Path 817" d="M323.052,504.259l4.286,9.632,1.12,2.541q-.114-3.9-.114-4.033v-8.14H329.6v14.465h-1.41l-4.147-9.28q-.176-.394-.664-1.68l-.5-1.275c-.021.29-.031.46-.031.508l.052,1.12.011,1.607-.031.622v8.378h-1.255V504.259Z" transform="translate(-255.995 -500.92)" fill="#101986"/>
            </g>
          </g>
          <g id="Group_158" data-name="Group 158" transform="translate(78.898 11.073)">
            <path id="Path_818" data-name="Path 818" d="M371.324,504.259h1.709a2.158,2.158,0,0,1,1.932.963,5.088,5.088,0,0,1,.637,2.8,6,6,0,0,1-.289,1.9,2.534,2.534,0,0,1-.892,1.306,2.311,2.311,0,0,1-1.388.435h-1.709Zm.722.647v6.13h.989a1.455,1.455,0,0,0,1.393-.813,5.406,5.406,0,0,0,.426-2.428,4.249,4.249,0,0,0-.441-2.149,1.489,1.489,0,0,0-1.377-.741Z" transform="translate(-370.324 -503.259)" fill="#101986"/>
            <path id="Path_819" data-name="Path 819" d="M405.225,504.259h3.6v.626h-2.877v2.606h2.717v.616h-2.717v2.94h2.877v.616h-3.6Z" transform="translate(-398.794 -503.259)" fill="#101986"/>
          </g>
          <g id="Group_159" data-name="Group 159" transform="translate(94.38 12.073)">
            <path id="Path_820" data-name="Path 820" d="M453.232,504.259h.722v6.778h2.755v.626h-3.477Z" transform="translate(-454.232 -504.259)" fill="#101986"/>
            <path id="Path_821" data-name="Path 821" d="M482,504.259h.709l2.066,7.4h-.807l-.629-2.558h-1.965l-.628,2.558h-.787Zm.342.9-.82,3.344h1.657Z" transform="translate(-476.311 -504.259)" fill="#101986"/>
          </g>
        </g>
      </g>
    </g>
  </g>
</svg>
